<svg width="612" height="119" viewBox="0 0 612 119" fill="none" xmlns="http://www.w3.org/2000/svg">
<rect width="612" height="119" fill="#9B1313"/>
<path d="M183.88 47.56C183.56 47.8267 182.96 48.1867 182.08 48.64C181.227 49.0933 180.173 49.4933 178.92 49.84C177.667 50.1867 176.28 50.3467 174.76 50.32C172.44 50.2667 170.36 49.8533 168.52 49.08C166.707 48.28 165.16 47.2 163.88 45.84C162.627 44.48 161.667 42.92 161 41.16C160.333 39.4 160 37.52 160 35.52C160 33.28 160.333 31.2267 161 29.36C161.693 27.4933 162.667 25.88 163.92 24.52C165.2 23.16 166.72 22.1067 168.48 21.36C170.24 20.6133 172.187 20.24 174.32 20.24C176.293 20.24 178.04 20.5067 179.56 21.04C181.08 21.5733 182.32 22.1467 183.28 22.76L181 28.24C180.333 27.7333 179.44 27.2133 178.32 26.68C177.227 26.12 175.96 25.84 174.52 25.84C173.4 25.84 172.32 26.08 171.28 26.56C170.267 27.0133 169.36 27.6667 168.56 28.52C167.787 29.3733 167.173 30.3733 166.72 31.52C166.267 32.64 166.04 33.8667 166.04 35.2C166.04 36.6133 166.24 37.9067 166.64 39.08C167.067 40.2533 167.667 41.2667 168.44 42.12C169.213 42.9467 170.133 43.5867 171.2 44.04C172.293 44.4933 173.52 44.72 174.88 44.72C176.453 44.72 177.8 44.4667 178.92 43.96C180.04 43.4533 180.893 42.92 181.48 42.36L183.88 47.56ZM193.891 35.32C193.891 33.2933 194.277 31.3733 195.051 29.56C195.824 27.7467 196.891 26.1467 198.251 24.76C199.637 23.3467 201.237 22.24 203.051 21.44C204.864 20.64 206.811 20.24 208.891 20.24C210.944 20.24 212.877 20.64 214.691 21.44C216.504 22.24 218.104 23.3467 219.491 24.76C220.904 26.1467 221.997 27.7467 222.771 29.56C223.571 31.3733 223.971 33.2933 223.971 35.32C223.971 37.4 223.571 39.3467 222.771 41.16C221.997 42.9733 220.904 44.5733 219.491 45.96C218.104 47.32 216.504 48.3867 214.691 49.16C212.877 49.9333 210.944 50.32 208.891 50.32C206.811 50.32 204.864 49.9333 203.051 49.16C201.237 48.3867 199.637 47.32 198.251 45.96C196.891 44.5733 195.824 42.9733 195.051 41.16C194.277 39.3467 193.891 37.4 193.891 35.32ZM199.891 35.32C199.891 36.6267 200.117 37.8533 200.571 39C201.051 40.12 201.704 41.12 202.531 42C203.384 42.8533 204.357 43.52 205.451 44C206.571 44.48 207.784 44.72 209.091 44.72C210.344 44.72 211.504 44.48 212.571 44C213.664 43.52 214.611 42.8533 215.411 42C216.211 41.12 216.837 40.12 217.291 39C217.744 37.8533 217.971 36.6267 217.971 35.32C217.971 33.9867 217.731 32.7467 217.251 31.6C216.797 30.4533 216.157 29.4533 215.331 28.6C214.531 27.72 213.584 27.04 212.491 26.56C211.397 26.08 210.211 25.84 208.931 25.84C207.651 25.84 206.464 26.08 205.371 26.56C204.277 27.04 203.317 27.72 202.491 28.6C201.664 29.4533 201.024 30.4533 200.571 31.6C200.117 32.7467 199.891 33.9867 199.891 35.32ZM235.753 50V19.36H235.793L252.153 42.56L249.673 42L265.993 19.36H266.073V50H260.273V32.44L260.633 35.44L250.673 49.6H250.593L240.353 35.44L241.353 32.68V50H235.753ZM279.683 20.56H299.763V26.16H285.483V32.44H298.123V38.04H285.483V44.4H300.323V50H279.683V20.56ZM321.243 20.56C323.083 20.56 324.723 20.8 326.163 21.28C327.603 21.7333 328.803 22.4 329.763 23.28C330.75 24.1333 331.497 25.1733 332.003 26.4C332.51 27.6 332.763 28.96 332.763 30.48C332.763 31.68 332.577 32.88 332.203 34.08C331.857 35.28 331.27 36.3733 330.443 37.36C329.643 38.3467 328.577 39.1467 327.243 39.76C325.91 40.3467 324.257 40.64 322.283 40.64H318.123V50H312.323V20.56H321.243ZM322.243 35.04C323.123 35.04 323.857 34.8933 324.443 34.6C325.03 34.3067 325.483 33.9333 325.803 33.48C326.15 33.0267 326.39 32.56 326.523 32.08C326.683 31.5733 326.763 31.1067 326.763 30.68C326.763 30.36 326.71 29.96 326.603 29.48C326.523 28.9733 326.337 28.4667 326.043 27.96C325.75 27.4533 325.297 27.0267 324.683 26.68C324.097 26.3333 323.297 26.16 322.283 26.16H318.123V35.04H322.243ZM327.683 38.64L334.963 50H328.203L320.763 38.8L327.683 38.64ZM366.81 47.56C366.49 47.8267 365.89 48.1867 365.01 48.64C364.156 49.0933 363.103 49.4933 361.85 49.84C360.596 50.1867 359.21 50.3467 357.69 50.32C355.37 50.2667 353.29 49.8533 351.45 49.08C349.636 48.28 348.09 47.2 346.81 45.84C345.556 44.48 344.596 42.92 343.93 41.16C343.263 39.4 342.93 37.52 342.93 35.52C342.93 33.28 343.263 31.2267 343.93 29.36C344.623 27.4933 345.596 25.88 346.85 24.52C348.13 23.16 349.65 22.1067 351.41 21.36C353.17 20.6133 355.116 20.24 357.25 20.24C359.223 20.24 360.97 20.5067 362.49 21.04C364.01 21.5733 365.25 22.1467 366.21 22.76L363.93 28.24C363.263 27.7333 362.37 27.2133 361.25 26.68C360.156 26.12 358.89 25.84 357.45 25.84C356.33 25.84 355.25 26.08 354.21 26.56C353.196 27.0133 352.29 27.6667 351.49 28.52C350.716 29.3733 350.103 30.3733 349.65 31.52C349.196 32.64 348.97 33.8667 348.97 35.2C348.97 36.6133 349.17 37.9067 349.57 39.08C349.996 40.2533 350.596 41.2667 351.37 42.12C352.143 42.9467 353.063 43.5867 354.13 44.04C355.223 44.4933 356.45 44.72 357.81 44.72C359.383 44.72 360.73 44.4667 361.85 43.96C362.97 43.4533 363.823 42.92 364.41 42.36L366.81 47.56ZM378.62 20.56H384.42V50H378.62V20.56ZM394.699 50L407.979 19.4H408.299L421.579 50H414.859L406.379 28.48L410.579 25.6L400.419 50H394.699ZM403.779 39.36H412.619L414.659 44.24H401.979L403.779 39.36ZM431.87 20.56H437.67V44.4H451.51V50H431.87V20.56Z" fill="white"/>
<path d="M245.69 90.59C245.23 90.87 244.7 91.14 244.1 91.4C243.5 91.66 242.84 91.86 242.12 92C241.4 92.16 240.62 92.24 239.78 92.24C238.16 92.24 236.69 91.96 235.37 91.4C234.05 90.82 232.92 90.04 231.98 89.06C231.04 88.06 230.31 86.92 229.79 85.64C229.29 84.34 229.04 82.96 229.04 81.5C229.04 79.94 229.31 78.49 229.85 77.15C230.39 75.81 231.15 74.64 232.13 73.64C233.11 72.64 234.25 71.86 235.55 71.3C236.85 70.74 238.26 70.46 239.78 70.46C240.9 70.46 241.95 70.61 242.93 70.91C243.91 71.21 244.8 71.6 245.6 72.08L244.97 73.43C244.27 72.99 243.48 72.62 242.6 72.32C241.72 72.02 240.79 71.87 239.81 71.87C238.55 71.87 237.36 72.12 236.24 72.62C235.12 73.1 234.13 73.78 233.27 74.66C232.43 75.52 231.77 76.53 231.29 77.69C230.81 78.85 230.57 80.1 230.57 81.44C230.57 82.72 230.78 83.93 231.2 85.07C231.64 86.21 232.26 87.21 233.06 88.07C233.88 88.93 234.86 89.61 236 90.11C237.14 90.59 238.41 90.83 239.81 90.83C240.85 90.83 241.8 90.69 242.66 90.41C243.54 90.11 244.32 89.74 245 89.3L245.69 90.59ZM251.972 92L260.972 69.77H261.092L270.092 92H268.442L260.612 72.11L261.632 71.54L253.442 92H251.972ZM256.322 83.57H265.772L266.192 84.95H255.962L256.322 83.57ZM282.424 70.7C284.484 70.7 286.074 71.13 287.194 71.99C288.334 72.83 288.904 74.2 288.904 76.1C288.904 77.04 288.724 77.9 288.364 78.68C288.004 79.46 287.464 80.1 286.744 80.6C286.044 81.1 285.164 81.42 284.104 81.56L283.954 80.84C285.054 80.92 286.054 81.2 286.954 81.68C287.874 82.14 288.604 82.77 289.144 83.57C289.704 84.35 289.984 85.27 289.984 86.33C289.984 87.29 289.794 88.13 289.414 88.85C289.054 89.55 288.554 90.14 287.914 90.62C287.294 91.08 286.584 91.43 285.784 91.67C284.984 91.89 284.144 92 283.264 92H277.714V70.7H282.424ZM283.114 80.66C284.634 80.66 285.724 80.25 286.384 79.43C287.064 78.61 287.404 77.59 287.404 76.37C287.404 74.85 286.954 73.76 286.054 73.1C285.174 72.44 283.984 72.11 282.484 72.11H279.184V80.66H283.114ZM283.204 90.65C284.164 90.65 285.044 90.5 285.844 90.2C286.644 89.88 287.284 89.4 287.764 88.76C288.244 88.12 288.484 87.33 288.484 86.39C288.484 85.35 288.214 84.52 287.674 83.9C287.134 83.26 286.454 82.8 285.634 82.52C284.814 82.22 283.974 82.07 283.114 82.07H279.184V90.65H283.204ZM298.109 70.7H311.249V72.11H299.579V80.57H310.079V81.98H299.579V90.59H311.669V92H298.109V70.7ZM319.969 70.7H321.439V90.59H333.109V92H319.969V70.7ZM340.745 70.7H342.215V90.59H353.885V92H340.745V70.7ZM359.996 81.38C359.996 79.88 360.276 78.48 360.836 77.18C361.396 75.86 362.176 74.7 363.176 73.7C364.176 72.68 365.326 71.89 366.626 71.33C367.946 70.75 369.356 70.46 370.856 70.46C372.356 70.46 373.766 70.75 375.086 71.33C376.406 71.89 377.566 72.68 378.566 73.7C379.566 74.7 380.346 75.86 380.906 77.18C381.486 78.48 381.776 79.88 381.776 81.38C381.776 82.88 381.486 84.29 380.906 85.61C380.346 86.91 379.566 88.06 378.566 89.06C377.566 90.06 376.406 90.84 375.086 91.4C373.766 91.96 372.356 92.24 370.856 92.24C369.356 92.24 367.946 91.97 366.626 91.43C365.326 90.89 364.176 90.13 363.176 89.15C362.176 88.17 361.396 87.02 360.836 85.7C360.276 84.38 359.996 82.94 359.996 81.38ZM361.496 81.41C361.496 82.71 361.736 83.93 362.216 85.07C362.696 86.21 363.366 87.21 364.226 88.07C365.086 88.93 366.076 89.61 367.196 90.11C368.336 90.59 369.546 90.83 370.826 90.83C372.146 90.83 373.376 90.59 374.516 90.11C375.656 89.61 376.656 88.93 377.516 88.07C378.376 87.21 379.046 86.21 379.526 85.07C380.026 83.93 380.276 82.7 380.276 81.38C380.276 80.08 380.026 78.86 379.526 77.72C379.046 76.56 378.376 75.55 377.516 74.69C376.656 73.81 375.656 73.12 374.516 72.62C373.376 72.12 372.156 71.87 370.856 71.87C369.536 71.87 368.306 72.13 367.166 72.65C366.026 73.15 365.026 73.84 364.166 74.72C363.326 75.6 362.666 76.62 362.186 77.78C361.726 78.92 361.496 80.13 361.496 81.41Z" fill="white"/>
</svg>
