<svg width="39" height="36" viewBox="0 0 39 36" fill="none" xmlns="http://www.w3.org/2000/svg">
<path d="M35.9899 15.7502C34.6747 13.3026 32.7441 11.181 30.3593 9.56271L33.7718 6.42396C34.0013 6.21212 34.1302 5.9248 34.1302 5.62521C34.1302 5.32562 34.0013 5.0383 33.7718 4.82646C33.5423 4.61462 33.231 4.49561 32.9065 4.49561C32.5819 4.49561 32.2706 4.61462 32.0412 4.82646L5.22865 29.5765C5.11442 29.681 5.02375 29.8055 4.96188 29.9426C4.9 30.0796 4.86815 30.2267 4.86815 30.3752C4.86815 30.5237 4.9 30.6708 4.96188 30.8079C5.02375 30.9449 5.11442 31.0694 5.22865 31.174C5.34195 31.2794 5.47674 31.3631 5.62526 31.4202C5.77378 31.4773 5.93307 31.5067 6.09396 31.5067C6.25485 31.5067 6.41415 31.4773 6.56266 31.4202C6.71118 31.3631 6.84598 31.2794 6.95927 31.174L10.7496 27.664C12.9247 28.7484 15.3143 29.4172 17.7756 29.6304C20.237 29.8436 22.7196 29.5969 25.0754 28.9049C27.4311 28.213 29.6117 27.09 31.4869 25.603C33.3622 24.1161 34.8936 22.2956 35.9899 20.2502C36.3586 19.549 36.5502 18.7797 36.5502 18.0002C36.5502 17.2207 36.3586 16.4514 35.9899 15.7502ZM23.6927 15.7502C24.2079 16.6051 24.4072 17.5918 24.2605 18.5606C24.1137 19.5295 23.629 20.4278 22.8796 21.1196C22.1302 21.8114 21.157 22.2588 20.1073 22.3943C19.0577 22.5297 17.9889 22.3457 17.0627 21.8702L23.6927 15.7502ZM33.8083 19.294C31.9427 22.7734 28.666 25.4335 24.6891 26.6972C20.7123 27.9608 16.3561 27.7261 12.5655 26.044L15.2711 23.5465C16.5098 24.346 17.9888 24.767 19.5002 24.7502C21.4396 24.7502 23.2996 24.039 24.6709 22.7732C26.0423 21.5073 26.8127 19.7904 26.8127 18.0002C26.8167 16.6002 26.3434 15.2344 25.4599 14.0965L28.5921 11.2502C30.8073 12.6563 32.6016 14.5564 33.8083 16.774C34.0114 17.1636 34.1169 17.5904 34.1169 18.0227C34.1169 18.4551 34.0114 18.8819 33.8083 19.2715V19.294ZM3.01052 20.2502C3.88456 21.9121 5.0453 23.4319 6.4474 24.7502C6.56023 24.8551 6.69434 24.9385 6.84208 24.9955C6.98981 25.0526 7.14827 25.0822 7.3084 25.0827C7.46854 25.0832 7.62722 25.0546 7.77539 24.9985C7.92355 24.9425 8.0583 24.86 8.17193 24.7558C8.28557 24.6517 8.37586 24.5279 8.43767 24.3915C8.49947 24.2551 8.53157 24.1089 8.53214 23.9611C8.53271 23.8132 8.50172 23.6668 8.44097 23.53C8.38021 23.3932 8.29086 23.2689 8.17802 23.164C6.9654 22.042 5.9571 20.7465 5.19209 19.3277C4.9813 18.9322 4.87169 18.4973 4.87169 18.0565C4.87169 17.6157 4.9813 17.1807 5.19209 16.7852C6.50058 14.3114 8.5357 12.2267 11.0655 10.7687C13.5952 9.31068 16.5179 8.53809 19.5002 8.53896C21.0345 8.5382 22.561 8.73896 24.034 9.13521C24.1899 9.1837 24.3548 9.20256 24.5188 9.19063C24.6829 9.1787 24.8426 9.13625 24.9883 9.06582C25.1341 8.99539 25.2629 8.89844 25.367 8.78083C25.4711 8.66321 25.5483 8.52736 25.594 8.38146C25.6406 8.23891 25.6562 8.08922 25.6397 7.94109C25.6232 7.79295 25.575 7.64931 25.4979 7.5185C25.4208 7.38769 25.3163 7.27231 25.1906 7.17904C25.0648 7.08578 24.9202 7.0165 24.7652 6.97521C20.6001 5.84104 16.1352 6.0992 12.156 7.70425C8.1768 9.3093 4.93836 12.1584 3.01052 15.7502C2.64178 16.4514 2.4502 17.2207 2.4502 18.0002C2.4502 18.7797 2.64178 19.549 3.01052 20.2502Z" fill="#CD1C18"/>
<path d="M19.5 13.5H19.9997C20.159 13.5156 20.32 13.502 20.4736 13.4601C20.6272 13.4183 20.7703 13.3488 20.8948 13.2558C21.0193 13.1629 21.1228 13.0481 21.1992 12.9182C21.2756 12.7883 21.3236 12.6458 21.3403 12.4987C21.3572 12.3517 21.3425 12.2031 21.2972 12.0613C21.2518 11.9195 21.1766 11.7874 21.0758 11.6725C20.9751 11.5575 20.8508 11.4621 20.7101 11.3915C20.5693 11.3209 20.4149 11.2767 20.2556 11.2612H19.5C17.5606 11.2612 15.7006 11.9724 14.3293 13.2383C12.9579 14.5041 12.1875 16.221 12.1875 18.0112V18.6862C12.2178 18.9647 12.3595 19.2227 12.5848 19.41C12.8102 19.5972 13.1031 19.7001 13.4062 19.6987H13.5403C13.7007 19.6833 13.8563 19.6387 13.9979 19.5674C14.1395 19.4962 14.2643 19.3997 14.3652 19.2835C14.4661 19.1673 14.541 19.0339 14.5856 18.8908C14.6302 18.7477 14.6436 18.5979 14.625 18.45V18C14.625 16.8065 15.1386 15.6619 16.0529 14.818C16.9671 13.9741 18.2071 13.5 19.5 13.5Z" fill="#CD1C18"/>
</svg>
