<svg width="1112" height="199" viewBox="0 0 1112 199" fill="none" xmlns="http://www.w3.org/2000/svg">
<mask id="path-1-outside-1_559_679" maskUnits="userSpaceOnUse" x="0" y="0" width="1112" height="199" fill="black">
<rect fill="white" width="1112" height="199"/>
<path d="M6.2 94L37.8 18.7H38.4L69.9 94H58.8L35.2 33.9L42.1 29.4L15.7 94H6.2ZM24.7 66.6H51.6L54.8 75H21.9L24.7 66.6ZM98.5172 94V21.7H118.217C125.351 21.7 131.417 22.8 136.417 25C141.484 27.2 145.551 30.1 148.617 33.7C151.684 37.3 153.917 41.3 155.317 45.7C156.784 50.0333 157.517 54.3667 157.517 58.7C157.517 64.1667 156.551 69.0667 154.617 73.4C152.751 77.7333 150.151 81.4333 146.817 84.5C143.484 87.5667 139.651 89.9333 135.317 91.6C131.051 93.2 126.517 94 121.717 94H98.5172ZM108.217 84.7H119.817C123.817 84.7 127.484 84.1 130.817 82.9C134.217 81.7 137.151 79.9667 139.617 77.7C142.151 75.4333 144.117 72.6667 145.517 69.4C146.917 66.0667 147.617 62.3 147.617 58.1C147.617 53.6333 146.884 49.7333 145.417 46.4C143.951 43 141.951 40.1667 139.417 37.9C136.884 35.6333 134.017 33.9333 130.817 32.8C127.617 31.6 124.251 31 120.717 31H108.217V84.7ZM188.81 94V19.4H188.91L226.81 73.2L222.71 72.4L260.51 19.4H260.71V94H251.11V41.4L251.71 46.3L224.41 84.9H224.21L196.51 46.3L198.21 41.8V94H188.81ZM296.486 21.7H306.186V94H296.486V21.7ZM404.555 96.3L348.655 39.6L351.455 40.3L351.655 94H341.955V19.5H342.455L397.755 76.4L395.455 75.9L395.255 21.7H404.855V96.3H404.555ZM440.646 21.7H450.346V94H440.646V21.7ZM523.515 34.6C521.048 33.3333 518.348 32.2333 515.415 31.3C512.482 30.3667 509.615 29.9 506.815 29.9C502.948 29.9 499.848 30.8 497.515 32.6C495.248 34.4 494.115 36.8 494.115 39.8C494.115 42.0667 494.848 44 496.315 45.6C497.782 47.1333 499.715 48.4667 502.115 49.6C504.515 50.7333 507.015 51.8 509.615 52.8C511.882 53.6667 514.115 54.6333 516.315 55.7C518.515 56.7667 520.482 58.1 522.215 59.7C524.015 61.3 525.415 63.2667 526.415 65.6C527.482 67.9333 528.015 70.8333 528.015 74.3C528.015 78.1 527.048 81.5667 525.115 84.7C523.248 87.8333 520.548 90.3 517.015 92.1C513.482 93.9 509.282 94.8 504.415 94.8C501.215 94.8 498.148 94.4333 495.215 93.7C492.348 92.9667 489.682 92.0333 487.215 90.9C484.748 89.7 482.548 88.4667 480.615 87.2L484.915 79.6C486.515 80.7333 488.348 81.8333 490.415 82.9C492.482 83.9 494.648 84.7333 496.915 85.4C499.182 86 501.382 86.3 503.515 86.3C505.782 86.3 508.015 85.9 510.215 85.1C512.482 84.2333 514.348 82.9333 515.815 81.2C517.282 79.4667 518.015 77.1667 518.015 74.3C518.015 71.8333 517.348 69.8 516.015 68.2C514.748 66.5333 513.048 65.1333 510.915 64C508.782 62.8 506.515 61.7333 504.115 60.8C501.848 59.9333 499.548 59 497.215 58C494.882 56.9333 492.715 55.6667 490.715 54.2C488.715 52.6667 487.115 50.8 485.915 48.6C484.715 46.4 484.115 43.7333 484.115 40.6C484.115 36.8 485.015 33.5 486.815 30.7C488.682 27.8333 491.215 25.6 494.415 24C497.615 22.3333 501.282 21.4333 505.415 21.3C510.082 21.3 514.182 21.8667 517.715 23C521.315 24.1333 524.482 25.5333 527.215 27.2L523.515 34.6ZM553.53 21.7H601.53V31H582.13V94H572.43V31H553.53V21.7ZM651.135 21.7C654.802 21.7 658.168 22.2 661.235 23.2C664.368 24.1333 667.068 25.5667 669.335 27.5C671.668 29.3667 673.468 31.7 674.735 34.5C676.068 37.2333 676.735 40.4333 676.735 44.1C676.735 46.9667 676.302 49.7667 675.435 52.5C674.635 55.2333 673.268 57.7333 671.335 60C669.402 62.2 666.868 64 663.735 65.4C660.668 66.7333 656.868 67.4 652.335 67.4H641.635V94H631.935V21.7H651.135ZM652.135 58.1C655.002 58.1 657.368 57.6667 659.235 56.8C661.168 55.9333 662.668 54.8333 663.735 53.5C664.802 52.1 665.568 50.6 666.035 49C666.502 47.4 666.735 45.9 666.735 44.5C666.735 43.0333 666.468 41.5333 665.935 40C665.468 38.4 664.668 36.9333 663.535 35.6C662.468 34.2667 661.035 33.1667 659.235 32.3C657.502 31.4333 655.368 31 652.835 31H641.635V58.1H652.135ZM664.035 63.6L682.935 94H671.735L652.535 63.9L664.035 63.6ZM705.653 94L737.253 18.7H737.853L769.353 94H758.253L734.653 33.9L741.553 29.4L715.153 94H705.653ZM724.153 66.6H751.053L754.253 75H721.353L724.153 66.6ZM847.164 88.6C845.964 89.4 844.331 90.3 842.264 91.3C840.197 92.3 837.764 93.1333 834.964 93.8C832.231 94.4667 829.231 94.8 825.964 94.8C820.364 94.7333 815.297 93.7333 810.764 91.8C806.297 89.8667 802.497 87.2333 799.364 83.9C796.231 80.5667 793.797 76.7333 792.064 72.4C790.397 68 789.564 63.3333 789.564 58.4C789.564 53 790.431 48.0333 792.164 43.5C793.964 38.9 796.464 34.9333 799.664 31.6C802.864 28.2 806.631 25.5667 810.964 23.7C815.364 21.8333 820.164 20.9 825.364 20.9C829.697 20.9 833.631 21.5 837.164 22.7C840.697 23.8333 843.731 25.2 846.264 26.8L842.364 35.8C840.364 34.4667 837.931 33.2 835.064 32C832.264 30.8 829.131 30.2 825.664 30.2C822.131 30.2 818.797 30.9 815.664 32.3C812.531 33.7 809.764 35.6667 807.364 38.2C804.964 40.7333 803.064 43.7 801.664 47.1C800.331 50.4333 799.664 54.0333 799.664 57.9C799.664 61.8333 800.264 65.5 801.464 68.9C802.731 72.2333 804.497 75.1333 806.764 77.6C809.097 80.0667 811.897 82 815.164 83.4C818.431 84.8 822.097 85.5 826.164 85.5C829.831 85.5 833.097 84.9333 835.964 83.8C838.831 82.6667 841.197 81.4 843.064 80L847.164 88.6ZM878.498 21.7H888.198V94H878.498V21.7ZM919.466 57.9C919.466 52.9 920.4 48.2 922.266 43.8C924.2 39.3333 926.866 35.4 930.266 32C933.666 28.5333 937.566 25.8333 941.966 23.9C946.433 21.9 951.233 20.9 956.366 20.9C961.433 20.9 966.166 21.9 970.566 23.9C975.033 25.8333 978.966 28.5333 982.366 32C985.833 35.4 988.533 39.3333 990.466 43.8C992.4 48.2 993.366 52.9 993.366 57.9C993.366 63.0333 992.4 67.8333 990.466 72.3C988.533 76.7667 985.833 80.7 982.366 84.1C978.966 87.4333 975.033 90.0667 970.566 92C966.166 93.8667 961.433 94.8 956.366 94.8C951.233 94.8 946.433 93.8667 941.966 92C937.566 90.1333 933.666 87.5333 930.266 84.2C926.866 80.8667 924.2 76.9667 922.266 72.5C920.4 68.0333 919.466 63.1667 919.466 57.9ZM929.466 58C929.466 61.8 930.166 65.3667 931.566 68.7C932.966 71.9667 934.9 74.8667 937.366 77.4C939.833 79.9333 942.7 81.9333 945.966 83.4C949.233 84.8 952.766 85.5 956.566 85.5C960.3 85.5 963.8 84.8 967.066 83.4C970.333 81.9333 973.166 79.9333 975.566 77.4C977.966 74.8667 979.866 71.9667 981.266 68.7C982.666 65.3667 983.366 61.7667 983.366 57.9C983.366 54.1 982.666 50.5333 981.266 47.2C979.866 43.8 977.933 40.8333 975.466 38.3C973 35.7667 970.133 33.8 966.866 32.4C963.6 30.9333 960.1 30.2 956.366 30.2C952.566 30.2 949.033 30.9333 945.766 32.4C942.5 33.8667 939.633 35.8667 937.166 38.4C934.7 40.9333 932.8 43.9 931.466 47.3C930.133 50.6333 929.466 54.2 929.466 58ZM971.866 4.59999L959.166 18H953.266L961.566 4.59999H971.866ZM1087.31 96.3L1031.41 39.6L1034.21 40.3L1034.41 94H1024.71V19.5H1025.21L1080.51 76.4L1078.21 75.9L1078.01 21.7H1087.61V96.3H1087.31ZM287.56 194V121.7H307.26C314.393 121.7 320.46 122.8 325.46 125C330.527 127.2 334.593 130.1 337.66 133.7C340.727 137.3 342.96 141.3 344.36 145.7C345.827 150.033 346.56 154.367 346.56 158.7C346.56 164.167 345.593 169.067 343.66 173.4C341.793 177.733 339.193 181.433 335.86 184.5C332.527 187.567 328.693 189.933 324.36 191.6C320.093 193.2 315.56 194 310.76 194H287.56ZM297.26 184.7H308.86C312.86 184.7 316.527 184.1 319.86 182.9C323.26 181.7 326.193 179.967 328.66 177.7C331.193 175.433 333.16 172.667 334.56 169.4C335.96 166.067 336.66 162.3 336.66 158.1C336.66 153.633 335.927 149.733 334.46 146.4C332.993 143 330.993 140.167 328.46 137.9C325.927 135.633 323.06 133.933 319.86 132.8C316.66 131.6 313.293 131 309.76 131H297.26V184.7ZM377.853 121.7H424.853V131H387.553V153H420.853V162.3H387.553V184.7H426.253V194H377.853V121.7ZM513.428 168.4C513.428 171.667 514.195 174.6 515.728 177.2C517.328 179.733 519.428 181.733 522.028 183.2C524.628 184.667 527.561 185.4 530.828 185.4C534.228 185.4 537.261 184.667 539.928 183.2C542.595 181.733 544.695 179.733 546.228 177.2C547.761 174.6 548.528 171.667 548.528 168.4V121.7H558.028V168.7C558.028 173.967 556.795 178.567 554.328 182.5C551.928 186.433 548.661 189.467 544.528 191.6C540.461 193.733 535.895 194.8 530.828 194.8C525.761 194.8 521.195 193.733 517.128 191.6C513.061 189.467 509.828 186.433 507.428 182.5C505.028 178.567 503.828 173.967 503.828 168.7V121.7H513.428V168.4ZM630.273 134.6C627.806 133.333 625.106 132.233 622.173 131.3C619.239 130.367 616.373 129.9 613.573 129.9C609.706 129.9 606.606 130.8 604.273 132.6C602.006 134.4 600.873 136.8 600.873 139.8C600.873 142.067 601.606 144 603.073 145.6C604.539 147.133 606.473 148.467 608.873 149.6C611.273 150.733 613.773 151.8 616.373 152.8C618.639 153.667 620.873 154.633 623.073 155.7C625.273 156.767 627.239 158.1 628.973 159.7C630.773 161.3 632.173 163.267 633.173 165.6C634.239 167.933 634.773 170.833 634.773 174.3C634.773 178.1 633.806 181.567 631.873 184.7C630.006 187.833 627.306 190.3 623.773 192.1C620.239 193.9 616.039 194.8 611.173 194.8C607.973 194.8 604.906 194.433 601.973 193.7C599.106 192.967 596.439 192.033 593.973 190.9C591.506 189.7 589.306 188.467 587.373 187.2L591.673 179.6C593.273 180.733 595.106 181.833 597.173 182.9C599.239 183.9 601.406 184.733 603.673 185.4C605.939 186 608.139 186.3 610.273 186.3C612.539 186.3 614.773 185.9 616.973 185.1C619.239 184.233 621.106 182.933 622.573 181.2C624.039 179.467 624.773 177.167 624.773 174.3C624.773 171.833 624.106 169.8 622.773 168.2C621.506 166.533 619.806 165.133 617.673 164C615.539 162.8 613.273 161.733 610.873 160.8C608.606 159.933 606.306 159 603.973 158C601.639 156.933 599.473 155.667 597.473 154.2C595.473 152.667 593.873 150.8 592.673 148.6C591.473 146.4 590.873 143.733 590.873 140.6C590.873 136.8 591.773 133.5 593.573 130.7C595.439 127.833 597.973 125.6 601.173 124C604.373 122.333 608.039 121.433 612.173 121.3C616.839 121.3 620.939 121.867 624.473 123C628.073 124.133 631.239 125.533 633.973 127.2L630.273 134.6ZM674.776 168.4C674.776 171.667 675.542 174.6 677.076 177.2C678.676 179.733 680.776 181.733 683.376 183.2C685.976 184.667 688.909 185.4 692.176 185.4C695.576 185.4 698.609 184.667 701.276 183.2C703.942 181.733 706.042 179.733 707.576 177.2C709.109 174.6 709.876 171.667 709.876 168.4V121.7H719.376V168.7C719.376 173.967 718.142 178.567 715.676 182.5C713.276 186.433 710.009 189.467 705.876 191.6C701.809 193.733 697.242 194.8 692.176 194.8C687.109 194.8 682.542 193.733 678.476 191.6C674.409 189.467 671.176 186.433 668.776 182.5C666.376 178.567 665.176 173.967 665.176 168.7V121.7H674.776V168.4ZM745.751 194L777.351 118.7H777.951L809.451 194H798.351L774.751 133.9L781.651 129.4L755.251 194H745.751ZM764.251 166.6H791.151L794.351 175H761.451L764.251 166.6ZM857.268 121.7C860.935 121.7 864.301 122.2 867.368 123.2C870.501 124.133 873.201 125.567 875.468 127.5C877.801 129.367 879.601 131.7 880.868 134.5C882.201 137.233 882.868 140.433 882.868 144.1C882.868 146.967 882.435 149.767 881.568 152.5C880.768 155.233 879.401 157.733 877.468 160C875.535 162.2 873.001 164 869.868 165.4C866.801 166.733 863.001 167.4 858.468 167.4H847.768V194H838.068V121.7H857.268ZM858.268 158.1C861.135 158.1 863.501 157.667 865.368 156.8C867.301 155.933 868.801 154.833 869.868 153.5C870.935 152.1 871.701 150.6 872.168 149C872.635 147.4 872.868 145.9 872.868 144.5C872.868 143.033 872.601 141.533 872.068 140C871.601 138.4 870.801 136.933 869.668 135.6C868.601 134.267 867.168 133.167 865.368 132.3C863.635 131.433 861.501 131 858.968 131H847.768V158.1H858.268ZM870.168 163.6L889.068 194H877.868L858.668 163.9L870.168 163.6ZM918.986 121.7H928.686V194H918.986V121.7ZM959.955 157.9C959.955 152.9 960.888 148.2 962.755 143.8C964.688 139.333 967.355 135.4 970.755 132C974.155 128.533 978.055 125.833 982.455 123.9C986.921 121.9 991.721 120.9 996.855 120.9C1001.92 120.9 1006.65 121.9 1011.05 123.9C1015.52 125.833 1019.45 128.533 1022.85 132C1026.32 135.4 1029.02 139.333 1030.95 143.8C1032.89 148.2 1033.85 152.9 1033.85 157.9C1033.85 163.033 1032.89 167.833 1030.95 172.3C1029.02 176.767 1026.32 180.7 1022.85 184.1C1019.45 187.433 1015.52 190.067 1011.05 192C1006.65 193.867 1001.92 194.8 996.855 194.8C991.721 194.8 986.921 193.867 982.455 192C978.055 190.133 974.155 187.533 970.755 184.2C967.355 180.867 964.688 176.967 962.755 172.5C960.888 168.033 959.955 163.167 959.955 157.9ZM969.955 158C969.955 161.8 970.655 165.367 972.055 168.7C973.455 171.967 975.388 174.867 977.855 177.4C980.321 179.933 983.188 181.933 986.455 183.4C989.721 184.8 993.255 185.5 997.055 185.5C1000.79 185.5 1004.29 184.8 1007.55 183.4C1010.82 181.933 1013.65 179.933 1016.05 177.4C1018.45 174.867 1020.35 171.967 1021.75 168.7C1023.15 165.367 1023.85 161.767 1023.85 157.9C1023.85 154.1 1023.15 150.533 1021.75 147.2C1020.35 143.8 1018.42 140.833 1015.95 138.3C1013.49 135.767 1010.62 133.8 1007.35 132.4C1004.09 130.933 1000.59 130.2 996.855 130.2C993.055 130.2 989.521 130.933 986.255 132.4C982.988 133.867 980.121 135.867 977.655 138.4C975.188 140.933 973.288 143.9 971.955 147.3C970.621 150.633 969.955 154.2 969.955 158ZM1102.6 134.6C1100.13 133.333 1097.43 132.233 1094.5 131.3C1091.56 130.367 1088.7 129.9 1085.9 129.9C1082.03 129.9 1078.93 130.8 1076.6 132.6C1074.33 134.4 1073.2 136.8 1073.2 139.8C1073.2 142.067 1073.93 144 1075.4 145.6C1076.86 147.133 1078.8 148.467 1081.2 149.6C1083.6 150.733 1086.1 151.8 1088.7 152.8C1090.96 153.667 1093.2 154.633 1095.4 155.7C1097.6 156.767 1099.56 158.1 1101.3 159.7C1103.1 161.3 1104.5 163.267 1105.5 165.6C1106.56 167.933 1107.1 170.833 1107.1 174.3C1107.1 178.1 1106.13 181.567 1104.2 184.7C1102.33 187.833 1099.63 190.3 1096.1 192.1C1092.56 193.9 1088.36 194.8 1083.5 194.8C1080.3 194.8 1077.23 194.433 1074.3 193.7C1071.43 192.967 1068.76 192.033 1066.3 190.9C1063.83 189.7 1061.63 188.467 1059.7 187.2L1064 179.6C1065.6 180.733 1067.43 181.833 1069.5 182.9C1071.56 183.9 1073.73 184.733 1076 185.4C1078.26 186 1080.46 186.3 1082.6 186.3C1084.86 186.3 1087.1 185.9 1089.3 185.1C1091.56 184.233 1093.43 182.933 1094.9 181.2C1096.36 179.467 1097.1 177.167 1097.1 174.3C1097.1 171.833 1096.43 169.8 1095.1 168.2C1093.83 166.533 1092.13 165.133 1090 164C1087.86 162.8 1085.6 161.733 1083.2 160.8C1080.93 159.933 1078.63 159 1076.3 158C1073.96 156.933 1071.8 155.667 1069.8 154.2C1067.8 152.667 1066.2 150.8 1065 148.6C1063.8 146.4 1063.2 143.733 1063.2 140.6C1063.2 136.8 1064.1 133.5 1065.9 130.7C1067.76 127.833 1070.3 125.6 1073.5 124C1076.7 122.333 1080.36 121.433 1084.5 121.3C1089.16 121.3 1093.26 121.867 1096.8 123C1100.4 124.133 1103.56 125.533 1106.3 127.2L1102.6 134.6Z"/>
</mask>
<path d="M6.2 94L37.8 18.7H38.4L69.9 94H58.8L35.2 33.9L42.1 29.4L15.7 94H6.2ZM24.7 66.6H51.6L54.8 75H21.9L24.7 66.6ZM98.5172 94V21.7H118.217C125.351 21.7 131.417 22.8 136.417 25C141.484 27.2 145.551 30.1 148.617 33.7C151.684 37.3 153.917 41.3 155.317 45.7C156.784 50.0333 157.517 54.3667 157.517 58.7C157.517 64.1667 156.551 69.0667 154.617 73.4C152.751 77.7333 150.151 81.4333 146.817 84.5C143.484 87.5667 139.651 89.9333 135.317 91.6C131.051 93.2 126.517 94 121.717 94H98.5172ZM108.217 84.7H119.817C123.817 84.7 127.484 84.1 130.817 82.9C134.217 81.7 137.151 79.9667 139.617 77.7C142.151 75.4333 144.117 72.6667 145.517 69.4C146.917 66.0667 147.617 62.3 147.617 58.1C147.617 53.6333 146.884 49.7333 145.417 46.4C143.951 43 141.951 40.1667 139.417 37.9C136.884 35.6333 134.017 33.9333 130.817 32.8C127.617 31.6 124.251 31 120.717 31H108.217V84.7ZM188.81 94V19.4H188.91L226.81 73.2L222.71 72.4L260.51 19.4H260.71V94H251.11V41.4L251.71 46.3L224.41 84.9H224.21L196.51 46.3L198.21 41.8V94H188.81ZM296.486 21.7H306.186V94H296.486V21.7ZM404.555 96.3L348.655 39.6L351.455 40.3L351.655 94H341.955V19.5H342.455L397.755 76.4L395.455 75.9L395.255 21.7H404.855V96.3H404.555ZM440.646 21.7H450.346V94H440.646V21.7ZM523.515 34.6C521.048 33.3333 518.348 32.2333 515.415 31.3C512.482 30.3667 509.615 29.9 506.815 29.9C502.948 29.9 499.848 30.8 497.515 32.6C495.248 34.4 494.115 36.8 494.115 39.8C494.115 42.0667 494.848 44 496.315 45.6C497.782 47.1333 499.715 48.4667 502.115 49.6C504.515 50.7333 507.015 51.8 509.615 52.8C511.882 53.6667 514.115 54.6333 516.315 55.7C518.515 56.7667 520.482 58.1 522.215 59.7C524.015 61.3 525.415 63.2667 526.415 65.6C527.482 67.9333 528.015 70.8333 528.015 74.3C528.015 78.1 527.048 81.5667 525.115 84.7C523.248 87.8333 520.548 90.3 517.015 92.1C513.482 93.9 509.282 94.8 504.415 94.8C501.215 94.8 498.148 94.4333 495.215 93.7C492.348 92.9667 489.682 92.0333 487.215 90.9C484.748 89.7 482.548 88.4667 480.615 87.2L484.915 79.6C486.515 80.7333 488.348 81.8333 490.415 82.9C492.482 83.9 494.648 84.7333 496.915 85.4C499.182 86 501.382 86.3 503.515 86.3C505.782 86.3 508.015 85.9 510.215 85.1C512.482 84.2333 514.348 82.9333 515.815 81.2C517.282 79.4667 518.015 77.1667 518.015 74.3C518.015 71.8333 517.348 69.8 516.015 68.2C514.748 66.5333 513.048 65.1333 510.915 64C508.782 62.8 506.515 61.7333 504.115 60.8C501.848 59.9333 499.548 59 497.215 58C494.882 56.9333 492.715 55.6667 490.715 54.2C488.715 52.6667 487.115 50.8 485.915 48.6C484.715 46.4 484.115 43.7333 484.115 40.6C484.115 36.8 485.015 33.5 486.815 30.7C488.682 27.8333 491.215 25.6 494.415 24C497.615 22.3333 501.282 21.4333 505.415 21.3C510.082 21.3 514.182 21.8667 517.715 23C521.315 24.1333 524.482 25.5333 527.215 27.2L523.515 34.6ZM553.53 21.7H601.53V31H582.13V94H572.43V31H553.53V21.7ZM651.135 21.7C654.802 21.7 658.168 22.2 661.235 23.2C664.368 24.1333 667.068 25.5667 669.335 27.5C671.668 29.3667 673.468 31.7 674.735 34.5C676.068 37.2333 676.735 40.4333 676.735 44.1C676.735 46.9667 676.302 49.7667 675.435 52.5C674.635 55.2333 673.268 57.7333 671.335 60C669.402 62.2 666.868 64 663.735 65.4C660.668 66.7333 656.868 67.4 652.335 67.4H641.635V94H631.935V21.7H651.135ZM652.135 58.1C655.002 58.1 657.368 57.6667 659.235 56.8C661.168 55.9333 662.668 54.8333 663.735 53.5C664.802 52.1 665.568 50.6 666.035 49C666.502 47.4 666.735 45.9 666.735 44.5C666.735 43.0333 666.468 41.5333 665.935 40C665.468 38.4 664.668 36.9333 663.535 35.6C662.468 34.2667 661.035 33.1667 659.235 32.3C657.502 31.4333 655.368 31 652.835 31H641.635V58.1H652.135ZM664.035 63.6L682.935 94H671.735L652.535 63.9L664.035 63.6ZM705.653 94L737.253 18.7H737.853L769.353 94H758.253L734.653 33.9L741.553 29.4L715.153 94H705.653ZM724.153 66.6H751.053L754.253 75H721.353L724.153 66.6ZM847.164 88.6C845.964 89.4 844.331 90.3 842.264 91.3C840.197 92.3 837.764 93.1333 834.964 93.8C832.231 94.4667 829.231 94.8 825.964 94.8C820.364 94.7333 815.297 93.7333 810.764 91.8C806.297 89.8667 802.497 87.2333 799.364 83.9C796.231 80.5667 793.797 76.7333 792.064 72.4C790.397 68 789.564 63.3333 789.564 58.4C789.564 53 790.431 48.0333 792.164 43.5C793.964 38.9 796.464 34.9333 799.664 31.6C802.864 28.2 806.631 25.5667 810.964 23.7C815.364 21.8333 820.164 20.9 825.364 20.9C829.697 20.9 833.631 21.5 837.164 22.7C840.697 23.8333 843.731 25.2 846.264 26.8L842.364 35.8C840.364 34.4667 837.931 33.2 835.064 32C832.264 30.8 829.131 30.2 825.664 30.2C822.131 30.2 818.797 30.9 815.664 32.3C812.531 33.7 809.764 35.6667 807.364 38.2C804.964 40.7333 803.064 43.7 801.664 47.1C800.331 50.4333 799.664 54.0333 799.664 57.9C799.664 61.8333 800.264 65.5 801.464 68.9C802.731 72.2333 804.497 75.1333 806.764 77.6C809.097 80.0667 811.897 82 815.164 83.4C818.431 84.8 822.097 85.5 826.164 85.5C829.831 85.5 833.097 84.9333 835.964 83.8C838.831 82.6667 841.197 81.4 843.064 80L847.164 88.6ZM878.498 21.7H888.198V94H878.498V21.7ZM919.466 57.9C919.466 52.9 920.4 48.2 922.266 43.8C924.2 39.3333 926.866 35.4 930.266 32C933.666 28.5333 937.566 25.8333 941.966 23.9C946.433 21.9 951.233 20.9 956.366 20.9C961.433 20.9 966.166 21.9 970.566 23.9C975.033 25.8333 978.966 28.5333 982.366 32C985.833 35.4 988.533 39.3333 990.466 43.8C992.4 48.2 993.366 52.9 993.366 57.9C993.366 63.0333 992.4 67.8333 990.466 72.3C988.533 76.7667 985.833 80.7 982.366 84.1C978.966 87.4333 975.033 90.0667 970.566 92C966.166 93.8667 961.433 94.8 956.366 94.8C951.233 94.8 946.433 93.8667 941.966 92C937.566 90.1333 933.666 87.5333 930.266 84.2C926.866 80.8667 924.2 76.9667 922.266 72.5C920.4 68.0333 919.466 63.1667 919.466 57.9ZM929.466 58C929.466 61.8 930.166 65.3667 931.566 68.7C932.966 71.9667 934.9 74.8667 937.366 77.4C939.833 79.9333 942.7 81.9333 945.966 83.4C949.233 84.8 952.766 85.5 956.566 85.5C960.3 85.5 963.8 84.8 967.066 83.4C970.333 81.9333 973.166 79.9333 975.566 77.4C977.966 74.8667 979.866 71.9667 981.266 68.7C982.666 65.3667 983.366 61.7667 983.366 57.9C983.366 54.1 982.666 50.5333 981.266 47.2C979.866 43.8 977.933 40.8333 975.466 38.3C973 35.7667 970.133 33.8 966.866 32.4C963.6 30.9333 960.1 30.2 956.366 30.2C952.566 30.2 949.033 30.9333 945.766 32.4C942.5 33.8667 939.633 35.8667 937.166 38.4C934.7 40.9333 932.8 43.9 931.466 47.3C930.133 50.6333 929.466 54.2 929.466 58ZM971.866 4.59999L959.166 18H953.266L961.566 4.59999H971.866ZM1087.31 96.3L1031.41 39.6L1034.21 40.3L1034.41 94H1024.71V19.5H1025.21L1080.51 76.4L1078.21 75.9L1078.01 21.7H1087.61V96.3H1087.31ZM287.56 194V121.7H307.26C314.393 121.7 320.46 122.8 325.46 125C330.527 127.2 334.593 130.1 337.66 133.7C340.727 137.3 342.96 141.3 344.36 145.7C345.827 150.033 346.56 154.367 346.56 158.7C346.56 164.167 345.593 169.067 343.66 173.4C341.793 177.733 339.193 181.433 335.86 184.5C332.527 187.567 328.693 189.933 324.36 191.6C320.093 193.2 315.56 194 310.76 194H287.56ZM297.26 184.7H308.86C312.86 184.7 316.527 184.1 319.86 182.9C323.26 181.7 326.193 179.967 328.66 177.7C331.193 175.433 333.16 172.667 334.56 169.4C335.96 166.067 336.66 162.3 336.66 158.1C336.66 153.633 335.927 149.733 334.46 146.4C332.993 143 330.993 140.167 328.46 137.9C325.927 135.633 323.06 133.933 319.86 132.8C316.66 131.6 313.293 131 309.76 131H297.26V184.7ZM377.853 121.7H424.853V131H387.553V153H420.853V162.3H387.553V184.7H426.253V194H377.853V121.7ZM513.428 168.4C513.428 171.667 514.195 174.6 515.728 177.2C517.328 179.733 519.428 181.733 522.028 183.2C524.628 184.667 527.561 185.4 530.828 185.4C534.228 185.4 537.261 184.667 539.928 183.2C542.595 181.733 544.695 179.733 546.228 177.2C547.761 174.6 548.528 171.667 548.528 168.4V121.7H558.028V168.7C558.028 173.967 556.795 178.567 554.328 182.5C551.928 186.433 548.661 189.467 544.528 191.6C540.461 193.733 535.895 194.8 530.828 194.8C525.761 194.8 521.195 193.733 517.128 191.6C513.061 189.467 509.828 186.433 507.428 182.5C505.028 178.567 503.828 173.967 503.828 168.7V121.7H513.428V168.4ZM630.273 134.6C627.806 133.333 625.106 132.233 622.173 131.3C619.239 130.367 616.373 129.9 613.573 129.9C609.706 129.9 606.606 130.8 604.273 132.6C602.006 134.4 600.873 136.8 600.873 139.8C600.873 142.067 601.606 144 603.073 145.6C604.539 147.133 606.473 148.467 608.873 149.6C611.273 150.733 613.773 151.8 616.373 152.8C618.639 153.667 620.873 154.633 623.073 155.7C625.273 156.767 627.239 158.1 628.973 159.7C630.773 161.3 632.173 163.267 633.173 165.6C634.239 167.933 634.773 170.833 634.773 174.3C634.773 178.1 633.806 181.567 631.873 184.7C630.006 187.833 627.306 190.3 623.773 192.1C620.239 193.9 616.039 194.8 611.173 194.8C607.973 194.8 604.906 194.433 601.973 193.7C599.106 192.967 596.439 192.033 593.973 190.9C591.506 189.7 589.306 188.467 587.373 187.2L591.673 179.6C593.273 180.733 595.106 181.833 597.173 182.9C599.239 183.9 601.406 184.733 603.673 185.4C605.939 186 608.139 186.3 610.273 186.3C612.539 186.3 614.773 185.9 616.973 185.1C619.239 184.233 621.106 182.933 622.573 181.2C624.039 179.467 624.773 177.167 624.773 174.3C624.773 171.833 624.106 169.8 622.773 168.2C621.506 166.533 619.806 165.133 617.673 164C615.539 162.8 613.273 161.733 610.873 160.8C608.606 159.933 606.306 159 603.973 158C601.639 156.933 599.473 155.667 597.473 154.2C595.473 152.667 593.873 150.8 592.673 148.6C591.473 146.4 590.873 143.733 590.873 140.6C590.873 136.8 591.773 133.5 593.573 130.7C595.439 127.833 597.973 125.6 601.173 124C604.373 122.333 608.039 121.433 612.173 121.3C616.839 121.3 620.939 121.867 624.473 123C628.073 124.133 631.239 125.533 633.973 127.2L630.273 134.6ZM674.776 168.4C674.776 171.667 675.542 174.6 677.076 177.2C678.676 179.733 680.776 181.733 683.376 183.2C685.976 184.667 688.909 185.4 692.176 185.4C695.576 185.4 698.609 184.667 701.276 183.2C703.942 181.733 706.042 179.733 707.576 177.2C709.109 174.6 709.876 171.667 709.876 168.4V121.7H719.376V168.7C719.376 173.967 718.142 178.567 715.676 182.5C713.276 186.433 710.009 189.467 705.876 191.6C701.809 193.733 697.242 194.8 692.176 194.8C687.109 194.8 682.542 193.733 678.476 191.6C674.409 189.467 671.176 186.433 668.776 182.5C666.376 178.567 665.176 173.967 665.176 168.7V121.7H674.776V168.4ZM745.751 194L777.351 118.7H777.951L809.451 194H798.351L774.751 133.9L781.651 129.4L755.251 194H745.751ZM764.251 166.6H791.151L794.351 175H761.451L764.251 166.6ZM857.268 121.7C860.935 121.7 864.301 122.2 867.368 123.2C870.501 124.133 873.201 125.567 875.468 127.5C877.801 129.367 879.601 131.7 880.868 134.5C882.201 137.233 882.868 140.433 882.868 144.1C882.868 146.967 882.435 149.767 881.568 152.5C880.768 155.233 879.401 157.733 877.468 160C875.535 162.2 873.001 164 869.868 165.4C866.801 166.733 863.001 167.4 858.468 167.4H847.768V194H838.068V121.7H857.268ZM858.268 158.1C861.135 158.1 863.501 157.667 865.368 156.8C867.301 155.933 868.801 154.833 869.868 153.5C870.935 152.1 871.701 150.6 872.168 149C872.635 147.4 872.868 145.9 872.868 144.5C872.868 143.033 872.601 141.533 872.068 140C871.601 138.4 870.801 136.933 869.668 135.6C868.601 134.267 867.168 133.167 865.368 132.3C863.635 131.433 861.501 131 858.968 131H847.768V158.1H858.268ZM870.168 163.6L889.068 194H877.868L858.668 163.9L870.168 163.6ZM918.986 121.7H928.686V194H918.986V121.7ZM959.955 157.9C959.955 152.9 960.888 148.2 962.755 143.8C964.688 139.333 967.355 135.4 970.755 132C974.155 128.533 978.055 125.833 982.455 123.9C986.921 121.9 991.721 120.9 996.855 120.9C1001.92 120.9 1006.65 121.9 1011.05 123.9C1015.52 125.833 1019.45 128.533 1022.85 132C1026.32 135.4 1029.02 139.333 1030.95 143.8C1032.89 148.2 1033.85 152.9 1033.85 157.9C1033.85 163.033 1032.89 167.833 1030.95 172.3C1029.02 176.767 1026.32 180.7 1022.85 184.1C1019.45 187.433 1015.52 190.067 1011.05 192C1006.65 193.867 1001.92 194.8 996.855 194.8C991.721 194.8 986.921 193.867 982.455 192C978.055 190.133 974.155 187.533 970.755 184.2C967.355 180.867 964.688 176.967 962.755 172.5C960.888 168.033 959.955 163.167 959.955 157.9ZM969.955 158C969.955 161.8 970.655 165.367 972.055 168.7C973.455 171.967 975.388 174.867 977.855 177.4C980.321 179.933 983.188 181.933 986.455 183.4C989.721 184.8 993.255 185.5 997.055 185.5C1000.79 185.5 1004.29 184.8 1007.55 183.4C1010.82 181.933 1013.65 179.933 1016.05 177.4C1018.45 174.867 1020.35 171.967 1021.75 168.7C1023.15 165.367 1023.85 161.767 1023.85 157.9C1023.85 154.1 1023.15 150.533 1021.75 147.2C1020.35 143.8 1018.42 140.833 1015.95 138.3C1013.49 135.767 1010.62 133.8 1007.35 132.4C1004.09 130.933 1000.59 130.2 996.855 130.2C993.055 130.2 989.521 130.933 986.255 132.4C982.988 133.867 980.121 135.867 977.655 138.4C975.188 140.933 973.288 143.9 971.955 147.3C970.621 150.633 969.955 154.2 969.955 158ZM1102.6 134.6C1100.13 133.333 1097.43 132.233 1094.5 131.3C1091.56 130.367 1088.7 129.9 1085.9 129.9C1082.03 129.9 1078.93 130.8 1076.6 132.6C1074.33 134.4 1073.2 136.8 1073.2 139.8C1073.2 142.067 1073.93 144 1075.4 145.6C1076.86 147.133 1078.8 148.467 1081.2 149.6C1083.6 150.733 1086.1 151.8 1088.7 152.8C1090.96 153.667 1093.2 154.633 1095.4 155.7C1097.6 156.767 1099.56 158.1 1101.3 159.7C1103.1 161.3 1104.5 163.267 1105.5 165.6C1106.56 167.933 1107.1 170.833 1107.1 174.3C1107.1 178.1 1106.13 181.567 1104.2 184.7C1102.33 187.833 1099.63 190.3 1096.1 192.1C1092.56 193.9 1088.36 194.8 1083.5 194.8C1080.3 194.8 1077.23 194.433 1074.3 193.7C1071.43 192.967 1068.76 192.033 1066.3 190.9C1063.83 189.7 1061.63 188.467 1059.7 187.2L1064 179.6C1065.6 180.733 1067.43 181.833 1069.5 182.9C1071.56 183.9 1073.73 184.733 1076 185.4C1078.26 186 1080.46 186.3 1082.6 186.3C1084.86 186.3 1087.1 185.9 1089.3 185.1C1091.56 184.233 1093.43 182.933 1094.9 181.2C1096.36 179.467 1097.1 177.167 1097.1 174.3C1097.1 171.833 1096.43 169.8 1095.1 168.2C1093.83 166.533 1092.13 165.133 1090 164C1087.86 162.8 1085.6 161.733 1083.2 160.8C1080.93 159.933 1078.63 159 1076.3 158C1073.96 156.933 1071.8 155.667 1069.8 154.2C1067.8 152.667 1066.2 150.8 1065 148.6C1063.8 146.4 1063.2 143.733 1063.2 140.6C1063.2 136.8 1064.1 133.5 1065.9 130.7C1067.76 127.833 1070.3 125.6 1073.5 124C1076.7 122.333 1080.36 121.433 1084.5 121.3C1089.16 121.3 1093.26 121.867 1096.8 123C1100.4 124.133 1103.56 125.533 1106.3 127.2L1102.6 134.6Z" fill="#9B1313"/>
<path d="M6.2 94L2.51162 92.4522L0.183437 98H6.2V94ZM37.8 18.7V14.7H35.1407L34.1116 17.1522L37.8 18.7ZM38.4 18.7L42.0901 17.1563L41.0626 14.7H38.4V18.7ZM69.9 94V98H75.9092L73.5901 92.4563L69.9 94ZM58.8 94L55.0768 95.462L56.0734 98H58.8V94ZM35.2 33.9L33.0149 30.5496L30.2859 32.3294L31.4768 35.362L35.2 33.9ZM42.1 29.4L45.8027 30.9132L50.652 19.0471L39.9149 26.0496L42.1 29.4ZM15.7 94V98H18.3865L19.4027 95.5132L15.7 94ZM24.7 66.6V62.6H21.817L20.9053 65.3351L24.7 66.6ZM51.6 66.6L55.338 65.176L54.3566 62.6H51.6V66.6ZM54.8 75V79H60.6042L58.5379 73.576L54.8 75ZM21.9 75L18.1053 73.7351L16.3503 79H21.9V75ZM9.88838 95.5478L41.4884 20.2478L34.1116 17.1522L2.51162 92.4522L9.88838 95.5478ZM37.8 22.7H38.4V14.7H37.8V22.7ZM34.7099 20.2437L66.2099 95.5437L73.5901 92.4563L42.0901 17.1563L34.7099 20.2437ZM69.9 90H58.8V98H69.9V90ZM62.5232 92.538L38.9232 32.438L31.4768 35.362L55.0768 95.462L62.5232 92.538ZM37.3851 37.2504L44.2851 32.7504L39.9149 26.0496L33.0149 30.5496L37.3851 37.2504ZM38.3973 27.8868L11.9973 92.4868L19.4027 95.5132L45.8027 30.9132L38.3973 27.8868ZM15.7 90H6.2V98H15.7V90ZM24.7 70.6H51.6V62.6H24.7V70.6ZM47.8621 68.024L51.062 76.424L58.5379 73.576L55.338 65.176L47.8621 68.024ZM54.8 71H21.9V79H54.8V71ZM25.6947 76.2649L28.4947 67.8649L20.9053 65.3351L18.1053 73.7351L25.6947 76.2649ZM98.5172 94H94.5172V98H98.5172V94ZM98.5172 21.7V17.7H94.5172V21.7H98.5172ZM136.417 25L134.806 28.6613L134.815 28.6652L134.824 28.669L136.417 25ZM148.617 33.7L151.662 31.1061V31.1061L148.617 33.7ZM155.317 45.7L151.505 46.9128L151.517 46.9477L151.528 46.9824L155.317 45.7ZM154.617 73.4L150.964 71.7702L150.954 71.7938L150.944 71.8175L154.617 73.4ZM146.817 84.5L144.109 81.5563L146.817 84.5ZM135.317 91.6L136.722 95.3453L136.737 95.3394L136.753 95.3334L135.317 91.6ZM108.217 84.7H104.217V88.7H108.217V84.7ZM130.817 82.9L129.486 79.128L129.474 79.1322L129.462 79.1364L130.817 82.9ZM139.617 77.7L136.95 74.719L136.93 74.7367L136.911 74.7547L139.617 77.7ZM145.517 69.4L149.194 70.9757L149.199 70.9623L149.205 70.9489L145.517 69.4ZM145.417 46.4L141.744 47.9844L141.75 47.9977L141.756 48.011L145.417 46.4ZM139.417 37.9L142.084 34.919V34.919L139.417 37.9ZM130.817 32.8L129.413 36.5453L129.447 36.5582L129.482 36.5705L130.817 32.8ZM108.217 31V27H104.217V31H108.217ZM102.517 94V21.7H94.5172V94H102.517ZM98.5172 25.7H118.217V17.7H98.5172V25.7ZM118.217 25.7C124.958 25.7 130.444 26.7418 134.806 28.6613L138.028 21.3387C132.391 18.8582 125.743 17.7 118.217 17.7V25.7ZM134.824 28.669C139.425 30.6667 142.962 33.2302 145.572 36.2939L151.662 31.1061C148.139 26.9698 143.543 23.7333 138.01 21.3309L134.824 28.669ZM145.572 36.2939C148.303 39.4991 150.271 43.032 151.505 46.9128L159.129 44.4872C157.564 39.568 155.065 35.1009 151.662 31.1061L145.572 36.2939ZM151.528 46.9824C152.863 50.9258 153.517 54.8266 153.517 58.7H161.517C161.517 53.9068 160.705 49.1409 159.106 44.4176L151.528 46.9824ZM153.517 58.7C153.517 63.69 152.637 68.022 150.964 71.7702L158.27 75.0298C160.465 70.1113 161.517 64.6433 161.517 58.7H153.517ZM150.944 71.8175C149.29 75.6563 147.011 78.8863 144.109 81.5563L149.525 87.4437C153.29 83.9803 156.211 79.8104 158.291 74.9825L150.944 71.8175ZM144.109 81.5563C141.156 84.2734 137.757 86.3761 133.881 87.8666L136.753 95.3334C141.544 93.4906 145.812 90.86 149.525 87.4437L144.109 81.5563ZM133.913 87.8547C130.119 89.2774 126.063 90 121.717 90V98C126.971 98 131.982 97.1226 136.722 95.3453L133.913 87.8547ZM121.717 90H98.5172V98H121.717V90ZM108.217 88.7H119.817V80.7H108.217V88.7ZM119.817 88.7C124.22 88.7 128.352 88.0388 132.172 86.6636L129.462 79.1364C126.616 80.1612 123.414 80.7 119.817 80.7V88.7ZM132.148 86.672C136.019 85.306 139.43 83.3048 142.324 80.6453L136.911 74.7547C134.871 76.6285 132.416 78.094 129.486 79.128L132.148 86.672ZM142.284 80.681C145.273 78.0074 147.575 74.7538 149.194 70.9757L141.841 67.8243C140.66 70.5795 139.029 72.8593 136.95 74.719L142.284 80.681ZM149.205 70.9489C150.842 67.0524 151.617 62.7469 151.617 58.1H143.617C143.617 61.8531 142.993 65.0809 141.829 67.8511L149.205 70.9489ZM151.617 58.1C151.617 53.2012 150.813 48.7313 149.078 44.789L141.756 48.011C142.955 50.7353 143.617 54.0655 143.617 58.1H151.617ZM149.09 44.8156C147.414 40.9309 145.088 37.6063 142.084 34.919L136.75 40.881C138.813 42.727 140.487 45.0691 141.744 47.9844L149.09 44.8156ZM142.084 34.919C139.163 32.3054 135.844 30.337 132.153 29.0295L129.482 36.5705C132.19 37.5297 134.604 38.9612 136.75 40.881L142.084 34.919ZM132.222 29.0547C128.557 27.6806 124.714 27 120.717 27V35C123.787 35 126.677 35.5194 129.413 36.5453L132.222 29.0547ZM120.717 27H108.217V35H120.717V27ZM104.217 31V84.7H112.217V31H104.217ZM188.81 94H184.81V98H188.81V94ZM188.81 19.4V15.4H184.81V19.4H188.81ZM188.91 19.4L192.18 17.0964L190.985 15.4H188.91V19.4ZM226.81 73.2L226.044 77.126L235.811 79.0317L230.08 70.8964L226.81 73.2ZM222.71 72.4L219.454 70.0774L215.846 75.136L221.944 76.326L222.71 72.4ZM260.51 19.4V15.4H258.45L257.254 17.0774L260.51 19.4ZM260.71 19.4H264.71V15.4H260.71V19.4ZM260.71 94V98H264.71V94H260.71ZM251.11 94H247.11V98H251.11V94ZM251.11 41.4L255.081 40.9138L247.11 41.4H251.11ZM251.71 46.3L254.976 48.6097L255.868 47.3479L255.681 45.8138L251.71 46.3ZM224.41 84.9V88.9H226.48L227.676 87.2097L224.41 84.9ZM224.21 84.9L220.96 87.2321L222.157 88.9H224.21V84.9ZM196.51 46.3L192.768 44.8864L192.011 46.8911L193.26 48.6321L196.51 46.3ZM198.21 41.8H202.21L194.468 40.3864L198.21 41.8ZM198.21 94V98H202.21V94H198.21ZM192.81 94V19.4H184.81V94H192.81ZM188.81 23.4H188.91V15.4H188.81V23.4ZM185.64 21.7036L223.54 75.5036L230.08 70.8964L192.18 17.0964L185.64 21.7036ZM227.576 69.274L223.476 68.474L221.944 76.326L226.044 77.126L227.576 69.274ZM225.967 74.7226L263.767 21.7226L257.254 17.0774L219.454 70.0774L225.967 74.7226ZM260.51 23.4H260.71V15.4H260.51V23.4ZM256.71 19.4V94H264.71V19.4H256.71ZM260.71 90H251.11V98H260.71V90ZM255.11 94V41.4H247.11V94H255.11ZM247.14 41.8862L247.74 46.7862L255.681 45.8138L255.081 40.9138L247.14 41.8862ZM248.444 43.9903L221.144 82.5903L227.676 87.2097L254.976 48.6097L248.444 43.9903ZM224.41 80.9H224.21V88.9H224.41V80.9ZM227.46 82.5679L199.76 43.9679L193.26 48.6321L220.96 87.2321L227.46 82.5679ZM200.252 47.7136L201.952 43.2136L194.468 40.3864L192.768 44.8864L200.252 47.7136ZM194.21 41.8V94H202.21V41.8H194.21ZM198.21 90H188.81V98H198.21V90ZM296.486 21.7V17.7H292.486V21.7H296.486ZM306.186 21.7H310.186V17.7H306.186V21.7ZM306.186 94V98H310.186V94H306.186ZM296.486 94H292.486V98H296.486V94ZM296.486 25.7H306.186V17.7H296.486V25.7ZM302.186 21.7V94H310.186V21.7H302.186ZM306.186 90H296.486V98H306.186V90ZM300.486 94V21.7H292.486V94H300.486ZM404.555 96.3L401.706 99.1083L402.881 100.3H404.555V96.3ZM348.655 39.6L349.625 35.7194L335.806 32.2646L345.806 42.4083L348.655 39.6ZM351.455 40.3L355.455 40.2851L355.443 37.174L352.425 36.4194L351.455 40.3ZM351.655 94V98H355.67L355.655 93.9851L351.655 94ZM341.955 94H337.955V98H341.955V94ZM341.955 19.5V15.5H337.955V19.5H341.955ZM342.455 19.5L345.323 16.7122L344.145 15.5H342.455V19.5ZM397.755 76.4L396.905 80.3087L409.871 83.1273L400.623 73.6122L397.755 76.4ZM395.455 75.9L391.455 75.9148L391.467 79.1264L394.605 79.8087L395.455 75.9ZM395.255 21.7V17.7H391.24L391.255 21.7148L395.255 21.7ZM404.855 21.7H408.855V17.7H404.855V21.7ZM404.855 96.3V100.3H408.855V96.3H404.855ZM407.403 93.4917L351.503 36.7917L345.806 42.4083L401.706 99.1083L407.403 93.4917ZM347.685 43.4806L350.485 44.1806L352.425 36.4194L349.625 35.7194L347.685 43.4806ZM347.455 40.3149L347.655 94.0149L355.655 93.9851L355.455 40.2851L347.455 40.3149ZM351.655 90H341.955V98H351.655V90ZM345.955 94V19.5H337.955V94H345.955ZM341.955 23.5H342.455V15.5H341.955V23.5ZM339.586 22.2878L394.886 79.1878L400.623 73.6122L345.323 16.7122L339.586 22.2878ZM398.604 72.4913L396.304 71.9913L394.605 79.8087L396.905 80.3087L398.604 72.4913ZM399.455 75.8852L399.255 21.6852L391.255 21.7148L391.455 75.9148L399.455 75.8852ZM395.255 25.7H404.855V17.7H395.255V25.7ZM400.855 21.7V96.3H408.855V21.7H400.855ZM404.855 92.3H404.555V100.3H404.855V92.3ZM440.646 21.7V17.7H436.646V21.7H440.646ZM450.346 21.7H454.346V17.7H450.346V21.7ZM450.346 94V98H454.346V94H450.346ZM440.646 94H436.646V98H440.646V94ZM440.646 25.7H450.346V17.7H440.646V25.7ZM446.346 21.7V94H454.346V21.7H446.346ZM450.346 90H440.646V98H450.346V90ZM444.646 94V21.7H436.646V94H444.646ZM523.515 34.6L521.688 38.1583L525.284 40.0052L527.093 36.3889L523.515 34.6ZM497.515 32.6L495.072 29.4329L495.049 29.4501L495.027 29.4676L497.515 32.6ZM496.315 45.6L493.366 48.3029L493.395 48.3342L493.424 48.3649L496.315 45.6ZM502.115 49.6L503.823 45.983L502.115 49.6ZM509.615 52.8L508.179 56.5334L508.186 56.5362L509.615 52.8ZM522.215 59.7L519.502 62.6392L519.529 62.6647L519.557 62.6896L522.215 59.7ZM526.415 65.6L522.738 67.1757L522.757 67.2196L522.777 67.263L526.415 65.6ZM525.115 84.7L521.711 82.5996L521.694 82.626L521.678 82.6528L525.115 84.7ZM517.015 92.1L518.831 95.6642L517.015 92.1ZM495.215 93.7L494.224 97.5752L494.234 97.5779L494.245 97.5806L495.215 93.7ZM487.215 90.9L485.465 94.4969L485.505 94.5163L485.545 94.5347L487.215 90.9ZM480.615 87.2L477.133 85.2303L475.288 88.492L478.423 90.5458L480.615 87.2ZM484.915 79.6L487.227 76.3359L483.614 73.7766L481.433 77.6303L484.915 79.6ZM490.415 82.9L488.58 86.4545L488.626 86.4782L488.673 86.5006L490.415 82.9ZM496.915 85.4L495.786 89.2375L495.839 89.2529L495.891 89.2668L496.915 85.4ZM510.215 85.1L511.582 88.8592L511.613 88.8479L511.643 88.8362L510.215 85.1ZM515.815 81.2L518.868 83.7838L515.815 81.2ZM516.015 68.2L512.83 70.6203L512.885 70.6918L512.942 70.7607L516.015 68.2ZM510.915 64L508.954 67.4863L508.996 67.5099L509.038 67.5325L510.915 64ZM504.115 60.8L505.565 57.072L505.554 57.0679L505.543 57.0638L504.115 60.8ZM497.215 58L495.552 61.6379L495.595 61.6578L495.639 61.6766L497.215 58ZM490.715 54.2L488.281 57.3744L488.315 57.4004L488.349 57.4256L490.715 54.2ZM486.815 30.7L483.463 28.5173L483.456 28.5271L483.45 28.537L486.815 30.7ZM494.415 24L496.204 27.5777L496.233 27.5629L496.263 27.5477L494.415 24ZM505.415 21.3V17.3H505.35L505.286 17.3021L505.415 21.3ZM517.715 23L516.493 26.8089L516.503 26.8122L516.514 26.8154L517.715 23ZM527.215 27.2L530.793 28.9889L532.437 25.6994L529.297 23.7848L527.215 27.2ZM525.342 31.0417C522.658 29.6633 519.75 28.4817 516.628 27.4883L514.202 35.1117C516.947 35.985 519.439 37.0033 521.688 38.1583L525.342 31.0417ZM516.628 27.4883C513.341 26.4425 510.065 25.9 506.815 25.9V33.9C509.165 33.9 511.622 34.2908 514.202 35.1117L516.628 27.4883ZM506.815 25.9C502.341 25.9 498.296 26.9453 495.072 29.4329L499.958 35.7671C501.4 34.6546 503.556 33.9 506.815 33.9V25.9ZM495.027 29.4676C491.765 32.0579 490.115 35.6315 490.115 39.8H498.115C498.115 37.9685 498.731 36.7421 500.002 35.7324L495.027 29.4676ZM490.115 39.8C490.115 43.0187 491.191 45.93 493.366 48.3029L499.263 42.8971C498.505 42.07 498.115 41.1147 498.115 39.8H490.115ZM493.424 48.3649C495.303 50.3287 497.671 51.9249 500.407 53.217L503.823 45.983C501.759 45.0084 500.26 43.938 499.205 42.8351L493.424 48.3649ZM500.407 53.217C502.9 54.3945 505.491 55.4997 508.179 56.5334L511.051 49.0666C508.538 48.1003 506.129 47.0722 503.823 45.983L500.407 53.217ZM508.186 56.5362C510.345 57.3615 512.472 58.2824 514.57 59.2993L518.06 52.1007C515.757 50.9843 513.418 49.9718 511.043 49.0638L508.186 56.5362ZM514.57 59.2993C516.429 60.2009 518.067 61.3152 519.502 62.6392L524.928 56.7608C522.896 54.8848 520.6 53.3324 518.06 52.1007L514.57 59.2993ZM519.557 62.6896C520.894 63.8779 521.957 65.3529 522.738 67.1757L530.091 64.0243C528.873 61.1804 527.135 58.7221 524.872 56.7104L519.557 62.6896ZM522.777 67.263C523.537 68.9251 524.015 71.2165 524.015 74.3H532.015C532.015 70.4501 531.426 66.9416 530.053 63.937L522.777 67.263ZM524.015 74.3C524.015 77.3832 523.242 80.1186 521.711 82.5996L528.519 86.8004C530.855 83.0148 532.015 78.8168 532.015 74.3H524.015ZM521.678 82.6528C520.232 85.0813 518.121 87.0474 515.199 88.5358L518.831 95.6642C522.975 93.5526 526.265 90.5854 528.551 86.7472L521.678 82.6528ZM515.199 88.5358C512.342 89.9915 508.792 90.8 504.415 90.8V98.8C509.771 98.8 514.621 97.8085 518.831 95.6642L515.199 88.5358ZM504.415 90.8C501.523 90.8 498.783 90.469 496.185 89.8194L494.245 97.5806C497.513 98.3977 500.907 98.8 504.415 98.8V90.8ZM496.206 89.8248C493.552 89.1458 491.114 88.2897 488.885 87.2653L485.545 94.5347C488.249 95.777 491.144 96.7876 494.224 97.5752L496.206 89.8248ZM488.965 87.3031C486.623 86.164 484.575 85.0126 482.807 83.8542L478.423 90.5458C480.521 91.9208 482.873 93.236 485.465 94.4969L488.965 87.3031ZM484.096 89.1697L488.396 81.5697L481.433 77.6303L477.133 85.2303L484.096 89.1697ZM482.603 82.8641C484.38 84.1229 486.377 85.3175 488.58 86.4545L492.249 79.3455C490.319 78.3492 488.65 77.3438 487.227 76.3359L482.603 82.8641ZM488.673 86.5006C490.943 87.599 493.315 88.5106 495.786 89.2375L498.044 81.5625C495.981 80.956 494.02 80.201 492.157 79.2994L488.673 86.5006ZM495.891 89.2668C498.459 89.9466 501.004 90.3 503.515 90.3V82.3C501.759 82.3 499.904 82.0534 497.938 81.5332L495.891 89.2668ZM503.515 90.3C506.263 90.3 508.958 89.8132 511.582 88.8592L508.848 81.3408C507.071 81.9868 505.3 82.3 503.515 82.3V90.3ZM511.643 88.8362C514.496 87.7457 516.936 86.0675 518.868 83.7838L512.761 78.6162C511.76 79.7992 510.467 80.721 508.786 81.3638L511.643 88.8362ZM518.868 83.7838C521.093 81.1548 522.015 77.8576 522.015 74.3H514.015C514.015 76.4758 513.47 77.7786 512.761 78.6162L518.868 83.7838ZM522.015 74.3C522.015 71.0781 521.126 68.0856 519.088 65.6393L512.942 70.7607C513.57 71.5144 514.015 72.5885 514.015 74.3H522.015ZM519.2 65.7797C517.532 63.5861 515.358 61.8309 512.791 60.4675L509.038 67.5325C510.739 68.4358 511.964 69.4805 512.83 70.6203L519.2 65.7797ZM512.876 60.5137C510.57 59.2165 508.131 58.0702 505.565 57.072L502.665 64.528C504.898 65.3965 506.993 66.3835 508.954 67.4863L512.876 60.5137ZM505.543 57.0638C503.328 56.2169 501.077 55.3035 498.791 54.3234L495.639 61.6766C498.019 62.6965 500.368 63.6498 502.686 64.5362L505.543 57.0638ZM498.878 54.3621C496.784 53.4047 494.853 52.2746 493.08 50.9744L488.349 57.4256C490.576 59.0587 492.979 60.462 495.552 61.6379L498.878 54.3621ZM493.149 51.0256C491.589 49.8301 490.357 48.3914 489.426 46.6846L482.403 50.5154C483.872 53.2086 485.84 55.5033 488.281 57.3744L493.149 51.0256ZM489.426 46.6846C488.617 45.2015 488.115 43.2288 488.115 40.6H480.115C480.115 44.2379 480.812 47.5985 482.403 50.5154L489.426 46.6846ZM488.115 40.6C488.115 37.4555 488.851 34.9301 490.18 32.863L483.45 28.537C481.179 32.0699 480.115 36.1445 480.115 40.6H488.115ZM490.167 32.8827C491.628 30.6395 493.609 28.875 496.204 27.5777L492.626 20.4223C488.821 22.325 485.735 25.0272 483.463 28.5173L490.167 32.8827ZM496.263 27.5477C498.858 26.1959 501.922 25.4147 505.544 25.2979L505.286 17.3021C500.641 17.4519 496.372 18.4708 492.567 20.4523L496.263 27.5477ZM505.415 25.3C509.769 25.3 513.441 25.8299 516.493 26.8089L518.937 19.1911C514.922 17.9034 510.394 17.3 505.415 17.3V25.3ZM516.514 26.8154C519.858 27.8683 522.72 29.1439 525.132 30.6152L529.297 23.7848C526.243 21.9227 522.771 20.3984 518.916 19.1846L516.514 26.8154ZM523.637 25.4111L519.937 32.8111L527.093 36.3889L530.793 28.9889L523.637 25.4111ZM553.53 21.7V17.7H549.53V21.7H553.53ZM601.53 21.7H605.53V17.7H601.53V21.7ZM601.53 31V35H605.53V31H601.53ZM582.13 31V27H578.13V31H582.13ZM582.13 94V98H586.13V94H582.13ZM572.43 94H568.43V98H572.43V94ZM572.43 31H576.43V27H572.43V31ZM553.53 31H549.53V35H553.53V31ZM553.53 25.7H601.53V17.7H553.53V25.7ZM597.53 21.7V31H605.53V21.7H597.53ZM601.53 27H582.13V35H601.53V27ZM578.13 31V94H586.13V31H578.13ZM582.13 90H572.43V98H582.13V90ZM576.43 94V31H568.43V94H576.43ZM572.43 27H553.53V35H572.43V27ZM557.53 31V21.7H549.53V31H557.53ZM661.235 23.2L659.995 27.0029L660.044 27.0189L660.093 27.0335L661.235 23.2ZM669.335 27.5L666.739 30.5433L666.787 30.5842L666.836 30.6235L669.335 27.5ZM674.735 34.5L671.091 36.1487L671.115 36.2015L671.14 36.2537L674.735 34.5ZM675.435 52.5L671.622 51.291L671.609 51.3336L671.596 51.3764L675.435 52.5ZM671.335 60L674.34 62.6405L674.359 62.6183L674.378 62.5958L671.335 60ZM663.735 65.4L665.33 69.0683L665.349 69.0602L665.367 69.052L663.735 65.4ZM641.635 67.4V63.4H637.635V67.4H641.635ZM641.635 94V98H645.635V94H641.635ZM631.935 94H627.935V98H631.935V94ZM631.935 21.7V17.7H627.935V21.7H631.935ZM659.235 56.8L657.599 53.15L657.575 53.1608L657.551 53.172L659.235 56.8ZM663.735 53.5L666.859 55.9988L666.888 55.9618L666.917 55.9242L663.735 53.5ZM666.035 49L669.875 50.12V50.12L666.035 49ZM665.935 40L662.095 41.12L662.124 41.2178L662.157 41.3141L665.935 40ZM663.535 35.6L660.412 38.0988L660.449 38.1452L660.487 38.1906L663.535 35.6ZM659.235 32.3L657.446 35.8777L657.473 35.8911L657.5 35.904L659.235 32.3ZM641.635 31V27H637.635V31H641.635ZM641.635 58.1H637.635V62.1H641.635V58.1ZM664.035 63.6L667.432 61.488L666.222 59.5416L663.931 59.6014L664.035 63.6ZM682.935 94V98H690.132L686.332 91.888L682.935 94ZM671.735 94L668.363 96.1511L669.542 98H671.735V94ZM652.535 63.9L652.431 59.9014L645.358 60.0859L649.163 66.0511L652.535 63.9ZM651.135 25.7C654.437 25.7 657.379 26.15 659.995 27.0029L662.475 19.3971C658.958 18.25 655.166 17.7 651.135 17.7V25.7ZM660.093 27.0335C662.745 27.8233 664.937 29.0058 666.739 30.5433L671.931 24.4567C669.2 22.1275 665.992 20.4433 662.377 19.3665L660.093 27.0335ZM666.836 30.6235C668.662 32.0844 670.077 33.9068 671.091 36.1487L678.38 32.8513C676.86 29.4932 674.674 26.649 671.834 24.3765L666.836 30.6235ZM671.14 36.2537C672.158 38.3399 672.735 40.9178 672.735 44.1H680.735C680.735 39.9489 679.979 36.1268 678.33 32.7463L671.14 36.2537ZM672.735 44.1C672.735 46.5564 672.365 48.9486 671.622 51.291L679.248 53.709C680.239 50.5847 680.735 47.377 680.735 44.1H672.735ZM671.596 51.3764C670.962 53.5435 669.876 55.5465 668.292 57.4042L674.378 62.5958C676.661 59.9202 678.308 56.9232 679.274 53.6236L671.596 51.3764ZM668.331 57.3595C666.836 59.0596 664.801 60.5426 662.103 61.748L665.367 69.052C668.936 67.4574 671.967 65.3404 674.34 62.6405L668.331 57.3595ZM662.14 61.7317C659.722 62.7832 656.504 63.4 652.335 63.4V71.4C657.233 71.4 661.615 70.6834 665.33 69.0683L662.14 61.7317ZM652.335 63.4H641.635V71.4H652.335V63.4ZM637.635 67.4V94H645.635V67.4H637.635ZM641.635 90H631.935V98H641.635V90ZM635.935 94V21.7H627.935V94H635.935ZM631.935 25.7H651.135V17.7H631.935V25.7ZM652.135 62.1C655.37 62.1 658.36 61.6162 660.92 60.428L657.551 53.172C656.377 53.7171 654.634 54.1 652.135 54.1V62.1ZM660.871 60.45C663.248 59.3847 665.31 57.934 666.859 55.9988L660.612 51.0012C660.026 51.7327 659.089 52.4819 657.599 53.15L660.871 60.45ZM666.917 55.9242C668.264 54.1557 669.263 52.2174 669.875 50.12L662.195 47.88C661.874 48.9825 661.339 50.0443 660.553 51.0758L666.917 55.9242ZM669.875 50.12C670.428 48.2232 670.735 46.343 670.735 44.5H662.735C662.735 45.457 662.575 46.5768 662.195 47.88L669.875 50.12ZM670.735 44.5C670.735 42.5408 670.378 40.5969 669.713 38.6859L662.157 41.3141C662.559 42.4698 662.735 43.5259 662.735 44.5H670.735ZM669.775 38.88C669.143 36.7126 668.062 34.7498 666.583 33.0094L660.487 38.1906C661.275 39.1168 661.794 40.0874 662.095 41.12L669.775 38.88ZM666.659 33.1012C665.159 31.2271 663.219 29.7786 660.97 28.696L657.5 35.904C658.852 36.5548 659.778 37.3063 660.412 38.0988L666.659 33.1012ZM661.024 28.7223C658.591 27.506 655.806 27 652.835 27V35C654.931 35 656.412 35.3606 657.446 35.8777L661.024 28.7223ZM652.835 27H641.635V35H652.835V27ZM637.635 31V58.1H645.635V31H637.635ZM641.635 62.1H652.135V54.1H641.635V62.1ZM660.638 65.712L679.538 96.112L686.332 91.888L667.432 61.488L660.638 65.712ZM682.935 90H671.735V98H682.935V90ZM675.107 91.8489L655.907 61.7489L649.163 66.0511L668.363 96.1511L675.107 91.8489ZM652.639 67.8986L664.139 67.5986L663.931 59.6014L652.431 59.9014L652.639 67.8986ZM705.653 94L701.965 92.4522L699.637 98H705.653V94ZM737.253 18.7V14.7H734.594L733.565 17.1522L737.253 18.7ZM737.853 18.7L741.543 17.1563L740.516 14.7H737.853V18.7ZM769.353 94V98H775.362L773.043 92.4563L769.353 94ZM758.253 94L754.53 95.462L755.526 98H758.253V94ZM734.653 33.9L732.468 30.5496L729.739 32.3294L730.93 35.362L734.653 33.9ZM741.553 29.4L745.256 30.9132L750.105 19.0471L739.368 26.0496L741.553 29.4ZM715.153 94V98H717.84L718.856 95.5132L715.153 94ZM724.153 66.6V62.6H721.27L720.358 65.3351L724.153 66.6ZM751.053 66.6L754.791 65.176L753.81 62.6H751.053V66.6ZM754.253 75V79H760.057L757.991 73.576L754.253 75ZM721.353 75L717.558 73.7351L715.803 79H721.353V75ZM709.341 95.5478L740.942 20.2478L733.565 17.1522L701.965 92.4522L709.341 95.5478ZM737.253 22.7H737.853V14.7H737.253V22.7ZM734.163 20.2437L765.663 95.5437L773.043 92.4563L741.543 17.1563L734.163 20.2437ZM769.353 90H758.253V98H769.353V90ZM761.976 92.538L738.376 32.438L730.93 35.362L754.53 95.462L761.976 92.538ZM736.838 37.2504L743.738 32.7504L739.368 26.0496L732.468 30.5496L736.838 37.2504ZM737.85 27.8868L711.45 92.4868L718.856 95.5132L745.256 30.9132L737.85 27.8868ZM715.153 90H705.653V98H715.153V90ZM724.153 70.6H751.053V62.6H724.153V70.6ZM747.315 68.024L750.515 76.424L757.991 73.576L754.791 65.176L747.315 68.024ZM754.253 71H721.353V79H754.253V71ZM725.148 76.2649L727.948 67.8649L720.358 65.3351L717.558 73.7351L725.148 76.2649ZM847.164 88.6L849.383 91.9282L852.266 90.0062L850.775 86.8786L847.164 88.6ZM842.264 91.3L844.006 94.9006L842.264 91.3ZM834.964 93.8L834.038 89.9088L834.027 89.9113L834.016 89.9139L834.964 93.8ZM825.964 94.8L825.916 98.7997L825.94 98.8H825.964V94.8ZM810.764 91.8L809.175 95.4709L809.185 95.4752L809.195 95.4794L810.764 91.8ZM799.364 83.9L796.45 86.6396L799.364 83.9ZM792.064 72.4L788.323 73.8169L788.336 73.8514L788.35 73.8856L792.064 72.4ZM792.164 43.5L788.439 42.0424L788.433 42.0569L788.428 42.0715L792.164 43.5ZM799.664 31.6L802.55 34.3701L802.563 34.3559L802.577 34.3415L799.664 31.6ZM810.964 23.7L809.402 20.0177L809.392 20.022L809.382 20.0263L810.964 23.7ZM837.164 22.7L835.878 26.4875L835.91 26.4985L835.942 26.5089L837.164 22.7ZM846.264 26.8L849.934 28.3904L851.296 25.2473L848.4 23.418L846.264 26.8ZM842.364 35.8L840.145 39.1282L844.13 41.7848L846.034 37.3904L842.364 35.8ZM835.064 32L833.488 35.6766L833.504 35.6832L833.52 35.6898L835.064 32ZM815.664 32.3L814.032 28.648V28.648L815.664 32.3ZM807.364 38.2L810.268 40.951V40.951L807.364 38.2ZM801.664 47.1L797.965 45.577L797.958 45.5957L797.95 45.6144L801.664 47.1ZM801.464 68.9L797.692 70.2313L797.708 70.2763L797.725 70.3209L801.464 68.9ZM806.764 77.6L803.819 80.3065L803.838 80.3278L803.858 80.3488L806.764 77.6ZM815.164 83.4L816.74 79.7234L815.164 83.4ZM835.964 83.8L834.493 80.0802V80.0802L835.964 83.8ZM843.064 80L846.675 78.2786L844.572 73.8688L840.664 76.8L843.064 80ZM844.945 85.2718C843.96 85.9289 842.508 86.7384 840.522 87.6994L844.006 94.9006C846.154 93.8616 847.969 92.8711 849.383 91.9282L844.945 85.2718ZM840.522 87.6994C838.772 88.5462 836.623 89.2931 834.038 89.9088L835.891 97.6912C838.905 96.9736 841.623 96.0538 844.006 94.9006L840.522 87.6994ZM834.016 89.9139C831.638 90.4939 828.961 90.8 825.964 90.8V98.8C829.5 98.8 832.823 98.4394 835.912 97.6861L834.016 89.9139ZM826.012 90.8003C820.864 90.739 816.324 89.8226 812.333 88.1206L809.195 95.4794C814.271 97.6441 819.864 98.7277 825.916 98.7997L826.012 90.8003ZM812.353 88.1291C808.355 86.3985 805.015 84.0711 802.279 81.1604L796.45 86.6396C799.98 90.3956 804.24 93.3349 809.175 95.4709L812.353 88.1291ZM802.279 81.1604C799.495 78.1988 797.329 74.793 795.778 70.9144L788.35 73.8856C790.265 78.6736 792.967 82.9345 796.45 86.6396L802.279 81.1604ZM795.805 70.9831C794.318 67.0575 793.564 62.873 793.564 58.4H785.564C785.564 63.7937 786.477 68.9425 788.323 73.8169L795.805 70.9831ZM793.564 58.4C793.564 53.4335 794.36 48.9573 795.9 44.9286L788.428 42.0715C786.502 47.1094 785.564 52.5665 785.564 58.4H793.564ZM795.889 44.9576C797.511 40.8118 799.737 37.2997 802.55 34.3701L796.779 28.8299C793.191 32.567 790.417 36.9882 788.439 42.0424L795.889 44.9576ZM802.577 34.3415C805.398 31.3442 808.71 29.0262 812.547 27.3736L809.382 20.0263C804.551 22.1071 800.33 25.0558 796.751 28.8585L802.577 34.3415ZM812.526 27.3823C816.39 25.7431 820.653 24.9 825.364 24.9V16.9C819.675 16.9 814.338 17.9235 809.402 20.0177L812.526 27.3823ZM825.364 24.9C829.329 24.9 832.819 25.4488 835.878 26.4875L838.45 18.9125C834.442 17.5512 830.066 16.9 825.364 16.9V24.9ZM835.942 26.5089C839.227 27.5625 841.939 28.7991 844.128 30.182L848.4 23.418C845.523 21.6009 842.168 20.1042 838.386 18.8911L835.942 26.5089ZM842.594 25.2096L838.694 34.2096L846.034 37.3904L849.934 28.3904L842.594 25.2096ZM844.583 32.4718C842.319 30.9625 839.647 29.5819 836.609 28.3102L833.52 35.6898C836.215 36.8181 838.409 37.9708 840.145 39.1282L844.583 32.4718ZM836.64 28.3234C833.278 26.8825 829.598 26.2 825.664 26.2V34.2C828.663 34.2 831.25 34.7175 833.488 35.6766L836.64 28.3234ZM825.664 26.2C821.585 26.2 817.694 27.0117 814.032 28.648L817.296 35.952C819.9 34.7883 822.676 34.2 825.664 34.2V26.2ZM814.032 28.648C810.412 30.2657 807.215 32.5414 804.46 35.449L810.268 40.951C812.313 38.7919 814.65 37.1343 817.296 35.952L814.032 28.648ZM804.46 35.449C801.704 38.3582 799.542 41.747 797.965 45.577L805.363 48.623C806.586 45.653 808.224 43.1084 810.268 40.951L804.46 35.449ZM797.95 45.6144C796.414 49.4556 795.664 53.564 795.664 57.9H803.664C803.664 54.5027 804.248 51.4111 805.378 48.5856L797.95 45.6144ZM795.664 57.9C795.664 62.2456 796.328 66.3665 797.692 70.2313L805.236 67.5687C804.2 64.6335 803.664 61.421 803.664 57.9H795.664ZM797.725 70.3209C799.16 74.0983 801.186 77.442 803.819 80.3065L809.709 74.8935C807.808 72.8247 806.301 70.3683 805.203 67.4791L797.725 70.3209ZM803.858 80.3488C806.584 83.2308 809.844 85.4716 813.588 87.0766L816.74 79.7234C813.951 78.5284 811.61 76.9025 809.67 74.8512L803.858 80.3488ZM813.588 87.0766C817.42 88.7186 821.633 89.5 826.164 89.5V81.5C822.561 81.5 819.442 80.8814 816.74 79.7234L813.588 87.0766ZM826.164 89.5C830.241 89.5 834.02 88.8698 837.435 87.5198L834.493 80.0802C832.175 80.9969 829.421 81.5 826.164 81.5V89.5ZM837.435 87.5198C840.534 86.2947 843.238 84.8698 845.464 83.2L840.664 76.8C839.157 77.9302 837.128 79.0386 834.493 80.0802L837.435 87.5198ZM839.453 81.7214L843.553 90.3214L850.775 86.8786L846.675 78.2786L839.453 81.7214ZM878.498 21.7V17.7H874.498V21.7H878.498ZM888.198 21.7H892.198V17.7H888.198V21.7ZM888.198 94V98H892.198V94H888.198ZM878.498 94H874.498V98H878.498V94ZM878.498 25.7H888.198V17.7H878.498V25.7ZM884.198 21.7V94H892.198V21.7H884.198ZM888.198 90H878.498V98H888.198V90ZM882.498 94V21.7H874.498V94H882.498ZM922.266 43.8L918.596 42.2111L918.59 42.2244L918.584 42.2378L922.266 43.8ZM930.266 32L933.095 34.8284L933.109 34.8147L933.122 34.8008L930.266 32ZM941.966 23.9L943.576 27.5621L943.588 27.5564L943.601 27.5507L941.966 23.9ZM970.566 23.9L968.911 27.5415L968.944 27.5565L968.978 27.5709L970.566 23.9ZM982.366 32L979.511 34.8008L979.538 34.8286L979.566 34.8558L982.366 32ZM990.466 43.8L986.796 45.3889L986.8 45.399L986.804 45.4091L990.466 43.8ZM990.466 72.3L994.137 73.8889V73.8889L990.466 72.3ZM982.366 84.1L985.167 86.9563L985.167 86.9557L982.366 84.1ZM970.566 92L972.129 95.6823L972.142 95.6767L972.155 95.6709L970.566 92ZM941.966 92L940.404 95.6823L940.414 95.6865L940.424 95.6907L941.966 92ZM930.266 84.2L933.067 81.3437L930.266 84.2ZM922.266 72.5L918.576 74.0424L918.585 74.0657L918.596 74.0889L922.266 72.5ZM931.566 68.7L927.878 70.2489L927.884 70.2623L927.89 70.2757L931.566 68.7ZM937.366 77.4L934.501 80.1905L937.366 77.4ZM945.966 83.4L944.328 87.0491L944.359 87.0631L944.391 87.0766L945.966 83.4ZM967.066 83.4L968.642 87.0766L968.674 87.0631L968.705 87.0491L967.066 83.4ZM975.566 77.4L972.663 74.649L975.566 77.4ZM981.266 68.7L984.943 70.2757L984.949 70.2623L984.954 70.2489L981.266 68.7ZM981.266 47.2L977.568 48.723L977.573 48.736L977.578 48.7489L981.266 47.2ZM966.866 32.4L965.228 36.0491L965.259 36.0631L965.291 36.0766L966.866 32.4ZM945.766 32.4L944.128 28.7509V28.7509L945.766 32.4ZM937.166 38.4L934.301 35.6095V35.6095L937.166 38.4ZM931.466 47.3L935.18 48.7856L935.185 48.773L935.19 48.7603L931.466 47.3ZM971.866 4.59999L974.77 7.35157L981.169 0.599995H971.866V4.59999ZM959.166 18V22H960.886L962.07 20.7516L959.166 18ZM953.266 18L949.866 15.8937L946.084 22H953.266V18ZM961.566 4.59999V0.599995H959.339L958.166 2.4937L961.566 4.59999ZM923.466 57.9C923.466 53.4115 924.301 49.2453 925.949 45.3622L918.584 42.2378C916.498 47.1546 915.466 52.3885 915.466 57.9H923.466ZM925.937 45.3889C927.673 41.379 930.056 37.8676 933.095 34.8284L927.438 29.1716C923.677 32.9324 920.727 37.2877 918.596 42.2111L925.937 45.3889ZM933.122 34.8008C936.169 31.6942 939.647 29.2882 943.576 27.5621L940.357 20.2379C935.486 22.3784 931.164 25.3725 927.411 29.1992L933.122 34.8008ZM943.601 27.5507C947.528 25.7922 951.768 24.9 956.366 24.9V16.9C950.698 16.9 945.338 18.0078 940.332 20.2493L943.601 27.5507ZM956.366 24.9C960.89 24.9 965.056 25.7891 968.911 27.5415L972.222 20.2585C967.277 18.0109 961.976 16.9 956.366 16.9V24.9ZM968.978 27.5709C972.971 29.2993 976.474 31.7042 979.511 34.8008L985.222 29.1992C981.459 25.3624 977.095 22.3673 972.155 20.2291L968.978 27.5709ZM979.566 34.8558C982.662 37.8928 985.067 41.3956 986.796 45.3889L994.137 42.2111C991.999 37.271 989.004 32.9072 985.167 29.1442L979.566 34.8558ZM986.804 45.4091C988.506 49.2814 989.366 53.4311 989.366 57.9H997.366C997.366 52.3689 996.294 47.1186 994.129 42.1909L986.804 45.4091ZM989.366 57.9C989.366 62.5172 988.5 66.7732 986.796 70.7111L994.137 73.8889C996.3 68.8934 997.366 63.5495 997.366 57.9H989.366ZM986.796 70.7111C985.067 74.7044 982.662 78.2072 979.566 81.2442L985.167 86.9557C989.004 83.1928 991.999 78.829 994.137 73.8889L986.796 70.7111ZM979.566 81.2437C976.524 84.2258 973.004 86.5863 968.978 88.3291L972.155 95.6709C977.062 93.547 981.408 90.6409 985.167 86.9563L979.566 81.2437ZM969.004 88.3177C965.128 89.9623 960.929 90.8 956.366 90.8V98.8C961.937 98.8 967.205 97.771 972.129 95.6823L969.004 88.3177ZM956.366 90.8C951.73 90.8 947.458 89.9597 943.509 88.3093L940.424 95.6907C945.408 97.7737 950.736 98.8 956.366 98.8V90.8ZM943.529 88.3177C939.588 86.6457 936.108 84.3253 933.067 81.3437L927.466 87.0563C931.225 90.7414 935.545 93.621 940.404 95.6823L943.529 88.3177ZM933.067 81.3437C930.044 78.3807 927.67 74.9138 925.937 70.9111L918.596 74.0889C920.73 79.0196 923.688 83.3526 927.466 87.0563L933.067 81.3437ZM925.957 70.9576C924.312 67.021 923.466 62.684 923.466 57.9H915.466C915.466 63.6493 916.488 69.0456 918.576 74.0424L925.957 70.9576ZM925.466 58C925.466 62.3043 926.262 66.4003 927.878 70.2489L935.254 67.1511C934.071 64.333 933.466 61.2957 933.466 58H925.466ZM927.89 70.2757C929.482 73.9912 931.69 77.3035 934.501 80.1905L940.232 74.6095C938.11 72.4298 936.451 69.9421 935.243 67.1243L927.89 70.2757ZM934.501 80.1905C937.323 83.0894 940.608 85.3787 944.328 87.0491L947.605 79.7509C944.792 78.4879 942.343 76.7772 940.232 74.6095L934.501 80.1905ZM944.391 87.0766C948.189 88.7044 952.263 89.5 956.566 89.5V81.5C953.27 81.5 950.277 80.8956 947.542 79.7234L944.391 87.0766ZM956.566 89.5C960.814 89.5 964.853 88.7007 968.642 87.0766L965.491 79.7234C962.747 80.8993 959.786 81.5 956.566 81.5V89.5ZM968.705 87.0491C972.435 85.3742 975.702 83.0734 978.47 80.151L972.663 74.649C970.631 76.7933 968.231 78.4924 965.428 79.7509L968.705 87.0491ZM978.47 80.151C981.201 77.2682 983.36 73.9685 984.943 70.2757L977.59 67.1243C976.372 69.9648 974.732 72.4651 972.663 74.649L978.47 80.151ZM984.954 70.2489C986.574 66.3918 987.366 62.2612 987.366 57.9H979.366C979.366 61.2722 978.758 64.3415 977.578 67.1511L984.954 70.2489ZM987.366 57.9C987.366 53.5957 986.571 49.4997 984.954 45.6511L977.578 48.7489C978.762 51.567 979.366 54.6043 979.366 57.9H987.366ZM984.965 45.677C983.379 41.8244 981.169 38.4229 978.332 35.5095L972.601 41.0905C974.697 43.2437 976.354 45.7756 977.568 48.723L984.965 45.677ZM978.332 35.5095C975.496 32.5968 972.19 30.3298 968.442 28.7234L965.291 36.0766C968.076 37.2701 970.503 38.9366 972.601 41.0905L978.332 35.5095ZM968.505 28.7509C964.701 27.0431 960.64 26.2 956.366 26.2V34.2C959.56 34.2 962.499 34.8236 965.228 36.0491L968.505 28.7509ZM956.366 26.2C952.037 26.2 947.941 27.0389 944.128 28.7509L947.405 36.0491C950.125 34.8277 953.096 34.2 956.366 34.2V26.2ZM944.128 28.7509C940.408 30.4212 937.123 32.7106 934.301 35.6095L940.032 41.1905C942.143 39.0228 944.592 37.3121 947.405 36.0491L944.128 28.7509ZM934.301 35.6095C931.45 38.5373 929.264 41.9602 927.742 45.8396L935.19 48.7603C936.336 45.8398 937.95 43.3294 940.032 41.1905L934.301 35.6095ZM927.753 45.8144C926.219 49.6474 925.466 53.7212 925.466 58H933.466C933.466 54.6787 934.047 51.6192 935.18 48.7856L927.753 45.8144ZM968.963 1.84842L956.263 15.2484L962.07 20.7516L974.77 7.35157L968.963 1.84842ZM959.166 14H953.266V22H959.166V14ZM956.667 20.1063L964.967 6.70629L958.166 2.4937L949.866 15.8937L956.667 20.1063ZM961.566 8.59999H971.866V0.599995H961.566V8.59999ZM1087.31 96.3L1084.46 99.1083L1085.64 100.3H1087.31V96.3ZM1031.41 39.6L1032.38 35.7194L1018.56 32.2646L1028.56 42.4083L1031.41 39.6ZM1034.21 40.3L1038.21 40.2851L1038.2 37.174L1035.18 36.4194L1034.21 40.3ZM1034.41 94V98H1038.42L1038.41 93.9851L1034.41 94ZM1024.71 94H1020.71V98H1024.71V94ZM1024.71 19.5V15.5H1020.71V19.5H1024.71ZM1025.21 19.5L1028.08 16.7122L1026.9 15.5H1025.21V19.5ZM1080.51 76.4L1079.66 80.3087L1092.62 83.1273L1083.38 73.6122L1080.51 76.4ZM1078.21 75.9L1074.21 75.9148L1074.22 79.1264L1077.36 79.8087L1078.21 75.9ZM1078.01 21.7V17.7H1073.99L1074.01 21.7148L1078.01 21.7ZM1087.61 21.7H1091.61V17.7H1087.61V21.7ZM1087.61 96.3V100.3H1091.61V96.3H1087.61ZM1090.16 93.4917L1034.26 36.7917L1028.56 42.4083L1084.46 99.1083L1090.16 93.4917ZM1030.44 43.4806L1033.24 44.1806L1035.18 36.4194L1032.38 35.7194L1030.44 43.4806ZM1030.21 40.3149L1030.41 94.0149L1038.41 93.9851L1038.21 40.2851L1030.21 40.3149ZM1034.41 90H1024.71V98H1034.41V90ZM1028.71 94V19.5H1020.71V94H1028.71ZM1024.71 23.5H1025.21V15.5H1024.71V23.5ZM1022.34 22.2878L1077.64 79.1878L1083.38 73.6122L1028.08 16.7122L1022.34 22.2878ZM1081.36 72.4913L1079.06 71.9913L1077.36 79.8087L1079.66 80.3087L1081.36 72.4913ZM1082.21 75.8852L1082.01 21.6852L1074.01 21.7148L1074.21 75.9148L1082.21 75.8852ZM1078.01 25.7H1087.61V17.7H1078.01V25.7ZM1083.61 21.7V96.3H1091.61V21.7H1083.61ZM1087.61 92.3H1087.31V100.3H1087.61V92.3ZM287.56 194H283.56V198H287.56V194ZM287.56 121.7V117.7H283.56V121.7H287.56ZM325.46 125L323.849 128.661L323.858 128.665L323.867 128.669L325.46 125ZM337.66 133.7L340.705 131.106V131.106L337.66 133.7ZM344.36 145.7L340.548 146.913L340.56 146.948L340.571 146.982L344.36 145.7ZM343.66 173.4L340.007 171.77L339.997 171.794L339.987 171.818L343.66 173.4ZM335.86 184.5L333.152 181.556H333.152L335.86 184.5ZM324.36 191.6L325.765 195.345L325.78 195.339L325.796 195.333L324.36 191.6ZM297.26 184.7H293.26V188.7H297.26V184.7ZM319.86 182.9L318.529 179.128L318.517 179.132L318.505 179.136L319.86 182.9ZM328.66 177.7L325.993 174.719L325.973 174.737L325.954 174.755L328.66 177.7ZM334.56 169.4L338.237 170.976L338.242 170.962L338.248 170.949L334.56 169.4ZM334.46 146.4L330.787 147.984L330.793 147.998L330.799 148.011L334.46 146.4ZM328.46 137.9L331.127 134.919L328.46 137.9ZM319.86 132.8L318.456 136.545L318.49 136.558L318.525 136.571L319.86 132.8ZM297.26 131V127H293.26V131H297.26ZM291.56 194V121.7H283.56V194H291.56ZM287.56 125.7H307.26V117.7H287.56V125.7ZM307.26 125.7C314.001 125.7 319.487 126.742 323.849 128.661L327.071 121.339C321.434 118.858 314.786 117.7 307.26 117.7V125.7ZM323.867 128.669C328.468 130.667 332.005 133.23 334.615 136.294L340.705 131.106C337.182 126.97 332.586 123.733 327.053 121.331L323.867 128.669ZM334.615 136.294C337.346 139.499 339.314 143.032 340.548 146.913L348.172 144.487C346.607 139.568 344.108 135.101 340.705 131.106L334.615 136.294ZM340.571 146.982C341.906 150.926 342.56 154.827 342.56 158.7H350.56C350.56 153.907 349.748 149.141 348.149 144.418L340.571 146.982ZM342.56 158.7C342.56 163.69 341.68 168.022 340.007 171.77L347.313 175.03C349.507 170.111 350.56 164.643 350.56 158.7H342.56ZM339.987 171.818C338.333 175.656 336.054 178.886 333.152 181.556L338.568 187.444C342.333 183.98 345.254 179.81 347.334 174.982L339.987 171.818ZM333.152 181.556C330.199 184.273 326.8 186.376 322.924 187.867L325.796 195.333C330.587 193.491 334.855 190.86 338.568 187.444L333.152 181.556ZM322.956 187.855C319.162 189.277 315.106 190 310.76 190V198C316.014 198 321.025 197.123 325.765 195.345L322.956 187.855ZM310.76 190H287.56V198H310.76V190ZM297.26 188.7H308.86V180.7H297.26V188.7ZM308.86 188.7C313.263 188.7 317.395 188.039 321.215 186.664L318.505 179.136C315.659 180.161 312.457 180.7 308.86 180.7V188.7ZM321.191 186.672C325.062 185.306 328.473 183.305 331.367 180.645L325.954 174.755C323.914 176.629 321.459 178.094 318.529 179.128L321.191 186.672ZM331.327 180.681C334.315 178.007 336.618 174.754 338.237 170.976L330.884 167.824C329.703 170.58 328.072 172.859 325.993 174.719L331.327 180.681ZM338.248 170.949C339.885 167.052 340.66 162.747 340.66 158.1H332.66C332.66 161.853 332.036 165.081 330.872 167.851L338.248 170.949ZM340.66 158.1C340.66 153.201 339.856 148.731 338.121 144.789L330.799 148.011C331.998 150.735 332.66 154.066 332.66 158.1H340.66ZM338.133 144.816C336.457 140.931 334.131 137.606 331.127 134.919L325.793 140.881C327.856 142.727 329.53 145.069 330.787 147.984L338.133 144.816ZM331.127 134.919C328.206 132.305 324.887 130.337 321.196 129.029L318.525 136.571C321.233 137.53 323.647 138.961 325.793 140.881L331.127 134.919ZM321.265 129.055C317.6 127.681 313.757 127 309.76 127V135C312.83 135 315.72 135.519 318.456 136.545L321.265 129.055ZM309.76 127H297.26V135H309.76V127ZM293.26 131V184.7H301.26V131H293.26ZM377.853 121.7V117.7H373.853V121.7H377.853ZM424.853 121.7H428.853V117.7H424.853V121.7ZM424.853 131V135H428.853V131H424.853ZM387.553 131V127H383.553V131H387.553ZM387.553 153H383.553V157H387.553V153ZM420.853 153H424.853V149H420.853V153ZM420.853 162.3V166.3H424.853V162.3H420.853ZM387.553 162.3V158.3H383.553V162.3H387.553ZM387.553 184.7H383.553V188.7H387.553V184.7ZM426.253 184.7H430.253V180.7H426.253V184.7ZM426.253 194V198H430.253V194H426.253ZM377.853 194H373.853V198H377.853V194ZM377.853 125.7H424.853V117.7H377.853V125.7ZM420.853 121.7V131H428.853V121.7H420.853ZM424.853 127H387.553V135H424.853V127ZM383.553 131V153H391.553V131H383.553ZM387.553 157H420.853V149H387.553V157ZM416.853 153V162.3H424.853V153H416.853ZM420.853 158.3H387.553V166.3H420.853V158.3ZM383.553 162.3V184.7H391.553V162.3H383.553ZM387.553 188.7H426.253V180.7H387.553V188.7ZM422.253 184.7V194H430.253V184.7H422.253ZM426.253 190H377.853V198H426.253V190ZM381.853 194V121.7H373.853V194H381.853ZM515.728 177.2L512.283 179.232L512.314 179.284L512.346 179.336L515.728 177.2ZM522.028 183.2L520.063 186.684L522.028 183.2ZM539.928 183.2L541.856 186.705L539.928 183.2ZM546.228 177.2L549.65 179.271L549.662 179.252L549.674 179.232L546.228 177.2ZM548.528 121.7V117.7H544.528V121.7H548.528ZM558.028 121.7H562.028V117.7H558.028V121.7ZM554.328 182.5L550.939 180.375L550.926 180.396L550.914 180.417L554.328 182.5ZM544.528 191.6L542.694 188.046L542.682 188.052L542.67 188.058L544.528 191.6ZM517.128 191.6L518.986 188.058L517.128 191.6ZM507.428 182.5L510.843 180.417L507.428 182.5ZM503.828 121.7V117.7H499.828V121.7H503.828ZM513.428 121.7H517.428V117.7H513.428V121.7ZM509.428 168.4C509.428 172.321 510.357 175.966 512.283 179.232L519.174 175.168C518.033 173.234 517.428 171.013 517.428 168.4H509.428ZM512.346 179.336C514.298 182.427 516.884 184.891 520.063 186.684L523.993 179.716C521.972 178.576 520.358 177.04 519.11 175.064L512.346 179.336ZM520.063 186.684C523.318 188.52 526.94 189.4 530.828 189.4V181.4C528.183 181.4 525.938 180.813 523.993 179.716L520.063 186.684ZM530.828 189.4C534.822 189.4 538.532 188.533 541.856 186.705L538 179.695C535.991 180.8 533.635 181.4 530.828 181.4V189.4ZM541.856 186.705C545.12 184.91 547.743 182.423 549.65 179.271L542.806 175.129C541.647 177.044 540.07 178.557 538 179.695L541.856 186.705ZM549.674 179.232C551.6 175.966 552.528 172.321 552.528 168.4H544.528C544.528 171.013 543.923 173.234 542.783 175.168L549.674 179.232ZM552.528 168.4V121.7H544.528V168.4H552.528ZM548.528 125.7H558.028V117.7H548.528V125.7ZM554.028 121.7V168.7H562.028V121.7H554.028ZM554.028 168.7C554.028 173.319 552.955 177.161 550.939 180.375L557.717 184.625C560.635 179.973 562.028 174.615 562.028 168.7H554.028ZM550.914 180.417C548.899 183.718 546.182 186.245 542.694 188.046L546.363 195.154C551.141 192.688 554.957 189.149 557.743 184.583L550.914 180.417ZM542.67 188.058C539.234 189.86 535.316 190.8 530.828 190.8V198.8C536.474 198.8 541.689 197.606 546.386 195.142L542.67 188.058ZM530.828 190.8C526.341 190.8 522.422 189.86 518.986 188.058L515.27 195.142C519.967 197.606 525.182 198.8 530.828 198.8V190.8ZM518.986 188.058C515.563 186.262 512.867 183.734 510.843 180.417L504.014 184.583C506.789 189.133 510.56 192.671 515.27 195.142L518.986 188.058ZM510.843 180.417C508.878 177.196 507.828 173.339 507.828 168.7H499.828C499.828 174.594 501.178 179.937 504.014 184.583L510.843 180.417ZM507.828 168.7V121.7H499.828V168.7H507.828ZM503.828 125.7H513.428V117.7H503.828V125.7ZM509.428 121.7V168.4H517.428V121.7H509.428ZM630.273 134.6L628.445 138.158L632.042 140.005L633.85 136.389L630.273 134.6ZM604.273 132.6L601.829 129.433L601.807 129.45L601.785 129.468L604.273 132.6ZM603.073 145.6L600.124 148.303L600.153 148.334L600.182 148.365L603.073 145.6ZM608.873 149.6L610.581 145.983L608.873 149.6ZM616.373 152.8L614.937 156.533L614.944 156.536L616.373 152.8ZM628.973 159.7L626.26 162.639L626.287 162.665L626.315 162.69L628.973 159.7ZM633.173 165.6L629.496 167.176L629.515 167.22L629.535 167.263L633.173 165.6ZM631.873 184.7L628.469 182.6L628.452 182.626L628.436 182.653L631.873 184.7ZM623.773 192.1L625.588 195.664L623.773 192.1ZM601.973 193.7L600.981 197.575L600.992 197.578L601.003 197.581L601.973 193.7ZM593.973 190.9L592.223 194.497L592.263 194.516L592.303 194.535L593.973 190.9ZM587.373 187.2L583.891 185.23L582.046 188.492L585.181 190.546L587.373 187.2ZM591.673 179.6L593.985 176.336L590.372 173.777L588.191 177.63L591.673 179.6ZM597.173 182.9L595.338 186.454L595.384 186.478L595.43 186.501L597.173 182.9ZM603.673 185.4L602.544 189.237L602.596 189.253L602.649 189.267L603.673 185.4ZM616.973 185.1L618.34 188.859L618.371 188.848L618.401 188.836L616.973 185.1ZM622.573 181.2L625.626 183.784L622.573 181.2ZM622.773 168.2L619.588 170.62L619.642 170.692L619.7 170.761L622.773 168.2ZM617.673 164L615.712 167.486L615.754 167.51L615.796 167.532L617.673 164ZM610.873 160.8L612.322 157.072L612.312 157.068L612.301 157.064L610.873 160.8ZM603.973 158L602.31 161.638L602.353 161.658L602.397 161.677L603.973 158ZM597.473 154.2L595.039 157.374L595.073 157.4L595.107 157.426L597.473 154.2ZM593.573 130.7L590.221 128.517L590.214 128.527L590.208 128.537L593.573 130.7ZM601.173 124L602.961 127.578L602.991 127.563L603.02 127.548L601.173 124ZM612.173 121.3V117.3H612.108L612.044 117.302L612.173 121.3ZM624.473 123L623.251 126.809L623.261 126.812L623.271 126.815L624.473 123ZM633.973 127.2L637.55 128.989L639.195 125.699L636.055 123.785L633.973 127.2ZM632.1 131.042C629.416 129.663 626.508 128.482 623.385 127.488L620.96 135.112C623.704 135.985 626.196 137.003 628.445 138.158L632.1 131.042ZM623.385 127.488C620.099 126.442 616.823 125.9 613.573 125.9V133.9C615.922 133.9 618.38 134.291 620.96 135.112L623.385 127.488ZM613.573 125.9C609.098 125.9 605.054 126.945 601.829 129.433L606.716 135.767C608.158 134.655 610.314 133.9 613.573 133.9V125.9ZM601.785 129.468C598.523 132.058 596.873 135.631 596.873 139.8H604.873C604.873 137.969 605.489 136.742 606.76 135.732L601.785 129.468ZM596.873 139.8C596.873 143.019 597.949 145.93 600.124 148.303L606.021 142.897C605.263 142.07 604.873 141.115 604.873 139.8H596.873ZM600.182 148.365C602.061 150.329 604.429 151.925 607.165 153.217L610.581 145.983C608.517 145.008 607.018 143.938 605.963 142.835L600.182 148.365ZM607.165 153.217C609.658 154.394 612.249 155.5 614.937 156.533L617.809 149.067C615.296 148.1 612.887 147.072 610.581 145.983L607.165 153.217ZM614.944 156.536C617.103 157.361 619.23 158.282 621.328 159.299L624.818 152.101C622.515 150.984 620.176 149.972 617.801 149.064L614.944 156.536ZM621.328 159.299C623.187 160.201 624.825 161.315 626.26 162.639L631.686 156.761C629.654 154.885 627.358 153.332 624.818 152.101L621.328 159.299ZM626.315 162.69C627.652 163.878 628.715 165.353 629.496 167.176L636.849 164.024C635.63 161.18 633.893 158.722 631.63 156.71L626.315 162.69ZM629.535 167.263C630.295 168.925 630.773 171.217 630.773 174.3H638.773C638.773 170.45 638.184 166.942 636.811 163.937L629.535 167.263ZM630.773 174.3C630.773 177.383 629.999 180.119 628.469 182.6L635.277 186.8C637.613 183.015 638.773 178.817 638.773 174.3H630.773ZM628.436 182.653C626.989 185.081 624.879 187.047 621.957 188.536L625.588 195.664C629.733 193.553 633.023 190.585 635.309 186.747L628.436 182.653ZM621.957 188.536C619.1 189.992 615.549 190.8 611.173 190.8V198.8C616.529 198.8 621.379 197.809 625.588 195.664L621.957 188.536ZM611.173 190.8C608.281 190.8 605.541 190.469 602.943 189.819L601.003 197.581C604.271 198.398 607.665 198.8 611.173 198.8V190.8ZM602.964 189.825C600.31 189.146 597.872 188.29 595.643 187.265L592.303 194.535C595.006 195.777 597.902 196.788 600.981 197.575L602.964 189.825ZM595.723 187.303C593.381 186.164 591.333 185.013 589.565 183.854L585.181 190.546C587.279 191.921 589.631 193.236 592.223 194.497L595.723 187.303ZM590.854 189.17L595.154 181.57L588.191 177.63L583.891 185.23L590.854 189.17ZM589.361 182.864C591.138 184.123 593.135 185.318 595.338 186.454L599.007 179.346C597.077 178.349 595.408 177.344 593.985 176.336L589.361 182.864ZM595.43 186.501C597.7 187.599 600.073 188.511 602.544 189.237L604.801 181.563C602.739 180.956 600.778 180.201 598.915 179.299L595.43 186.501ZM602.649 189.267C605.217 189.947 607.762 190.3 610.273 190.3V182.3C608.517 182.3 606.662 182.053 604.696 181.533L602.649 189.267ZM610.273 190.3C613.021 190.3 615.716 189.813 618.34 188.859L615.606 181.341C613.829 181.987 612.058 182.3 610.273 182.3V190.3ZM618.401 188.836C621.253 187.746 623.694 186.067 625.626 183.784L619.519 178.616C618.518 179.799 617.225 180.721 615.544 181.364L618.401 188.836ZM625.626 183.784C627.851 181.155 628.773 177.858 628.773 174.3H620.773C620.773 176.476 620.228 177.779 619.519 178.616L625.626 183.784ZM628.773 174.3C628.773 171.078 627.884 168.086 625.846 165.639L619.7 170.761C620.328 171.514 620.773 172.589 620.773 174.3H628.773ZM625.957 165.78C624.29 163.586 622.116 161.831 619.549 160.468L615.796 167.532C617.496 168.436 618.722 169.481 619.588 170.62L625.957 165.78ZM619.634 160.514C617.328 159.217 614.889 158.07 612.322 157.072L609.423 164.528C611.656 165.396 613.751 166.383 615.712 167.486L619.634 160.514ZM612.301 157.064C610.086 156.217 607.835 155.304 605.548 154.323L602.397 161.677C604.777 162.696 607.126 163.65 609.444 164.536L612.301 157.064ZM605.636 154.362C603.541 153.405 601.611 152.275 599.838 150.974L595.107 157.426C597.334 159.059 599.737 160.462 602.31 161.638L605.636 154.362ZM599.906 151.026C598.347 149.83 597.115 148.391 596.184 146.685L589.161 150.515C590.63 153.209 592.598 155.503 595.039 157.374L599.906 151.026ZM596.184 146.685C595.375 145.202 594.873 143.229 594.873 140.6H586.873C586.873 144.238 587.57 147.598 589.161 150.515L596.184 146.685ZM594.873 140.6C594.873 137.456 595.609 134.93 596.937 132.863L590.208 128.537C587.937 132.07 586.873 136.144 586.873 140.6H594.873ZM596.925 132.883C598.385 130.639 600.367 128.875 602.961 127.578L599.384 120.422C595.578 122.325 592.493 125.027 590.221 128.517L596.925 132.883ZM603.02 127.548C605.616 126.196 608.68 125.415 612.302 125.298L612.044 117.302C607.399 117.452 603.13 118.471 599.325 120.452L603.02 127.548ZM612.173 125.3C616.526 125.3 620.199 125.83 623.251 126.809L625.694 119.191C621.68 117.903 617.152 117.3 612.173 117.3V125.3ZM623.271 126.815C626.616 127.868 629.477 129.144 631.89 130.615L636.055 123.785C633.001 121.923 629.529 120.398 625.674 119.185L623.271 126.815ZM630.395 125.411L626.695 132.811L633.85 136.389L637.55 128.989L630.395 125.411ZM677.076 177.2L673.63 179.232L673.661 179.284L673.694 179.336L677.076 177.2ZM683.376 183.2L681.411 186.684L683.376 183.2ZM701.276 183.2L703.203 186.705L701.276 183.2ZM707.576 177.2L710.998 179.271L711.01 179.252L711.021 179.232L707.576 177.2ZM709.876 121.7V117.7H705.876V121.7H709.876ZM719.376 121.7H723.376V117.7H719.376V121.7ZM715.676 182.5L712.287 180.375L712.274 180.396L712.261 180.417L715.676 182.5ZM705.876 191.6L704.041 188.046L704.029 188.052L704.018 188.058L705.876 191.6ZM678.476 191.6L680.334 188.058L678.476 191.6ZM668.776 182.5L672.19 180.417L668.776 182.5ZM665.176 121.7V117.7H661.176V121.7H665.176ZM674.776 121.7H678.776V117.7H674.776V121.7ZM670.776 168.4C670.776 172.321 671.704 175.966 673.63 179.232L680.521 175.168C679.381 173.234 678.776 171.013 678.776 168.4H670.776ZM673.694 179.336C675.646 182.427 678.232 184.891 681.411 186.684L685.341 179.716C683.32 178.576 681.706 177.04 680.458 175.064L673.694 179.336ZM681.411 186.684C684.666 188.52 688.287 189.4 692.176 189.4V181.4C689.531 181.4 687.286 180.813 685.341 179.716L681.411 186.684ZM692.176 189.4C696.169 189.4 699.88 188.533 703.203 186.705L699.348 179.695C697.339 180.8 694.982 181.4 692.176 181.4V189.4ZM703.203 186.705C706.468 184.91 709.09 182.423 710.998 179.271L704.154 175.129C702.995 177.044 701.417 178.557 699.348 179.695L703.203 186.705ZM711.021 179.232C712.947 175.966 713.876 172.321 713.876 168.4H705.876C705.876 171.013 705.271 173.234 704.13 175.168L711.021 179.232ZM713.876 168.4V121.7H705.876V168.4H713.876ZM709.876 125.7H719.376V117.7H709.876V125.7ZM715.376 121.7V168.7H723.376V121.7H715.376ZM715.376 168.7C715.376 173.319 714.303 177.161 712.287 180.375L719.065 184.625C721.982 179.973 723.376 174.615 723.376 168.7H715.376ZM712.261 180.417C710.247 183.718 707.53 186.245 704.041 188.046L707.71 195.154C712.489 192.688 716.305 189.149 719.09 184.583L712.261 180.417ZM704.018 188.058C700.582 189.86 696.663 190.8 692.176 190.8V198.8C697.822 198.8 703.037 197.606 707.734 195.142L704.018 188.058ZM692.176 190.8C687.688 190.8 683.77 189.86 680.334 188.058L676.618 195.142C681.315 197.606 686.53 198.8 692.176 198.8V190.8ZM680.334 188.058C676.911 186.262 674.214 183.734 672.19 180.417L665.361 184.583C668.137 189.133 671.907 192.671 676.618 195.142L680.334 188.058ZM672.19 180.417C670.226 177.196 669.176 173.339 669.176 168.7H661.176C661.176 174.594 662.526 179.937 665.361 184.583L672.19 180.417ZM669.176 168.7V121.7H661.176V168.7H669.176ZM665.176 125.7H674.776V117.7H665.176V125.7ZM670.776 121.7V168.4H678.776V121.7H670.776ZM745.751 194L742.062 192.452L739.734 198H745.751V194ZM777.351 118.7V114.7H774.691L773.662 117.152L777.351 118.7ZM777.951 118.7L781.641 117.156L780.613 114.7H777.951V118.7ZM809.451 194V198H815.46L813.141 192.456L809.451 194ZM798.351 194L794.628 195.462L795.624 198H798.351V194ZM774.751 133.9L772.566 130.55L769.837 132.329L771.028 135.362L774.751 133.9ZM781.651 129.4L785.354 130.913L790.203 119.047L779.466 126.05L781.651 129.4ZM755.251 194V198H757.937L758.953 195.513L755.251 194ZM764.251 166.6V162.6H761.368L760.456 165.335L764.251 166.6ZM791.151 166.6L794.889 165.176L793.907 162.6H791.151V166.6ZM794.351 175V179H800.155L798.089 173.576L794.351 175ZM761.451 175L757.656 173.735L755.901 179H761.451V175ZM749.439 195.548L781.039 120.248L773.662 117.152L742.062 192.452L749.439 195.548ZM777.351 122.7H777.951V114.7H777.351V122.7ZM774.261 120.244L805.761 195.544L813.141 192.456L781.641 117.156L774.261 120.244ZM809.451 190H798.351V198H809.451V190ZM802.074 192.538L778.474 132.438L771.028 135.362L794.628 195.462L802.074 192.538ZM776.936 137.25L783.836 132.75L779.466 126.05L772.566 130.55L776.936 137.25ZM777.948 127.887L751.548 192.487L758.953 195.513L785.354 130.913L777.948 127.887ZM755.251 190H745.751V198H755.251V190ZM764.251 170.6H791.151V162.6H764.251V170.6ZM787.413 168.024L790.613 176.424L798.089 173.576L794.889 165.176L787.413 168.024ZM794.351 171H761.451V179H794.351V171ZM765.246 176.265L768.046 167.865L760.456 165.335L757.656 173.735L765.246 176.265ZM867.368 123.2L866.128 127.003L866.177 127.019L866.226 127.034L867.368 123.2ZM875.468 127.5L872.872 130.543L872.92 130.584L872.969 130.623L875.468 127.5ZM880.868 134.5L877.224 136.149L877.247 136.202L877.273 136.254L880.868 134.5ZM881.568 152.5L877.755 151.291L877.742 151.334L877.729 151.376L881.568 152.5ZM877.468 160L880.473 162.64L880.492 162.618L880.511 162.596L877.468 160ZM869.868 165.4L871.463 169.068L871.481 169.06L871.5 169.052L869.868 165.4ZM847.768 167.4V163.4H843.768V167.4H847.768ZM847.768 194V198H851.768V194H847.768ZM838.068 194H834.068V198H838.068V194ZM838.068 121.7V117.7H834.068V121.7H838.068ZM865.368 156.8L863.732 153.15L863.708 153.161L863.684 153.172L865.368 156.8ZM869.868 153.5L872.991 155.999L873.021 155.962L873.05 155.924L869.868 153.5ZM872.168 149L876.008 150.12L872.168 149ZM872.068 140L868.228 141.12L868.257 141.218L868.29 141.314L872.068 140ZM869.668 135.6L866.544 138.099L866.582 138.145L866.62 138.191L869.668 135.6ZM865.368 132.3L863.579 135.878L863.606 135.891L863.633 135.904L865.368 132.3ZM847.768 131V127H843.768V131H847.768ZM847.768 158.1H843.768V162.1H847.768V158.1ZM870.168 163.6L873.565 161.488L872.355 159.542L870.064 159.601L870.168 163.6ZM889.068 194V198H896.265L892.465 191.888L889.068 194ZM877.868 194L874.496 196.151L875.675 198H877.868V194ZM858.668 163.9L858.564 159.901L851.491 160.086L855.296 166.051L858.668 163.9ZM857.268 125.7C860.57 125.7 863.512 126.15 866.128 127.003L868.608 119.397C865.09 118.25 861.299 117.7 857.268 117.7V125.7ZM866.226 127.034C868.878 127.823 871.07 129.006 872.872 130.543L878.064 124.457C875.333 122.128 872.125 120.443 868.51 119.366L866.226 127.034ZM872.969 130.623C874.795 132.084 876.209 133.907 877.224 136.149L884.512 132.851C882.993 129.493 880.807 126.649 877.967 124.377L872.969 130.623ZM877.273 136.254C878.291 138.34 878.868 140.918 878.868 144.1H886.868C886.868 139.949 886.112 136.127 884.463 132.746L877.273 136.254ZM878.868 144.1C878.868 146.556 878.498 148.949 877.755 151.291L885.381 153.709C886.372 150.585 886.868 147.377 886.868 144.1H878.868ZM877.729 151.376C877.095 153.543 876.009 155.546 874.425 157.404L880.511 162.596C882.793 159.92 884.441 156.923 885.407 153.624L877.729 151.376ZM874.463 157.36C872.969 159.06 870.934 160.543 868.236 161.748L871.5 169.052C875.069 167.457 878.1 165.34 880.473 162.64L874.463 157.36ZM868.273 161.732C865.855 162.783 862.636 163.4 858.468 163.4V171.4C863.366 171.4 867.748 170.683 871.463 169.068L868.273 161.732ZM858.468 163.4H847.768V171.4H858.468V163.4ZM843.768 167.4V194H851.768V167.4H843.768ZM847.768 190H838.068V198H847.768V190ZM842.068 194V121.7H834.068V194H842.068ZM838.068 125.7H857.268V117.7H838.068V125.7ZM858.268 162.1C861.502 162.1 864.493 161.616 867.052 160.428L863.684 153.172C862.509 153.717 860.767 154.1 858.268 154.1V162.1ZM867.004 160.45C869.381 159.385 871.443 157.934 872.991 155.999L866.745 151.001C866.159 151.733 865.222 152.482 863.732 153.15L867.004 160.45ZM873.05 155.924C874.397 154.156 875.396 152.217 876.008 150.12L868.328 147.88C868.006 148.983 867.472 150.044 866.686 151.076L873.05 155.924ZM876.008 150.12C876.561 148.223 876.868 146.343 876.868 144.5H868.868C868.868 145.457 868.708 146.577 868.328 147.88L876.008 150.12ZM876.868 144.5C876.868 142.541 876.511 140.597 875.846 138.686L868.29 141.314C868.692 142.47 868.868 143.526 868.868 144.5H876.868ZM875.908 138.88C875.276 136.713 874.195 134.75 872.716 133.009L866.62 138.191C867.408 139.117 867.927 140.087 868.228 141.12L875.908 138.88ZM872.791 133.101C871.292 131.227 869.352 129.779 867.103 128.696L863.633 135.904C864.984 136.555 865.91 137.306 866.544 138.099L872.791 133.101ZM867.157 128.722C864.724 127.506 861.939 127 858.968 127V135C861.064 135 862.545 135.361 863.579 135.878L867.157 128.722ZM858.968 127H847.768V135H858.968V127ZM843.768 131V158.1H851.768V131H843.768ZM847.768 162.1H858.268V154.1H847.768V162.1ZM866.771 165.712L885.671 196.112L892.465 191.888L873.565 161.488L866.771 165.712ZM889.068 190H877.868V198H889.068V190ZM881.24 191.849L862.04 161.749L855.296 166.051L874.496 196.151L881.24 191.849ZM858.772 167.899L870.272 167.599L870.064 159.601L858.564 159.901L858.772 167.899ZM918.986 121.7V117.7H914.986V121.7H918.986ZM928.686 121.7H932.686V117.7H928.686V121.7ZM928.686 194V198H932.686V194H928.686ZM918.986 194H914.986V198H918.986V194ZM918.986 125.7H928.686V117.7H918.986V125.7ZM924.686 121.7V194H932.686V121.7H924.686ZM928.686 190H918.986V198H928.686V190ZM922.986 194V121.7H914.986V194H922.986ZM962.755 143.8L959.084 142.211L959.078 142.224L959.072 142.238L962.755 143.8ZM970.755 132L973.583 134.828L973.597 134.815L973.61 134.801L970.755 132ZM982.455 123.9L984.064 127.562L984.077 127.556L984.089 127.551L982.455 123.9ZM1011.05 123.9L1009.4 127.541L1009.43 127.556L1009.47 127.571L1011.05 123.9ZM1022.85 132L1020 134.801L1020.03 134.829L1020.05 134.856L1022.85 132ZM1030.95 143.8L1027.28 145.389L1027.29 145.399L1027.29 145.409L1030.95 143.8ZM1030.95 172.3L1034.63 173.889V173.889L1030.95 172.3ZM1022.85 184.1L1025.66 186.956L1025.66 186.956L1022.85 184.1ZM1011.05 192L1012.62 195.682L1012.63 195.677L1012.64 195.671L1011.05 192ZM982.455 192L980.893 195.682L980.902 195.687L980.912 195.691L982.455 192ZM970.755 184.2L973.555 181.344L970.755 184.2ZM962.755 172.5L959.064 174.042L959.074 174.066L959.084 174.089L962.755 172.5ZM972.055 168.7L968.367 170.249L968.372 170.262L968.378 170.276L972.055 168.7ZM977.855 177.4L974.989 180.19L977.855 177.4ZM986.455 183.4L984.816 187.049L984.848 187.063L984.879 187.077L986.455 183.4ZM1007.55 183.4L1009.13 187.077L1009.16 187.063L1009.19 187.049L1007.55 183.4ZM1016.05 177.4L1013.15 174.649L1016.05 177.4ZM1021.75 168.7L1025.43 170.276L1025.44 170.262L1025.44 170.249L1021.75 168.7ZM1021.75 147.2L1018.06 148.723L1018.06 148.736L1018.07 148.749L1021.75 147.2ZM1007.35 132.4L1005.72 136.049L1005.75 136.063L1005.78 136.077L1007.35 132.4ZM986.255 132.4L984.616 128.751L986.255 132.4ZM977.655 138.4L974.789 135.61L977.655 138.4ZM971.955 147.3L975.669 148.786L975.674 148.773L975.679 148.76L971.955 147.3ZM963.955 157.9C963.955 153.412 964.79 149.245 966.437 145.362L959.072 142.238C956.986 147.155 955.955 152.388 955.955 157.9H963.955ZM966.426 145.389C968.161 141.379 970.544 137.868 973.583 134.828L967.926 129.172C964.165 132.932 961.215 137.288 959.084 142.211L966.426 145.389ZM973.61 134.801C976.657 131.694 980.135 129.288 984.064 127.562L980.846 120.238C975.974 122.378 971.652 125.372 967.899 129.199L973.61 134.801ZM984.089 127.551C988.017 125.792 992.257 124.9 996.855 124.9V116.9C991.186 116.9 985.826 118.008 980.82 120.249L984.089 127.551ZM996.855 124.9C1001.38 124.9 1005.54 125.789 1009.4 127.541L1012.71 120.259C1007.77 118.011 1002.46 116.9 996.855 116.9V124.9ZM1009.47 127.571C1013.46 129.299 1016.96 131.704 1020 134.801L1025.71 129.199C1021.95 125.362 1017.58 122.367 1012.64 120.229L1009.47 127.571ZM1020.05 134.856C1023.15 137.893 1025.56 141.396 1027.28 145.389L1034.63 142.211C1032.49 137.271 1029.49 132.907 1025.66 129.144L1020.05 134.856ZM1027.29 145.409C1028.99 149.281 1029.85 153.431 1029.85 157.9H1037.85C1037.85 152.369 1036.78 147.119 1034.62 142.191L1027.29 145.409ZM1029.85 157.9C1029.85 162.517 1028.99 166.773 1027.28 170.711L1034.63 173.889C1036.79 168.893 1037.85 163.549 1037.85 157.9H1029.85ZM1027.28 170.711C1025.56 174.704 1023.15 178.207 1020.05 181.244L1025.66 186.956C1029.49 183.193 1032.49 178.829 1034.63 173.889L1027.28 170.711ZM1020.05 181.244C1017.01 184.226 1013.49 186.586 1009.47 188.329L1012.64 195.671C1017.55 193.547 1021.9 190.641 1025.66 186.956L1020.05 181.244ZM1009.49 188.318C1005.62 189.962 1001.42 190.8 996.855 190.8V198.8C1002.43 198.8 1007.69 197.771 1012.62 195.682L1009.49 188.318ZM996.855 190.8C992.219 190.8 987.946 189.96 983.997 188.309L980.912 195.691C985.897 197.774 991.224 198.8 996.855 198.8V190.8ZM984.017 188.318C980.076 186.646 976.596 184.325 973.555 181.344L967.954 187.056C971.713 190.741 976.034 193.621 980.893 195.682L984.017 188.318ZM973.555 181.344C970.533 178.381 968.158 174.914 966.426 170.911L959.084 174.089C961.218 179.02 964.177 183.353 967.954 187.056L973.555 181.344ZM966.445 170.958C964.8 167.021 963.955 162.684 963.955 157.9H955.955C955.955 163.649 956.976 169.046 959.064 174.042L966.445 170.958ZM965.955 158C965.955 162.304 966.75 166.4 968.367 170.249L975.743 167.151C974.559 164.333 973.955 161.296 973.955 158H965.955ZM968.378 170.276C969.97 173.991 972.178 177.304 974.989 180.19L980.721 174.61C978.598 172.43 976.939 169.942 975.731 167.124L968.378 170.276ZM974.989 180.19C977.811 183.089 981.096 185.379 984.816 187.049L988.093 179.751C985.28 178.488 982.831 176.777 980.721 174.61L974.989 180.19ZM984.879 187.077C988.677 188.704 992.751 189.5 997.055 189.5V181.5C993.758 181.5 990.765 180.896 988.03 179.723L984.879 187.077ZM997.055 189.5C1001.3 189.5 1005.34 188.701 1009.13 187.077L1005.98 179.723C1003.24 180.899 1000.27 181.5 997.055 181.5V189.5ZM1009.19 187.049C1012.92 185.374 1016.19 183.073 1018.96 180.151L1013.15 174.649C1011.12 176.793 1008.72 178.492 1005.92 179.751L1009.19 187.049ZM1018.96 180.151C1021.69 177.268 1023.85 173.969 1025.43 170.276L1018.08 167.124C1016.86 169.965 1015.22 172.465 1013.15 174.649L1018.96 180.151ZM1025.44 170.249C1027.06 166.392 1027.85 162.261 1027.85 157.9H1019.85C1019.85 161.272 1019.25 164.342 1018.07 167.151L1025.44 170.249ZM1027.85 157.9C1027.85 153.596 1027.06 149.5 1025.44 145.651L1018.07 148.749C1019.25 151.567 1019.85 154.604 1019.85 157.9H1027.85ZM1025.45 145.677C1023.87 141.824 1021.66 138.423 1018.82 135.51L1013.09 141.09C1015.19 143.244 1016.84 145.776 1018.06 148.723L1025.45 145.677ZM1018.82 135.51C1015.98 132.597 1012.68 130.33 1008.93 128.723L1005.78 136.077C1008.56 137.27 1010.99 138.937 1013.09 141.09L1018.82 135.51ZM1008.99 128.751C1005.19 127.043 1001.13 126.2 996.855 126.2V134.2C1000.05 134.2 1002.99 134.824 1005.72 136.049L1008.99 128.751ZM996.855 126.2C992.525 126.2 988.429 127.039 984.616 128.751L987.893 136.049C990.613 134.828 993.584 134.2 996.855 134.2V126.2ZM984.616 128.751C980.896 130.421 977.611 132.711 974.789 135.61L980.521 141.19C982.631 139.023 985.08 137.312 987.893 136.049L984.616 128.751ZM974.789 135.61C971.938 138.537 969.752 141.96 968.231 145.84L975.679 148.76C976.824 145.84 978.438 143.329 980.521 141.19L974.789 135.61ZM968.241 145.814C966.708 149.647 965.955 153.721 965.955 158H973.955C973.955 154.679 974.535 151.619 975.669 148.786L968.241 145.814ZM1102.6 134.6L1100.77 138.158L1104.37 140.005L1106.17 136.389L1102.6 134.6ZM1076.6 132.6L1074.15 129.433L1074.13 129.45L1074.11 129.468L1076.6 132.6ZM1075.4 145.6L1072.45 148.303L1072.48 148.334L1072.51 148.365L1075.4 145.6ZM1081.2 149.6L1082.9 145.983L1081.2 149.6ZM1088.7 152.8L1087.26 156.533L1087.27 156.536L1088.7 152.8ZM1101.3 159.7L1098.58 162.639L1098.61 162.665L1098.64 162.69L1101.3 159.7ZM1105.5 165.6L1101.82 167.176L1101.84 167.22L1101.86 167.263L1105.5 165.6ZM1104.2 184.7L1100.79 182.6L1100.78 182.626L1100.76 182.653L1104.2 184.7ZM1096.1 192.1L1097.91 195.664L1096.1 192.1ZM1074.3 193.7L1073.31 197.575L1073.32 197.578L1073.33 197.581L1074.3 193.7ZM1066.3 190.9L1064.55 194.497L1064.59 194.516L1064.63 194.535L1066.3 190.9ZM1059.7 187.2L1056.22 185.23L1054.37 188.492L1057.5 190.546L1059.7 187.2ZM1064 179.6L1066.31 176.336L1062.7 173.777L1060.52 177.63L1064 179.6ZM1069.5 182.9L1067.66 186.454L1067.71 186.478L1067.75 186.501L1069.5 182.9ZM1076 185.4L1074.87 189.237L1074.92 189.253L1074.97 189.267L1076 185.4ZM1089.3 185.1L1090.66 188.859L1090.69 188.848L1090.73 188.836L1089.3 185.1ZM1094.9 181.2L1097.95 183.784L1094.9 181.2ZM1095.1 168.2L1091.91 170.62L1091.97 170.692L1092.02 170.761L1095.1 168.2ZM1090 164L1088.04 167.486L1088.08 167.51L1088.12 167.532L1090 164ZM1083.2 160.8L1084.65 157.072L1084.64 157.068L1084.63 157.064L1083.2 160.8ZM1076.3 158L1074.63 161.638L1074.68 161.658L1074.72 161.677L1076.3 158ZM1069.8 154.2L1067.36 157.374L1067.4 157.4L1067.43 157.426L1069.8 154.2ZM1065.9 130.7L1062.54 128.517L1062.54 128.527L1062.53 128.537L1065.9 130.7ZM1073.5 124L1075.29 127.578L1075.32 127.563L1075.34 127.548L1073.5 124ZM1084.5 121.3V117.3H1084.43L1084.37 117.302L1084.5 121.3ZM1096.8 123L1095.58 126.809L1095.59 126.812L1095.6 126.815L1096.8 123ZM1106.3 127.2L1109.87 128.989L1111.52 125.699L1108.38 123.785L1106.3 127.2ZM1104.42 131.042C1101.74 129.663 1098.83 128.482 1095.71 127.488L1093.28 135.112C1096.03 135.985 1098.52 137.003 1100.77 138.158L1104.42 131.042ZM1095.71 127.488C1092.42 126.442 1089.15 125.9 1085.9 125.9V133.9C1088.25 133.9 1090.7 134.291 1093.28 135.112L1095.71 127.488ZM1085.9 125.9C1081.42 125.9 1077.38 126.945 1074.15 129.433L1079.04 135.767C1080.48 134.655 1082.64 133.9 1085.9 133.9V125.9ZM1074.11 129.468C1070.85 132.058 1069.2 135.631 1069.2 139.8H1077.2C1077.2 137.969 1077.81 136.742 1079.08 135.732L1074.11 129.468ZM1069.2 139.8C1069.2 143.019 1070.27 145.93 1072.45 148.303L1078.35 142.897C1077.59 142.07 1077.2 141.115 1077.2 139.8H1069.2ZM1072.51 148.365C1074.38 150.329 1076.75 151.925 1079.49 153.217L1082.9 145.983C1080.84 145.008 1079.34 143.938 1078.29 142.835L1072.51 148.365ZM1079.49 153.217C1081.98 154.394 1084.57 155.5 1087.26 156.533L1090.13 149.067C1087.62 148.1 1085.21 147.072 1082.9 145.983L1079.49 153.217ZM1087.27 156.536C1089.43 157.361 1091.55 158.282 1093.65 159.299L1097.14 152.101C1094.84 150.984 1092.5 149.972 1090.13 149.064L1087.27 156.536ZM1093.65 159.299C1095.51 160.201 1097.15 161.315 1098.58 162.639L1104.01 156.761C1101.98 154.885 1099.68 153.332 1097.14 152.101L1093.65 159.299ZM1098.64 162.69C1099.98 163.878 1101.04 165.353 1101.82 167.176L1109.17 164.024C1107.95 161.18 1106.22 158.722 1103.95 156.71L1098.64 162.69ZM1101.86 167.263C1102.62 168.925 1103.1 171.217 1103.1 174.3H1111.1C1111.1 170.45 1110.51 166.942 1109.13 163.937L1101.86 167.263ZM1103.1 174.3C1103.1 177.383 1102.32 180.119 1100.79 182.6L1107.6 186.8C1109.94 183.015 1111.1 178.817 1111.1 174.3H1103.1ZM1100.76 182.653C1099.31 185.081 1097.2 187.047 1094.28 188.536L1097.91 195.664C1102.06 193.553 1105.35 190.585 1107.63 186.747L1100.76 182.653ZM1094.28 188.536C1091.42 189.992 1087.87 190.8 1083.5 190.8V198.8C1088.85 198.8 1093.7 197.809 1097.91 195.664L1094.28 188.536ZM1083.5 190.8C1080.6 190.8 1077.87 190.469 1075.27 189.819L1073.33 197.581C1076.6 198.398 1079.99 198.8 1083.5 198.8V190.8ZM1075.29 189.825C1072.63 189.146 1070.2 188.29 1067.97 187.265L1064.63 194.535C1067.33 195.777 1070.23 196.788 1073.31 197.575L1075.29 189.825ZM1068.05 187.303C1065.71 186.164 1063.66 185.013 1061.89 183.854L1057.5 190.546C1059.6 191.921 1061.96 193.236 1064.55 194.497L1068.05 187.303ZM1063.18 189.17L1067.48 181.57L1060.52 177.63L1056.22 185.23L1063.18 189.17ZM1061.68 182.864C1063.46 184.123 1065.46 185.318 1067.66 186.454L1071.33 179.346C1069.4 178.349 1067.73 177.344 1066.31 176.336L1061.68 182.864ZM1067.75 186.501C1070.02 187.599 1072.4 188.511 1074.87 189.237L1077.13 181.563C1075.06 180.956 1073.1 180.201 1071.24 179.299L1067.75 186.501ZM1074.97 189.267C1077.54 189.947 1080.09 190.3 1082.6 190.3V182.3C1080.84 182.3 1078.99 182.053 1077.02 181.533L1074.97 189.267ZM1082.6 190.3C1085.34 190.3 1088.04 189.813 1090.66 188.859L1087.93 181.341C1086.15 181.987 1084.38 182.3 1082.6 182.3V190.3ZM1090.73 188.836C1093.58 187.746 1096.02 186.067 1097.95 183.784L1091.84 178.616C1090.84 179.799 1089.55 180.721 1087.87 181.364L1090.73 188.836ZM1097.95 183.784C1100.17 181.155 1101.1 177.858 1101.1 174.3H1093.1C1093.1 176.476 1092.55 177.779 1091.84 178.616L1097.95 183.784ZM1101.1 174.3C1101.1 171.078 1100.21 168.086 1098.17 165.639L1092.02 170.761C1092.65 171.514 1093.1 172.589 1093.1 174.3H1101.1ZM1098.28 165.78C1096.61 163.586 1094.44 161.831 1091.87 160.468L1088.12 167.532C1089.82 168.436 1091.05 169.481 1091.91 170.62L1098.28 165.78ZM1091.96 160.514C1089.65 159.217 1087.21 158.07 1084.65 157.072L1081.75 164.528C1083.98 165.396 1086.08 166.383 1088.04 167.486L1091.96 160.514ZM1084.63 157.064C1082.41 156.217 1080.16 155.304 1077.87 154.323L1074.72 161.677C1077.1 162.696 1079.45 163.65 1081.77 164.536L1084.63 157.064ZM1077.96 154.362C1075.87 153.405 1073.94 152.275 1072.16 150.974L1067.43 157.426C1069.66 159.059 1072.06 160.462 1074.63 161.638L1077.96 154.362ZM1072.23 151.026C1070.67 149.83 1069.44 148.391 1068.51 146.685L1061.49 150.515C1062.95 153.209 1064.92 155.503 1067.36 157.374L1072.23 151.026ZM1068.51 146.685C1067.7 145.202 1067.2 143.229 1067.2 140.6H1059.2C1059.2 144.238 1059.89 147.598 1061.49 150.515L1068.51 146.685ZM1067.2 140.6C1067.2 137.456 1067.93 134.93 1069.26 132.863L1062.53 128.537C1060.26 132.07 1059.2 136.144 1059.2 140.6H1067.2ZM1069.25 132.883C1070.71 130.639 1072.69 128.875 1075.29 127.578L1071.71 120.422C1067.9 122.325 1064.82 125.027 1062.54 128.517L1069.25 132.883ZM1075.34 127.548C1077.94 126.196 1081 125.415 1084.63 125.298L1084.37 117.302C1079.72 117.452 1075.45 118.471 1071.65 120.452L1075.34 127.548ZM1084.5 125.3C1088.85 125.3 1092.52 125.83 1095.58 126.809L1098.02 119.191C1094 117.903 1089.48 117.3 1084.5 117.3V125.3ZM1095.6 126.815C1098.94 127.868 1101.8 129.144 1104.21 130.615L1108.38 123.785C1105.33 121.923 1101.85 120.398 1098 119.185L1095.6 126.815ZM1102.72 125.411L1099.02 132.811L1106.17 136.389L1109.87 128.989L1102.72 125.411Z" fill="#9B1313" mask="url(#path-1-outside-1_559_679)"/>
</svg>
