<?xml version="1.0" encoding="UTF-8"?>
<svg xmlns="http://www.w3.org/2000/svg" xmlns:xlink="http://www.w3.org/1999/xlink" version="1.1" width="512" height="512" x="0" y="0" viewBox="0 0 512 512" style="enable-background:new 0 0 512 512" xml:space="preserve" class="">
  <g>
    <path fill="#38000a" d="M223.994 72a8 8 0 0 1-7.149-11.58l16-32a8 8 0 1 1 14.31 7.156l-16 32A8 8 0 0 1 223.994 72zM288.006 72a8 8 0 0 1-7.161-4.424l-16-32a8 8 0 0 1 14.31-7.156l16 32A8 8 0 0 1 288.006 72z" opacity="1" data-original="#d13330" class=""/>
    <path fill="#ffa896" d="M32 200h448v256H32z" opacity="1" data-original="#f7b030" class=""/>
    <path fill="#9b1313" d="M24 456h464v32H24z" opacity="1" data-original="#2978b8" class=""/>
    <path fill="#ffa896" d="M480 200H32l48-96h352z" opacity="1" data-original="#f7b030" class=""/>
    <path fill="#cd1c18" d="M184 280h144v176H184z" opacity="1" data-original="#3397e8" class=""/>
    <path fill="#cd1c18" d="M256 280h72v176h-72z" opacity="1" data-original="#3397e8" class=""/>
    <path fill="#e9eef2" d="M64 280h88v144H64zM360 280h88v144h-88z" opacity="1" data-original="#e9eef2" class=""/>
    <path fill="#9b1313" d="M32 200h64v16a32 32 0 0 1-32 32 32 32 0 0 1-32-32v-16z" opacity="1" data-original="#2978b8" class=""/>
    <path fill="#38000a" d="M96 200h64v16a32 32 0 0 1-32 32 32 32 0 0 1-32-32v-16z" opacity="1" data-original="#d13330" class=""/>
    <path fill="#9b1313" d="M160 200h64v16a32 32 0 0 1-32 32 32 32 0 0 1-32-32v-16z" opacity="1" data-original="#2978b8" class=""/>
    <path fill="#38000a" d="M224 200h64v16a32 32 0 0 1-32 32 32 32 0 0 1-32-32v-16z" opacity="1" data-original="#d13330" class=""/>
    <path fill="#9b1313" d="M288 200h64v16a32 32 0 0 1-32 32 32 32 0 0 1-32-32v-16z" opacity="1" data-original="#2978b8" class=""/>
    <path fill="#38000a" d="M352 200h64v16a32 32 0 0 1-32 32 32 32 0 0 1-32-32v-16z" opacity="1" data-original="#d13330" class=""/>
    <path fill="#9b1313" d="M416 200h64v16a32 32 0 0 1-32 32 32 32 0 0 1-32-32v-16z" opacity="1" data-original="#2978b8" class=""/>
    <path fill="#eb423f" d="M64 392h88v32H64zM360 392h88v32h-88z" opacity="1" data-original="#eb423f" class=""/>
    <path fill="#38000a" d="M288 104h-64l-16-48h96z" opacity="1" data-original="#d13330" class=""/>
    <path fill="#eb423f" d="m192 104-32 96H96l40-96zM288 200h-64l8-96h48zM416 200h-64l-32-96h56z" opacity="1" data-original="#eb423f" class=""/>
    <g fill="#3397e8">
      <path d="m136 104-40 96H32l48-96zM232 104l-8 96h-64l32-96zM352 200h-64l-8-96h40zM480 200h-64l-40-96h56z" fill="#cd1c18" opacity="1" data-original="#3397e8" class=""/>
    </g>
    <path fill="#9b1313" d="M248 280h16v176h-16z" opacity="1" data-original="#2978b8" class=""/>
  </g>
</svg>
