<svg width="247" height="39" viewBox="0 0 247 39" fill="none" xmlns="http://www.w3.org/2000/svg">
<mask id="path-1-outside-1_162_701" maskUnits="userSpaceOnUse" x="0" y="0" width="247" height="39" fill="black">
<rect fill="white" width="247" height="39"/>
<path d="M27.904 34.744C27.168 35.192 26.32 35.624 25.36 36.04C24.4 36.456 23.344 36.776 22.192 37C21.04 37.256 19.792 37.384 18.448 37.384C15.856 37.384 13.504 36.936 11.392 36.04C9.28 35.112 7.472 33.864 5.968 32.296C4.464 30.696 3.296 28.872 2.464 26.824C1.664 24.744 1.264 22.536 1.264 20.2C1.264 17.704 1.696 15.384 2.56 13.24C3.424 11.096 4.64 9.224 6.208 7.624C7.776 6.024 9.6 4.776 11.68 3.88C13.76 2.984 16.016 2.536 18.448 2.536C20.24 2.536 21.92 2.776 23.488 3.256C25.056 3.736 26.48 4.36 27.76 5.128L26.752 7.288C25.632 6.584 24.368 5.992 22.96 5.512C21.552 5.032 20.064 4.792 18.496 4.792C16.48 4.792 14.576 5.192 12.784 5.992C10.992 6.76 9.408 7.848 8.032 9.256C6.688 10.632 5.632 12.248 4.864 14.104C4.096 15.96 3.712 17.96 3.712 20.104C3.712 22.152 4.048 24.088 4.72 25.912C5.424 27.736 6.416 29.336 7.696 30.712C9.008 32.088 10.576 33.176 12.4 33.976C14.224 34.744 16.256 35.128 18.496 35.128C20.16 35.128 21.68 34.904 23.056 34.456C24.464 33.976 25.712 33.384 26.8 32.68L27.904 34.744ZM37.9555 37L52.3555 1.432H52.5475L66.9475 37H64.3075L51.7795 5.176L53.4115 4.264L40.3075 37H37.9555ZM44.9155 23.512H60.0355L60.7075 25.72H44.3395L44.9155 23.512ZM86.6781 2.92C89.9741 2.92 92.5181 3.608 94.3101 4.984C96.1341 6.328 97.0461 8.52 97.0461 11.56C97.0461 13.064 96.7581 14.44 96.1821 15.688C95.6061 16.936 94.7421 17.96 93.5901 18.76C92.4701 19.56 91.0621 20.072 89.3661 20.296L89.1261 19.144C90.8861 19.272 92.4861 19.72 93.9261 20.488C95.3981 21.224 96.5661 22.232 97.4301 23.512C98.3261 24.76 98.7741 26.232 98.7741 27.928C98.7741 29.464 98.4701 30.808 97.8621 31.96C97.2861 33.08 96.4861 34.024 95.4621 34.792C94.4701 35.528 93.3341 36.088 92.0541 36.472C90.7741 36.824 89.4301 37 88.0221 37H79.1421V2.92H86.6781ZM87.7821 18.856C90.2141 18.856 91.9581 18.2 93.0141 16.888C94.1021 15.576 94.6461 13.944 94.6461 11.992C94.6461 9.56 93.9261 7.816 92.4861 6.76C91.0781 5.704 89.1741 5.176 86.7741 5.176H81.4941V18.856H87.7821ZM87.9261 34.84C89.4621 34.84 90.8701 34.6 92.1501 34.12C93.4301 33.608 94.4541 32.84 95.2221 31.816C95.9901 30.792 96.3741 29.528 96.3741 28.024C96.3741 26.36 95.9421 25.032 95.0781 24.04C94.2141 23.016 93.1261 22.28 91.8141 21.832C90.5021 21.352 89.1581 21.112 87.7821 21.112H81.4941V34.84H87.9261ZM111.775 2.92H132.799V5.176H114.127V18.712H130.927V20.968H114.127V34.744H133.471V37H111.775V2.92ZM146.751 2.92H149.103V34.744H167.775V37H146.751V2.92ZM179.993 2.92H182.345V34.744H201.017V37H179.993V2.92ZM210.793 20.008C210.793 17.608 211.241 15.368 212.137 13.288C213.033 11.176 214.281 9.32 215.881 7.72C217.481 6.088 219.321 4.824 221.401 3.928C223.513 3 225.769 2.536 228.169 2.536C230.569 2.536 232.825 3 234.937 3.928C237.049 4.824 238.905 6.088 240.505 7.72C242.105 9.32 243.353 11.176 244.249 13.288C245.177 15.368 245.641 17.608 245.641 20.008C245.641 22.408 245.177 24.664 244.249 26.776C243.353 28.856 242.105 30.696 240.505 32.296C238.905 33.896 237.049 35.144 234.937 36.04C232.825 36.936 230.569 37.384 228.169 37.384C225.769 37.384 223.513 36.952 221.401 36.088C219.321 35.224 217.481 34.008 215.881 32.44C214.281 30.872 213.033 29.032 212.137 26.92C211.241 24.808 210.793 22.504 210.793 20.008ZM213.193 20.056C213.193 22.136 213.577 24.088 214.345 25.912C215.113 27.736 216.185 29.336 217.561 30.712C218.937 32.088 220.521 33.176 222.313 33.976C224.137 34.744 226.073 35.128 228.121 35.128C230.233 35.128 232.201 34.744 234.025 33.976C235.849 33.176 237.449 32.088 238.825 30.712C240.201 29.336 241.273 27.736 242.041 25.912C242.841 24.088 243.241 22.12 243.241 20.008C243.241 17.928 242.841 15.976 242.041 14.152C241.273 12.296 240.201 10.68 238.825 9.304C237.449 7.896 235.849 6.792 234.025 5.992C232.201 5.192 230.249 4.792 228.169 4.792C226.057 4.792 224.089 5.208 222.265 6.04C220.441 6.84 218.841 7.944 217.465 9.352C216.121 10.76 215.065 12.392 214.297 14.248C213.561 16.072 213.193 18.008 213.193 20.056Z"/>
</mask>
<path d="M27.904 34.744C27.168 35.192 26.32 35.624 25.36 36.04C24.4 36.456 23.344 36.776 22.192 37C21.04 37.256 19.792 37.384 18.448 37.384C15.856 37.384 13.504 36.936 11.392 36.04C9.28 35.112 7.472 33.864 5.968 32.296C4.464 30.696 3.296 28.872 2.464 26.824C1.664 24.744 1.264 22.536 1.264 20.2C1.264 17.704 1.696 15.384 2.56 13.24C3.424 11.096 4.64 9.224 6.208 7.624C7.776 6.024 9.6 4.776 11.68 3.88C13.76 2.984 16.016 2.536 18.448 2.536C20.24 2.536 21.92 2.776 23.488 3.256C25.056 3.736 26.48 4.36 27.76 5.128L26.752 7.288C25.632 6.584 24.368 5.992 22.96 5.512C21.552 5.032 20.064 4.792 18.496 4.792C16.48 4.792 14.576 5.192 12.784 5.992C10.992 6.76 9.408 7.848 8.032 9.256C6.688 10.632 5.632 12.248 4.864 14.104C4.096 15.96 3.712 17.96 3.712 20.104C3.712 22.152 4.048 24.088 4.72 25.912C5.424 27.736 6.416 29.336 7.696 30.712C9.008 32.088 10.576 33.176 12.4 33.976C14.224 34.744 16.256 35.128 18.496 35.128C20.16 35.128 21.68 34.904 23.056 34.456C24.464 33.976 25.712 33.384 26.8 32.68L27.904 34.744ZM37.9555 37L52.3555 1.432H52.5475L66.9475 37H64.3075L51.7795 5.176L53.4115 4.264L40.3075 37H37.9555ZM44.9155 23.512H60.0355L60.7075 25.72H44.3395L44.9155 23.512ZM86.6781 2.92C89.9741 2.92 92.5181 3.608 94.3101 4.984C96.1341 6.328 97.0461 8.52 97.0461 11.56C97.0461 13.064 96.7581 14.44 96.1821 15.688C95.6061 16.936 94.7421 17.96 93.5901 18.76C92.4701 19.56 91.0621 20.072 89.3661 20.296L89.1261 19.144C90.8861 19.272 92.4861 19.72 93.9261 20.488C95.3981 21.224 96.5661 22.232 97.4301 23.512C98.3261 24.76 98.7741 26.232 98.7741 27.928C98.7741 29.464 98.4701 30.808 97.8621 31.96C97.2861 33.08 96.4861 34.024 95.4621 34.792C94.4701 35.528 93.3341 36.088 92.0541 36.472C90.7741 36.824 89.4301 37 88.0221 37H79.1421V2.92H86.6781ZM87.7821 18.856C90.2141 18.856 91.9581 18.2 93.0141 16.888C94.1021 15.576 94.6461 13.944 94.6461 11.992C94.6461 9.56 93.9261 7.816 92.4861 6.76C91.0781 5.704 89.1741 5.176 86.7741 5.176H81.4941V18.856H87.7821ZM87.9261 34.84C89.4621 34.84 90.8701 34.6 92.1501 34.12C93.4301 33.608 94.4541 32.84 95.2221 31.816C95.9901 30.792 96.3741 29.528 96.3741 28.024C96.3741 26.36 95.9421 25.032 95.0781 24.04C94.2141 23.016 93.1261 22.28 91.8141 21.832C90.5021 21.352 89.1581 21.112 87.7821 21.112H81.4941V34.84H87.9261ZM111.775 2.92H132.799V5.176H114.127V18.712H130.927V20.968H114.127V34.744H133.471V37H111.775V2.92ZM146.751 2.92H149.103V34.744H167.775V37H146.751V2.92ZM179.993 2.92H182.345V34.744H201.017V37H179.993V2.92ZM210.793 20.008C210.793 17.608 211.241 15.368 212.137 13.288C213.033 11.176 214.281 9.32 215.881 7.72C217.481 6.088 219.321 4.824 221.401 3.928C223.513 3 225.769 2.536 228.169 2.536C230.569 2.536 232.825 3 234.937 3.928C237.049 4.824 238.905 6.088 240.505 7.72C242.105 9.32 243.353 11.176 244.249 13.288C245.177 15.368 245.641 17.608 245.641 20.008C245.641 22.408 245.177 24.664 244.249 26.776C243.353 28.856 242.105 30.696 240.505 32.296C238.905 33.896 237.049 35.144 234.937 36.04C232.825 36.936 230.569 37.384 228.169 37.384C225.769 37.384 223.513 36.952 221.401 36.088C219.321 35.224 217.481 34.008 215.881 32.44C214.281 30.872 213.033 29.032 212.137 26.92C211.241 24.808 210.793 22.504 210.793 20.008ZM213.193 20.056C213.193 22.136 213.577 24.088 214.345 25.912C215.113 27.736 216.185 29.336 217.561 30.712C218.937 32.088 220.521 33.176 222.313 33.976C224.137 34.744 226.073 35.128 228.121 35.128C230.233 35.128 232.201 34.744 234.025 33.976C235.849 33.176 237.449 32.088 238.825 30.712C240.201 29.336 241.273 27.736 242.041 25.912C242.841 24.088 243.241 22.12 243.241 20.008C243.241 17.928 242.841 15.976 242.041 14.152C241.273 12.296 240.201 10.68 238.825 9.304C237.449 7.896 235.849 6.792 234.025 5.992C232.201 5.192 230.249 4.792 228.169 4.792C226.057 4.792 224.089 5.208 222.265 6.04C220.441 6.84 218.841 7.944 217.465 9.352C216.121 10.76 215.065 12.392 214.297 14.248C213.561 16.072 213.193 18.008 213.193 20.056Z" fill="white"/>
<path d="M27.904 34.744L28.4239 35.5982L29.2319 35.1064L28.7858 34.2723L27.904 34.744ZM25.36 36.04L25.7576 36.9576L25.36 36.04ZM22.192 37L22.0011 36.0184L21.9881 36.0209L21.9751 36.0238L22.192 37ZM11.392 36.04L10.9897 36.9556L11.0015 36.9606L11.392 36.04ZM5.968 32.296L5.23934 32.9809L5.24632 32.9882L5.968 32.296ZM2.464 26.824L1.53065 27.183L1.53401 27.1917L1.53753 27.2004L2.464 26.824ZM6.208 7.624L5.49379 6.92407V6.92407L6.208 7.624ZM11.68 3.88L12.0756 4.79841L11.68 3.88ZM23.488 3.256L23.1953 4.2122L23.1953 4.2122L23.488 3.256ZM27.76 5.128L28.6662 5.55088L29.0473 4.73419L28.2745 4.27051L27.76 5.128ZM26.752 7.288L26.2198 8.13464L27.1791 8.73758L27.6582 7.71088L26.752 7.288ZM22.96 5.512L23.2827 4.56549H23.2827L22.96 5.512ZM12.784 5.992L13.1779 6.91114L13.1848 6.90819L13.1917 6.90514L12.784 5.992ZM8.032 9.256L7.31681 8.55707L7.31662 8.55726L8.032 9.256ZM4.72 25.912L3.78166 26.2577L3.78431 26.2649L3.78708 26.2721L4.72 25.912ZM7.696 30.712L6.96376 31.3932L6.97226 31.4021L7.696 30.712ZM12.4 33.976L11.9983 34.8918L12.0051 34.8948L12.0119 34.8976L12.4 33.976ZM23.056 34.456L23.3656 35.407L23.3787 35.4025L23.056 34.456ZM26.8 32.68L27.6818 32.2083L27.1692 31.25L26.2568 31.8404L26.8 32.68ZM27.3841 33.8898C26.6946 34.3095 25.8888 34.721 24.9624 35.1224L25.7576 36.9576C26.7512 36.527 27.6414 36.0745 28.4239 35.5982L27.3841 33.8898ZM24.9624 35.1224C24.0763 35.5064 23.0906 35.8066 22.0011 36.0184L22.3829 37.9816C23.5974 37.7454 24.7238 37.4056 25.7576 36.9576L24.9624 35.1224ZM21.9751 36.0238C20.9033 36.262 19.7289 36.384 18.448 36.384V38.384C19.8551 38.384 21.1767 38.25 22.4089 37.9762L21.9751 36.0238ZM18.448 36.384C15.9728 36.384 13.756 35.9566 11.7826 35.1194L11.0015 36.9606C13.252 37.9154 15.7392 38.384 18.448 38.384V36.384ZM11.7943 35.1245C9.79484 34.2459 8.09737 33.0714 6.68968 31.6038L5.24632 32.9882C6.84663 34.6566 8.76516 35.9781 10.9897 36.9555L11.7943 35.1245ZM6.69663 31.6111C5.27759 30.1015 4.17641 28.3822 3.39047 26.4476L1.53753 27.2004C2.41559 29.3618 3.65041 31.2905 5.23937 32.9809L6.69663 31.6111ZM3.39735 26.465C2.64351 24.505 2.264 22.4193 2.264 20.2H0.264C0.264 22.6527 0.684492 24.983 1.53065 27.183L3.39735 26.465ZM2.264 20.2C2.264 17.8218 2.6751 15.6298 3.48752 13.6138L1.63248 12.8662C0.716902 15.1382 0.264 17.5862 0.264 20.2H2.264ZM3.48752 13.6138C4.30409 11.5875 5.44895 9.82725 6.92221 8.32393L5.49379 6.92407C3.83105 8.62074 2.54391 10.6045 1.63248 12.8662L3.48752 13.6138ZM6.92221 8.32393C8.39821 6.81781 10.1137 5.64356 12.0756 4.79841L11.2844 2.96158C9.08633 3.90843 7.15379 5.23019 5.49379 6.92407L6.92221 8.32393ZM12.0756 4.79841C14.0217 3.96012 16.1419 3.536 18.448 3.536V1.536C15.8901 1.536 13.4983 2.00788 11.2844 2.96158L12.0756 4.79841ZM18.448 3.536C20.1499 3.536 21.7305 3.7638 23.1953 4.2122L23.7807 2.2998C22.1095 1.7882 20.3301 1.536 18.448 1.536V3.536ZM23.1953 4.2122C24.6932 4.67074 26.0416 5.26315 27.2455 5.98549L28.2745 4.27051C26.9184 3.45684 25.4188 2.80126 23.7807 2.2998L23.1953 4.2122ZM26.8538 4.70511L25.8458 6.86511L27.6582 7.71088L28.6662 5.55088L26.8538 4.70511ZM27.2842 6.44136C26.0909 5.69131 24.7552 5.06748 23.2827 4.56549L22.6373 6.45851C23.9808 6.91651 25.1731 7.47669 26.2198 8.13464L27.2842 6.44136ZM23.2827 4.56549C21.7653 4.04819 20.1678 3.792 18.496 3.792V5.792C19.9602 5.792 21.3387 6.01581 22.6373 6.45851L23.2827 4.56549ZM18.496 3.792C16.3435 3.792 14.3002 4.22001 12.3764 5.07886L13.1917 6.90514C14.8518 6.16399 16.6165 5.792 18.496 5.792V3.792ZM12.3901 5.07285C10.4764 5.89301 8.78351 7.05626 7.31681 8.55707L8.74719 9.95493C10.0325 8.63974 11.5076 7.62699 13.1779 6.91114L12.3901 5.07285ZM7.31662 8.55726C5.87962 10.0285 4.75453 11.7531 3.93998 13.7216L5.78802 14.4864C6.50947 12.7428 7.49638 11.2355 8.74738 9.95474L7.31662 8.55726ZM3.93998 13.7216C3.11851 15.7069 2.712 17.8377 2.712 20.104H4.712C4.712 18.0822 5.07349 16.2131 5.78802 14.4864L3.93998 13.7216ZM2.712 20.104C2.712 22.2636 3.06672 24.3172 3.78166 26.2577L5.65834 25.5663C5.02928 23.8588 4.712 22.0404 4.712 20.104H2.712ZM3.78708 26.2721C4.53505 28.21 5.59358 29.9201 6.96381 31.3931L8.42819 30.0309C7.23842 28.7519 6.31295 27.262 5.65292 25.5519L3.78708 26.2721ZM6.97226 31.4021C8.37995 32.8784 10.059 34.0412 11.9983 34.8918L12.8017 33.0602C11.093 32.3108 9.63605 31.2976 8.41974 30.0219L6.97226 31.4021ZM12.0119 34.8976C13.974 35.7237 16.1402 36.128 18.496 36.128V34.128C16.3718 34.128 14.4741 33.7643 12.7881 33.0544L12.0119 34.8976ZM18.496 36.128C20.2497 36.128 21.8759 35.8919 23.3656 35.4069L22.7464 33.5051C21.4841 33.9161 20.0703 34.128 18.496 34.128V36.128ZM23.3787 35.4025C24.8531 34.8999 26.1771 34.2741 27.3433 33.5196L26.2568 31.8404C25.2469 32.4939 24.0749 33.0521 22.7333 33.5095L23.3787 35.4025ZM25.9182 33.1517L27.0222 35.2157L28.7858 34.2723L27.6818 32.2083L25.9182 33.1517ZM37.9555 37L37.0286 36.6247L36.4718 38H37.9555V37ZM52.3555 1.432V0.431997H51.6815L51.4286 1.05673L52.3555 1.432ZM52.5475 1.432L53.4744 1.05673L53.2215 0.431997H52.5475V1.432ZM66.9475 37V38H68.4312L67.8744 36.6247L66.9475 37ZM64.3075 37L63.377 37.3663L63.6265 38H64.3075V37ZM51.7795 5.176L51.2917 4.30305L50.5289 4.72929L50.849 5.5423L51.7795 5.176ZM53.4115 4.264L54.3399 4.63562L55.3897 2.01298L52.9237 3.39105L53.4115 4.264ZM40.3075 37V38H40.9843L41.2359 37.3716L40.3075 37ZM44.9155 23.512V22.512H44.1429L43.9479 23.2596L44.9155 23.512ZM60.0355 23.512L60.9922 23.2208L60.7764 22.512H60.0355V23.512ZM60.7075 25.72V26.72H62.0571L61.6642 25.4288L60.7075 25.72ZM44.3395 25.72L43.3719 25.4676L43.0452 26.72H44.3395V25.72ZM38.8824 37.3753L53.2824 1.80727L51.4286 1.05673L37.0286 36.6247L38.8824 37.3753ZM52.3555 2.432H52.5475V0.431997H52.3555V2.432ZM51.6206 1.80727L66.0206 37.3753L67.8744 36.6247L53.4744 1.05673L51.6206 1.80727ZM66.9475 36H64.3075V38H66.9475V36ZM65.238 36.6337L52.71 4.80969L50.849 5.5423L63.377 37.3663L65.238 36.6337ZM52.2673 6.04894L53.8993 5.13694L52.9237 3.39105L51.2917 4.30305L52.2673 6.04894ZM52.4831 3.89237L39.3791 36.6284L41.2359 37.3716L54.3399 4.63562L52.4831 3.89237ZM40.3075 36H37.9555V38H40.3075V36ZM44.9155 24.512H60.0355V22.512H44.9155V24.512ZM59.0788 23.8032L59.7508 26.0112L61.6642 25.4288L60.9922 23.2208L59.0788 23.8032ZM60.7075 24.72H44.3395V26.72H60.7075V24.72ZM45.3071 25.9724L45.8831 23.7644L43.9479 23.2596L43.3719 25.4676L45.3071 25.9724ZM94.3101 4.984L93.7011 5.77715L93.709 5.78318L93.7169 5.78905L94.3101 4.984ZM96.1821 15.688L95.2742 15.2689L96.1821 15.688ZM93.5901 18.76L93.0197 17.9386L93.0089 17.9463L93.5901 18.76ZM89.3661 20.296L88.3871 20.5L88.5765 21.409L89.4971 21.2874L89.3661 20.296ZM89.1261 19.144L89.1987 18.1466L87.8768 18.0505L88.1471 19.348L89.1261 19.144ZM93.9261 20.488L93.4555 21.3704L93.4671 21.3765L93.4789 21.3824L93.9261 20.488ZM97.4301 23.512L96.6013 24.0715L96.6094 24.0835L96.6178 24.0952L97.4301 23.512ZM97.8621 31.96L96.9777 31.4932L96.9728 31.5027L97.8621 31.96ZM95.4621 34.792L96.058 35.5951L96.0621 35.592L95.4621 34.792ZM92.0541 36.472L92.3193 37.4362L92.3304 37.4331L92.3415 37.4298L92.0541 36.472ZM79.1421 37H78.1421V38H79.1421V37ZM79.1421 2.92V1.92H78.1421V2.92H79.1421ZM93.0141 16.888L92.2444 16.2497L92.2397 16.2553L92.2351 16.261L93.0141 16.888ZM92.4861 6.76L91.8861 7.56004L91.8948 7.5664L92.4861 6.76ZM81.4941 5.176V4.176H80.4941V5.176H81.4941ZM81.4941 18.856H80.4941V19.856H81.4941V18.856ZM92.1501 34.12L92.5013 35.0563L92.5114 35.0525L92.5215 35.0485L92.1501 34.12ZM95.2221 31.816L94.4221 31.216L95.2221 31.816ZM95.0781 24.04L94.3138 24.6849L94.3189 24.6909L94.324 24.6968L95.0781 24.04ZM91.8141 21.832L91.4705 22.7711L91.4807 22.7748L91.491 22.7783L91.8141 21.832ZM81.4941 21.112V20.112H80.4941V21.112H81.4941ZM81.4941 34.84H80.4941V35.84H81.4941V34.84ZM86.6781 3.92C89.8512 3.92 92.1479 4.58447 93.7011 5.77715L94.9192 4.19085C92.8884 2.63152 90.097 1.92 86.6781 1.92V3.92ZM93.7169 5.78905C95.2031 6.88415 96.0461 8.71987 96.0461 11.56H98.0461C98.0461 8.32013 97.0651 5.77185 94.9033 4.17894L93.7169 5.78905ZM96.0461 11.56C96.0461 12.9331 95.784 14.1643 95.2742 15.2689L97.0901 16.1071C97.7322 14.7157 98.0461 13.1949 98.0461 11.56H96.0461ZM95.2742 15.2689C94.7744 16.3517 94.0285 17.2381 93.0197 17.9386L94.1605 19.5814C95.4557 18.6819 96.4378 17.5203 97.0901 16.1071L95.2742 15.2689ZM93.0089 17.9463C92.0507 18.6307 90.8076 19.0969 89.2352 19.3046L89.4971 21.2874C91.3167 21.0471 92.8895 20.4893 94.1714 19.5737L93.0089 17.9463ZM90.3451 20.092L90.1051 18.94L88.1471 19.348L88.3871 20.5L90.3451 20.092ZM89.0536 20.1414C90.6858 20.2601 92.1485 20.6733 93.4555 21.3704L94.3967 19.6056C92.8238 18.7667 91.0865 18.2839 89.1987 18.1466L89.0536 20.1414ZM93.4789 21.3824C94.8075 22.0467 95.8399 22.9435 96.6013 24.0715L98.259 22.9525C97.2924 21.5205 95.9888 20.4013 94.3733 19.5936L93.4789 21.3824ZM96.6178 24.0952C97.3791 25.1556 97.7741 26.4184 97.7741 27.928H99.7741C99.7741 26.0456 99.2731 24.3644 98.2424 22.9288L96.6178 24.0952ZM97.7741 27.928C97.7741 29.3304 97.4973 30.5088 96.9777 31.4932L98.7465 32.4268C99.443 31.1072 99.7741 29.5976 99.7741 27.928H97.7741ZM96.9728 31.5027C96.4672 32.4858 95.767 33.3133 94.8621 33.992L96.0621 35.592C97.2052 34.7347 98.105 33.6743 98.7514 32.4173L96.9728 31.5027ZM94.8663 33.9889C93.9747 34.6504 92.9449 35.1607 91.7668 35.5142L92.3415 37.4298C93.7234 37.0153 94.9655 36.4056 96.058 35.5951L94.8663 33.9889ZM91.789 35.5078C90.6004 35.8346 89.346 36 88.0221 36V38C89.5143 38 90.9478 37.8134 92.3193 37.4362L91.789 35.5078ZM88.0221 36H79.1421V38H88.0221V36ZM80.1421 37V2.92H78.1421V37H80.1421ZM79.1421 3.92H86.6781V1.92H79.1421V3.92ZM87.7821 19.856C90.3771 19.856 92.4743 19.1536 93.7931 17.515L92.2351 16.261C91.442 17.2464 90.0511 17.856 87.7821 17.856V19.856ZM93.7839 17.5263C95.042 16.0092 95.6461 14.1413 95.6461 11.992H93.6461C93.6461 13.7467 93.1622 15.1428 92.2444 16.2497L93.7839 17.5263ZM95.6461 11.992C95.6461 9.36603 94.8605 7.26117 93.0775 5.95359L91.8948 7.5664C92.9917 8.37083 93.6461 9.75397 93.6461 11.992H95.6461ZM93.0861 5.96C91.4519 4.73431 89.313 4.176 86.7741 4.176V6.176C89.0353 6.176 90.7044 6.67369 91.8861 7.56L93.0861 5.96ZM86.7741 4.176H81.4941V6.176H86.7741V4.176ZM80.4941 5.176V18.856H82.4941V5.176H80.4941ZM81.4941 19.856H87.7821V17.856H81.4941V19.856ZM87.9261 35.84C89.5673 35.84 91.096 35.5833 92.5013 35.0563L91.799 33.1837C90.6443 33.6167 89.3569 33.84 87.9261 33.84V35.84ZM92.5215 35.0485C93.9582 34.4738 95.1356 33.598 96.0221 32.416L94.4221 31.216C93.7727 32.082 92.9021 32.7422 91.7787 33.1915L92.5215 35.0485ZM96.0221 32.416C96.9417 31.19 97.3741 29.7052 97.3741 28.024H95.3741C95.3741 29.3508 95.0386 30.394 94.4221 31.216L96.0221 32.416ZM97.3741 28.024C97.3741 26.1845 96.8933 24.6015 95.8322 23.3832L94.324 24.6968C94.991 25.4625 95.3741 26.5355 95.3741 28.024H97.3741ZM95.8424 23.3951C94.8572 22.2275 93.6147 21.3901 92.1373 20.8856L91.491 22.7783C92.6376 23.1699 93.571 23.8045 94.3138 24.6849L95.8424 23.3951ZM92.1577 20.8929C90.7374 20.3732 89.2772 20.112 87.7821 20.112V22.112C89.0391 22.112 90.2669 22.3308 91.4705 22.7711L92.1577 20.8929ZM87.7821 20.112H81.4941V22.112H87.7821V20.112ZM80.4941 21.112V34.84H82.4941V21.112H80.4941ZM81.4941 35.84H87.9261V33.84H81.4941V35.84ZM111.775 2.92V1.92H110.775V2.92H111.775ZM132.799 2.92H133.799V1.92H132.799V2.92ZM132.799 5.176V6.176H133.799V5.176H132.799ZM114.127 5.176V4.176H113.127V5.176H114.127ZM114.127 18.712H113.127V19.712H114.127V18.712ZM130.927 18.712H131.927V17.712H130.927V18.712ZM130.927 20.968V21.968H131.927V20.968H130.927ZM114.127 20.968V19.968H113.127V20.968H114.127ZM114.127 34.744H113.127V35.744H114.127V34.744ZM133.471 34.744H134.471V33.744H133.471V34.744ZM133.471 37V38H134.471V37H133.471ZM111.775 37H110.775V38H111.775V37ZM111.775 3.92H132.799V1.92H111.775V3.92ZM131.799 2.92V5.176H133.799V2.92H131.799ZM132.799 4.176H114.127V6.176H132.799V4.176ZM113.127 5.176V18.712H115.127V5.176H113.127ZM114.127 19.712H130.927V17.712H114.127V19.712ZM129.927 18.712V20.968H131.927V18.712H129.927ZM130.927 19.968H114.127V21.968H130.927V19.968ZM113.127 20.968V34.744H115.127V20.968H113.127ZM114.127 35.744H133.471V33.744H114.127V35.744ZM132.471 34.744V37H134.471V34.744H132.471ZM133.471 36H111.775V38H133.471V36ZM112.775 37V2.92H110.775V37H112.775ZM146.751 2.92V1.92H145.751V2.92H146.751ZM149.103 2.92H150.103V1.92H149.103V2.92ZM149.103 34.744H148.103V35.744H149.103V34.744ZM167.775 34.744H168.775V33.744H167.775V34.744ZM167.775 37V38H168.775V37H167.775ZM146.751 37H145.751V38H146.751V37ZM146.751 3.92H149.103V1.92H146.751V3.92ZM148.103 2.92V34.744H150.103V2.92H148.103ZM149.103 35.744H167.775V33.744H149.103V35.744ZM166.775 34.744V37H168.775V34.744H166.775ZM167.775 36H146.751V38H167.775V36ZM147.751 37V2.92H145.751V37H147.751ZM179.993 2.92V1.92H178.993V2.92H179.993ZM182.345 2.92H183.345V1.92H182.345V2.92ZM182.345 34.744H181.345V35.744H182.345V34.744ZM201.017 34.744H202.017V33.744H201.017V34.744ZM201.017 37V38H202.017V37H201.017ZM179.993 37H178.993V38H179.993V37ZM179.993 3.92H182.345V1.92H179.993V3.92ZM181.345 2.92V34.744H183.345V2.92H181.345ZM182.345 35.744H201.017V33.744H182.345V35.744ZM200.017 34.744V37H202.017V34.744H200.017ZM201.017 36H179.993V38H201.017V36ZM180.993 37V2.92H178.993V37H180.993ZM212.137 13.288L213.056 13.6836L213.058 13.6785L212.137 13.288ZM215.881 7.72L216.589 8.42714L216.595 8.42007L215.881 7.72ZM221.401 3.928L221.797 4.84644L221.804 4.84352L221.401 3.928ZM234.937 3.928L234.535 4.84359L234.547 4.84858L234.937 3.928ZM240.505 7.72L239.791 8.4201L239.798 8.42711L240.505 7.72ZM244.249 13.288L243.329 13.6785L243.332 13.687L243.336 13.6954L244.249 13.288ZM244.249 26.776L243.334 26.3737L243.331 26.3804L244.249 26.776ZM240.505 32.296L239.798 31.5889L240.505 32.296ZM234.937 36.04L235.328 36.9606L234.937 36.04ZM221.401 36.088L221.018 37.0115L221.023 37.0135L221.401 36.088ZM215.881 32.44L216.581 31.7258L215.881 32.44ZM212.137 26.92L211.217 27.3105L212.137 26.92ZM214.345 25.912L213.424 26.3001L214.345 25.912ZM217.561 30.712L218.268 30.0049L217.561 30.712ZM222.313 33.976L221.906 34.8891L221.915 34.8935L221.925 34.8976L222.313 33.976ZM234.025 33.976L234.413 34.8976L234.42 34.8948L234.427 34.8918L234.025 33.976ZM238.825 30.712L238.118 30.0049L238.825 30.712ZM242.041 25.912L241.126 25.5103L241.123 25.5171L241.12 25.5239L242.041 25.912ZM242.041 14.152L241.117 14.5344L241.121 14.544L241.126 14.5537L242.041 14.152ZM238.825 9.304L238.11 10.003L238.118 10.0111L238.825 9.304ZM234.025 5.992L234.427 5.07621L234.025 5.992ZM222.265 6.04L222.667 6.95579L222.674 6.95285L222.68 6.94982L222.265 6.04ZM217.465 9.352L216.75 8.65302L216.742 8.66152L217.465 9.352ZM214.297 14.248L213.373 13.8656L213.37 13.8738L214.297 14.248ZM211.793 20.008C211.793 17.7358 212.217 15.6313 213.056 13.6836L211.219 12.8924C210.266 15.1047 209.793 17.4802 209.793 20.008H211.793ZM213.058 13.6785C213.905 11.6831 215.081 9.93499 216.588 8.42711L215.174 7.01289C213.482 8.70501 212.162 10.6689 211.217 12.8974L213.058 13.6785ZM216.595 8.42007C218.105 6.87998 219.837 5.69053 221.797 4.84641L221.006 3.00959C218.805 3.95747 216.857 5.29602 215.167 7.01993L216.595 8.42007ZM221.804 4.84352C223.784 3.97348 225.902 3.536 228.169 3.536V1.536C225.637 1.536 223.243 2.02651 220.999 3.01248L221.804 4.84352ZM228.169 3.536C230.437 3.536 232.555 3.97348 234.535 4.84352L235.34 3.01248C233.096 2.02651 230.702 1.536 228.169 1.536V3.536ZM234.547 4.84858C236.538 5.69332 238.284 6.88254 239.791 8.42007L241.219 7.01993C239.527 5.29346 237.561 3.95468 235.328 3.00742L234.547 4.84858ZM239.798 8.42711C241.306 9.93499 242.482 11.6831 243.329 13.6785L245.17 12.8974C244.225 10.6689 242.905 8.70501 241.212 7.01289L239.798 8.42711ZM243.336 13.6954C244.204 15.6404 244.641 17.7407 244.641 20.008H246.641C246.641 17.4753 246.151 15.0956 245.163 12.8806L243.336 13.6954ZM244.641 20.008C244.641 22.2752 244.204 24.3937 243.334 26.3737L245.165 27.1783C246.151 24.9343 246.641 22.5408 246.641 20.008H244.641ZM243.331 26.3804C242.485 28.3442 241.309 30.0785 239.798 31.5889L241.212 33.0031C242.902 31.3135 244.222 29.3678 245.168 27.1716L243.331 26.3804ZM239.798 31.5889C238.29 33.0968 236.542 34.2729 234.547 35.1194L235.328 36.9606C237.556 36.0151 239.52 34.6952 241.212 33.0031L239.798 31.5889ZM234.547 35.1194C232.564 35.9606 230.441 36.384 228.169 36.384V38.384C230.697 38.384 233.087 37.9114 235.328 36.9606L234.547 35.1194ZM228.169 36.384C225.892 36.384 223.766 35.9748 221.78 35.1625L221.023 37.0135C223.261 37.9292 225.646 38.384 228.169 38.384V36.384ZM221.785 35.1645C219.822 34.3492 218.09 33.204 216.581 31.7258L215.181 33.1542C216.873 34.812 218.821 36.0988 221.018 37.0115L221.785 35.1645ZM216.581 31.7258C215.078 30.2523 213.904 28.5231 213.058 26.5294L211.217 27.3105C212.163 29.5409 213.485 31.4917 215.181 33.1542L216.581 31.7258ZM213.058 26.5294C212.219 24.5515 211.793 22.3817 211.793 20.008H209.793C209.793 22.6263 210.264 25.0645 211.217 27.3105L213.058 26.5294ZM212.193 20.056C212.193 22.2624 212.601 24.347 213.424 26.3001L215.267 25.5239C214.553 23.829 214.193 22.0096 214.193 20.056H212.193ZM213.424 26.3001C214.241 28.2412 215.385 29.9501 216.854 31.4191L218.268 30.0049C216.986 28.7219 215.986 27.2308 215.267 25.5239L213.424 26.3001ZM216.854 31.4191C218.317 32.8822 220.003 34.0398 221.906 34.8891L222.721 33.0629C221.04 32.3122 219.557 31.2938 218.268 30.0049L216.854 31.4191ZM221.925 34.8976C223.876 35.7192 225.945 36.128 228.121 36.128V34.128C226.202 34.128 224.398 33.7688 222.701 33.0544L221.925 34.8976ZM228.121 36.128C230.358 36.128 232.458 35.7208 234.413 34.8976L233.637 33.0544C231.944 33.7672 230.109 34.128 228.121 34.128V36.128ZM234.427 34.8918C236.362 34.043 238.066 32.8851 239.532 31.4191L238.118 30.0049C236.832 31.2909 235.337 32.309 233.624 33.0602L234.427 34.8918ZM239.532 31.4191C241.002 29.9501 242.146 28.2412 242.963 26.3001L241.12 25.5239C240.401 27.2308 239.401 28.7219 238.118 30.0049L239.532 31.4191ZM242.957 26.3137C243.816 24.3555 244.241 22.2498 244.241 20.008H242.241C242.241 21.9902 241.867 23.8205 241.126 25.5103L242.957 26.3137ZM244.241 20.008C244.241 17.796 243.815 15.7066 242.957 13.7503L241.126 14.5537C241.868 16.2454 242.241 18.06 242.241 20.008H244.241ZM242.965 13.7696C242.149 11.7962 241.004 10.0688 239.532 8.59689L238.118 10.0111C239.398 11.2912 240.398 12.7958 241.117 14.5344L242.965 13.7696ZM239.541 8.60507C238.074 7.10425 236.367 5.9271 234.427 5.07621L233.624 6.90779C235.332 7.65689 236.825 8.68774 238.11 10.0029L239.541 8.60507ZM234.427 5.07621C232.471 4.21821 230.381 3.792 228.169 3.792V5.792C230.117 5.792 231.932 6.16579 233.624 6.90779L234.427 5.07621ZM228.169 3.792C225.922 3.792 223.812 4.23559 221.85 5.13018L222.68 6.94982C224.367 6.18041 226.193 5.792 228.169 5.792V3.792ZM221.864 5.12421C219.924 5.97511 218.217 7.15225 216.75 8.65307L218.181 10.0509C219.466 8.73575 220.959 7.70489 222.667 6.95579L221.864 5.12421ZM216.742 8.66152C215.31 10.1618 214.187 11.8991 213.373 13.8656L215.221 14.6304C215.944 12.8849 216.933 11.3582 218.189 10.0425L216.742 8.66152ZM213.37 13.8738C212.584 15.8216 212.193 17.8851 212.193 20.056H214.193C214.193 18.1309 214.539 16.3224 215.225 14.6222L213.37 13.8738Z" fill="white" mask="url(#path-1-outside-1_162_701)"/>
</svg>
