<svg width="507" height="58" viewBox="0 0 507 58" fill="none" xmlns="http://www.w3.org/2000/svg">
<mask id="path-1-outside-1_162_702" maskUnits="userSpaceOnUse" x="0" y="0" width="507" height="58" fill="black">
<rect fill="white" width="507" height="58"/>
<path d="M42.45 51.22C41.61 51.78 40.4667 52.41 39.02 53.11C37.5733 53.81 35.87 54.3933 33.91 54.86C31.9967 55.3267 29.8967 55.56 27.61 55.56C23.69 55.5133 20.1433 54.8133 16.97 53.46C13.8433 52.1067 11.1833 50.2633 8.99 47.93C6.79667 45.5967 5.09333 42.9133 3.88 39.88C2.71333 36.8 2.13 33.5333 2.13 30.08C2.13 26.3 2.73667 22.8233 3.95 19.65C5.21 16.43 6.96 13.6533 9.2 11.32C11.44 8.94 14.0767 7.09667 17.11 5.79C20.19 4.48333 23.55 3.83 27.19 3.83C30.2233 3.83 32.9767 4.25 35.45 5.09C37.9233 5.88333 40.0467 6.84 41.82 7.96L39.09 14.26C37.69 13.3267 35.9867 12.44 33.98 11.6C32.02 10.76 29.8267 10.34 27.4 10.34C24.9267 10.34 22.5933 10.83 20.4 11.81C18.2067 12.79 16.27 14.1667 14.59 15.94C12.91 17.7133 11.58 19.79 10.6 22.17C9.66667 24.5033 9.2 27.0233 9.2 29.73C9.2 32.4833 9.62 35.05 10.46 37.43C11.3467 39.7633 12.5833 41.7933 14.17 43.52C15.8033 45.2467 17.7633 46.6 20.05 47.58C22.3367 48.56 24.9033 49.05 27.75 49.05C30.3167 49.05 32.6033 48.6533 34.61 47.86C36.6167 47.0667 38.2733 46.18 39.58 45.2L42.45 51.22ZM61.2335 29.73C61.2335 26.23 61.8868 22.94 63.1935 19.86C64.5468 16.7333 66.4135 13.98 68.7935 11.6C71.1735 9.17333 73.9035 7.28333 76.9835 5.93C80.1102 4.53 83.4702 3.83 87.0635 3.83C90.6102 3.83 93.9235 4.53 97.0035 5.93C100.13 7.28333 102.884 9.17333 105.264 11.6C107.69 13.98 109.58 16.7333 110.934 19.86C112.287 22.94 112.964 26.23 112.964 29.73C112.964 33.3233 112.287 36.6833 110.934 39.81C109.58 42.9367 107.69 45.69 105.264 48.07C102.884 50.4033 100.13 52.2467 97.0035 53.6C93.9235 54.9067 90.6102 55.56 87.0635 55.56C83.4702 55.56 80.1102 54.9067 76.9835 53.6C73.9035 52.2933 71.1735 50.4733 68.7935 48.14C66.4135 45.8067 64.5468 43.0767 63.1935 39.95C61.8868 36.8233 61.2335 33.4167 61.2335 29.73ZM68.2335 29.8C68.2335 32.46 68.7235 34.9567 69.7035 37.29C70.6835 39.5767 72.0368 41.6067 73.7635 43.38C75.4902 45.1533 77.4968 46.5533 79.7835 47.58C82.0702 48.56 84.5435 49.05 87.2035 49.05C89.8169 49.05 92.2669 48.56 94.5535 47.58C96.8402 46.5533 98.8235 45.1533 100.504 43.38C102.184 41.6067 103.514 39.5767 104.494 37.29C105.474 34.9567 105.964 32.4367 105.964 29.73C105.964 27.07 105.474 24.5733 104.494 22.24C103.514 19.86 102.16 17.7833 100.434 16.01C98.7069 14.2367 96.7002 12.86 94.4135 11.88C92.1269 10.8533 89.6769 10.34 87.0635 10.34C84.4035 10.34 81.9302 10.8533 79.6435 11.88C77.3568 12.9067 75.3502 14.3067 73.6235 16.08C71.8969 17.8533 70.5668 19.93 69.6335 22.31C68.7002 24.6433 68.2335 27.14 68.2335 29.8ZM134.903 55V2.78H134.973L161.503 40.44L158.633 39.88L185.093 2.78H185.233V55H178.513V18.18L178.933 21.61L159.823 48.63H159.683L140.293 21.61L141.483 18.46V55H134.903ZM210.276 4.39H243.176V10.9H217.066V26.3H240.376V32.81H217.066V48.49H244.156V55H210.276V4.39ZM279.88 4.39C282.447 4.39 284.803 4.74 286.95 5.44C289.143 6.09333 291.033 7.09667 292.62 8.45C294.253 9.75667 295.513 11.39 296.4 13.35C297.333 15.2633 297.8 17.5033 297.8 20.07C297.8 22.0767 297.497 24.0367 296.89 25.95C296.33 27.8633 295.373 29.6133 294.02 31.2C292.667 32.74 290.893 34 288.7 34.98C286.553 35.9133 283.893 36.38 280.72 36.38H273.23V55H266.44V4.39H279.88ZM280.58 29.87C282.587 29.87 284.243 29.5667 285.55 28.96C286.903 28.3533 287.953 27.5833 288.7 26.65C289.447 25.67 289.983 24.62 290.31 23.5C290.637 22.38 290.8 21.33 290.8 20.35C290.8 19.3233 290.613 18.2733 290.24 17.2C289.913 16.08 289.353 15.0533 288.56 14.12C287.813 13.1867 286.81 12.4167 285.55 11.81C284.337 11.2033 282.843 10.9 281.07 10.9H273.23V29.87H280.58ZM288.91 33.72L302.14 55H294.3L280.86 33.93L288.91 33.72ZM359.159 51.22C358.319 51.78 357.176 52.41 355.729 53.11C354.282 53.81 352.579 54.3933 350.619 54.86C348.706 55.3267 346.606 55.56 344.319 55.56C340.399 55.5133 336.852 54.8133 333.679 53.46C330.552 52.1067 327.892 50.2633 325.699 47.93C323.506 45.5967 321.802 42.9133 320.589 39.88C319.422 36.8 318.839 33.5333 318.839 30.08C318.839 26.3 319.446 22.8233 320.659 19.65C321.919 16.43 323.669 13.6533 325.909 11.32C328.149 8.94 330.786 7.09667 333.819 5.79C336.899 4.48333 340.259 3.83 343.899 3.83C346.932 3.83 349.686 4.25 352.159 5.09C354.632 5.88333 356.756 6.84 358.529 7.96L355.799 14.26C354.399 13.3267 352.696 12.44 350.689 11.6C348.729 10.76 346.536 10.34 344.109 10.34C341.636 10.34 339.302 10.83 337.109 11.81C334.916 12.79 332.979 14.1667 331.299 15.94C329.619 17.7133 328.289 19.79 327.309 22.17C326.376 24.5033 325.909 27.0233 325.909 29.73C325.909 32.4833 326.329 35.05 327.169 37.43C328.056 39.7633 329.292 41.7933 330.879 43.52C332.512 45.2467 334.472 46.6 336.759 47.58C339.046 48.56 341.612 49.05 344.459 49.05C347.026 49.05 349.312 48.6533 351.319 47.86C353.326 47.0667 354.982 46.18 356.289 45.2L359.159 51.22ZM381.093 4.39H387.883V55H381.093V4.39ZM407.881 55L430.001 2.29H430.421L452.471 55H444.701L428.181 12.93L433.011 9.78L414.531 55H407.881ZM420.831 35.82H439.661L441.901 41.7H418.871L420.831 35.82ZM472.503 4.39H479.293V48.49H504.983V55H472.503V4.39Z"/>
</mask>
<path d="M42.45 51.22C41.61 51.78 40.4667 52.41 39.02 53.11C37.5733 53.81 35.87 54.3933 33.91 54.86C31.9967 55.3267 29.8967 55.56 27.61 55.56C23.69 55.5133 20.1433 54.8133 16.97 53.46C13.8433 52.1067 11.1833 50.2633 8.99 47.93C6.79667 45.5967 5.09333 42.9133 3.88 39.88C2.71333 36.8 2.13 33.5333 2.13 30.08C2.13 26.3 2.73667 22.8233 3.95 19.65C5.21 16.43 6.96 13.6533 9.2 11.32C11.44 8.94 14.0767 7.09667 17.11 5.79C20.19 4.48333 23.55 3.83 27.19 3.83C30.2233 3.83 32.9767 4.25 35.45 5.09C37.9233 5.88333 40.0467 6.84 41.82 7.96L39.09 14.26C37.69 13.3267 35.9867 12.44 33.98 11.6C32.02 10.76 29.8267 10.34 27.4 10.34C24.9267 10.34 22.5933 10.83 20.4 11.81C18.2067 12.79 16.27 14.1667 14.59 15.94C12.91 17.7133 11.58 19.79 10.6 22.17C9.66667 24.5033 9.2 27.0233 9.2 29.73C9.2 32.4833 9.62 35.05 10.46 37.43C11.3467 39.7633 12.5833 41.7933 14.17 43.52C15.8033 45.2467 17.7633 46.6 20.05 47.58C22.3367 48.56 24.9033 49.05 27.75 49.05C30.3167 49.05 32.6033 48.6533 34.61 47.86C36.6167 47.0667 38.2733 46.18 39.58 45.2L42.45 51.22ZM61.2335 29.73C61.2335 26.23 61.8868 22.94 63.1935 19.86C64.5468 16.7333 66.4135 13.98 68.7935 11.6C71.1735 9.17333 73.9035 7.28333 76.9835 5.93C80.1102 4.53 83.4702 3.83 87.0635 3.83C90.6102 3.83 93.9235 4.53 97.0035 5.93C100.13 7.28333 102.884 9.17333 105.264 11.6C107.69 13.98 109.58 16.7333 110.934 19.86C112.287 22.94 112.964 26.23 112.964 29.73C112.964 33.3233 112.287 36.6833 110.934 39.81C109.58 42.9367 107.69 45.69 105.264 48.07C102.884 50.4033 100.13 52.2467 97.0035 53.6C93.9235 54.9067 90.6102 55.56 87.0635 55.56C83.4702 55.56 80.1102 54.9067 76.9835 53.6C73.9035 52.2933 71.1735 50.4733 68.7935 48.14C66.4135 45.8067 64.5468 43.0767 63.1935 39.95C61.8868 36.8233 61.2335 33.4167 61.2335 29.73ZM68.2335 29.8C68.2335 32.46 68.7235 34.9567 69.7035 37.29C70.6835 39.5767 72.0368 41.6067 73.7635 43.38C75.4902 45.1533 77.4968 46.5533 79.7835 47.58C82.0702 48.56 84.5435 49.05 87.2035 49.05C89.8169 49.05 92.2669 48.56 94.5535 47.58C96.8402 46.5533 98.8235 45.1533 100.504 43.38C102.184 41.6067 103.514 39.5767 104.494 37.29C105.474 34.9567 105.964 32.4367 105.964 29.73C105.964 27.07 105.474 24.5733 104.494 22.24C103.514 19.86 102.16 17.7833 100.434 16.01C98.7069 14.2367 96.7002 12.86 94.4135 11.88C92.1269 10.8533 89.6769 10.34 87.0635 10.34C84.4035 10.34 81.9302 10.8533 79.6435 11.88C77.3568 12.9067 75.3502 14.3067 73.6235 16.08C71.8969 17.8533 70.5668 19.93 69.6335 22.31C68.7002 24.6433 68.2335 27.14 68.2335 29.8ZM134.903 55V2.78H134.973L161.503 40.44L158.633 39.88L185.093 2.78H185.233V55H178.513V18.18L178.933 21.61L159.823 48.63H159.683L140.293 21.61L141.483 18.46V55H134.903ZM210.276 4.39H243.176V10.9H217.066V26.3H240.376V32.81H217.066V48.49H244.156V55H210.276V4.39ZM279.88 4.39C282.447 4.39 284.803 4.74 286.95 5.44C289.143 6.09333 291.033 7.09667 292.62 8.45C294.253 9.75667 295.513 11.39 296.4 13.35C297.333 15.2633 297.8 17.5033 297.8 20.07C297.8 22.0767 297.497 24.0367 296.89 25.95C296.33 27.8633 295.373 29.6133 294.02 31.2C292.667 32.74 290.893 34 288.7 34.98C286.553 35.9133 283.893 36.38 280.72 36.38H273.23V55H266.44V4.39H279.88ZM280.58 29.87C282.587 29.87 284.243 29.5667 285.55 28.96C286.903 28.3533 287.953 27.5833 288.7 26.65C289.447 25.67 289.983 24.62 290.31 23.5C290.637 22.38 290.8 21.33 290.8 20.35C290.8 19.3233 290.613 18.2733 290.24 17.2C289.913 16.08 289.353 15.0533 288.56 14.12C287.813 13.1867 286.81 12.4167 285.55 11.81C284.337 11.2033 282.843 10.9 281.07 10.9H273.23V29.87H280.58ZM288.91 33.72L302.14 55H294.3L280.86 33.93L288.91 33.72ZM359.159 51.22C358.319 51.78 357.176 52.41 355.729 53.11C354.282 53.81 352.579 54.3933 350.619 54.86C348.706 55.3267 346.606 55.56 344.319 55.56C340.399 55.5133 336.852 54.8133 333.679 53.46C330.552 52.1067 327.892 50.2633 325.699 47.93C323.506 45.5967 321.802 42.9133 320.589 39.88C319.422 36.8 318.839 33.5333 318.839 30.08C318.839 26.3 319.446 22.8233 320.659 19.65C321.919 16.43 323.669 13.6533 325.909 11.32C328.149 8.94 330.786 7.09667 333.819 5.79C336.899 4.48333 340.259 3.83 343.899 3.83C346.932 3.83 349.686 4.25 352.159 5.09C354.632 5.88333 356.756 6.84 358.529 7.96L355.799 14.26C354.399 13.3267 352.696 12.44 350.689 11.6C348.729 10.76 346.536 10.34 344.109 10.34C341.636 10.34 339.302 10.83 337.109 11.81C334.916 12.79 332.979 14.1667 331.299 15.94C329.619 17.7133 328.289 19.79 327.309 22.17C326.376 24.5033 325.909 27.0233 325.909 29.73C325.909 32.4833 326.329 35.05 327.169 37.43C328.056 39.7633 329.292 41.7933 330.879 43.52C332.512 45.2467 334.472 46.6 336.759 47.58C339.046 48.56 341.612 49.05 344.459 49.05C347.026 49.05 349.312 48.6533 351.319 47.86C353.326 47.0667 354.982 46.18 356.289 45.2L359.159 51.22ZM381.093 4.39H387.883V55H381.093V4.39ZM407.881 55L430.001 2.29H430.421L452.471 55H444.701L428.181 12.93L433.011 9.78L414.531 55H407.881ZM420.831 35.82H439.661L441.901 41.7H418.871L420.831 35.82ZM472.503 4.39H479.293V48.49H504.983V55H472.503V4.39Z" fill="white"/>
<path d="M42.45 51.22L43.5594 52.8841L45.0009 51.9231L44.2553 50.3593L42.45 51.22ZM39.02 53.11L39.8911 54.9103L39.02 53.11ZM33.91 54.86L33.4468 52.9144L33.4361 52.917L33.91 54.86ZM27.61 55.56L27.5862 57.5599L27.5981 57.56H27.61V55.56ZM16.97 53.46L16.1755 55.2955L16.1854 55.2997L16.97 53.46ZM8.99 47.93L7.53275 49.2998L8.99 47.93ZM3.88 39.88L2.00968 40.5885L2.01621 40.6057L2.02305 40.6228L3.88 39.88ZM3.95 19.65L2.08751 18.9212L2.08468 18.9285L2.0819 18.9357L3.95 19.65ZM9.2 11.32L10.6428 12.7051L10.6496 12.6979L10.6564 12.6907L9.2 11.32ZM17.11 5.79L16.3289 3.94881L16.3188 3.95317L17.11 5.79ZM35.45 5.09L34.8068 6.98376L34.8229 6.98923L34.8391 6.99443L35.45 5.09ZM41.82 7.96L43.6551 8.75521L44.3361 7.18363L42.888 6.26902L41.82 7.96ZM39.09 14.26L37.9806 15.9241L39.973 17.2524L40.9251 15.0552L39.09 14.26ZM33.98 11.6L33.1922 13.4383L33.1999 13.4416L33.2077 13.4449L33.98 11.6ZM20.4 11.81L19.5841 9.98398V9.98398L20.4 11.81ZM14.59 15.94L16.0419 17.3155V17.3155L14.59 15.94ZM10.6 22.17L8.75064 21.4085L8.7468 21.4178L8.74305 21.4272L10.6 22.17ZM10.46 37.43L8.57402 38.0956L8.58196 38.1181L8.59043 38.1404L10.46 37.43ZM14.17 43.52L12.6973 44.8732L12.7071 44.8839L12.7171 44.8944L14.17 43.52ZM20.05 47.58L20.8378 45.7417L20.05 47.58ZM34.61 47.86L33.8747 46.0001V46.0001L34.61 47.86ZM39.58 45.2L41.3853 44.3393L40.3341 42.1344L38.38 43.6L39.58 45.2ZM41.3406 49.5559C40.6078 50.0445 39.5552 50.6292 38.1489 51.3097L39.8911 54.9103C41.3781 54.1908 42.6123 53.5155 43.5594 52.8841L41.3406 49.5559ZM38.1489 51.3097C36.8604 51.9331 35.2997 52.4732 33.4468 52.9144L34.3732 56.8056C36.4403 56.3135 38.2862 55.6869 39.8911 54.9103L38.1489 51.3097ZM33.4361 52.917C31.7004 53.3403 29.7619 53.56 27.61 53.56V57.56C30.0314 57.56 32.2929 57.313 34.3839 56.803L33.4361 52.917ZM27.6338 53.5601C23.94 53.5162 20.6566 52.858 17.7546 51.6203L16.1854 55.2997C19.63 56.7687 23.44 57.5105 27.5862 57.5599L27.6338 53.5601ZM17.7644 51.6246C14.8719 50.3726 12.442 48.6822 10.4473 46.5602L7.53275 49.2998C9.9247 51.8445 12.8148 53.8408 16.1756 55.2954L17.7644 51.6246ZM10.4473 46.5602C8.42868 44.4128 6.85934 41.9432 5.73695 39.1372L2.02305 40.6228C3.32733 43.8835 5.16466 46.7806 7.53275 49.2998L10.4473 46.5602ZM5.75032 39.1715C4.67351 36.3288 4.13 33.3032 4.13 30.08H0.13C0.13 33.7635 0.75316 37.2712 2.00968 40.5885L5.75032 39.1715ZM4.13 30.08C4.13 26.5167 4.70124 23.2853 5.8181 20.3643L2.0819 18.9357C0.77209 22.3614 0.13 26.0833 0.13 30.08H4.13ZM5.81249 20.3788C6.98362 17.3859 8.5966 14.8365 10.6428 12.7051L7.75723 9.93494C5.3234 12.4702 3.43638 15.4741 2.08751 18.9212L5.81249 20.3788ZM10.6564 12.6907C12.7069 10.5121 15.1164 8.82643 17.9012 7.62682L16.3188 3.95317C13.0369 5.3669 10.1731 7.36789 7.7436 9.94927L10.6564 12.6907ZM17.8911 7.63116C20.703 6.43823 23.7946 5.83 27.19 5.83V1.83C23.3054 1.83 19.677 2.52844 16.3289 3.94884L17.8911 7.63116ZM27.19 5.83C30.0391 5.83 32.571 6.22442 34.8068 6.98376L36.0932 3.19623C33.3823 2.27557 30.4075 1.83 27.19 1.83V5.83ZM34.8391 6.99443C37.1882 7.7479 39.1506 8.63954 40.752 9.65098L42.888 6.26902C40.9428 5.04046 38.6585 4.01876 36.0609 3.18557L34.8391 6.99443ZM39.9849 7.16478L37.2549 13.4648L40.9251 15.0552L43.6551 8.75521L39.9849 7.16478ZM40.1994 12.5959C38.6675 11.5746 36.8446 10.631 34.7523 9.75512L33.2077 13.4449C35.1288 14.249 36.7125 15.0787 37.9806 15.9241L40.1994 12.5959ZM34.7678 9.76171C32.5268 8.80127 30.0603 8.34 27.4 8.34V12.34C29.593 12.34 31.5132 12.7187 33.1922 13.4383L34.7678 9.76171ZM27.4 8.34C24.654 8.34 22.0418 8.88585 19.5841 9.98398L21.2159 13.636C23.1448 12.7741 25.1993 12.34 27.4 12.34V8.34ZM19.5841 9.98398C17.1472 11.0728 14.9954 12.604 13.1381 14.5645L16.0419 17.3155C17.5446 15.7293 19.2662 14.5072 21.2159 13.636L19.5841 9.98398ZM13.1381 14.5645C11.28 16.5258 9.81918 18.8135 8.75064 21.4085L12.4494 22.9315C13.3408 20.7665 14.54 18.9009 16.0419 17.3155L13.1381 14.5645ZM8.74305 21.4272C7.70815 24.0145 7.2 26.7886 7.2 29.73H11.2C11.2 27.258 11.6252 24.9922 12.457 22.9128L8.74305 21.4272ZM7.2 29.73C7.2 32.6895 7.652 35.4832 8.57402 38.0956L12.346 36.7644C11.588 34.6168 11.2 32.2772 11.2 29.73H7.2ZM8.59043 38.1404C9.56148 40.6958 10.9279 42.9477 12.6973 44.8732L15.6427 42.1667C14.2388 40.639 13.1319 38.8308 12.3296 36.7196L8.59043 38.1404ZM12.7171 44.8944C14.5468 46.8287 16.7364 48.3358 19.2622 49.4183L20.8378 45.7417C18.7903 44.8642 17.0598 43.6646 15.6229 42.1456L12.7171 44.8944ZM19.2622 49.4183C21.8312 50.5193 24.6713 51.05 27.75 51.05V47.05C25.1353 47.05 22.8422 46.6007 20.8378 45.7417L19.2622 49.4183ZM27.75 51.05C30.5217 51.05 33.0647 50.6215 35.3453 49.7199L33.8747 46.0001C32.1419 46.6851 30.1116 47.05 27.75 47.05V51.05ZM35.3453 49.7199C37.4681 48.8807 39.2935 47.9149 40.78 46.8L38.38 43.6C37.2532 44.4451 35.7653 45.2526 33.8747 46.0001L35.3453 49.7199ZM37.7747 46.0607L40.6447 52.0807L44.2553 50.3593L41.3853 44.3393L37.7747 46.0607ZM63.1935 19.86L61.3581 19.0656L61.3552 19.0722L61.3524 19.0789L63.1935 19.86ZM68.7935 11.6L70.2077 13.0142L70.2146 13.0073L70.2214 13.0004L68.7935 11.6ZM76.9835 5.93L77.7881 7.76108L77.8008 7.75537L76.9835 5.93ZM97.0035 5.93L96.1759 7.75073L96.1924 7.75824L96.2091 7.76544L97.0035 5.93ZM105.264 11.6L103.836 13.0004L103.849 13.0143L103.863 13.0279L105.264 11.6ZM110.934 19.86L109.098 20.6545L109.102 20.6645L110.934 19.86ZM110.934 39.81L112.769 40.6044L110.934 39.81ZM105.264 48.07L106.664 49.4981L106.664 49.4979L105.264 48.07ZM97.0035 53.6L97.7846 55.4412L97.7913 55.4383L97.798 55.4354L97.0035 53.6ZM76.9835 53.6L76.2024 55.4412L76.2123 55.4453L76.9835 53.6ZM68.7935 48.14L70.1937 46.7119L68.7935 48.14ZM63.1935 39.95L61.3482 40.7212L61.3531 40.7328L61.3581 40.7444L63.1935 39.95ZM69.7035 37.29L67.8596 38.0645L67.8624 38.0712L67.8652 38.0778L69.7035 37.29ZM79.7835 47.58L78.9643 49.4045L78.9799 49.4115L78.9957 49.4183L79.7835 47.58ZM94.5535 47.58L95.3414 49.4183L95.3571 49.4115L95.3727 49.4045L94.5535 47.58ZM100.504 43.38L99.0516 42.0045V42.0045L100.504 43.38ZM104.494 37.29L106.332 38.0778L106.335 38.0712L106.337 38.0645L104.494 37.29ZM104.494 22.24L102.644 23.0015L102.65 23.0145L104.494 22.24ZM94.4135 11.88L93.5943 13.7045L93.6099 13.7115L93.6257 13.7183L94.4135 11.88ZM79.6435 11.88L78.8243 10.0555L78.8243 10.0555L79.6435 11.88ZM73.6235 16.08L72.1906 14.6848V14.6848L73.6235 16.08ZM69.6335 22.31L71.4905 23.0528L71.4955 23.0402L69.6335 22.31ZM63.2335 29.73C63.2335 26.4858 63.8376 23.4627 65.0347 20.6411L61.3524 19.0789C59.9361 22.4173 59.2335 25.9742 59.2335 29.73H63.2335ZM65.029 20.6544C66.2834 17.7562 68.0081 15.2138 70.2077 13.0142L67.3793 10.1858C64.8189 12.7462 62.8103 15.7105 61.3581 19.0656L65.029 20.6544ZM70.2214 13.0004C72.4248 10.7538 74.9438 9.01077 77.7881 7.76104L76.179 4.09896C72.8632 5.55589 69.9222 7.5929 67.3656 10.1996L70.2214 13.0004ZM77.8008 7.75537C80.6579 6.4761 83.7378 5.83 87.0635 5.83V1.83C83.2026 1.83 79.5625 2.58389 76.1662 4.10463L77.8008 7.75537ZM87.0635 5.83C90.3388 5.83 93.3684 6.47457 96.1759 7.75073L97.8311 4.10926C94.4787 2.58543 90.8816 1.83 87.0635 1.83V5.83ZM96.2091 7.76544C99.099 9.01632 101.637 10.7588 103.836 13.0004L106.691 10.1996C104.13 7.58788 101.161 5.55034 97.798 4.09455L96.2091 7.76544ZM103.863 13.0279C106.105 15.2264 107.847 17.7645 109.098 20.6544L112.769 19.0655C111.313 15.7022 109.276 12.7336 106.664 10.1721L103.863 13.0279ZM109.102 20.6645C110.34 23.4807 110.964 26.4956 110.964 29.73H114.964C114.964 25.9644 114.234 22.3993 112.765 19.0555L109.102 20.6645ZM110.964 29.73C110.964 33.0653 110.337 36.1533 109.098 39.0156L112.769 40.6044C114.237 37.2134 114.964 33.5814 114.964 29.73H110.964ZM109.098 39.0156C107.847 41.9055 106.105 44.4436 103.863 46.6421L106.664 49.4979C109.276 46.9364 111.313 43.9678 112.769 40.6044L109.098 39.0156ZM103.863 46.6419C101.663 48.7996 99.1157 50.5065 96.2091 51.7646L97.798 55.4354C101.145 53.9869 104.105 52.0071 106.664 49.4981L103.863 46.6419ZM96.2224 51.7588C93.4041 52.9545 90.3582 53.56 87.0635 53.56V57.56C90.8622 57.56 94.4429 56.8589 97.7846 55.4412L96.2224 51.7588ZM87.0635 53.56C83.7187 53.56 80.6225 52.9532 77.7547 51.7547L76.2123 55.4453C79.5978 56.8602 83.2216 57.56 87.0635 57.56V53.56ZM77.7646 51.7588C74.9141 50.5495 72.3943 48.8693 70.1937 46.7119L67.3934 49.5681C69.9528 52.0774 72.893 54.0371 76.2024 55.4412L77.7646 51.7588ZM70.1937 46.7119C68.0025 44.5637 66.2819 42.0502 65.029 39.1556L61.3581 40.7444C62.8118 44.1031 64.8245 47.0496 67.3934 49.5681L70.1937 46.7119ZM65.0389 39.1788C63.8429 36.3172 63.2335 33.1754 63.2335 29.73H59.2335C59.2335 33.658 59.9307 37.3295 61.3482 40.7212L65.0389 39.1788ZM66.2335 29.8C66.2335 32.7121 66.7713 35.4735 67.8596 38.0645L71.5475 36.5155C70.6757 34.4398 70.2335 32.2079 70.2335 29.8H66.2335ZM67.8652 38.0778C68.9414 40.5889 70.4318 42.8251 72.3306 44.7752L75.1965 41.9848C73.6419 40.3882 72.4256 38.5644 71.5418 36.5022L67.8652 38.0778ZM72.3306 44.7752C74.2352 46.7314 76.4509 48.276 78.9643 49.4045L80.6027 45.7555C78.5428 44.8306 76.7451 43.5753 75.1965 41.9848L72.3306 44.7752ZM78.9957 49.4183C81.5482 50.5122 84.2917 51.05 87.2035 51.05V47.05C84.7954 47.05 82.5922 46.6078 80.5714 45.7417L78.9957 49.4183ZM87.2035 51.05C90.0738 51.05 92.7933 50.5103 95.3414 49.4183L93.7657 45.7417C91.7404 46.6097 89.5599 47.05 87.2035 47.05V51.05ZM95.3727 49.4045C97.8912 48.2738 100.091 46.7234 101.955 44.7555L99.0516 42.0045C97.5559 43.5833 95.7892 44.8329 93.7343 45.7555L95.3727 49.4045ZM101.955 44.7555C103.801 42.8074 105.26 40.5776 106.332 38.0778L102.655 36.5022C101.767 38.5757 100.566 40.4059 99.0516 42.0045L101.955 44.7555ZM106.337 38.0645C107.427 35.4692 107.964 32.6839 107.964 29.73H103.964C103.964 32.1894 103.52 34.4441 102.65 36.5155L106.337 38.0645ZM107.964 29.73C107.964 26.8179 107.426 24.0565 106.337 21.4655L102.65 23.0145C103.521 25.0902 103.964 27.3221 103.964 29.73H107.964ZM106.343 21.4785C105.27 18.8722 103.778 16.5781 101.866 14.6148L99.0006 17.4052C100.542 18.9885 101.757 20.8478 102.644 23.0015L106.343 21.4785ZM101.866 14.6148C99.9551 12.6517 97.7289 11.1249 95.2014 10.0417L93.6257 13.7183C95.6715 14.5951 97.4586 15.8216 99.0006 17.4052L101.866 14.6148ZM95.2327 10.0555C92.6774 8.90819 89.9469 8.34 87.0635 8.34V12.34C89.4068 12.34 91.5763 12.7985 93.5943 13.7045L95.2327 10.0555ZM87.0635 8.34C84.1387 8.34 81.3842 8.90613 78.8243 10.0555L80.4627 13.7045C82.4762 12.8005 84.6683 12.34 87.0635 12.34V8.34ZM78.8243 10.0555C76.3109 11.184 74.0952 12.7286 72.1906 14.6848L75.0565 17.4752C76.6051 15.8847 78.4028 14.6294 80.4627 13.7045L78.8243 10.0555ZM72.1906 14.6848C70.2719 16.6553 68.7989 18.9601 67.7716 21.5798L71.4955 23.0402C72.3348 20.8999 73.5218 19.0514 75.0565 17.4752L72.1906 14.6848ZM67.7766 21.5672C66.7433 24.1504 66.2335 26.9006 66.2335 29.8H70.2335C70.2335 27.3794 70.6571 25.1363 71.4905 23.0528L67.7766 21.5672ZM134.903 55H132.903V57H134.903V55ZM134.903 2.78V0.779996H132.903V2.78H134.903ZM134.973 2.78L136.608 1.62818L136.011 0.779996H134.973V2.78ZM161.503 40.44L161.12 42.403L166.004 43.3559L163.138 39.2882L161.503 40.44ZM158.633 39.88L157.005 38.7187L155.201 41.248L158.25 41.843L158.633 39.88ZM185.093 2.78V0.779996H184.063L183.465 1.61868L185.093 2.78ZM185.233 2.78H187.233V0.779996H185.233V2.78ZM185.233 55V57H187.233V55H185.233ZM178.513 55H176.513V57H178.513V55ZM178.513 18.18L180.498 17.9369L176.513 18.18H178.513ZM178.933 21.61L180.566 22.7649L181.012 22.1339L180.918 21.3669L178.933 21.61ZM159.823 48.63V50.63H160.858L161.456 49.7849L159.823 48.63ZM159.683 48.63L158.058 49.7961L158.657 50.63H159.683V48.63ZM140.293 21.61L138.422 20.9032L138.043 21.9055L138.668 22.7761L140.293 21.61ZM141.483 18.46H143.483L139.612 17.7532L141.483 18.46ZM141.483 55V57H143.483V55H141.483ZM136.903 55V2.78H132.903V55H136.903ZM134.903 4.78H134.973V0.779996H134.903V4.78ZM133.338 3.93181L159.868 41.5918L163.138 39.2882L136.608 1.62818L133.338 3.93181ZM161.886 38.477L159.016 37.917L158.25 41.843L161.12 42.403L161.886 38.477ZM160.261 41.0413L186.721 3.94131L183.465 1.61868L157.005 38.7187L160.261 41.0413ZM185.093 4.78H185.233V0.779996H185.093V4.78ZM183.233 2.78V55H187.233V2.78H183.233ZM185.233 53H178.513V57H185.233V53ZM180.513 55V18.18H176.513V55H180.513ZM176.528 18.4231L176.948 21.8531L180.918 21.3669L180.498 17.9369L176.528 18.4231ZM177.3 20.4551L158.19 47.4751L161.456 49.7849L180.566 22.7649L177.3 20.4551ZM159.823 46.63H159.683V50.63H159.823V46.63ZM161.308 47.4639L141.918 20.4439L138.668 22.7761L158.058 49.7961L161.308 47.4639ZM142.164 22.3168L143.354 19.1668L139.612 17.7532L138.422 20.9032L142.164 22.3168ZM139.483 18.46V55H143.483V18.46H139.483ZM141.483 53H134.903V57H141.483V53ZM210.276 4.39V2.39H208.276V4.39H210.276ZM243.176 4.39H245.176V2.39H243.176V4.39ZM243.176 10.9V12.9H245.176V10.9H243.176ZM217.066 10.9V8.9H215.066V10.9H217.066ZM217.066 26.3H215.066V28.3H217.066V26.3ZM240.376 26.3H242.376V24.3H240.376V26.3ZM240.376 32.81V34.81H242.376V32.81H240.376ZM217.066 32.81V30.81H215.066V32.81H217.066ZM217.066 48.49H215.066V50.49H217.066V48.49ZM244.156 48.49H246.156V46.49H244.156V48.49ZM244.156 55V57H246.156V55H244.156ZM210.276 55H208.276V57H210.276V55ZM210.276 6.39H243.176V2.39H210.276V6.39ZM241.176 4.39V10.9H245.176V4.39H241.176ZM243.176 8.9H217.066V12.9H243.176V8.9ZM215.066 10.9V26.3H219.066V10.9H215.066ZM217.066 28.3H240.376V24.3H217.066V28.3ZM238.376 26.3V32.81H242.376V26.3H238.376ZM240.376 30.81H217.066V34.81H240.376V30.81ZM215.066 32.81V48.49H219.066V32.81H215.066ZM217.066 50.49H244.156V46.49H217.066V50.49ZM242.156 48.49V55H246.156V48.49H242.156ZM244.156 53H210.276V57H244.156V53ZM212.276 55V4.39H208.276V55H212.276ZM286.95 5.44L286.33 7.34146L286.355 7.34943L286.379 7.35677L286.95 5.44ZM292.62 8.45L291.322 9.97167L291.346 9.99208L291.371 10.0117L292.62 8.45ZM296.4 13.35L294.578 14.1743L294.59 14.2008L294.603 14.2268L296.4 13.35ZM296.89 25.95L294.984 25.3455L294.977 25.3668L294.971 25.3882L296.89 25.95ZM294.02 31.2L295.522 32.5202L295.532 32.5091L295.542 32.4979L294.02 31.2ZM288.7 34.98L289.498 36.8141L289.507 36.8101L289.516 36.806L288.7 34.98ZM273.23 36.38V34.38H271.23V36.38H273.23ZM273.23 55V57H275.23V55H273.23ZM266.44 55H264.44V57H266.44V55ZM266.44 4.39V2.39H264.44V4.39H266.44ZM285.55 28.96L284.732 27.135L284.72 27.1404L284.708 27.146L285.55 28.96ZM288.7 26.65L290.262 27.8994L290.277 27.8809L290.291 27.8621L288.7 26.65ZM290.31 23.5L292.23 24.06V24.06L290.31 23.5ZM290.24 17.2L288.32 17.76L288.334 17.8089L288.351 17.857L290.24 17.2ZM288.56 14.12L286.998 15.3694L287.017 15.3926L287.036 15.4153L288.56 14.12ZM285.55 11.81L284.656 13.5989L284.669 13.6055L284.683 13.612L285.55 11.81ZM273.23 10.9V8.9H271.23V10.9H273.23ZM273.23 29.87H271.23V31.87H273.23V29.87ZM288.91 33.72L290.609 32.664L290.004 31.6908L288.858 31.7207L288.91 33.72ZM302.14 55V57H305.739L303.839 53.944L302.14 55ZM294.3 55L292.614 56.0756L293.204 57H294.3V55ZM280.86 33.93L280.808 31.9307L277.271 32.0229L279.174 35.0056L280.86 33.93ZM279.88 6.39C282.265 6.39 284.409 6.71498 286.33 7.34146L287.57 3.53854C285.198 2.76501 282.629 2.39 279.88 2.39V6.39ZM286.379 7.35677C288.332 7.93833 289.968 8.81623 291.322 9.97167L293.918 6.92833C292.099 5.3771 289.955 4.24834 287.521 3.52323L286.379 7.35677ZM291.371 10.0117C292.75 11.1155 293.818 12.4934 294.578 14.1743L298.222 12.5257C297.209 10.2866 295.757 8.39782 293.87 6.88826L291.371 10.0117ZM294.603 14.2268C295.378 15.8166 295.8 17.7455 295.8 20.07H299.8C299.8 17.2611 299.289 14.7101 298.198 12.4731L294.603 14.2268ZM295.8 20.07C295.8 21.8715 295.528 23.6276 294.984 25.3455L298.797 26.5545C299.465 24.4457 299.8 22.2818 299.8 20.07H295.8ZM294.971 25.3882C294.494 27.0184 293.677 28.5199 292.499 29.9021L295.542 32.4979C297.07 30.7068 298.167 28.7083 298.81 26.5118L294.971 25.3882ZM292.518 29.8798C291.384 31.1698 289.86 32.2713 287.884 33.154L289.516 36.806C291.927 35.7287 293.949 34.3102 295.522 32.5202L292.518 29.8798ZM287.903 33.1459C286.08 33.9383 283.711 34.38 280.72 34.38V38.38C284.076 38.38 287.027 37.8884 289.498 36.8141L287.903 33.1459ZM280.72 34.38H273.23V38.38H280.72V34.38ZM271.23 36.38V55H275.23V36.38H271.23ZM273.23 53H266.44V57H273.23V53ZM268.44 55V4.39H264.44V55H268.44ZM266.44 6.39H279.88V2.39H266.44V6.39ZM280.58 31.87C282.771 31.87 284.739 31.5414 286.392 30.774L284.708 27.146C283.748 27.5919 282.403 27.87 280.58 27.87V31.87ZM286.368 30.785C287.943 30.079 289.274 29.1337 290.262 27.8994L287.138 25.4006C286.633 26.033 285.864 26.6276 284.732 27.135L286.368 30.785ZM290.291 27.8621C291.178 26.6978 291.831 25.4287 292.23 24.06L288.39 22.94C288.136 23.8113 287.716 24.6422 287.109 25.4379L290.291 27.8621ZM292.23 24.06C292.6 22.7916 292.8 21.5515 292.8 20.35H288.8C288.8 21.1085 288.674 21.9684 288.39 22.94L292.23 24.06ZM292.8 20.35C292.8 19.0771 292.568 17.8051 292.129 16.543L288.351 17.857C288.659 18.7416 288.8 19.5696 288.8 20.35H292.8ZM292.16 16.64C291.751 15.2363 291.05 13.9616 290.084 12.8247L287.036 15.4153C287.657 16.1451 288.076 16.9237 288.32 17.76L292.16 16.64ZM290.122 12.8706C289.159 11.6669 287.902 10.7226 286.418 10.008L284.683 13.612C285.718 14.1107 286.468 14.7065 286.998 15.3694L290.122 12.8706ZM286.445 10.0211C284.882 9.23968 283.062 8.9 281.07 8.9V12.9C282.625 12.9 283.792 13.167 284.656 13.5989L286.445 10.0211ZM281.07 8.9H273.23V12.9H281.07V8.9ZM271.23 10.9V29.87H275.23V10.9H271.23ZM273.23 31.87H280.58V27.87H273.23V31.87ZM287.212 34.776L300.442 56.056L303.839 53.944L290.609 32.664L287.212 34.776ZM302.14 53H294.3V57H302.14V53ZM295.986 53.9244L282.546 32.8544L279.174 35.0056L292.614 56.0756L295.986 53.9244ZM280.912 35.9293L288.962 35.7193L288.858 31.7207L280.808 31.9307L280.912 35.9293ZM359.159 51.22L360.268 52.8841L361.71 51.9231L360.964 50.3593L359.159 51.22ZM355.729 53.11L356.6 54.9103L355.729 53.11ZM350.619 54.86L350.156 52.9144L350.145 52.917L350.619 54.86ZM344.319 55.56L344.295 57.5599L344.307 57.56H344.319V55.56ZM333.679 53.46L332.885 55.2955L332.894 55.2997L333.679 53.46ZM325.699 47.93L324.242 49.2998L325.699 47.93ZM320.589 39.88L318.719 40.5885L318.725 40.6057L318.732 40.6228L320.589 39.88ZM320.659 19.65L318.797 18.9212L318.794 18.9285L318.791 18.9357L320.659 19.65ZM325.909 11.32L327.352 12.7051L327.359 12.6979L327.365 12.6907L325.909 11.32ZM333.819 5.79L333.038 3.94881L333.028 3.95317L333.819 5.79ZM352.159 5.09L351.516 6.98376L351.532 6.98923L351.548 6.99443L352.159 5.09ZM358.529 7.96L360.364 8.75521L361.045 7.18363L359.597 6.26902L358.529 7.96ZM355.799 14.26L354.69 15.9241L356.682 17.2524L357.634 15.0552L355.799 14.26ZM350.689 11.6L349.901 13.4383L349.909 13.4416L349.917 13.4449L350.689 11.6ZM337.109 11.81L336.293 9.98398L336.293 9.98398L337.109 11.81ZM331.299 15.94L332.751 17.3155V17.3155L331.299 15.94ZM327.309 22.17L325.46 21.4085L325.456 21.4178L325.452 21.4272L327.309 22.17ZM327.169 37.43L325.283 38.0956L325.291 38.1181L325.299 38.1404L327.169 37.43ZM330.879 43.52L329.406 44.8732L329.416 44.8839L329.426 44.8944L330.879 43.52ZM336.759 47.58L337.547 45.7417L336.759 47.58ZM351.319 47.86L350.584 46.0001V46.0001L351.319 47.86ZM356.289 45.2L358.094 44.3393L357.043 42.1344L355.089 43.6L356.289 45.2ZM358.05 49.5559C357.317 50.0445 356.264 50.6292 354.858 51.3097L356.6 54.9103C358.087 54.1908 359.321 53.5155 360.268 52.8841L358.05 49.5559ZM354.858 51.3097C353.569 51.9331 352.009 52.4732 350.156 52.9144L351.082 56.8056C353.149 56.3135 354.995 55.6869 356.6 54.9103L354.858 51.3097ZM350.145 52.917C348.409 53.3403 346.471 53.56 344.319 53.56V57.56C346.74 57.56 349.002 57.313 351.093 56.803L350.145 52.917ZM344.343 53.5601C340.649 53.5162 337.366 52.858 334.464 51.6203L332.894 55.2997C336.339 56.7687 340.149 57.5105 344.295 57.5599L344.343 53.5601ZM334.473 51.6246C331.581 50.3726 329.151 48.6822 327.156 46.5602L324.242 49.2998C326.634 51.8445 329.524 53.8408 332.885 55.2954L334.473 51.6246ZM327.156 46.5602C325.138 44.4128 323.568 41.9432 322.446 39.1372L318.732 40.6228C320.036 43.8835 321.874 46.7806 324.242 49.2998L327.156 46.5602ZM322.459 39.1715C321.383 36.3288 320.839 33.3032 320.839 30.08H316.839C316.839 33.7635 317.462 37.2712 318.719 40.5885L322.459 39.1715ZM320.839 30.08C320.839 26.5167 321.41 23.2853 322.527 20.3643L318.791 18.9357C317.481 22.3614 316.839 26.0833 316.839 30.08H320.839ZM322.521 20.3788C323.693 17.3859 325.306 14.8365 327.352 12.7051L324.466 9.93494C322.032 12.4702 320.145 15.4741 318.797 18.9212L322.521 20.3788ZM327.365 12.6907C329.416 10.5121 331.825 8.82643 334.61 7.62682L333.028 3.95317C329.746 5.3669 326.882 7.36789 324.453 9.94927L327.365 12.6907ZM334.6 7.63116C337.412 6.43823 340.504 5.83 343.899 5.83V1.83C340.014 1.83 336.386 2.52844 333.038 3.94884L334.6 7.63116ZM343.899 5.83C346.748 5.83 349.28 6.22442 351.516 6.98376L352.802 3.19623C350.091 2.27557 347.117 1.83 343.899 1.83V5.83ZM351.548 6.99443C353.897 7.7479 355.86 8.63954 357.461 9.65098L359.597 6.26902C357.652 5.04046 355.367 4.01876 352.77 3.18557L351.548 6.99443ZM356.694 7.16478L353.964 13.4648L357.634 15.0552L360.364 8.75521L356.694 7.16478ZM356.908 12.5959C355.376 11.5746 353.554 10.631 351.461 9.75512L349.917 13.4449C351.838 14.249 353.422 15.0787 354.69 15.9241L356.908 12.5959ZM351.477 9.76171C349.236 8.80127 346.769 8.34 344.109 8.34V12.34C346.302 12.34 348.222 12.7187 349.901 13.4383L351.477 9.76171ZM344.109 8.34C341.363 8.34 338.751 8.88585 336.293 9.98398L337.925 13.636C339.854 12.7741 341.908 12.34 344.109 12.34V8.34ZM336.293 9.98398C333.856 11.0728 331.704 12.604 329.847 14.5645L332.751 17.3155C334.254 15.7293 335.975 14.5072 337.925 13.636L336.293 9.98398ZM329.847 14.5645C327.989 16.5258 326.528 18.8135 325.46 21.4085L329.158 22.9315C330.05 20.7665 331.249 18.9009 332.751 17.3155L329.847 14.5645ZM325.452 21.4272C324.417 24.0145 323.909 26.7886 323.909 29.73H327.909C327.909 27.258 328.334 24.9922 329.166 22.9128L325.452 21.4272ZM323.909 29.73C323.909 32.6895 324.361 35.4832 325.283 38.0956L329.055 36.7644C328.297 34.6168 327.909 32.2772 327.909 29.73H323.909ZM325.299 38.1404C326.27 40.6958 327.637 42.9477 329.406 44.8732L332.352 42.1667C330.948 40.639 329.841 38.8308 329.039 36.7196L325.299 38.1404ZM329.426 44.8944C331.256 46.8287 333.445 48.3358 335.971 49.4183L337.547 45.7417C335.499 44.8642 333.769 43.6646 332.332 42.1456L329.426 44.8944ZM335.971 49.4183C338.54 50.5193 341.38 51.05 344.459 51.05V47.05C341.844 47.05 339.551 46.6007 337.547 45.7417L335.971 49.4183ZM344.459 51.05C347.231 51.05 349.774 50.6215 352.054 49.7199L350.584 46.0001C348.851 46.6851 346.821 47.05 344.459 47.05V51.05ZM352.054 49.7199C354.177 48.8807 356.002 47.9149 357.489 46.8L355.089 43.6C353.962 44.4451 352.474 45.2526 350.584 46.0001L352.054 49.7199ZM354.484 46.0607L357.354 52.0807L360.964 50.3593L358.094 44.3393L354.484 46.0607ZM381.092 4.39V2.39H379.092V4.39H381.092ZM387.883 4.39H389.883V2.39H387.883V4.39ZM387.883 55V57H389.883V55H387.883ZM381.092 55H379.092V57H381.092V55ZM381.092 6.39H387.883V2.39H381.092V6.39ZM385.883 4.39V55H389.883V4.39H385.883ZM387.883 53H381.092V57H387.883V53ZM383.092 55V4.39H379.092V55H383.092ZM407.881 55L406.036 54.2261L404.872 57H407.881V55ZM430.001 2.29V0.289999H428.671L428.156 1.51607L430.001 2.29ZM430.421 2.29L432.266 1.51816L431.752 0.289999H430.421V2.29ZM452.471 55V57H455.475L454.316 54.2282L452.471 55ZM444.701 55L442.839 55.731L443.337 57H444.701V55ZM428.181 12.93L427.088 11.2548L425.724 12.1447L426.319 13.661L428.181 12.93ZM433.011 9.78L434.862 10.5366L437.287 4.60354L431.918 8.10478L433.011 9.78ZM414.531 55V57H415.874L416.382 55.7566L414.531 55ZM420.831 35.82V33.82H419.389L418.933 35.1875L420.831 35.82ZM439.661 35.82L441.53 35.108L441.039 33.82H439.661V35.82ZM441.901 41.7V43.7H444.803L443.77 40.988L441.901 41.7ZM418.871 41.7L416.973 41.0675L416.096 43.7H418.871V41.7ZM409.725 55.7739L431.845 3.06392L428.156 1.51607L406.036 54.2261L409.725 55.7739ZM430.001 4.29H430.421V0.289999H430.001V4.29ZM428.576 3.06184L450.626 55.7718L454.316 54.2282L432.266 1.51816L428.576 3.06184ZM452.471 53H444.701V57H452.471V53ZM446.562 54.269L430.042 12.199L426.319 13.661L442.839 55.731L446.562 54.269ZM429.273 14.6052L434.103 11.4552L431.918 8.10478L427.088 11.2548L429.273 14.6052ZM431.159 9.0234L412.679 54.2434L416.382 55.7566L434.862 10.5366L431.159 9.0234ZM414.531 53H407.881V57H414.531V53ZM420.831 37.82H439.661V33.82H420.831V37.82ZM437.792 36.532L440.032 42.412L443.77 40.988L441.53 35.108L437.792 36.532ZM441.901 39.7H418.871V43.7H441.901V39.7ZM420.768 42.3325L422.728 36.4525L418.933 35.1875L416.973 41.0675L420.768 42.3325ZM472.503 4.39V2.39H470.503V4.39H472.503ZM479.293 4.39H481.293V2.39H479.293V4.39ZM479.293 48.49H477.293V50.49H479.293V48.49ZM504.983 48.49H506.983V46.49H504.983V48.49ZM504.983 55V57H506.983V55H504.983ZM472.503 55H470.503V57H472.503V55ZM472.503 6.39H479.293V2.39H472.503V6.39ZM477.293 4.39V48.49H481.293V4.39H477.293ZM479.293 50.49H504.983V46.49H479.293V50.49ZM502.983 48.49V55H506.983V48.49H502.983ZM504.983 53H472.503V57H504.983V53ZM474.503 55V4.39H470.503V55H474.503Z" fill="white" mask="url(#path-1-outside-1_162_702)"/>
</svg>
