<svg width="511" height="154" viewBox="0 0 511 154" fill="none" xmlns="http://www.w3.org/2000/svg">
<mask id="path-1-outside-1_383_235" maskUnits="userSpaceOnUse" x="132" y="105" width="247" height="39" fill="black">
<rect fill="white" x="132" y="105" width="247" height="39"/>
<path d="M159.904 139.744C159.168 140.192 158.32 140.624 157.36 141.04C156.4 141.456 155.344 141.776 154.192 142C153.04 142.256 151.792 142.384 150.448 142.384C147.856 142.384 145.504 141.936 143.392 141.04C141.28 140.112 139.472 138.864 137.968 137.296C136.464 135.696 135.296 133.872 134.464 131.824C133.664 129.744 133.264 127.536 133.264 125.2C133.264 122.704 133.696 120.384 134.56 118.24C135.424 116.096 136.64 114.224 138.208 112.624C139.776 111.024 141.6 109.776 143.68 108.88C145.76 107.984 148.016 107.536 150.448 107.536C152.24 107.536 153.92 107.776 155.488 108.256C157.056 108.736 158.48 109.36 159.76 110.128L158.752 112.288C157.632 111.584 156.368 110.992 154.96 110.512C153.552 110.032 152.064 109.792 150.496 109.792C148.48 109.792 146.576 110.192 144.784 110.992C142.992 111.76 141.408 112.848 140.032 114.256C138.688 115.632 137.632 117.248 136.864 119.104C136.096 120.96 135.712 122.96 135.712 125.104C135.712 127.152 136.048 129.088 136.72 130.912C137.424 132.736 138.416 134.336 139.696 135.712C141.008 137.088 142.576 138.176 144.4 138.976C146.224 139.744 148.256 140.128 150.496 140.128C152.16 140.128 153.68 139.904 155.056 139.456C156.464 138.976 157.712 138.384 158.8 137.68L159.904 139.744ZM169.955 142L184.356 106.432H184.548L198.948 142H196.308L183.78 110.176L185.412 109.264L172.307 142H169.955ZM176.916 128.512H192.036L192.708 130.72H176.34L176.916 128.512ZM218.678 107.92C221.974 107.92 224.518 108.608 226.31 109.984C228.134 111.328 229.046 113.52 229.046 116.56C229.046 118.064 228.758 119.44 228.182 120.688C227.606 121.936 226.742 122.96 225.59 123.76C224.47 124.56 223.062 125.072 221.366 125.296L221.126 124.144C222.886 124.272 224.486 124.72 225.926 125.488C227.398 126.224 228.566 127.232 229.43 128.512C230.326 129.76 230.774 131.232 230.774 132.928C230.774 134.464 230.47 135.808 229.862 136.96C229.286 138.08 228.486 139.024 227.462 139.792C226.47 140.528 225.334 141.088 224.054 141.472C222.774 141.824 221.43 142 220.022 142H211.142V107.92H218.678ZM219.782 123.856C222.214 123.856 223.958 123.2 225.014 121.888C226.102 120.576 226.646 118.944 226.646 116.992C226.646 114.56 225.926 112.816 224.486 111.76C223.078 110.704 221.174 110.176 218.774 110.176H213.494V123.856H219.782ZM219.926 139.84C221.462 139.84 222.87 139.6 224.15 139.12C225.43 138.608 226.454 137.84 227.222 136.816C227.99 135.792 228.374 134.528 228.374 133.024C228.374 131.36 227.942 130.032 227.078 129.04C226.214 128.016 225.126 127.28 223.814 126.832C222.502 126.352 221.158 126.112 219.782 126.112H213.494V139.84H219.926ZM243.775 107.92H264.799V110.176H246.127V123.712H262.927V125.968H246.127V139.744H265.471V142H243.775V107.92ZM278.751 107.92H281.103V139.744H299.775V142H278.751V107.92ZM311.993 107.92H314.345V139.744H333.017V142H311.993V107.92ZM342.793 125.008C342.793 122.608 343.241 120.368 344.137 118.288C345.033 116.176 346.281 114.32 347.881 112.72C349.481 111.088 351.321 109.824 353.401 108.928C355.513 108 357.769 107.536 360.169 107.536C362.569 107.536 364.825 108 366.937 108.928C369.049 109.824 370.905 111.088 372.505 112.72C374.105 114.32 375.353 116.176 376.249 118.288C377.177 120.368 377.641 122.608 377.641 125.008C377.641 127.408 377.177 129.664 376.249 131.776C375.353 133.856 374.105 135.696 372.505 137.296C370.905 138.896 369.049 140.144 366.937 141.04C364.825 141.936 362.569 142.384 360.169 142.384C357.769 142.384 355.513 141.952 353.401 141.088C351.321 140.224 349.481 139.008 347.881 137.44C346.281 135.872 345.033 134.032 344.137 131.92C343.241 129.808 342.793 127.504 342.793 125.008ZM345.193 125.056C345.193 127.136 345.577 129.088 346.345 130.912C347.113 132.736 348.185 134.336 349.561 135.712C350.937 137.088 352.521 138.176 354.313 138.976C356.137 139.744 358.073 140.128 360.121 140.128C362.233 140.128 364.201 139.744 366.025 138.976C367.849 138.176 369.449 137.088 370.825 135.712C372.201 134.336 373.273 132.736 374.041 130.912C374.841 129.088 375.241 127.12 375.241 125.008C375.241 122.928 374.841 120.976 374.041 119.152C373.273 117.296 372.201 115.68 370.825 114.304C369.449 112.896 367.849 111.792 366.025 110.992C364.201 110.192 362.249 109.792 360.169 109.792C358.057 109.792 356.089 110.208 354.265 111.04C352.441 111.84 350.841 112.944 349.465 114.352C348.121 115.76 347.065 117.392 346.297 119.248C345.561 121.072 345.193 123.008 345.193 125.056Z"/>
</mask>
<path d="M159.904 139.744C159.168 140.192 158.32 140.624 157.36 141.04C156.4 141.456 155.344 141.776 154.192 142C153.04 142.256 151.792 142.384 150.448 142.384C147.856 142.384 145.504 141.936 143.392 141.04C141.28 140.112 139.472 138.864 137.968 137.296C136.464 135.696 135.296 133.872 134.464 131.824C133.664 129.744 133.264 127.536 133.264 125.2C133.264 122.704 133.696 120.384 134.56 118.24C135.424 116.096 136.64 114.224 138.208 112.624C139.776 111.024 141.6 109.776 143.68 108.88C145.76 107.984 148.016 107.536 150.448 107.536C152.24 107.536 153.92 107.776 155.488 108.256C157.056 108.736 158.48 109.36 159.76 110.128L158.752 112.288C157.632 111.584 156.368 110.992 154.96 110.512C153.552 110.032 152.064 109.792 150.496 109.792C148.48 109.792 146.576 110.192 144.784 110.992C142.992 111.76 141.408 112.848 140.032 114.256C138.688 115.632 137.632 117.248 136.864 119.104C136.096 120.96 135.712 122.96 135.712 125.104C135.712 127.152 136.048 129.088 136.72 130.912C137.424 132.736 138.416 134.336 139.696 135.712C141.008 137.088 142.576 138.176 144.4 138.976C146.224 139.744 148.256 140.128 150.496 140.128C152.16 140.128 153.68 139.904 155.056 139.456C156.464 138.976 157.712 138.384 158.8 137.68L159.904 139.744ZM169.955 142L184.356 106.432H184.548L198.948 142H196.308L183.78 110.176L185.412 109.264L172.307 142H169.955ZM176.916 128.512H192.036L192.708 130.72H176.34L176.916 128.512ZM218.678 107.92C221.974 107.92 224.518 108.608 226.31 109.984C228.134 111.328 229.046 113.52 229.046 116.56C229.046 118.064 228.758 119.44 228.182 120.688C227.606 121.936 226.742 122.96 225.59 123.76C224.47 124.56 223.062 125.072 221.366 125.296L221.126 124.144C222.886 124.272 224.486 124.72 225.926 125.488C227.398 126.224 228.566 127.232 229.43 128.512C230.326 129.76 230.774 131.232 230.774 132.928C230.774 134.464 230.47 135.808 229.862 136.96C229.286 138.08 228.486 139.024 227.462 139.792C226.47 140.528 225.334 141.088 224.054 141.472C222.774 141.824 221.43 142 220.022 142H211.142V107.92H218.678ZM219.782 123.856C222.214 123.856 223.958 123.2 225.014 121.888C226.102 120.576 226.646 118.944 226.646 116.992C226.646 114.56 225.926 112.816 224.486 111.76C223.078 110.704 221.174 110.176 218.774 110.176H213.494V123.856H219.782ZM219.926 139.84C221.462 139.84 222.87 139.6 224.15 139.12C225.43 138.608 226.454 137.84 227.222 136.816C227.99 135.792 228.374 134.528 228.374 133.024C228.374 131.36 227.942 130.032 227.078 129.04C226.214 128.016 225.126 127.28 223.814 126.832C222.502 126.352 221.158 126.112 219.782 126.112H213.494V139.84H219.926ZM243.775 107.92H264.799V110.176H246.127V123.712H262.927V125.968H246.127V139.744H265.471V142H243.775V107.92ZM278.751 107.92H281.103V139.744H299.775V142H278.751V107.92ZM311.993 107.92H314.345V139.744H333.017V142H311.993V107.92ZM342.793 125.008C342.793 122.608 343.241 120.368 344.137 118.288C345.033 116.176 346.281 114.32 347.881 112.72C349.481 111.088 351.321 109.824 353.401 108.928C355.513 108 357.769 107.536 360.169 107.536C362.569 107.536 364.825 108 366.937 108.928C369.049 109.824 370.905 111.088 372.505 112.72C374.105 114.32 375.353 116.176 376.249 118.288C377.177 120.368 377.641 122.608 377.641 125.008C377.641 127.408 377.177 129.664 376.249 131.776C375.353 133.856 374.105 135.696 372.505 137.296C370.905 138.896 369.049 140.144 366.937 141.04C364.825 141.936 362.569 142.384 360.169 142.384C357.769 142.384 355.513 141.952 353.401 141.088C351.321 140.224 349.481 139.008 347.881 137.44C346.281 135.872 345.033 134.032 344.137 131.92C343.241 129.808 342.793 127.504 342.793 125.008ZM345.193 125.056C345.193 127.136 345.577 129.088 346.345 130.912C347.113 132.736 348.185 134.336 349.561 135.712C350.937 137.088 352.521 138.176 354.313 138.976C356.137 139.744 358.073 140.128 360.121 140.128C362.233 140.128 364.201 139.744 366.025 138.976C367.849 138.176 369.449 137.088 370.825 135.712C372.201 134.336 373.273 132.736 374.041 130.912C374.841 129.088 375.241 127.12 375.241 125.008C375.241 122.928 374.841 120.976 374.041 119.152C373.273 117.296 372.201 115.68 370.825 114.304C369.449 112.896 367.849 111.792 366.025 110.992C364.201 110.192 362.249 109.792 360.169 109.792C358.057 109.792 356.089 110.208 354.265 111.04C352.441 111.84 350.841 112.944 349.465 114.352C348.121 115.76 347.065 117.392 346.297 119.248C345.561 121.072 345.193 123.008 345.193 125.056Z" fill="white"/>
<path d="M159.904 139.744L160.424 140.598L161.232 140.106L160.786 139.272L159.904 139.744ZM157.36 141.04L157.758 141.958L157.36 141.04ZM154.192 142L154.001 141.018L153.988 141.021L153.975 141.024L154.192 142ZM143.392 141.04L142.99 141.956L143.001 141.961L143.392 141.04ZM137.968 137.296L137.239 137.981L137.246 137.988L137.968 137.296ZM134.464 131.824L133.531 132.183L133.534 132.192L133.538 132.2L134.464 131.824ZM138.208 112.624L137.494 111.924V111.924L138.208 112.624ZM143.68 108.88L144.076 109.798L143.68 108.88ZM155.488 108.256L155.195 109.212L155.195 109.212L155.488 108.256ZM159.76 110.128L160.666 110.551L161.047 109.734L160.274 109.271L159.76 110.128ZM158.752 112.288L158.22 113.135L159.179 113.738L159.658 112.711L158.752 112.288ZM154.96 110.512L155.283 109.565H155.283L154.96 110.512ZM144.784 110.992L145.178 111.911L145.185 111.908L145.192 111.905L144.784 110.992ZM140.032 114.256L139.317 113.557L139.317 113.557L140.032 114.256ZM136.72 130.912L135.782 131.258L135.784 131.265L135.787 131.272L136.72 130.912ZM139.696 135.712L138.964 136.393L138.972 136.402L139.696 135.712ZM144.4 138.976L143.998 139.892L144.005 139.895L144.012 139.898L144.4 138.976ZM155.056 139.456L155.366 140.407L155.379 140.403L155.056 139.456ZM158.8 137.68L159.682 137.208L159.169 136.25L158.257 136.84L158.8 137.68ZM159.384 138.89C158.695 139.309 157.889 139.721 156.962 140.122L157.758 141.958C158.751 141.527 159.641 141.075 160.424 140.598L159.384 138.89ZM156.962 140.122C156.076 140.506 155.091 140.807 154.001 141.018L154.383 142.982C155.597 142.745 156.724 142.406 157.758 141.958L156.962 140.122ZM153.975 141.024C152.903 141.262 151.729 141.384 150.448 141.384V143.384C151.855 143.384 153.177 143.25 154.409 142.976L153.975 141.024ZM150.448 141.384C147.973 141.384 145.756 140.957 143.783 140.119L143.001 141.961C145.252 142.915 147.739 143.384 150.448 143.384V141.384ZM143.794 140.124C141.795 139.246 140.097 138.071 138.69 136.604L137.246 137.988C138.847 139.657 140.765 140.978 142.99 141.956L143.794 140.124ZM138.697 136.611C137.278 135.101 136.176 133.382 135.39 131.448L133.538 132.2C134.416 134.362 135.65 136.291 137.239 137.981L138.697 136.611ZM135.397 131.465C134.644 129.505 134.264 127.419 134.264 125.2H132.264C132.264 127.653 132.684 129.983 133.531 132.183L135.397 131.465ZM134.264 125.2C134.264 122.822 134.675 120.63 135.488 118.614L133.632 117.866C132.717 120.138 132.264 122.586 132.264 125.2H134.264ZM135.488 118.614C136.304 116.587 137.449 114.827 138.922 113.324L137.494 111.924C135.831 113.621 134.544 115.605 133.632 117.866L135.488 118.614ZM138.922 113.324C140.398 111.818 142.114 110.644 144.076 109.798L143.284 107.962C141.086 108.908 139.154 110.23 137.494 111.924L138.922 113.324ZM144.076 109.798C146.022 108.96 148.142 108.536 150.448 108.536V106.536C147.89 106.536 145.498 107.008 143.284 107.962L144.076 109.798ZM150.448 108.536C152.15 108.536 153.731 108.764 155.195 109.212L155.781 107.3C154.109 106.788 152.33 106.536 150.448 106.536V108.536ZM155.195 109.212C156.693 109.671 158.042 110.263 159.246 110.985L160.274 109.271C158.918 108.457 157.419 107.801 155.781 107.3L155.195 109.212ZM158.854 109.705L157.846 111.865L159.658 112.711L160.666 110.551L158.854 109.705ZM159.284 111.441C158.091 110.691 156.755 110.067 155.283 109.565L154.637 111.459C155.981 111.917 157.173 112.477 158.22 113.135L159.284 111.441ZM155.283 109.565C153.765 109.048 152.168 108.792 150.496 108.792V110.792C151.96 110.792 153.339 111.016 154.637 111.459L155.283 109.565ZM150.496 108.792C148.343 108.792 146.3 109.22 144.376 110.079L145.192 111.905C146.852 111.164 148.617 110.792 150.496 110.792V108.792ZM144.39 110.073C142.476 110.893 140.784 112.056 139.317 113.557L140.747 114.955C142.032 113.64 143.508 112.627 145.178 111.911L144.39 110.073ZM139.317 113.557C137.88 115.028 136.755 116.753 135.94 118.722L137.788 119.486C138.509 117.743 139.496 116.236 140.747 114.955L139.317 113.557ZM135.94 118.722C135.119 120.707 134.712 122.838 134.712 125.104H136.712C136.712 123.082 137.073 121.213 137.788 119.486L135.94 118.722ZM134.712 125.104C134.712 127.264 135.067 129.317 135.782 131.258L137.658 130.566C137.029 128.859 136.712 127.04 136.712 125.104H134.712ZM135.787 131.272C136.535 133.21 137.594 134.92 138.964 136.393L140.428 135.031C139.238 133.752 138.313 132.262 137.653 130.552L135.787 131.272ZM138.972 136.402C140.38 137.878 142.059 139.041 143.998 139.892L144.802 138.06C143.093 137.311 141.636 136.298 140.42 135.022L138.972 136.402ZM144.012 139.898C145.974 140.724 148.14 141.128 150.496 141.128V139.128C148.372 139.128 146.474 138.764 144.788 138.054L144.012 139.898ZM150.496 141.128C152.25 141.128 153.876 140.892 155.366 140.407L154.746 138.505C153.484 138.916 152.07 139.128 150.496 139.128V141.128ZM155.379 140.403C156.853 139.9 158.177 139.274 159.343 138.52L158.257 136.84C157.247 137.494 156.075 138.052 154.733 138.509L155.379 140.403ZM157.918 138.152L159.022 140.216L160.786 139.272L159.682 137.208L157.918 138.152ZM169.956 142L169.029 141.625L168.472 143H169.956V142ZM184.355 106.432V105.432H183.682L183.429 106.057L184.355 106.432ZM184.548 106.432L185.474 106.057L185.221 105.432H184.548V106.432ZM198.948 142V143H200.431L199.874 141.625L198.948 142ZM196.308 142L195.377 142.366L195.626 143H196.308V142ZM183.779 110.176L183.292 109.303L182.529 109.729L182.849 110.542L183.779 110.176ZM185.411 109.264L186.34 109.636L187.39 107.013L184.924 108.391L185.411 109.264ZM172.307 142V143H172.984L173.236 142.372L172.307 142ZM176.916 128.512V127.512H176.143L175.948 128.26L176.916 128.512ZM192.035 128.512L192.992 128.221L192.776 127.512H192.035V128.512ZM192.708 130.72V131.72H194.057L193.664 130.429L192.708 130.72ZM176.34 130.72L175.372 130.468L175.045 131.72H176.34V130.72ZM170.882 142.375L185.282 106.807L183.429 106.057L169.029 141.625L170.882 142.375ZM184.355 107.432H184.548V105.432H184.355V107.432ZM183.621 106.807L198.021 142.375L199.874 141.625L185.474 106.057L183.621 106.807ZM198.948 141H196.308V143H198.948V141ZM197.238 141.634L184.71 109.81L182.849 110.542L195.377 142.366L197.238 141.634ZM184.267 111.049L185.899 110.137L184.924 108.391L183.292 109.303L184.267 111.049ZM184.483 108.892L171.379 141.628L173.236 142.372L186.34 109.636L184.483 108.892ZM172.307 141H169.956V143H172.307V141ZM176.916 129.512H192.035V127.512H176.916V129.512ZM191.079 128.803L191.751 131.011L193.664 130.429L192.992 128.221L191.079 128.803ZM192.708 129.72H176.34V131.72H192.708V129.72ZM177.307 130.972L177.883 128.764L175.948 128.26L175.372 130.468L177.307 130.972ZM226.31 109.984L225.701 110.777L225.709 110.783L225.717 110.789L226.31 109.984ZM228.182 120.688L227.274 120.269L228.182 120.688ZM225.59 123.76L225.02 122.939L225.009 122.946L225.59 123.76ZM221.366 125.296L220.387 125.5L220.577 126.409L221.497 126.287L221.366 125.296ZM221.126 124.144L221.199 123.147L219.877 123.051L220.147 124.348L221.126 124.144ZM225.926 125.488L225.456 126.37L225.467 126.377L225.479 126.382L225.926 125.488ZM229.43 128.512L228.601 129.071L228.609 129.083L228.618 129.095L229.43 128.512ZM229.862 136.96L228.978 136.493L228.973 136.503L229.862 136.96ZM227.462 139.792L228.058 140.595L228.062 140.592L227.462 139.792ZM224.054 141.472L224.319 142.436L224.33 142.433L224.341 142.43L224.054 141.472ZM211.142 142H210.142V143H211.142V142ZM211.142 107.92V106.92H210.142V107.92H211.142ZM225.014 121.888L224.244 121.25L224.24 121.255L224.235 121.261L225.014 121.888ZM224.486 111.76L223.886 112.56L223.895 112.566L224.486 111.76ZM213.494 110.176V109.176H212.494V110.176H213.494ZM213.494 123.856H212.494V124.856H213.494V123.856ZM224.15 139.12L224.501 140.056L224.511 140.053L224.522 140.048L224.15 139.12ZM227.222 136.816L226.422 136.216L227.222 136.816ZM227.078 129.04L226.314 129.685L226.319 129.691L226.324 129.697L227.078 129.04ZM223.814 126.832L223.471 127.771L223.481 127.775L223.491 127.778L223.814 126.832ZM213.494 126.112V125.112H212.494V126.112H213.494ZM213.494 139.84H212.494V140.84H213.494V139.84ZM218.678 108.92C221.851 108.92 224.148 109.584 225.701 110.777L226.919 109.191C224.888 107.632 222.097 106.92 218.678 106.92V108.92ZM225.717 110.789C227.203 111.884 228.046 113.72 228.046 116.56H230.046C230.046 113.32 229.065 110.772 226.903 109.179L225.717 110.789ZM228.046 116.56C228.046 117.933 227.784 119.164 227.274 120.269L229.09 121.107C229.732 119.716 230.046 118.195 230.046 116.56H228.046ZM227.274 120.269C226.774 121.352 226.029 122.238 225.02 122.939L226.161 124.581C227.456 123.682 228.438 122.52 229.09 121.107L227.274 120.269ZM225.009 122.946C224.051 123.631 222.808 124.097 221.235 124.305L221.497 126.287C223.317 126.047 224.89 125.489 226.171 124.574L225.009 122.946ZM222.345 125.092L222.105 123.94L220.147 124.348L220.387 125.5L222.345 125.092ZM221.054 125.141C222.686 125.26 224.148 125.673 225.456 126.37L226.397 124.606C224.824 123.767 223.086 123.284 221.199 123.147L221.054 125.141ZM225.479 126.382C226.807 127.047 227.84 127.943 228.601 129.071L230.259 127.953C229.292 126.521 227.989 125.401 226.373 124.594L225.479 126.382ZM228.618 129.095C229.379 130.156 229.774 131.418 229.774 132.928H231.774C231.774 131.046 231.273 129.364 230.242 127.929L228.618 129.095ZM229.774 132.928C229.774 134.33 229.497 135.509 228.978 136.493L230.747 137.427C231.443 136.107 231.774 134.598 231.774 132.928H229.774ZM228.973 136.503C228.467 137.486 227.767 138.313 226.862 138.992L228.062 140.592C229.205 139.735 230.105 138.674 230.751 137.417L228.973 136.503ZM226.866 138.989C225.975 139.65 224.945 140.161 223.767 140.514L224.341 142.43C225.723 142.015 226.966 141.406 228.058 140.595L226.866 138.989ZM223.789 140.508C222.6 140.835 221.346 141 220.022 141V143C221.514 143 222.948 142.813 224.319 142.436L223.789 140.508ZM220.022 141H211.142V143H220.022V141ZM212.142 142V107.92H210.142V142H212.142ZM211.142 108.92H218.678V106.92H211.142V108.92ZM219.782 124.856C222.377 124.856 224.474 124.154 225.793 122.515L224.235 121.261C223.442 122.246 222.051 122.856 219.782 122.856V124.856ZM225.784 122.526C227.042 121.009 227.646 119.141 227.646 116.992H225.646C225.646 118.747 225.162 120.143 224.244 121.25L225.784 122.526ZM227.646 116.992C227.646 114.366 226.861 112.261 225.077 110.954L223.895 112.566C224.992 113.371 225.646 114.754 225.646 116.992H227.646ZM225.086 110.96C223.452 109.734 221.313 109.176 218.774 109.176V111.176C221.035 111.176 222.704 111.674 223.886 112.56L225.086 110.96ZM218.774 109.176H213.494V111.176H218.774V109.176ZM212.494 110.176V123.856H214.494V110.176H212.494ZM213.494 124.856H219.782V122.856H213.494V124.856ZM219.926 140.84C221.567 140.84 223.096 140.583 224.501 140.056L223.799 138.184C222.644 138.617 221.357 138.84 219.926 138.84V140.84ZM224.522 140.048C225.958 139.474 227.136 138.598 228.022 137.416L226.422 136.216C225.773 137.082 224.902 137.742 223.779 138.192L224.522 140.048ZM228.022 137.416C228.942 136.19 229.374 134.705 229.374 133.024H227.374C227.374 134.351 227.039 135.394 226.422 136.216L228.022 137.416ZM229.374 133.024C229.374 131.184 228.893 129.602 227.832 128.383L226.324 129.697C226.991 130.462 227.374 131.536 227.374 133.024H229.374ZM227.842 128.395C226.857 127.228 225.615 126.39 224.137 125.886L223.491 127.778C224.638 128.17 225.571 128.804 226.314 129.685L227.842 128.395ZM224.158 125.893C222.737 125.373 221.277 125.112 219.782 125.112V127.112C221.039 127.112 222.267 127.331 223.471 127.771L224.158 125.893ZM219.782 125.112H213.494V127.112H219.782V125.112ZM212.494 126.112V139.84H214.494V126.112H212.494ZM213.494 140.84H219.926V138.84H213.494V140.84ZM243.775 107.92V106.92H242.775V107.92H243.775ZM264.799 107.92H265.799V106.92H264.799V107.92ZM264.799 110.176V111.176H265.799V110.176H264.799ZM246.127 110.176V109.176H245.127V110.176H246.127ZM246.127 123.712H245.127V124.712H246.127V123.712ZM262.927 123.712H263.927V122.712H262.927V123.712ZM262.927 125.968V126.968H263.927V125.968H262.927ZM246.127 125.968V124.968H245.127V125.968H246.127ZM246.127 139.744H245.127V140.744H246.127V139.744ZM265.471 139.744H266.471V138.744H265.471V139.744ZM265.471 142V143H266.471V142H265.471ZM243.775 142H242.775V143H243.775V142ZM243.775 108.92H264.799V106.92H243.775V108.92ZM263.799 107.92V110.176H265.799V107.92H263.799ZM264.799 109.176H246.127V111.176H264.799V109.176ZM245.127 110.176V123.712H247.127V110.176H245.127ZM246.127 124.712H262.927V122.712H246.127V124.712ZM261.927 123.712V125.968H263.927V123.712H261.927ZM262.927 124.968H246.127V126.968H262.927V124.968ZM245.127 125.968V139.744H247.127V125.968H245.127ZM246.127 140.744H265.471V138.744H246.127V140.744ZM264.471 139.744V142H266.471V139.744H264.471ZM265.471 141H243.775V143H265.471V141ZM244.775 142V107.92H242.775V142H244.775ZM278.751 107.92V106.92H277.751V107.92H278.751ZM281.103 107.92H282.103V106.92H281.103V107.92ZM281.103 139.744H280.103V140.744H281.103V139.744ZM299.775 139.744H300.775V138.744H299.775V139.744ZM299.775 142V143H300.775V142H299.775ZM278.751 142H277.751V143H278.751V142ZM278.751 108.92H281.103V106.92H278.751V108.92ZM280.103 107.92V139.744H282.103V107.92H280.103ZM281.103 140.744H299.775V138.744H281.103V140.744ZM298.775 139.744V142H300.775V139.744H298.775ZM299.775 141H278.751V143H299.775V141ZM279.751 142V107.92H277.751V142H279.751ZM311.993 107.92V106.92H310.993V107.92H311.993ZM314.345 107.92H315.345V106.92H314.345V107.92ZM314.345 139.744H313.345V140.744H314.345V139.744ZM333.017 139.744H334.017V138.744H333.017V139.744ZM333.017 142V143H334.017V142H333.017ZM311.993 142H310.993V143H311.993V142ZM311.993 108.92H314.345V106.92H311.993V108.92ZM313.345 107.92V139.744H315.345V107.92H313.345ZM314.345 140.744H333.017V138.744H314.345V140.744ZM332.017 139.744V142H334.017V139.744H332.017ZM333.017 141H311.993V143H333.017V141ZM312.993 142V107.92H310.993V142H312.993ZM344.137 118.288L345.056 118.684L345.058 118.679L344.137 118.288ZM347.881 112.72L348.589 113.427L348.595 113.42L347.881 112.72ZM353.401 108.928L353.797 109.846L353.804 109.844L353.401 108.928ZM366.937 108.928L366.535 109.844L366.547 109.849L366.937 108.928ZM372.505 112.72L371.791 113.42L371.798 113.427L372.505 112.72ZM376.249 118.288L375.329 118.679L375.332 118.687L375.336 118.695L376.249 118.288ZM376.249 131.776L375.334 131.374L375.331 131.38L376.249 131.776ZM372.505 137.296L371.798 136.589L372.505 137.296ZM366.937 141.04L367.328 141.961L366.937 141.04ZM353.401 141.088L353.018 142.012L353.023 142.014L353.401 141.088ZM347.881 137.44L348.581 136.726L347.881 137.44ZM344.137 131.92L343.217 132.311L344.137 131.92ZM346.345 130.912L345.424 131.3L346.345 130.912ZM349.561 135.712L350.268 135.005L349.561 135.712ZM354.313 138.976L353.906 139.889L353.915 139.893L353.925 139.898L354.313 138.976ZM366.025 138.976L366.413 139.898L366.42 139.895L366.427 139.892L366.025 138.976ZM370.825 135.712L370.118 135.005L370.825 135.712ZM374.041 130.912L373.126 130.51L373.123 130.517L373.12 130.524L374.041 130.912ZM374.041 119.152L373.117 119.534L373.121 119.544L373.126 119.554L374.041 119.152ZM370.825 114.304L370.11 115.003L370.118 115.011L370.825 114.304ZM366.025 110.992L366.427 110.076L366.025 110.992ZM354.265 111.04L354.667 111.956L354.674 111.953L354.68 111.95L354.265 111.04ZM349.465 114.352L348.75 113.653L348.742 113.662L349.465 114.352ZM346.297 119.248L345.373 118.866L345.37 118.874L346.297 119.248ZM343.793 125.008C343.793 122.736 344.217 120.631 345.056 118.684L343.219 117.892C342.266 120.105 341.793 122.48 341.793 125.008H343.793ZM345.058 118.679C345.905 116.683 347.081 114.935 348.588 113.427L347.174 112.013C345.482 113.705 344.162 115.669 343.217 117.897L345.058 118.679ZM348.595 113.42C350.105 111.88 351.837 110.691 353.797 109.846L353.006 108.01C350.805 108.957 348.857 110.296 347.167 112.02L348.595 113.42ZM353.804 109.844C355.784 108.973 357.902 108.536 360.169 108.536V106.536C357.637 106.536 355.243 107.027 352.999 108.012L353.804 109.844ZM360.169 108.536C362.437 108.536 364.555 108.973 366.535 109.844L367.34 108.012C365.096 107.027 362.702 106.536 360.169 106.536V108.536ZM366.547 109.849C368.538 110.693 370.284 111.883 371.791 113.42L373.219 112.02C371.527 110.293 369.561 108.955 367.328 108.007L366.547 109.849ZM371.798 113.427C373.306 114.935 374.482 116.683 375.329 118.679L377.17 117.897C376.225 115.669 374.905 113.705 373.212 112.013L371.798 113.427ZM375.336 118.695C376.204 120.64 376.641 122.741 376.641 125.008H378.641C378.641 122.475 378.151 120.096 377.163 117.881L375.336 118.695ZM376.641 125.008C376.641 127.275 376.204 129.394 375.334 131.374L377.165 132.178C378.151 129.934 378.641 127.541 378.641 125.008H376.641ZM375.331 131.38C374.485 133.344 373.309 135.078 371.798 136.589L373.212 138.003C374.902 136.314 376.222 134.368 377.168 132.172L375.331 131.38ZM371.798 136.589C370.29 138.097 368.542 139.273 366.547 140.119L367.328 141.961C369.556 141.015 371.52 139.695 373.212 138.003L371.798 136.589ZM366.547 140.119C364.564 140.961 362.441 141.384 360.169 141.384V143.384C362.697 143.384 365.087 142.911 367.328 141.961L366.547 140.119ZM360.169 141.384C357.892 141.384 355.766 140.975 353.78 140.162L353.023 142.014C355.261 142.929 357.646 143.384 360.169 143.384V141.384ZM353.785 140.165C351.822 139.349 350.09 138.204 348.581 136.726L347.181 138.154C348.873 139.812 350.821 141.099 353.018 142.011L353.785 140.165ZM348.581 136.726C347.078 135.252 345.904 133.523 345.058 131.529L343.217 132.311C344.163 134.541 345.485 136.492 347.181 138.154L348.581 136.726ZM345.058 131.529C344.219 129.551 343.793 127.382 343.793 125.008H341.793C341.793 127.626 342.264 130.065 343.217 132.311L345.058 131.529ZM344.193 125.056C344.193 127.262 344.601 129.347 345.424 131.3L347.267 130.524C346.553 128.829 346.193 127.01 346.193 125.056H344.193ZM345.424 131.3C346.241 133.241 347.385 134.95 348.854 136.419L350.268 135.005C348.986 133.722 347.986 132.231 347.267 130.524L345.424 131.3ZM348.854 136.419C350.317 137.882 352.003 139.04 353.906 139.889L354.721 138.063C353.04 137.312 351.557 136.294 350.268 135.005L348.854 136.419ZM353.925 139.898C355.876 140.719 357.945 141.128 360.121 141.128V139.128C358.202 139.128 356.398 138.769 354.701 138.054L353.925 139.898ZM360.121 141.128C362.358 141.128 364.458 140.721 366.413 139.898L365.637 138.054C363.944 138.767 362.109 139.128 360.121 139.128V141.128ZM366.427 139.892C368.362 139.043 370.066 137.885 371.532 136.419L370.118 135.005C368.832 136.291 367.337 137.309 365.624 138.06L366.427 139.892ZM371.532 136.419C373.002 134.95 374.146 133.241 374.963 131.3L373.12 130.524C372.401 132.231 371.401 133.722 370.118 135.005L371.532 136.419ZM374.957 131.314C375.816 129.355 376.241 127.25 376.241 125.008H374.241C374.241 126.99 373.867 128.821 373.126 130.51L374.957 131.314ZM376.241 125.008C376.241 122.796 375.815 120.707 374.957 118.75L373.126 119.554C373.868 121.245 374.241 123.06 374.241 125.008H376.241ZM374.965 118.77C374.149 116.796 373.004 115.069 371.532 113.597L370.118 115.011C371.398 116.291 372.398 117.796 373.117 119.534L374.965 118.77ZM371.541 113.605C370.074 112.104 368.367 110.927 366.427 110.076L365.624 111.908C367.332 112.657 368.825 113.688 370.11 115.003L371.541 113.605ZM366.427 110.076C364.471 109.218 362.381 108.792 360.169 108.792V110.792C362.117 110.792 363.932 111.166 365.624 111.908L366.427 110.076ZM360.169 108.792C357.922 108.792 355.812 109.236 353.85 110.13L354.68 111.95C356.367 111.18 358.193 110.792 360.169 110.792V108.792ZM353.864 110.124C351.924 110.975 350.217 112.152 348.75 113.653L350.181 115.051C351.466 113.736 352.959 112.705 354.667 111.956L353.864 110.124ZM348.742 113.662C347.31 115.162 346.187 116.899 345.373 118.866L347.221 119.63C347.944 117.885 348.933 116.358 350.189 115.042L348.742 113.662ZM345.37 118.874C344.584 120.822 344.193 122.885 344.193 125.056H346.193C346.193 123.131 346.539 121.322 347.225 119.622L345.37 118.874Z" fill="white" mask="url(#path-1-outside-1_383_235)"/>
<mask id="path-3-outside-2_383_235" maskUnits="userSpaceOnUse" x="2" y="0" width="507" height="58" fill="black">
<rect fill="white" x="2" width="507" height="58"/>
<path d="M44.45 51.22C43.61 51.78 42.4667 52.41 41.02 53.11C39.5733 53.81 37.87 54.3933 35.91 54.86C33.9967 55.3267 31.8967 55.56 29.61 55.56C25.69 55.5133 22.1433 54.8133 18.97 53.46C15.8433 52.1067 13.1833 50.2633 10.99 47.93C8.79667 45.5967 7.09333 42.9133 5.88 39.88C4.71333 36.8 4.13 33.5333 4.13 30.08C4.13 26.3 4.73667 22.8233 5.95 19.65C7.21 16.43 8.96 13.6533 11.2 11.32C13.44 8.94 16.0767 7.09667 19.11 5.79C22.19 4.48333 25.55 3.83 29.19 3.83C32.2233 3.83 34.9767 4.25 37.45 5.09C39.9233 5.88333 42.0467 6.84 43.82 7.96L41.09 14.26C39.69 13.3267 37.9867 12.44 35.98 11.6C34.02 10.76 31.8267 10.34 29.4 10.34C26.9267 10.34 24.5933 10.83 22.4 11.81C20.2067 12.79 18.27 14.1667 16.59 15.94C14.91 17.7133 13.58 19.79 12.6 22.17C11.6667 24.5033 11.2 27.0233 11.2 29.73C11.2 32.4833 11.62 35.05 12.46 37.43C13.3467 39.7633 14.5833 41.7933 16.17 43.52C17.8033 45.2467 19.7633 46.6 22.05 47.58C24.3367 48.56 26.9033 49.05 29.75 49.05C32.3167 49.05 34.6033 48.6533 36.61 47.86C38.6167 47.0667 40.2733 46.18 41.58 45.2L44.45 51.22ZM63.2335 29.73C63.2335 26.23 63.8868 22.94 65.1935 19.86C66.5468 16.7333 68.4135 13.98 70.7935 11.6C73.1735 9.17333 75.9035 7.28333 78.9835 5.93C82.1102 4.53 85.4702 3.83 89.0635 3.83C92.6102 3.83 95.9235 4.53 99.0035 5.93C102.13 7.28333 104.884 9.17333 107.264 11.6C109.69 13.98 111.58 16.7333 112.934 19.86C114.287 22.94 114.964 26.23 114.964 29.73C114.964 33.3233 114.287 36.6833 112.934 39.81C111.58 42.9367 109.69 45.69 107.264 48.07C104.884 50.4033 102.13 52.2467 99.0035 53.6C95.9235 54.9067 92.6102 55.56 89.0635 55.56C85.4702 55.56 82.1102 54.9067 78.9835 53.6C75.9035 52.2933 73.1735 50.4733 70.7935 48.14C68.4135 45.8067 66.5468 43.0767 65.1935 39.95C63.8868 36.8233 63.2335 33.4167 63.2335 29.73ZM70.2335 29.8C70.2335 32.46 70.7235 34.9567 71.7035 37.29C72.6835 39.5767 74.0368 41.6067 75.7635 43.38C77.4902 45.1533 79.4968 46.5533 81.7835 47.58C84.0702 48.56 86.5435 49.05 89.2035 49.05C91.8169 49.05 94.2669 48.56 96.5535 47.58C98.8402 46.5533 100.824 45.1533 102.504 43.38C104.184 41.6067 105.514 39.5767 106.494 37.29C107.474 34.9567 107.964 32.4367 107.964 29.73C107.964 27.07 107.474 24.5733 106.494 22.24C105.514 19.86 104.16 17.7833 102.434 16.01C100.707 14.2367 98.7002 12.86 96.4135 11.88C94.1269 10.8533 91.6769 10.34 89.0635 10.34C86.4035 10.34 83.9302 10.8533 81.6435 11.88C79.3568 12.9067 77.3502 14.3067 75.6235 16.08C73.8969 17.8533 72.5668 19.93 71.6335 22.31C70.7002 24.6433 70.2335 27.14 70.2335 29.8ZM136.903 55V2.78H136.973L163.503 40.44L160.633 39.88L187.093 2.78H187.233V55H180.513V18.18L180.933 21.61L161.823 48.63H161.683L142.293 21.61L143.483 18.46V55H136.903ZM212.276 4.39H245.176V10.9H219.066V26.3H242.376V32.81H219.066V48.49H246.156V55H212.276V4.39ZM281.88 4.39C284.447 4.39 286.803 4.74 288.95 5.44C291.143 6.09333 293.033 7.09667 294.62 8.45C296.253 9.75667 297.513 11.39 298.4 13.35C299.333 15.2633 299.8 17.5033 299.8 20.07C299.8 22.0767 299.497 24.0367 298.89 25.95C298.33 27.8633 297.373 29.6133 296.02 31.2C294.667 32.74 292.893 34 290.7 34.98C288.553 35.9133 285.893 36.38 282.72 36.38H275.23V55H268.44V4.39H281.88ZM282.58 29.87C284.587 29.87 286.243 29.5667 287.55 28.96C288.903 28.3533 289.953 27.5833 290.7 26.65C291.447 25.67 291.983 24.62 292.31 23.5C292.637 22.38 292.8 21.33 292.8 20.35C292.8 19.3233 292.613 18.2733 292.24 17.2C291.913 16.08 291.353 15.0533 290.56 14.12C289.813 13.1867 288.81 12.4167 287.55 11.81C286.337 11.2033 284.843 10.9 283.07 10.9H275.23V29.87H282.58ZM290.91 33.72L304.14 55H296.3L282.86 33.93L290.91 33.72ZM361.159 51.22C360.319 51.78 359.176 52.41 357.729 53.11C356.282 53.81 354.579 54.3933 352.619 54.86C350.706 55.3267 348.606 55.56 346.319 55.56C342.399 55.5133 338.852 54.8133 335.679 53.46C332.552 52.1067 329.892 50.2633 327.699 47.93C325.506 45.5967 323.802 42.9133 322.589 39.88C321.422 36.8 320.839 33.5333 320.839 30.08C320.839 26.3 321.446 22.8233 322.659 19.65C323.919 16.43 325.669 13.6533 327.909 11.32C330.149 8.94 332.786 7.09667 335.819 5.79C338.899 4.48333 342.259 3.83 345.899 3.83C348.932 3.83 351.686 4.25 354.159 5.09C356.632 5.88333 358.756 6.84 360.529 7.96L357.799 14.26C356.399 13.3267 354.696 12.44 352.689 11.6C350.729 10.76 348.536 10.34 346.109 10.34C343.636 10.34 341.302 10.83 339.109 11.81C336.916 12.79 334.979 14.1667 333.299 15.94C331.619 17.7133 330.289 19.79 329.309 22.17C328.376 24.5033 327.909 27.0233 327.909 29.73C327.909 32.4833 328.329 35.05 329.169 37.43C330.056 39.7633 331.292 41.7933 332.879 43.52C334.512 45.2467 336.472 46.6 338.759 47.58C341.046 48.56 343.612 49.05 346.459 49.05C349.026 49.05 351.312 48.6533 353.319 47.86C355.326 47.0667 356.982 46.18 358.289 45.2L361.159 51.22ZM383.093 4.39H389.883V55H383.093V4.39ZM409.881 55L432.001 2.29H432.421L454.471 55H446.701L430.181 12.93L435.011 9.78L416.531 55H409.881ZM422.831 35.82H441.661L443.901 41.7H420.871L422.831 35.82ZM474.503 4.39H481.293V48.49H506.983V55H474.503V4.39Z"/>
</mask>
<path d="M44.45 51.22C43.61 51.78 42.4667 52.41 41.02 53.11C39.5733 53.81 37.87 54.3933 35.91 54.86C33.9967 55.3267 31.8967 55.56 29.61 55.56C25.69 55.5133 22.1433 54.8133 18.97 53.46C15.8433 52.1067 13.1833 50.2633 10.99 47.93C8.79667 45.5967 7.09333 42.9133 5.88 39.88C4.71333 36.8 4.13 33.5333 4.13 30.08C4.13 26.3 4.73667 22.8233 5.95 19.65C7.21 16.43 8.96 13.6533 11.2 11.32C13.44 8.94 16.0767 7.09667 19.11 5.79C22.19 4.48333 25.55 3.83 29.19 3.83C32.2233 3.83 34.9767 4.25 37.45 5.09C39.9233 5.88333 42.0467 6.84 43.82 7.96L41.09 14.26C39.69 13.3267 37.9867 12.44 35.98 11.6C34.02 10.76 31.8267 10.34 29.4 10.34C26.9267 10.34 24.5933 10.83 22.4 11.81C20.2067 12.79 18.27 14.1667 16.59 15.94C14.91 17.7133 13.58 19.79 12.6 22.17C11.6667 24.5033 11.2 27.0233 11.2 29.73C11.2 32.4833 11.62 35.05 12.46 37.43C13.3467 39.7633 14.5833 41.7933 16.17 43.52C17.8033 45.2467 19.7633 46.6 22.05 47.58C24.3367 48.56 26.9033 49.05 29.75 49.05C32.3167 49.05 34.6033 48.6533 36.61 47.86C38.6167 47.0667 40.2733 46.18 41.58 45.2L44.45 51.22ZM63.2335 29.73C63.2335 26.23 63.8868 22.94 65.1935 19.86C66.5468 16.7333 68.4135 13.98 70.7935 11.6C73.1735 9.17333 75.9035 7.28333 78.9835 5.93C82.1102 4.53 85.4702 3.83 89.0635 3.83C92.6102 3.83 95.9235 4.53 99.0035 5.93C102.13 7.28333 104.884 9.17333 107.264 11.6C109.69 13.98 111.58 16.7333 112.934 19.86C114.287 22.94 114.964 26.23 114.964 29.73C114.964 33.3233 114.287 36.6833 112.934 39.81C111.58 42.9367 109.69 45.69 107.264 48.07C104.884 50.4033 102.13 52.2467 99.0035 53.6C95.9235 54.9067 92.6102 55.56 89.0635 55.56C85.4702 55.56 82.1102 54.9067 78.9835 53.6C75.9035 52.2933 73.1735 50.4733 70.7935 48.14C68.4135 45.8067 66.5468 43.0767 65.1935 39.95C63.8868 36.8233 63.2335 33.4167 63.2335 29.73ZM70.2335 29.8C70.2335 32.46 70.7235 34.9567 71.7035 37.29C72.6835 39.5767 74.0368 41.6067 75.7635 43.38C77.4902 45.1533 79.4968 46.5533 81.7835 47.58C84.0702 48.56 86.5435 49.05 89.2035 49.05C91.8169 49.05 94.2669 48.56 96.5535 47.58C98.8402 46.5533 100.824 45.1533 102.504 43.38C104.184 41.6067 105.514 39.5767 106.494 37.29C107.474 34.9567 107.964 32.4367 107.964 29.73C107.964 27.07 107.474 24.5733 106.494 22.24C105.514 19.86 104.16 17.7833 102.434 16.01C100.707 14.2367 98.7002 12.86 96.4135 11.88C94.1269 10.8533 91.6769 10.34 89.0635 10.34C86.4035 10.34 83.9302 10.8533 81.6435 11.88C79.3568 12.9067 77.3502 14.3067 75.6235 16.08C73.8969 17.8533 72.5668 19.93 71.6335 22.31C70.7002 24.6433 70.2335 27.14 70.2335 29.8ZM136.903 55V2.78H136.973L163.503 40.44L160.633 39.88L187.093 2.78H187.233V55H180.513V18.18L180.933 21.61L161.823 48.63H161.683L142.293 21.61L143.483 18.46V55H136.903ZM212.276 4.39H245.176V10.9H219.066V26.3H242.376V32.81H219.066V48.49H246.156V55H212.276V4.39ZM281.88 4.39C284.447 4.39 286.803 4.74 288.95 5.44C291.143 6.09333 293.033 7.09667 294.62 8.45C296.253 9.75667 297.513 11.39 298.4 13.35C299.333 15.2633 299.8 17.5033 299.8 20.07C299.8 22.0767 299.497 24.0367 298.89 25.95C298.33 27.8633 297.373 29.6133 296.02 31.2C294.667 32.74 292.893 34 290.7 34.98C288.553 35.9133 285.893 36.38 282.72 36.38H275.23V55H268.44V4.39H281.88ZM282.58 29.87C284.587 29.87 286.243 29.5667 287.55 28.96C288.903 28.3533 289.953 27.5833 290.7 26.65C291.447 25.67 291.983 24.62 292.31 23.5C292.637 22.38 292.8 21.33 292.8 20.35C292.8 19.3233 292.613 18.2733 292.24 17.2C291.913 16.08 291.353 15.0533 290.56 14.12C289.813 13.1867 288.81 12.4167 287.55 11.81C286.337 11.2033 284.843 10.9 283.07 10.9H275.23V29.87H282.58ZM290.91 33.72L304.14 55H296.3L282.86 33.93L290.91 33.72ZM361.159 51.22C360.319 51.78 359.176 52.41 357.729 53.11C356.282 53.81 354.579 54.3933 352.619 54.86C350.706 55.3267 348.606 55.56 346.319 55.56C342.399 55.5133 338.852 54.8133 335.679 53.46C332.552 52.1067 329.892 50.2633 327.699 47.93C325.506 45.5967 323.802 42.9133 322.589 39.88C321.422 36.8 320.839 33.5333 320.839 30.08C320.839 26.3 321.446 22.8233 322.659 19.65C323.919 16.43 325.669 13.6533 327.909 11.32C330.149 8.94 332.786 7.09667 335.819 5.79C338.899 4.48333 342.259 3.83 345.899 3.83C348.932 3.83 351.686 4.25 354.159 5.09C356.632 5.88333 358.756 6.84 360.529 7.96L357.799 14.26C356.399 13.3267 354.696 12.44 352.689 11.6C350.729 10.76 348.536 10.34 346.109 10.34C343.636 10.34 341.302 10.83 339.109 11.81C336.916 12.79 334.979 14.1667 333.299 15.94C331.619 17.7133 330.289 19.79 329.309 22.17C328.376 24.5033 327.909 27.0233 327.909 29.73C327.909 32.4833 328.329 35.05 329.169 37.43C330.056 39.7633 331.292 41.7933 332.879 43.52C334.512 45.2467 336.472 46.6 338.759 47.58C341.046 48.56 343.612 49.05 346.459 49.05C349.026 49.05 351.312 48.6533 353.319 47.86C355.326 47.0667 356.982 46.18 358.289 45.2L361.159 51.22ZM383.093 4.39H389.883V55H383.093V4.39ZM409.881 55L432.001 2.29H432.421L454.471 55H446.701L430.181 12.93L435.011 9.78L416.531 55H409.881ZM422.831 35.82H441.661L443.901 41.7H420.871L422.831 35.82ZM474.503 4.39H481.293V48.49H506.983V55H474.503V4.39Z" fill="white"/>
<path d="M44.45 51.22L45.5594 52.8841L47.0009 51.9231L46.2553 50.3593L44.45 51.22ZM41.02 53.11L41.8911 54.9103L41.02 53.11ZM35.91 54.86L35.4468 52.9144L35.4361 52.917L35.91 54.86ZM29.61 55.56L29.5862 57.5599L29.5981 57.56H29.61V55.56ZM18.97 53.46L18.1755 55.2955L18.1854 55.2997L18.97 53.46ZM10.99 47.93L9.53275 49.2998L10.99 47.93ZM5.88 39.88L4.00968 40.5885L4.01621 40.6057L4.02305 40.6228L5.88 39.88ZM5.95 19.65L4.08751 18.9212L4.08468 18.9285L4.0819 18.9357L5.95 19.65ZM11.2 11.32L12.6428 12.7051L12.6496 12.6979L12.6564 12.6907L11.2 11.32ZM19.11 5.79L18.3289 3.94881L18.3188 3.95317L19.11 5.79ZM37.45 5.09L36.8068 6.98376L36.8229 6.98923L36.8391 6.99443L37.45 5.09ZM43.82 7.96L45.6551 8.75521L46.3361 7.18363L44.888 6.26902L43.82 7.96ZM41.09 14.26L39.9806 15.9241L41.973 17.2524L42.9251 15.0552L41.09 14.26ZM35.98 11.6L35.1922 13.4383L35.1999 13.4416L35.2077 13.4449L35.98 11.6ZM22.4 11.81L21.5841 9.98398V9.98398L22.4 11.81ZM16.59 15.94L18.0419 17.3155V17.3155L16.59 15.94ZM12.6 22.17L10.7506 21.4085L10.7468 21.4178L10.743 21.4272L12.6 22.17ZM12.46 37.43L10.574 38.0956L10.582 38.1181L10.5904 38.1404L12.46 37.43ZM16.17 43.52L14.6973 44.8732L14.7071 44.8839L14.7171 44.8944L16.17 43.52ZM22.05 47.58L22.8378 45.7417L22.05 47.58ZM36.61 47.86L35.8747 46.0001V46.0001L36.61 47.86ZM41.58 45.2L43.3853 44.3393L42.3341 42.1344L40.38 43.6L41.58 45.2ZM43.3406 49.5559C42.6078 50.0445 41.5552 50.6292 40.1489 51.3097L41.8911 54.9103C43.3781 54.1908 44.6123 53.5155 45.5594 52.8841L43.3406 49.5559ZM40.1489 51.3097C38.8604 51.9331 37.2997 52.4732 35.4468 52.9144L36.3732 56.8056C38.4403 56.3135 40.2862 55.6869 41.8911 54.9103L40.1489 51.3097ZM35.4361 52.917C33.7004 53.3403 31.7619 53.56 29.61 53.56V57.56C32.0314 57.56 34.2929 57.313 36.3839 56.803L35.4361 52.917ZM29.6338 53.5601C25.94 53.5162 22.6566 52.858 19.7546 51.6203L18.1854 55.2997C21.63 56.7687 25.44 57.5105 29.5862 57.5599L29.6338 53.5601ZM19.7644 51.6246C16.8719 50.3726 14.442 48.6822 12.4473 46.5602L9.53275 49.2998C11.9247 51.8445 14.8148 53.8408 18.1756 55.2954L19.7644 51.6246ZM12.4473 46.5602C10.4287 44.4128 8.85934 41.9432 7.73695 39.1372L4.02305 40.6228C5.32733 43.8835 7.16466 46.7806 9.53275 49.2998L12.4473 46.5602ZM7.75032 39.1715C6.67351 36.3288 6.13 33.3032 6.13 30.08H2.13C2.13 33.7635 2.75316 37.2712 4.00968 40.5885L7.75032 39.1715ZM6.13 30.08C6.13 26.5167 6.70124 23.2853 7.8181 20.3643L4.0819 18.9357C2.77209 22.3614 2.13 26.0833 2.13 30.08H6.13ZM7.81249 20.3788C8.98362 17.3859 10.5966 14.8365 12.6428 12.7051L9.75723 9.93494C7.3234 12.4702 5.43638 15.4741 4.08751 18.9212L7.81249 20.3788ZM12.6564 12.6907C14.7069 10.5121 17.1164 8.82643 19.9012 7.62682L18.3188 3.95317C15.0369 5.3669 12.1731 7.36789 9.7436 9.94927L12.6564 12.6907ZM19.8911 7.63116C22.703 6.43823 25.7946 5.83 29.19 5.83V1.83C25.3054 1.83 21.677 2.52844 18.3289 3.94884L19.8911 7.63116ZM29.19 5.83C32.0391 5.83 34.571 6.22442 36.8068 6.98376L38.0932 3.19623C35.3823 2.27557 32.4075 1.83 29.19 1.83V5.83ZM36.8391 6.99443C39.1882 7.7479 41.1506 8.63954 42.752 9.65098L44.888 6.26902C42.9428 5.04046 40.6585 4.01876 38.0609 3.18557L36.8391 6.99443ZM41.9849 7.16478L39.2549 13.4648L42.9251 15.0552L45.6551 8.75521L41.9849 7.16478ZM42.1994 12.5959C40.6675 11.5746 38.8446 10.631 36.7523 9.75512L35.2077 13.4449C37.1288 14.249 38.7125 15.0787 39.9806 15.9241L42.1994 12.5959ZM36.7678 9.76171C34.5268 8.80127 32.0603 8.34 29.4 8.34V12.34C31.593 12.34 33.5132 12.7187 35.1922 13.4383L36.7678 9.76171ZM29.4 8.34C26.654 8.34 24.0418 8.88585 21.5841 9.98398L23.2159 13.636C25.1448 12.7741 27.1993 12.34 29.4 12.34V8.34ZM21.5841 9.98398C19.1472 11.0728 16.9954 12.604 15.1381 14.5645L18.0419 17.3155C19.5446 15.7293 21.2662 14.5072 23.2159 13.636L21.5841 9.98398ZM15.1381 14.5645C13.28 16.5258 11.8192 18.8135 10.7506 21.4085L14.4494 22.9315C15.3408 20.7665 16.54 18.9009 18.0419 17.3155L15.1381 14.5645ZM10.743 21.4272C9.70815 24.0145 9.2 26.7886 9.2 29.73H13.2C13.2 27.258 13.6252 24.9922 14.457 22.9128L10.743 21.4272ZM9.2 29.73C9.2 32.6895 9.652 35.4832 10.574 38.0956L14.346 36.7644C13.588 34.6168 13.2 32.2772 13.2 29.73H9.2ZM10.5904 38.1404C11.5615 40.6958 12.9279 42.9477 14.6973 44.8732L17.6427 42.1667C16.2388 40.639 15.1319 38.8308 14.3296 36.7196L10.5904 38.1404ZM14.7171 44.8944C16.5468 46.8287 18.7364 48.3358 21.2622 49.4183L22.8378 45.7417C20.7903 44.8642 19.0598 43.6646 17.6229 42.1456L14.7171 44.8944ZM21.2622 49.4183C23.8312 50.5193 26.6713 51.05 29.75 51.05V47.05C27.1353 47.05 24.8422 46.6007 22.8378 45.7417L21.2622 49.4183ZM29.75 51.05C32.5217 51.05 35.0647 50.6215 37.3453 49.7199L35.8747 46.0001C34.1419 46.6851 32.1116 47.05 29.75 47.05V51.05ZM37.3453 49.7199C39.4681 48.8807 41.2935 47.9149 42.78 46.8L40.38 43.6C39.2532 44.4451 37.7653 45.2526 35.8747 46.0001L37.3453 49.7199ZM39.7747 46.0607L42.6447 52.0807L46.2553 50.3593L43.3853 44.3393L39.7747 46.0607ZM65.1935 19.86L63.3581 19.0656L63.3552 19.0722L63.3524 19.0789L65.1935 19.86ZM70.7935 11.6L72.2077 13.0142L72.2146 13.0073L72.2214 13.0004L70.7935 11.6ZM78.9835 5.93L79.7881 7.76108L79.8008 7.75537L78.9835 5.93ZM99.0035 5.93L98.1759 7.75073L98.1924 7.75824L98.2091 7.76544L99.0035 5.93ZM107.264 11.6L105.836 13.0004L105.849 13.0143L105.863 13.0279L107.264 11.6ZM112.934 19.86L111.098 20.6545L111.102 20.6645L112.934 19.86ZM112.934 39.81L114.769 40.6044L112.934 39.81ZM107.264 48.07L108.664 49.4981L108.664 49.4979L107.264 48.07ZM99.0035 53.6L99.7846 55.4412L99.7913 55.4383L99.798 55.4354L99.0035 53.6ZM78.9835 53.6L78.2024 55.4412L78.2123 55.4453L78.9835 53.6ZM70.7935 48.14L72.1937 46.7119L70.7935 48.14ZM65.1935 39.95L63.3482 40.7212L63.3531 40.7328L63.3581 40.7444L65.1935 39.95ZM71.7035 37.29L69.8596 38.0645L69.8624 38.0712L69.8652 38.0778L71.7035 37.29ZM81.7835 47.58L80.9643 49.4045L80.9799 49.4115L80.9957 49.4183L81.7835 47.58ZM96.5535 47.58L97.3414 49.4183L97.3571 49.4115L97.3727 49.4045L96.5535 47.58ZM102.504 43.38L101.052 42.0045V42.0045L102.504 43.38ZM106.494 37.29L108.332 38.0778L108.335 38.0712L108.337 38.0645L106.494 37.29ZM106.494 22.24L104.644 23.0015L104.65 23.0145L106.494 22.24ZM96.4135 11.88L95.5943 13.7045L95.6099 13.7115L95.6257 13.7183L96.4135 11.88ZM81.6435 11.88L80.8243 10.0555L80.8243 10.0555L81.6435 11.88ZM75.6235 16.08L74.1906 14.6848V14.6848L75.6235 16.08ZM71.6335 22.31L73.4905 23.0528L73.4955 23.0402L71.6335 22.31ZM65.2335 29.73C65.2335 26.4858 65.8376 23.4627 67.0347 20.6411L63.3524 19.0789C61.9361 22.4173 61.2335 25.9742 61.2335 29.73H65.2335ZM67.029 20.6544C68.2834 17.7562 70.0081 15.2138 72.2077 13.0142L69.3793 10.1858C66.8189 12.7462 64.8103 15.7105 63.3581 19.0656L67.029 20.6544ZM72.2214 13.0004C74.4248 10.7538 76.9438 9.01077 79.7881 7.76104L78.179 4.09896C74.8632 5.55589 71.9222 7.5929 69.3656 10.1996L72.2214 13.0004ZM79.8008 7.75537C82.6579 6.4761 85.7378 5.83 89.0635 5.83V1.83C85.2026 1.83 81.5625 2.58389 78.1662 4.10463L79.8008 7.75537ZM89.0635 5.83C92.3388 5.83 95.3684 6.47457 98.1759 7.75073L99.8311 4.10926C96.4787 2.58543 92.8816 1.83 89.0635 1.83V5.83ZM98.2091 7.76544C101.099 9.01632 103.637 10.7588 105.836 13.0004L108.691 10.1996C106.13 7.58788 103.161 5.55034 99.798 4.09455L98.2091 7.76544ZM105.863 13.0279C108.105 15.2264 109.847 17.7645 111.098 20.6544L114.769 19.0655C113.313 15.7022 111.276 12.7336 108.664 10.1721L105.863 13.0279ZM111.102 20.6645C112.34 23.4807 112.964 26.4956 112.964 29.73H116.964C116.964 25.9644 116.234 22.3993 114.765 19.0555L111.102 20.6645ZM112.964 29.73C112.964 33.0653 112.337 36.1533 111.098 39.0156L114.769 40.6044C116.237 37.2134 116.964 33.5814 116.964 29.73H112.964ZM111.098 39.0156C109.847 41.9055 108.105 44.4436 105.863 46.6421L108.664 49.4979C111.276 46.9364 113.313 43.9678 114.769 40.6044L111.098 39.0156ZM105.863 46.6419C103.663 48.7996 101.116 50.5065 98.2091 51.7646L99.798 55.4354C103.145 53.9869 106.105 52.0071 108.664 49.4981L105.863 46.6419ZM98.2224 51.7588C95.4041 52.9545 92.3582 53.56 89.0635 53.56V57.56C92.8622 57.56 96.4429 56.8589 99.7846 55.4412L98.2224 51.7588ZM89.0635 53.56C85.7187 53.56 82.6225 52.9532 79.7547 51.7547L78.2123 55.4453C81.5978 56.8602 85.2216 57.56 89.0635 57.56V53.56ZM79.7646 51.7588C76.9141 50.5495 74.3943 48.8693 72.1937 46.7119L69.3934 49.5681C71.9528 52.0774 74.893 54.0371 78.2024 55.4412L79.7646 51.7588ZM72.1937 46.7119C70.0025 44.5637 68.2819 42.0502 67.029 39.1556L63.3581 40.7444C64.8118 44.1031 66.8245 47.0496 69.3934 49.5681L72.1937 46.7119ZM67.0389 39.1788C65.8429 36.3172 65.2335 33.1754 65.2335 29.73H61.2335C61.2335 33.658 61.9307 37.3295 63.3482 40.7212L67.0389 39.1788ZM68.2335 29.8C68.2335 32.7121 68.7713 35.4735 69.8596 38.0645L73.5475 36.5155C72.6757 34.4398 72.2335 32.2079 72.2335 29.8H68.2335ZM69.8652 38.0778C70.9414 40.5889 72.4318 42.8251 74.3306 44.7752L77.1965 41.9848C75.6419 40.3882 74.4256 38.5644 73.5418 36.5022L69.8652 38.0778ZM74.3306 44.7752C76.2352 46.7314 78.4509 48.276 80.9643 49.4045L82.6027 45.7555C80.5428 44.8306 78.7451 43.5753 77.1965 41.9848L74.3306 44.7752ZM80.9957 49.4183C83.5482 50.5122 86.2917 51.05 89.2035 51.05V47.05C86.7954 47.05 84.5922 46.6078 82.5714 45.7417L80.9957 49.4183ZM89.2035 51.05C92.0738 51.05 94.7933 50.5103 97.3414 49.4183L95.7657 45.7417C93.7404 46.6097 91.5599 47.05 89.2035 47.05V51.05ZM97.3727 49.4045C99.8912 48.2738 102.091 46.7234 103.955 44.7555L101.052 42.0045C99.5559 43.5833 97.7892 44.8329 95.7343 45.7555L97.3727 49.4045ZM103.955 44.7555C105.801 42.8074 107.26 40.5776 108.332 38.0778L104.655 36.5022C103.767 38.5757 102.566 40.4059 101.052 42.0045L103.955 44.7555ZM108.337 38.0645C109.427 35.4692 109.964 32.6839 109.964 29.73H105.964C105.964 32.1894 105.52 34.4441 104.65 36.5155L108.337 38.0645ZM109.964 29.73C109.964 26.8179 109.426 24.0565 108.337 21.4655L104.65 23.0145C105.521 25.0902 105.964 27.3221 105.964 29.73H109.964ZM108.343 21.4785C107.27 18.8722 105.778 16.5781 103.866 14.6148L101.001 17.4052C102.542 18.9885 103.757 20.8478 104.644 23.0015L108.343 21.4785ZM103.866 14.6148C101.955 12.6517 99.7289 11.1249 97.2014 10.0417L95.6257 13.7183C97.6715 14.5951 99.4586 15.8216 101.001 17.4052L103.866 14.6148ZM97.2327 10.0555C94.6774 8.90819 91.9469 8.34 89.0635 8.34V12.34C91.4068 12.34 93.5763 12.7985 95.5943 13.7045L97.2327 10.0555ZM89.0635 8.34C86.1387 8.34 83.3842 8.90613 80.8243 10.0555L82.4627 13.7045C84.4762 12.8005 86.6683 12.34 89.0635 12.34V8.34ZM80.8243 10.0555C78.3109 11.184 76.0952 12.7286 74.1906 14.6848L77.0565 17.4752C78.6051 15.8847 80.4028 14.6294 82.4627 13.7045L80.8243 10.0555ZM74.1906 14.6848C72.2719 16.6553 70.7989 18.9601 69.7716 21.5798L73.4955 23.0402C74.3348 20.8999 75.5218 19.0514 77.0565 17.4752L74.1906 14.6848ZM69.7766 21.5672C68.7433 24.1504 68.2335 26.9006 68.2335 29.8H72.2335C72.2335 27.3794 72.6571 25.1363 73.4905 23.0528L69.7766 21.5672ZM136.903 55H134.903V57H136.903V55ZM136.903 2.78V0.779996H134.903V2.78H136.903ZM136.973 2.78L138.608 1.62818L138.011 0.779996H136.973V2.78ZM163.503 40.44L163.12 42.403L168.004 43.3559L165.138 39.2882L163.503 40.44ZM160.633 39.88L159.005 38.7187L157.201 41.248L160.25 41.843L160.633 39.88ZM187.093 2.78V0.779996H186.063L185.465 1.61868L187.093 2.78ZM187.233 2.78H189.233V0.779996H187.233V2.78ZM187.233 55V57H189.233V55H187.233ZM180.513 55H178.513V57H180.513V55ZM180.513 18.18L182.498 17.9369L178.513 18.18H180.513ZM180.933 21.61L182.566 22.7649L183.012 22.1339L182.918 21.3669L180.933 21.61ZM161.823 48.63V50.63H162.858L163.456 49.7849L161.823 48.63ZM161.683 48.63L160.058 49.7961L160.657 50.63H161.683V48.63ZM142.293 21.61L140.422 20.9032L140.043 21.9055L140.668 22.7761L142.293 21.61ZM143.483 18.46H145.483L141.612 17.7532L143.483 18.46ZM143.483 55V57H145.483V55H143.483ZM138.903 55V2.78H134.903V55H138.903ZM136.903 4.78H136.973V0.779996H136.903V4.78ZM135.338 3.93181L161.868 41.5918L165.138 39.2882L138.608 1.62818L135.338 3.93181ZM163.886 38.477L161.016 37.917L160.25 41.843L163.12 42.403L163.886 38.477ZM162.261 41.0413L188.721 3.94131L185.465 1.61868L159.005 38.7187L162.261 41.0413ZM187.093 4.78H187.233V0.779996H187.093V4.78ZM185.233 2.78V55H189.233V2.78H185.233ZM187.233 53H180.513V57H187.233V53ZM182.513 55V18.18H178.513V55H182.513ZM178.528 18.4231L178.948 21.8531L182.918 21.3669L182.498 17.9369L178.528 18.4231ZM179.3 20.4551L160.19 47.4751L163.456 49.7849L182.566 22.7649L179.3 20.4551ZM161.823 46.63H161.683V50.63H161.823V46.63ZM163.308 47.4639L143.918 20.4439L140.668 22.7761L160.058 49.7961L163.308 47.4639ZM144.164 22.3168L145.354 19.1668L141.612 17.7532L140.422 20.9032L144.164 22.3168ZM141.483 18.46V55H145.483V18.46H141.483ZM143.483 53H136.903V57H143.483V53ZM212.276 4.39V2.39H210.276V4.39H212.276ZM245.176 4.39H247.176V2.39H245.176V4.39ZM245.176 10.9V12.9H247.176V10.9H245.176ZM219.066 10.9V8.9H217.066V10.9H219.066ZM219.066 26.3H217.066V28.3H219.066V26.3ZM242.376 26.3H244.376V24.3H242.376V26.3ZM242.376 32.81V34.81H244.376V32.81H242.376ZM219.066 32.81V30.81H217.066V32.81H219.066ZM219.066 48.49H217.066V50.49H219.066V48.49ZM246.156 48.49H248.156V46.49H246.156V48.49ZM246.156 55V57H248.156V55H246.156ZM212.276 55H210.276V57H212.276V55ZM212.276 6.39H245.176V2.39H212.276V6.39ZM243.176 4.39V10.9H247.176V4.39H243.176ZM245.176 8.9H219.066V12.9H245.176V8.9ZM217.066 10.9V26.3H221.066V10.9H217.066ZM219.066 28.3H242.376V24.3H219.066V28.3ZM240.376 26.3V32.81H244.376V26.3H240.376ZM242.376 30.81H219.066V34.81H242.376V30.81ZM217.066 32.81V48.49H221.066V32.81H217.066ZM219.066 50.49H246.156V46.49H219.066V50.49ZM244.156 48.49V55H248.156V48.49H244.156ZM246.156 53H212.276V57H246.156V53ZM214.276 55V4.39H210.276V55H214.276ZM288.95 5.44L288.33 7.34146L288.355 7.34943L288.379 7.35677L288.95 5.44ZM294.62 8.45L293.322 9.97167L293.346 9.99208L293.371 10.0117L294.62 8.45ZM298.4 13.35L296.578 14.1743L296.59 14.2008L296.603 14.2268L298.4 13.35ZM298.89 25.95L296.984 25.3455L296.977 25.3668L296.971 25.3882L298.89 25.95ZM296.02 31.2L297.522 32.5202L297.532 32.5091L297.542 32.4979L296.02 31.2ZM290.7 34.98L291.498 36.8141L291.507 36.8101L291.516 36.806L290.7 34.98ZM275.23 36.38V34.38H273.23V36.38H275.23ZM275.23 55V57H277.23V55H275.23ZM268.44 55H266.44V57H268.44V55ZM268.44 4.39V2.39H266.44V4.39H268.44ZM287.55 28.96L286.732 27.135L286.72 27.1404L286.708 27.146L287.55 28.96ZM290.7 26.65L292.262 27.8994L292.277 27.8809L292.291 27.8621L290.7 26.65ZM292.31 23.5L294.23 24.06V24.06L292.31 23.5ZM292.24 17.2L290.32 17.76L290.334 17.8089L290.351 17.857L292.24 17.2ZM290.56 14.12L288.998 15.3694L289.017 15.3926L289.036 15.4153L290.56 14.12ZM287.55 11.81L286.656 13.5989L286.669 13.6055L286.683 13.612L287.55 11.81ZM275.23 10.9V8.9H273.23V10.9H275.23ZM275.23 29.87H273.23V31.87H275.23V29.87ZM290.91 33.72L292.609 32.664L292.004 31.6908L290.858 31.7207L290.91 33.72ZM304.14 55V57H307.739L305.839 53.944L304.14 55ZM296.3 55L294.614 56.0756L295.204 57H296.3V55ZM282.86 33.93L282.808 31.9307L279.271 32.0229L281.174 35.0056L282.86 33.93ZM281.88 6.39C284.265 6.39 286.409 6.71498 288.33 7.34146L289.57 3.53854C287.198 2.76501 284.629 2.39 281.88 2.39V6.39ZM288.379 7.35677C290.332 7.93833 291.968 8.81623 293.322 9.97167L295.918 6.92833C294.099 5.3771 291.955 4.24834 289.521 3.52323L288.379 7.35677ZM293.371 10.0117C294.75 11.1155 295.818 12.4934 296.578 14.1743L300.222 12.5257C299.209 10.2866 297.757 8.39782 295.87 6.88826L293.371 10.0117ZM296.603 14.2268C297.378 15.8166 297.8 17.7455 297.8 20.07H301.8C301.8 17.2611 301.289 14.7101 300.198 12.4731L296.603 14.2268ZM297.8 20.07C297.8 21.8715 297.528 23.6276 296.984 25.3455L300.797 26.5545C301.465 24.4457 301.8 22.2818 301.8 20.07H297.8ZM296.971 25.3882C296.494 27.0184 295.677 28.5199 294.499 29.9021L297.542 32.4979C299.07 30.7068 300.167 28.7083 300.81 26.5118L296.971 25.3882ZM294.518 29.8798C293.384 31.1698 291.86 32.2713 289.884 33.154L291.516 36.806C293.927 35.7287 295.949 34.3102 297.522 32.5202L294.518 29.8798ZM289.903 33.1459C288.08 33.9383 285.711 34.38 282.72 34.38V38.38C286.076 38.38 289.027 37.8884 291.498 36.8141L289.903 33.1459ZM282.72 34.38H275.23V38.38H282.72V34.38ZM273.23 36.38V55H277.23V36.38H273.23ZM275.23 53H268.44V57H275.23V53ZM270.44 55V4.39H266.44V55H270.44ZM268.44 6.39H281.88V2.39H268.44V6.39ZM282.58 31.87C284.771 31.87 286.739 31.5414 288.392 30.774L286.708 27.146C285.748 27.5919 284.403 27.87 282.58 27.87V31.87ZM288.368 30.785C289.943 30.079 291.274 29.1337 292.262 27.8994L289.138 25.4006C288.633 26.033 287.864 26.6276 286.732 27.135L288.368 30.785ZM292.291 27.8621C293.178 26.6978 293.831 25.4287 294.23 24.06L290.39 22.94C290.136 23.8113 289.716 24.6422 289.109 25.4379L292.291 27.8621ZM294.23 24.06C294.6 22.7916 294.8 21.5515 294.8 20.35H290.8C290.8 21.1085 290.674 21.9684 290.39 22.94L294.23 24.06ZM294.8 20.35C294.8 19.0771 294.568 17.8051 294.129 16.543L290.351 17.857C290.659 18.7416 290.8 19.5696 290.8 20.35H294.8ZM294.16 16.64C293.751 15.2363 293.05 13.9616 292.084 12.8247L289.036 15.4153C289.657 16.1451 290.076 16.9237 290.32 17.76L294.16 16.64ZM292.122 12.8706C291.159 11.6669 289.902 10.7226 288.418 10.008L286.683 13.612C287.718 14.1107 288.468 14.7065 288.998 15.3694L292.122 12.8706ZM288.445 10.0211C286.882 9.23968 285.062 8.9 283.07 8.9V12.9C284.625 12.9 285.792 13.167 286.656 13.5989L288.445 10.0211ZM283.07 8.9H275.23V12.9H283.07V8.9ZM273.23 10.9V29.87H277.23V10.9H273.23ZM275.23 31.87H282.58V27.87H275.23V31.87ZM289.212 34.776L302.442 56.056L305.839 53.944L292.609 32.664L289.212 34.776ZM304.14 53H296.3V57H304.14V53ZM297.986 53.9244L284.546 32.8544L281.174 35.0056L294.614 56.0756L297.986 53.9244ZM282.912 35.9293L290.962 35.7193L290.858 31.7207L282.808 31.9307L282.912 35.9293ZM361.159 51.22L362.268 52.8841L363.71 51.9231L362.964 50.3593L361.159 51.22ZM357.729 53.11L358.6 54.9103L357.729 53.11ZM352.619 54.86L352.156 52.9144L352.145 52.917L352.619 54.86ZM346.319 55.56L346.295 57.5599L346.307 57.56H346.319V55.56ZM335.679 53.46L334.885 55.2955L334.894 55.2997L335.679 53.46ZM327.699 47.93L326.242 49.2998L327.699 47.93ZM322.589 39.88L320.719 40.5885L320.725 40.6057L320.732 40.6228L322.589 39.88ZM322.659 19.65L320.797 18.9212L320.794 18.9285L320.791 18.9357L322.659 19.65ZM327.909 11.32L329.352 12.7051L329.359 12.6979L329.365 12.6907L327.909 11.32ZM335.819 5.79L335.038 3.94881L335.028 3.95317L335.819 5.79ZM354.159 5.09L353.516 6.98376L353.532 6.98923L353.548 6.99443L354.159 5.09ZM360.529 7.96L362.364 8.75521L363.045 7.18363L361.597 6.26902L360.529 7.96ZM357.799 14.26L356.69 15.9241L358.682 17.2524L359.634 15.0552L357.799 14.26ZM352.689 11.6L351.901 13.4383L351.909 13.4416L351.917 13.4449L352.689 11.6ZM339.109 11.81L338.293 9.98398L338.293 9.98398L339.109 11.81ZM333.299 15.94L334.751 17.3155V17.3155L333.299 15.94ZM329.309 22.17L327.46 21.4085L327.456 21.4178L327.452 21.4272L329.309 22.17ZM329.169 37.43L327.283 38.0956L327.291 38.1181L327.299 38.1404L329.169 37.43ZM332.879 43.52L331.406 44.8732L331.416 44.8839L331.426 44.8944L332.879 43.52ZM338.759 47.58L339.547 45.7417L338.759 47.58ZM353.319 47.86L352.584 46.0001V46.0001L353.319 47.86ZM358.289 45.2L360.094 44.3393L359.043 42.1344L357.089 43.6L358.289 45.2ZM360.05 49.5559C359.317 50.0445 358.264 50.6292 356.858 51.3097L358.6 54.9103C360.087 54.1908 361.321 53.5155 362.268 52.8841L360.05 49.5559ZM356.858 51.3097C355.569 51.9331 354.009 52.4732 352.156 52.9144L353.082 56.8056C355.149 56.3135 356.995 55.6869 358.6 54.9103L356.858 51.3097ZM352.145 52.917C350.409 53.3403 348.471 53.56 346.319 53.56V57.56C348.74 57.56 351.002 57.313 353.093 56.803L352.145 52.917ZM346.343 53.5601C342.649 53.5162 339.366 52.858 336.464 51.6203L334.894 55.2997C338.339 56.7687 342.149 57.5105 346.295 57.5599L346.343 53.5601ZM336.473 51.6246C333.581 50.3726 331.151 48.6822 329.156 46.5602L326.242 49.2998C328.634 51.8445 331.524 53.8408 334.885 55.2954L336.473 51.6246ZM329.156 46.5602C327.138 44.4128 325.568 41.9432 324.446 39.1372L320.732 40.6228C322.036 43.8835 323.874 46.7806 326.242 49.2998L329.156 46.5602ZM324.459 39.1715C323.383 36.3288 322.839 33.3032 322.839 30.08H318.839C318.839 33.7635 319.462 37.2712 320.719 40.5885L324.459 39.1715ZM322.839 30.08C322.839 26.5167 323.41 23.2853 324.527 20.3643L320.791 18.9357C319.481 22.3614 318.839 26.0833 318.839 30.08H322.839ZM324.521 20.3788C325.693 17.3859 327.306 14.8365 329.352 12.7051L326.466 9.93494C324.032 12.4702 322.145 15.4741 320.797 18.9212L324.521 20.3788ZM329.365 12.6907C331.416 10.5121 333.825 8.82643 336.61 7.62682L335.028 3.95317C331.746 5.3669 328.882 7.36789 326.453 9.94927L329.365 12.6907ZM336.6 7.63116C339.412 6.43823 342.504 5.83 345.899 5.83V1.83C342.014 1.83 338.386 2.52844 335.038 3.94884L336.6 7.63116ZM345.899 5.83C348.748 5.83 351.28 6.22442 353.516 6.98376L354.802 3.19623C352.091 2.27557 349.117 1.83 345.899 1.83V5.83ZM353.548 6.99443C355.897 7.7479 357.86 8.63954 359.461 9.65098L361.597 6.26902C359.652 5.04046 357.367 4.01876 354.77 3.18557L353.548 6.99443ZM358.694 7.16478L355.964 13.4648L359.634 15.0552L362.364 8.75521L358.694 7.16478ZM358.908 12.5959C357.376 11.5746 355.554 10.631 353.461 9.75512L351.917 13.4449C353.838 14.249 355.422 15.0787 356.69 15.9241L358.908 12.5959ZM353.477 9.76171C351.236 8.80127 348.769 8.34 346.109 8.34V12.34C348.302 12.34 350.222 12.7187 351.901 13.4383L353.477 9.76171ZM346.109 8.34C343.363 8.34 340.751 8.88585 338.293 9.98398L339.925 13.636C341.854 12.7741 343.908 12.34 346.109 12.34V8.34ZM338.293 9.98398C335.856 11.0728 333.704 12.604 331.847 14.5645L334.751 17.3155C336.254 15.7293 337.975 14.5072 339.925 13.636L338.293 9.98398ZM331.847 14.5645C329.989 16.5258 328.528 18.8135 327.46 21.4085L331.158 22.9315C332.05 20.7665 333.249 18.9009 334.751 17.3155L331.847 14.5645ZM327.452 21.4272C326.417 24.0145 325.909 26.7886 325.909 29.73H329.909C329.909 27.258 330.334 24.9922 331.166 22.9128L327.452 21.4272ZM325.909 29.73C325.909 32.6895 326.361 35.4832 327.283 38.0956L331.055 36.7644C330.297 34.6168 329.909 32.2772 329.909 29.73H325.909ZM327.299 38.1404C328.27 40.6958 329.637 42.9477 331.406 44.8732L334.352 42.1667C332.948 40.639 331.841 38.8308 331.039 36.7196L327.299 38.1404ZM331.426 44.8944C333.256 46.8287 335.445 48.3358 337.971 49.4183L339.547 45.7417C337.499 44.8642 335.769 43.6646 334.332 42.1456L331.426 44.8944ZM337.971 49.4183C340.54 50.5193 343.38 51.05 346.459 51.05V47.05C343.844 47.05 341.551 46.6007 339.547 45.7417L337.971 49.4183ZM346.459 51.05C349.231 51.05 351.774 50.6215 354.054 49.7199L352.584 46.0001C350.851 46.6851 348.821 47.05 346.459 47.05V51.05ZM354.054 49.7199C356.177 48.8807 358.002 47.9149 359.489 46.8L357.089 43.6C355.962 44.4451 354.474 45.2526 352.584 46.0001L354.054 49.7199ZM356.484 46.0607L359.354 52.0807L362.964 50.3593L360.094 44.3393L356.484 46.0607ZM383.092 4.39V2.39H381.092V4.39H383.092ZM389.883 4.39H391.883V2.39H389.883V4.39ZM389.883 55V57H391.883V55H389.883ZM383.092 55H381.092V57H383.092V55ZM383.092 6.39H389.883V2.39H383.092V6.39ZM387.883 4.39V55H391.883V4.39H387.883ZM389.883 53H383.092V57H389.883V53ZM385.092 55V4.39H381.092V55H385.092ZM409.881 55L408.036 54.2261L406.872 57H409.881V55ZM432.001 2.29V0.289999H430.671L430.156 1.51607L432.001 2.29ZM432.421 2.29L434.266 1.51816L433.752 0.289999H432.421V2.29ZM454.471 55V57H457.475L456.316 54.2282L454.471 55ZM446.701 55L444.839 55.731L445.337 57H446.701V55ZM430.181 12.93L429.088 11.2548L427.724 12.1447L428.319 13.661L430.181 12.93ZM435.011 9.78L436.862 10.5366L439.287 4.60354L433.918 8.10478L435.011 9.78ZM416.531 55V57H417.874L418.382 55.7566L416.531 55ZM422.831 35.82V33.82H421.389L420.933 35.1875L422.831 35.82ZM441.661 35.82L443.53 35.108L443.039 33.82H441.661V35.82ZM443.901 41.7V43.7H446.803L445.77 40.988L443.901 41.7ZM420.871 41.7L418.973 41.0675L418.096 43.7H420.871V41.7ZM411.725 55.7739L433.845 3.06392L430.156 1.51607L408.036 54.2261L411.725 55.7739ZM432.001 4.29H432.421V0.289999H432.001V4.29ZM430.576 3.06184L452.626 55.7718L456.316 54.2282L434.266 1.51816L430.576 3.06184ZM454.471 53H446.701V57H454.471V53ZM448.562 54.269L432.042 12.199L428.319 13.661L444.839 55.731L448.562 54.269ZM431.273 14.6052L436.103 11.4552L433.918 8.10478L429.088 11.2548L431.273 14.6052ZM433.159 9.0234L414.679 54.2434L418.382 55.7566L436.862 10.5366L433.159 9.0234ZM416.531 53H409.881V57H416.531V53ZM422.831 37.82H441.661V33.82H422.831V37.82ZM439.792 36.532L442.032 42.412L445.77 40.988L443.53 35.108L439.792 36.532ZM443.901 39.7H420.871V43.7H443.901V39.7ZM422.768 42.3325L424.728 36.4525L420.933 35.1875L418.973 41.0675L422.768 42.3325ZM474.503 4.39V2.39H472.503V4.39H474.503ZM481.293 4.39H483.293V2.39H481.293V4.39ZM481.293 48.49H479.293V50.49H481.293V48.49ZM506.983 48.49H508.983V46.49H506.983V48.49ZM506.983 55V57H508.983V55H506.983ZM474.503 55H472.503V57H474.503V55ZM474.503 6.39H481.293V2.39H474.503V6.39ZM479.293 4.39V48.49H483.293V4.39H479.293ZM481.293 50.49H506.983V46.49H481.293V50.49ZM504.983 48.49V55H508.983V48.49H504.983ZM506.983 53H474.503V57H506.983V53ZM476.503 55V4.39H472.503V55H476.503Z" fill="white" mask="url(#path-3-outside-2_383_235)"/>
</svg>
