<?xml version="1.0" encoding="UTF-8"?>
<svg xmlns="http://www.w3.org/2000/svg" xmlns:xlink="http://www.w3.org/1999/xlink" version="1.1" width="512" height="512" x="0" y="0" viewBox="0 0 512 512" style="enable-background:new 0 0 512 512" xml:space="preserve" class="">
  <g>
    <path fill-rule="evenodd" d="M256 0c141.385 0 256 114.615 256 256S397.385 512 256 512 0 397.385 0 256 114.615 0 256 0zm-45.401 88.499v38.636h90.802V88.499zm-76.732 30.567v284.435h244.266V119.066h-54.232v19.32c0 6.212-5.041 11.25-11.25 11.25H199.352c-6.212 0-11.25-5.038-11.25-11.25v-19.32zm56.746 77.16c-6.219 0-11.254 5.038-11.254 11.25s5.035 11.25 11.254 11.25h130.778c6.209 0 11.25-5.038 11.25-11.25s-5.041-11.25-11.25-11.25zm0 69.09c-6.219 0-11.254 5.038-11.254 11.25s5.035 11.25 11.254 11.25h130.778c6.209 0 11.25-5.038 11.25-11.25s-5.041-11.25-11.25-11.25zm0 69.091c-6.219 0-11.254 5.038-11.254 11.25 0 6.216 5.035 11.25 11.254 11.25h130.778c6.209 0 11.25-5.035 11.25-11.25 0-6.212-5.041-11.25-11.25-11.25z" clip-rule="evenodd" fill="#d9d9d9" opacity="1" data-original="#000000" class=""/>
  </g>
</svg>
