<svg width="767" height="94" viewBox="0 0 767 94" fill="none" xmlns="http://www.w3.org/2000/svg">
<mask id="path-1-outside-1_36_767" maskUnits="userSpaceOnUse" x="0" y="0" width="767" height="94" fill="black">
<rect fill="white" width="767" height="94"/>
<path d="M4.4 7.7H14.1V80H4.4V7.7ZM112.469 82.3L56.5688 25.6L59.3688 26.3L59.5688 80H49.8688V5.49999H50.3688L105.669 62.4L103.369 61.9L103.169 7.7H112.769V82.3H112.469ZM153.76 7.7L177.56 67.5L172.06 66.4L194.66 7.7H205.96L174.06 83.3L142.26 7.7H153.76ZM235.435 7.7H282.435V17H245.135V39H278.435V48.3H245.135V70.7H283.835V80H235.435V7.7ZM378.27 82.3L322.37 25.6L325.17 26.3L325.37 80H315.67V5.49999H316.17L371.47 62.4L369.17 61.9L368.97 7.7H378.57V82.3H378.27ZM409.061 7.7H457.061V17H437.661V80H427.961V17H409.061V7.7ZM474.602 80L506.202 4.7H506.802L538.302 80H527.202L503.602 19.9L510.502 15.4L484.102 80H474.602ZM493.102 52.6H520.002L523.202 61H490.302L493.102 52.6ZM586.12 7.7C589.786 7.7 593.153 8.2 596.22 9.2C599.353 10.1333 602.053 11.5667 604.32 13.5C606.653 15.3667 608.453 17.7 609.72 20.5C611.053 23.2333 611.72 26.4333 611.72 30.1C611.72 32.9667 611.286 35.7667 610.42 38.5C609.62 41.2333 608.253 43.7333 606.32 46C604.386 48.2 601.853 50 598.72 51.4C595.653 52.7333 591.853 53.4 587.32 53.4H576.62V80H566.92V7.7H586.12ZM587.12 44.1C589.986 44.1 592.353 43.6667 594.22 42.8C596.153 41.9333 597.653 40.8333 598.72 39.5C599.786 38.1 600.553 36.6 601.02 35C601.486 33.4 601.72 31.9 601.72 30.5C601.72 29.0333 601.453 27.5333 600.92 26C600.453 24.4 599.653 22.9333 598.52 21.6C597.453 20.2667 596.02 19.1667 594.22 18.3C592.486 17.4333 590.353 17 587.82 17H576.62V44.1H587.12ZM599.02 49.6L617.92 80H606.72L587.52 49.9L599.02 49.6ZM647.838 7.7H657.538V80H647.838V7.7ZM688.806 43.9C688.806 38.9 689.74 34.2 691.606 29.8C693.54 25.3333 696.206 21.4 699.606 18C703.006 14.5333 706.906 11.8333 711.306 9.9C715.773 7.9 720.573 6.9 725.706 6.9C730.773 6.9 735.506 7.9 739.906 9.9C744.373 11.8333 748.306 14.5333 751.706 18C755.173 21.4 757.873 25.3333 759.806 29.8C761.74 34.2 762.706 38.9 762.706 43.9C762.706 49.0333 761.74 53.8333 759.806 58.3C757.873 62.7667 755.173 66.7 751.706 70.1C748.306 73.4333 744.373 76.0667 739.906 78C735.506 79.8667 730.773 80.8 725.706 80.8C720.573 80.8 715.773 79.8667 711.306 78C706.906 76.1333 703.006 73.5333 699.606 70.2C696.206 66.8667 693.54 62.9667 691.606 58.5C689.74 54.0333 688.806 49.1667 688.806 43.9ZM698.806 44C698.806 47.8 699.506 51.3667 700.906 54.7C702.306 57.9667 704.24 60.8667 706.706 63.4C709.173 65.9333 712.04 67.9333 715.306 69.4C718.573 70.8 722.106 71.5 725.906 71.5C729.64 71.5 733.14 70.8 736.406 69.4C739.673 67.9333 742.506 65.9333 744.906 63.4C747.306 60.8667 749.206 57.9667 750.606 54.7C752.006 51.3667 752.706 47.7667 752.706 43.9C752.706 40.1 752.006 36.5333 750.606 33.2C749.206 29.8 747.273 26.8333 744.806 24.3C742.34 21.7667 739.473 19.8 736.206 18.4C732.94 16.9333 729.44 16.2 725.706 16.2C721.906 16.2 718.373 16.9333 715.106 18.4C711.84 19.8667 708.973 21.8667 706.506 24.4C704.04 26.9333 702.14 29.9 700.806 33.3C699.473 36.6333 698.806 40.2 698.806 44Z"/>
</mask>
<path d="M4.4 7.7H14.1V80H4.4V7.7ZM112.469 82.3L56.5688 25.6L59.3688 26.3L59.5688 80H49.8688V5.49999H50.3688L105.669 62.4L103.369 61.9L103.169 7.7H112.769V82.3H112.469ZM153.76 7.7L177.56 67.5L172.06 66.4L194.66 7.7H205.96L174.06 83.3L142.26 7.7H153.76ZM235.435 7.7H282.435V17H245.135V39H278.435V48.3H245.135V70.7H283.835V80H235.435V7.7ZM378.27 82.3L322.37 25.6L325.17 26.3L325.37 80H315.67V5.49999H316.17L371.47 62.4L369.17 61.9L368.97 7.7H378.57V82.3H378.27ZM409.061 7.7H457.061V17H437.661V80H427.961V17H409.061V7.7ZM474.602 80L506.202 4.7H506.802L538.302 80H527.202L503.602 19.9L510.502 15.4L484.102 80H474.602ZM493.102 52.6H520.002L523.202 61H490.302L493.102 52.6ZM586.12 7.7C589.786 7.7 593.153 8.2 596.22 9.2C599.353 10.1333 602.053 11.5667 604.32 13.5C606.653 15.3667 608.453 17.7 609.72 20.5C611.053 23.2333 611.72 26.4333 611.72 30.1C611.72 32.9667 611.286 35.7667 610.42 38.5C609.62 41.2333 608.253 43.7333 606.32 46C604.386 48.2 601.853 50 598.72 51.4C595.653 52.7333 591.853 53.4 587.32 53.4H576.62V80H566.92V7.7H586.12ZM587.12 44.1C589.986 44.1 592.353 43.6667 594.22 42.8C596.153 41.9333 597.653 40.8333 598.72 39.5C599.786 38.1 600.553 36.6 601.02 35C601.486 33.4 601.72 31.9 601.72 30.5C601.72 29.0333 601.453 27.5333 600.92 26C600.453 24.4 599.653 22.9333 598.52 21.6C597.453 20.2667 596.02 19.1667 594.22 18.3C592.486 17.4333 590.353 17 587.82 17H576.62V44.1H587.12ZM599.02 49.6L617.92 80H606.72L587.52 49.9L599.02 49.6ZM647.838 7.7H657.538V80H647.838V7.7ZM688.806 43.9C688.806 38.9 689.74 34.2 691.606 29.8C693.54 25.3333 696.206 21.4 699.606 18C703.006 14.5333 706.906 11.8333 711.306 9.9C715.773 7.9 720.573 6.9 725.706 6.9C730.773 6.9 735.506 7.9 739.906 9.9C744.373 11.8333 748.306 14.5333 751.706 18C755.173 21.4 757.873 25.3333 759.806 29.8C761.74 34.2 762.706 38.9 762.706 43.9C762.706 49.0333 761.74 53.8333 759.806 58.3C757.873 62.7667 755.173 66.7 751.706 70.1C748.306 73.4333 744.373 76.0667 739.906 78C735.506 79.8667 730.773 80.8 725.706 80.8C720.573 80.8 715.773 79.8667 711.306 78C706.906 76.1333 703.006 73.5333 699.606 70.2C696.206 66.8667 693.54 62.9667 691.606 58.5C689.74 54.0333 688.806 49.1667 688.806 43.9ZM698.806 44C698.806 47.8 699.506 51.3667 700.906 54.7C702.306 57.9667 704.24 60.8667 706.706 63.4C709.173 65.9333 712.04 67.9333 715.306 69.4C718.573 70.8 722.106 71.5 725.906 71.5C729.64 71.5 733.14 70.8 736.406 69.4C739.673 67.9333 742.506 65.9333 744.906 63.4C747.306 60.8667 749.206 57.9667 750.606 54.7C752.006 51.3667 752.706 47.7667 752.706 43.9C752.706 40.1 752.006 36.5333 750.606 33.2C749.206 29.8 747.273 26.8333 744.806 24.3C742.34 21.7667 739.473 19.8 736.206 18.4C732.94 16.9333 729.44 16.2 725.706 16.2C721.906 16.2 718.373 16.9333 715.106 18.4C711.84 19.8667 708.973 21.8667 706.506 24.4C704.04 26.9333 702.14 29.9 700.806 33.3C699.473 36.6333 698.806 40.2 698.806 44Z" fill="#9B1313"/>
<path d="M4.4 7.7V3.7H0.4V7.7H4.4ZM14.1 7.7H18.1V3.7H14.1V7.7ZM14.1 80V84H18.1V80H14.1ZM4.4 80H0.4V84H4.4V80ZM4.4 11.7H14.1V3.7H4.4V11.7ZM10.1 7.7V80H18.1V7.7H10.1ZM14.1 76H4.4V84H14.1V76ZM8.4 80V7.7H0.4V80H8.4ZM112.469 82.3L109.62 85.1083L110.795 86.3H112.469V82.3ZM56.5687 25.6L57.5389 21.7194L43.7198 18.2646L53.7203 28.4083L56.5687 25.6ZM59.3688 26.3L63.3687 26.2851L63.3571 23.174L60.3389 22.4194L59.3688 26.3ZM59.5687 80V84H63.5837L63.5687 79.9851L59.5687 80ZM49.8688 80H45.8688V84H49.8688V80ZM49.8688 5.49999V1.49999H45.8688V5.49999H49.8688ZM50.3688 5.49999L53.2372 2.71218L52.0591 1.49999H50.3688V5.49999ZM105.669 62.4L104.819 66.3087L117.785 69.1273L108.537 59.6122L105.669 62.4ZM103.369 61.9L99.3688 61.9148L99.3806 65.1264L102.519 65.8087L103.369 61.9ZM103.169 7.7V3.7H99.154L99.1688 7.71476L103.169 7.7ZM112.769 7.7H116.769V3.7H112.769V7.7ZM112.769 82.3V86.3H116.769V82.3H112.769ZM115.317 79.4917L59.4172 22.7917L53.7203 28.4083L109.62 85.1083L115.317 79.4917ZM55.5986 29.4806L58.3986 30.1806L60.3389 22.4194L57.5389 21.7194L55.5986 29.4806ZM55.3688 26.3149L55.5688 80.0149L63.5687 79.9851L63.3687 26.2851L55.3688 26.3149ZM59.5687 76H49.8688V84H59.5687V76ZM53.8688 80V5.49999H45.8688V80H53.8688ZM49.8688 9.49999H50.3688V1.49999H49.8688V9.49999ZM47.5003 8.2878L102.8 65.1878L108.537 59.6122L53.2372 2.71218L47.5003 8.2878ZM106.518 58.4913L104.218 57.9913L102.519 65.8087L104.819 66.3087L106.518 58.4913ZM107.369 61.8852L107.169 7.68523L99.1688 7.71476L99.3688 61.9148L107.369 61.8852ZM103.169 11.7H112.769V3.7H103.169V11.7ZM108.769 7.7V82.3H116.769V7.7H108.769ZM112.769 78.3H112.469V86.3H112.769V78.3ZM153.76 7.7L157.477 6.22086L156.473 3.7H153.76V7.7ZM177.56 67.5L176.776 71.4223L184.002 72.8675L181.277 66.0209L177.56 67.5ZM172.06 66.4L168.327 64.9628L166.622 69.3916L171.276 70.3223L172.06 66.4ZM194.66 7.7V3.7H191.914L190.927 6.2628L194.66 7.7ZM205.96 7.7L209.646 9.25506L211.99 3.7H205.96V7.7ZM174.06 83.3L170.373 84.8509L174.054 93.6027L177.746 84.8551L174.06 83.3ZM142.26 7.7V3.7H136.238L138.573 9.25091L142.26 7.7ZM150.044 9.17913L173.844 68.9791L181.277 66.0209L157.477 6.22086L150.044 9.17913ZM178.345 63.5777L172.845 62.4777L171.276 70.3223L176.776 71.4223L178.345 63.5777ZM175.793 67.8372L198.393 9.13719L190.927 6.2628L168.327 64.9628L175.793 67.8372ZM194.66 11.7H205.96V3.7H194.66V11.7ZM202.275 6.14493L170.375 81.7449L177.746 84.8551L209.646 9.25506L202.275 6.14493ZM177.747 81.7491L145.947 6.14908L138.573 9.25091L170.373 84.8509L177.747 81.7491ZM142.26 11.7H153.76V3.7H142.26V11.7ZM235.435 7.7V3.7H231.435V7.7H235.435ZM282.435 7.7H286.435V3.7H282.435V7.7ZM282.435 17V21H286.435V17H282.435ZM245.135 17V13H241.135V17H245.135ZM245.135 39H241.135V43H245.135V39ZM278.435 39H282.435V35H278.435V39ZM278.435 48.3V52.3H282.435V48.3H278.435ZM245.135 48.3V44.3H241.135V48.3H245.135ZM245.135 70.7H241.135V74.7H245.135V70.7ZM283.835 70.7H287.835V66.7H283.835V70.7ZM283.835 80V84H287.835V80H283.835ZM235.435 80H231.435V84H235.435V80ZM235.435 11.7H282.435V3.7H235.435V11.7ZM278.435 7.7V17H286.435V7.7H278.435ZM282.435 13H245.135V21H282.435V13ZM241.135 17V39H249.135V17H241.135ZM245.135 43H278.435V35H245.135V43ZM274.435 39V48.3H282.435V39H274.435ZM278.435 44.3H245.135V52.3H278.435V44.3ZM241.135 48.3V70.7H249.135V48.3H241.135ZM245.135 74.7H283.835V66.7H245.135V74.7ZM279.835 70.7V80H287.835V70.7H279.835ZM283.835 76H235.435V84H283.835V76ZM239.435 80V7.7H231.435V80H239.435ZM378.27 82.3L375.421 85.1083L376.596 86.3H378.27V82.3ZM322.37 25.6L323.34 21.7194L309.521 18.2646L319.521 28.4083L322.37 25.6ZM325.17 26.3L329.169 26.2851L329.158 23.174L326.14 22.4194L325.17 26.3ZM325.37 80V84H329.384L329.37 79.9851L325.37 80ZM315.67 80H311.67V84H315.67V80ZM315.67 5.49999V1.49999H311.67V5.49999H315.67ZM316.17 5.49999L319.038 2.71218L317.86 1.49999H316.17V5.49999ZM371.47 62.4L370.62 66.3087L383.586 69.1273L374.338 59.6122L371.47 62.4ZM369.17 61.9L365.17 61.9148L365.181 65.1264L368.32 65.8087L369.17 61.9ZM368.97 7.7V3.7H364.955L364.97 7.71476L368.97 7.7ZM378.57 7.7H382.57V3.7H378.57V7.7ZM378.57 82.3V86.3H382.57V82.3H378.57ZM381.118 79.4917L325.218 22.7917L319.521 28.4083L375.421 85.1083L381.118 79.4917ZM321.399 29.4806L324.199 30.1806L326.14 22.4194L323.34 21.7194L321.399 29.4806ZM321.17 26.3149L321.37 80.0149L329.37 79.9851L329.169 26.2851L321.17 26.3149ZM325.37 76H315.67V84H325.37V76ZM319.67 80V5.49999H311.67V80H319.67ZM315.67 9.49999H316.17V1.49999H315.67V9.49999ZM313.301 8.2878L368.601 65.1878L374.338 59.6122L319.038 2.71218L313.301 8.2878ZM372.319 58.4913L370.019 57.9913L368.32 65.8087L370.62 66.3087L372.319 58.4913ZM373.169 61.8852L372.97 7.68523L364.97 7.71476L365.17 61.9148L373.169 61.8852ZM368.97 11.7H378.57V3.7H368.97V11.7ZM374.57 7.7V82.3H382.57V7.7H374.57ZM378.57 78.3H378.27V86.3H378.57V78.3ZM409.061 7.7V3.7H405.061V7.7H409.061ZM457.061 7.7H461.061V3.7H457.061V7.7ZM457.061 17V21H461.061V17H457.061ZM437.661 17V13H433.661V17H437.661ZM437.661 80V84H441.661V80H437.661ZM427.961 80H423.961V84H427.961V80ZM427.961 17H431.961V13H427.961V17ZM409.061 17H405.061V21H409.061V17ZM409.061 11.7H457.061V3.7H409.061V11.7ZM453.061 7.7V17H461.061V7.7H453.061ZM457.061 13H437.661V21H457.061V13ZM433.661 17V80H441.661V17H433.661ZM437.661 76H427.961V84H437.661V76ZM431.961 80V17H423.961V80H431.961ZM427.961 13H409.061V21H427.961V13ZM413.061 17V7.7H405.061V17H413.061ZM474.602 80L470.914 78.4522L468.586 84H474.602V80ZM506.202 4.7V0.699998H503.543L502.514 3.15215L506.202 4.7ZM506.802 4.7L510.492 3.15632L509.465 0.699998H506.802V4.7ZM538.302 80V84H544.312L541.992 78.4563L538.302 80ZM527.202 80L523.479 81.462L524.476 84H527.202V80ZM503.602 19.9L501.417 16.5496L498.688 18.3294L499.879 21.362L503.602 19.9ZM510.502 15.4L514.205 16.9132L519.054 5.04709L508.317 12.0496L510.502 15.4ZM484.102 80V84H486.789L487.805 81.5132L484.102 80ZM493.102 52.6V48.6H490.219L489.308 51.3351L493.102 52.6ZM520.002 52.6L523.74 51.176L522.759 48.6H520.002V52.6ZM523.202 61V65H529.007L526.94 59.576L523.202 61ZM490.302 61L486.508 59.7351L484.753 65H490.302V61ZM478.291 81.5478L509.891 6.24785L502.514 3.15215L470.914 78.4522L478.291 81.5478ZM506.202 8.7H506.802V0.699998H506.202V8.7ZM503.112 6.24368L534.612 81.5437L541.992 78.4563L510.492 3.15632L503.112 6.24368ZM538.302 76H527.202V84H538.302V76ZM530.926 78.538L507.326 18.438L499.879 21.362L523.479 81.462L530.926 78.538ZM505.787 23.2504L512.687 18.7504L508.317 12.0496L501.417 16.5496L505.787 23.2504ZM506.8 13.8868L480.4 78.4868L487.805 81.5132L514.205 16.9132L506.8 13.8868ZM484.102 76H474.602V84H484.102V76ZM493.102 56.6H520.002V48.6H493.102V56.6ZM516.264 54.024L519.464 62.424L526.94 59.576L523.74 51.176L516.264 54.024ZM523.202 57H490.302V65H523.202V57ZM494.097 62.2649L496.897 53.8649L489.308 51.3351L486.508 59.7351L494.097 62.2649ZM596.22 9.2L594.979 13.0029L595.028 13.0189L595.078 13.0335L596.22 9.2ZM604.32 13.5L601.724 16.5433L601.772 16.5842L601.821 16.6235L604.32 13.5ZM609.72 20.5L606.075 22.1487L606.099 22.2015L606.124 22.2537L609.72 20.5ZM610.42 38.5L606.607 37.291L606.593 37.3336L606.581 37.3764L610.42 38.5ZM606.32 46L609.324 48.6405L609.344 48.6183L609.363 48.5958L606.32 46ZM598.72 51.4L600.314 55.0683L600.333 55.0602L600.351 55.052L598.72 51.4ZM576.62 53.4V49.4H572.62V53.4H576.62ZM576.62 80V84H580.62V80H576.62ZM566.92 80H562.92V84H566.92V80ZM566.92 7.7V3.7H562.92V7.7H566.92ZM594.22 42.8L592.583 39.15L592.559 39.1608L592.535 39.172L594.22 42.8ZM598.72 39.5L601.843 41.9988L601.873 41.9618L601.901 41.9242L598.72 39.5ZM601.02 35L604.86 36.12V36.12L601.02 35ZM600.92 26L597.08 27.12L597.108 27.2178L597.142 27.3141L600.92 26ZM598.52 21.6L595.396 24.0988L595.433 24.1452L595.472 24.1906L598.52 21.6ZM594.22 18.3L592.431 21.8777L592.457 21.8911L592.484 21.904L594.22 18.3ZM576.62 17V13H572.62V17H576.62ZM576.62 44.1H572.62V48.1H576.62V44.1ZM599.02 49.6L602.417 47.488L601.206 45.5416L598.915 45.6014L599.02 49.6ZM617.92 80V84H625.116L621.317 77.888L617.92 80ZM606.72 80L603.347 82.1511L604.527 84H606.72V80ZM587.52 49.9L587.415 45.9014L580.342 46.0859L584.147 52.0511L587.52 49.9ZM586.12 11.7C589.422 11.7 592.364 12.15 594.979 13.0029L597.46 5.39708C593.942 4.25003 590.151 3.7 586.12 3.7V11.7ZM595.078 13.0335C597.729 13.8233 599.921 15.0058 601.724 16.5433L606.915 10.4567C604.185 8.12754 600.977 6.44334 597.361 5.36646L595.078 13.0335ZM601.821 16.6235C603.647 18.0844 605.061 19.9068 606.075 22.1487L613.364 18.8513C611.845 15.4932 609.659 12.649 606.818 10.3765L601.821 16.6235ZM606.124 22.2537C607.142 24.3399 607.72 26.9178 607.72 30.1H615.72C615.72 25.9489 614.964 22.1268 613.315 18.7463L606.124 22.2537ZM607.72 30.1C607.72 32.5564 607.349 34.9486 606.607 37.291L614.232 39.709C615.223 36.5847 615.72 33.377 615.72 30.1H607.72ZM606.581 37.3764C605.946 39.5435 604.861 41.5465 603.276 43.4042L609.363 48.5958C611.645 45.9202 613.293 42.9232 614.258 39.6236L606.581 37.3764ZM603.315 43.3595C601.821 45.0596 599.785 46.5426 597.088 47.748L600.351 55.052C603.92 53.4574 606.952 51.3404 609.324 48.6405L603.315 43.3595ZM597.125 47.7317C594.706 48.7832 591.488 49.4 587.32 49.4V57.4C592.218 57.4 596.6 56.6834 600.314 55.0683L597.125 47.7317ZM587.32 49.4H576.62V57.4H587.32V49.4ZM572.62 53.4V80H580.62V53.4H572.62ZM576.62 76H566.92V84H576.62V76ZM570.92 80V7.7H562.92V80H570.92ZM566.92 11.7H586.12V3.7H566.92V11.7ZM587.12 48.1C590.354 48.1 593.345 47.6162 595.904 46.428L592.535 39.172C591.361 39.7171 589.618 40.1 587.12 40.1V48.1ZM595.856 46.45C598.232 45.3847 600.295 43.934 601.843 41.9988L595.596 37.0012C595.011 37.7327 594.074 38.4819 592.583 39.15L595.856 46.45ZM601.901 41.9242C603.249 40.1557 604.248 38.2174 604.86 36.12L597.18 33.88C596.858 34.9825 596.324 36.0443 595.538 37.0758L601.901 41.9242ZM604.86 36.12C605.413 34.2232 605.72 32.343 605.72 30.5H597.72C597.72 31.457 597.56 32.5768 597.18 33.88L604.86 36.12ZM605.72 30.5C605.72 28.5408 605.362 26.5969 604.698 24.6859L597.142 27.3141C597.544 28.4698 597.72 29.5259 597.72 30.5H605.72ZM604.76 24.88C604.127 22.7126 603.047 20.7498 601.567 19.0094L595.472 24.1906C596.259 25.1168 596.778 26.0874 597.08 27.12L604.76 24.88ZM601.643 19.1012C600.144 17.2271 598.203 15.7786 595.955 14.696L592.484 21.904C593.836 22.5548 594.762 23.3063 595.396 24.0988L601.643 19.1012ZM596.008 14.7223C593.576 13.506 590.79 13 587.82 13V21C589.916 21 591.397 21.3606 592.431 21.8777L596.008 14.7223ZM587.82 13H576.62V21H587.82V13ZM572.62 17V44.1H580.62V17H572.62ZM576.62 48.1H587.12V40.1H576.62V48.1ZM595.622 51.712L614.523 82.112L621.317 77.888L602.417 47.488L595.622 51.712ZM617.92 76H606.72V84H617.92V76ZM610.092 77.8489L590.892 47.7489L584.147 52.0511L603.347 82.1511L610.092 77.8489ZM587.624 53.8986L599.124 53.5986L598.915 45.6014L587.415 45.9014L587.624 53.8986ZM647.838 7.7V3.7H643.838V7.7H647.838ZM657.537 7.7H661.537V3.7H657.537V7.7ZM657.537 80V84H661.537V80H657.537ZM647.838 80H643.838V84H647.838V80ZM647.838 11.7H657.537V3.7H647.838V11.7ZM653.537 7.7V80H661.537V7.7H653.537ZM657.537 76H647.838V84H657.537V76ZM651.838 80V7.7H643.838V80H651.838ZM691.606 29.8L687.935 28.2111L687.93 28.2244L687.924 28.2378L691.606 29.8ZM699.606 18L702.435 20.8284L702.448 20.8147L702.462 20.8008L699.606 18ZM711.306 9.9L712.915 13.5621L712.928 13.5564L712.941 13.5507L711.306 9.9ZM739.906 9.9L738.251 13.5415L738.284 13.5565L738.317 13.5709L739.906 9.9ZM751.706 18L748.851 20.8008L748.878 20.8286L748.905 20.8558L751.706 18ZM759.806 29.8L756.135 31.3889L756.14 31.399L756.144 31.4091L759.806 29.8ZM759.806 58.3L763.477 59.8889V59.8889L759.806 58.3ZM751.706 70.1L754.507 72.9563L754.507 72.9557L751.706 70.1ZM739.906 78L741.468 81.6823L741.482 81.6767L741.495 81.6709L739.906 78ZM711.306 78L709.744 81.6823L709.754 81.6865L709.764 81.6907L711.306 78ZM699.606 70.2L702.407 67.3437L699.606 70.2ZM691.606 58.5L687.916 60.0424L687.925 60.0657L687.935 60.0889L691.606 58.5ZM700.906 54.7L697.218 56.2489L697.224 56.2623L697.23 56.2757L700.906 54.7ZM706.706 63.4L703.84 66.1905L706.706 63.4ZM715.306 69.4L713.668 73.0491L713.699 73.0631L713.731 73.0766L715.306 69.4ZM736.406 69.4L737.982 73.0766L738.013 73.0631L738.045 73.0491L736.406 69.4ZM744.906 63.4L742.002 60.649L744.906 63.4ZM750.606 54.7L754.283 56.2757L754.289 56.2623L754.294 56.2489L750.606 54.7ZM750.606 33.2L746.908 34.723L746.913 34.736L746.918 34.7489L750.606 33.2ZM736.206 18.4L734.568 22.0491L734.599 22.0631L734.631 22.0766L736.206 18.4ZM715.106 18.4L713.468 14.7509V14.7509L715.106 18.4ZM706.506 24.4L703.64 21.6095V21.6095L706.506 24.4ZM700.806 33.3L704.52 34.7856L704.525 34.773L704.53 34.7603L700.806 33.3ZM692.806 43.9C692.806 39.4115 693.641 35.2453 695.289 31.3622L687.924 28.2378C685.838 33.1546 684.806 38.3885 684.806 43.9H692.806ZM695.277 31.3889C697.013 27.379 699.396 23.8676 702.435 20.8284L696.778 15.1716C693.017 18.9324 690.066 23.2877 687.935 28.2111L695.277 31.3889ZM702.462 20.8008C705.509 17.6942 708.987 15.2882 712.915 13.5621L709.697 6.23792C704.826 8.37845 700.504 11.3725 696.75 15.1992L702.462 20.8008ZM712.941 13.5507C716.868 11.7922 721.108 10.9 725.706 10.9V2.9C720.038 2.9 714.678 4.00779 709.672 6.24926L712.941 13.5507ZM725.706 10.9C730.23 10.9 734.396 11.7891 738.251 13.5415L741.561 6.25853C736.617 4.01085 731.316 2.9 725.706 2.9V10.9ZM738.317 13.5709C742.311 15.2993 745.813 17.7042 748.851 20.8008L754.562 15.1992C750.799 11.3624 746.435 8.36735 741.495 6.22911L738.317 13.5709ZM748.905 20.8558C752.002 23.8928 754.407 27.3956 756.135 31.3889L763.477 28.2111C761.339 23.271 758.344 18.9072 754.507 15.1442L748.905 20.8558ZM756.144 31.4091C757.846 35.2814 758.706 39.4311 758.706 43.9H766.706C766.706 38.3689 765.634 33.1186 763.468 28.1909L756.144 31.4091ZM758.706 43.9C758.706 48.5172 757.84 52.7732 756.135 56.7111L763.477 59.8889C765.639 54.8934 766.706 49.5495 766.706 43.9H758.706ZM756.135 56.7111C754.407 60.7044 752.002 64.2072 748.905 67.2442L754.507 72.9557C758.344 69.1928 761.339 64.829 763.477 59.8889L756.135 56.7111ZM748.906 67.2437C745.864 70.2258 742.344 72.5863 738.317 74.3291L741.495 81.6709C746.402 79.547 750.748 76.6409 754.507 72.9563L748.906 67.2437ZM738.344 74.3177C734.467 75.9623 730.269 76.8 725.706 76.8V84.8C731.277 84.8 736.545 83.771 741.468 81.6823L738.344 74.3177ZM725.706 76.8C721.07 76.8 716.798 75.9597 712.849 74.3093L709.764 81.6907C714.748 83.7737 720.076 84.8 725.706 84.8V76.8ZM712.868 74.3177C708.927 72.6457 705.448 70.3253 702.407 67.3437L696.806 73.0563C700.565 76.7414 704.885 79.621 709.744 81.6823L712.868 74.3177ZM702.407 67.3437C699.384 64.3807 697.01 60.9138 695.277 56.9111L687.935 60.0889C690.07 65.0196 693.028 69.3526 696.806 73.0563L702.407 67.3437ZM695.297 56.9576C693.652 53.021 692.806 48.684 692.806 43.9H684.806C684.806 49.6493 685.827 55.0456 687.916 60.0424L695.297 56.9576ZM694.806 44C694.806 48.3043 695.602 52.4003 697.218 56.2489L704.594 53.1511C703.411 50.333 702.806 47.2957 702.806 44H694.806ZM697.23 56.2757C698.822 59.9912 701.029 63.3035 703.84 66.1905L709.572 60.6095C707.45 58.4298 705.79 55.9421 704.583 53.1243L697.23 56.2757ZM703.84 66.1905C706.663 69.0894 709.948 71.3787 713.668 73.0491L716.945 65.7509C714.132 64.4879 711.683 62.7772 709.572 60.6095L703.84 66.1905ZM713.731 73.0766C717.529 74.7044 721.603 75.5 725.906 75.5V67.5C722.61 67.5 719.617 66.8956 716.882 65.7234L713.731 73.0766ZM725.906 75.5C730.153 75.5 734.192 74.7007 737.982 73.0766L734.831 65.7234C732.087 66.8993 729.126 67.5 725.906 67.5V75.5ZM738.045 73.0491C741.775 71.3742 745.041 69.0734 747.81 66.151L742.002 60.649C739.971 62.7933 737.571 64.4924 734.768 65.7509L738.045 73.0491ZM747.81 66.151C750.541 63.2682 752.7 59.9685 754.283 56.2757L746.93 53.1243C745.712 55.9648 744.071 58.4651 742.002 60.649L747.81 66.151ZM754.294 56.2489C755.914 52.3918 756.706 48.2612 756.706 43.9H748.706C748.706 47.2722 748.098 50.3415 746.918 53.1511L754.294 56.2489ZM756.706 43.9C756.706 39.5957 755.911 35.4997 754.294 31.6511L746.918 34.7489C748.102 37.567 748.706 40.6043 748.706 43.9H756.706ZM754.305 31.677C752.719 27.8244 750.509 24.4229 747.672 21.5095L741.94 27.0905C744.037 29.2437 745.694 31.7756 746.908 34.723L754.305 31.677ZM747.672 21.5095C744.836 18.5968 741.53 16.3298 737.782 14.7234L734.631 22.0766C737.416 23.2701 739.843 24.9366 741.94 27.0905L747.672 21.5095ZM737.845 14.7509C734.041 13.0431 729.98 12.2 725.706 12.2V20.2C728.899 20.2 731.838 20.8236 734.568 22.0491L737.845 14.7509ZM725.706 12.2C721.377 12.2 717.281 13.0389 713.468 14.7509L716.745 22.0491C719.465 20.8277 722.436 20.2 725.706 20.2V12.2ZM713.468 14.7509C709.748 16.4212 706.463 18.7106 703.64 21.6095L709.372 27.1905C711.483 25.0228 713.932 23.3121 716.745 22.0491L713.468 14.7509ZM703.64 21.6095C700.79 24.5373 698.604 27.9602 697.082 31.8396L704.53 34.7603C705.675 31.8398 707.289 29.3294 709.372 27.1905L703.64 21.6095ZM697.092 31.8144C695.559 35.6474 694.806 39.7212 694.806 44H702.806C702.806 40.6787 703.387 37.6192 704.52 34.7856L697.092 31.8144Z" fill="#9B1313" mask="url(#path-1-outside-1_36_767)"/>
</svg>
