<svg width="677" height="187" viewBox="0 0 677 187" fill="none" xmlns="http://www.w3.org/2000/svg">
<mask id="path-1-outside-1_546_326" maskUnits="userSpaceOnUse" x="0" y="0" width="677" height="187" fill="black">
<rect fill="white" width="677" height="187"/>
<path d="M4.4 7.7H14.1V70.7H50.8V80H4.4V7.7ZM81.607 7.7H91.307V80H81.607V7.7ZM164.476 20.6C162.009 19.3333 159.309 18.2333 156.376 17.3C153.442 16.3667 150.576 15.9 147.776 15.9C143.909 15.9 140.809 16.8 138.476 18.6C136.209 20.4 135.076 22.8 135.076 25.8C135.076 28.0667 135.809 30 137.276 31.6C138.742 33.1333 140.676 34.4667 143.076 35.6C145.476 36.7333 147.976 37.8 150.576 38.8C152.842 39.6667 155.076 40.6333 157.276 41.7C159.476 42.7667 161.442 44.1 163.176 45.7C164.976 47.3 166.376 49.2667 167.376 51.6C168.442 53.9333 168.976 56.8333 168.976 60.3C168.976 64.1 168.009 67.5667 166.076 70.7C164.209 73.8333 161.509 76.3 157.976 78.1C154.442 79.9 150.242 80.8 145.376 80.8C142.176 80.8 139.109 80.4333 136.176 79.7C133.309 78.9667 130.642 78.0333 128.176 76.9C125.709 75.7 123.509 74.4667 121.576 73.2L125.876 65.6C127.476 66.7333 129.309 67.8333 131.376 68.9C133.442 69.9 135.609 70.7333 137.876 71.4C140.142 72 142.342 72.3 144.476 72.3C146.742 72.3 148.976 71.9 151.176 71.1C153.442 70.2333 155.309 68.9333 156.776 67.2C158.242 65.4667 158.976 63.1667 158.976 60.3C158.976 57.8333 158.309 55.8 156.976 54.2C155.709 52.5333 154.009 51.1333 151.876 50C149.742 48.8 147.476 47.7333 145.076 46.8C142.809 45.9333 140.509 45 138.176 44C135.842 42.9333 133.676 41.6667 131.676 40.2C129.676 38.6667 128.076 36.8 126.876 34.6C125.676 32.4 125.076 29.7333 125.076 26.6C125.076 22.8 125.976 19.5 127.776 16.7C129.642 13.8333 132.176 11.6 135.376 10C138.576 8.33333 142.242 7.43333 146.376 7.29999C151.042 7.29999 155.142 7.86666 158.676 9C162.276 10.1333 165.442 11.5333 168.176 13.2L164.476 20.6ZM194.491 7.7H242.491V17H223.091V80H213.391V17H194.491V7.7ZM260.032 80L291.632 4.7H292.232L323.732 80H312.632L289.032 19.9L295.932 15.4L269.532 80H260.032ZM278.532 52.6H305.432L308.632 61H275.732L278.532 52.6ZM398.99 80V7.7H418.69C425.823 7.7 431.89 8.79999 436.89 11C441.957 13.2 446.023 16.1 449.09 19.7C452.157 23.3 454.39 27.3 455.79 31.7C457.257 36.0333 457.99 40.3667 457.99 44.7C457.99 50.1667 457.023 55.0667 455.09 59.4C453.223 63.7333 450.623 67.4333 447.29 70.5C443.957 73.5667 440.123 75.9333 435.79 77.6C431.523 79.2 426.99 80 422.19 80H398.99ZM408.69 70.7H420.29C424.29 70.7 427.957 70.1 431.29 68.9C434.69 67.7 437.623 65.9667 440.09 63.7C442.623 61.4333 444.59 58.6667 445.99 55.4C447.39 52.0667 448.09 48.3 448.09 44.1C448.09 39.6333 447.357 35.7333 445.89 32.4C444.423 29 442.423 26.1667 439.89 23.9C437.357 21.6333 434.49 19.9333 431.29 18.8C428.09 17.6 424.723 17 421.19 17H408.69V70.7ZM489.283 7.7H536.283V17H498.983V39H532.283V48.3H498.983V70.7H537.683V80H489.283V7.7ZM4.4 107.7H47.3V117H14.1V140.1H43.2V149.3H14.1V180H4.4V107.7ZM64.4461 180L96.0461 104.7H96.6461L128.146 180H117.046L93.4461 119.9L100.346 115.4L73.9461 180H64.4461ZM82.9461 152.6H109.846L113.046 161H80.1461L82.9461 152.6ZM156.763 107.7H166.463V170.7H203.163V180H156.763V107.7ZM220.272 107.7H268.272V117H248.872V180H239.172V117H220.272V107.7ZM285.813 180L317.413 104.7H318.013L349.513 180H338.413L314.813 119.9L321.713 115.4L295.313 180H285.813ZM304.313 152.6H331.213L334.413 161H301.513L304.313 152.6ZM440.73 182.3L384.83 125.6L387.63 126.3L387.83 180H378.13V105.5H378.63L433.93 162.4L431.63 161.9L431.43 107.7H441.03V182.3H440.73ZM471.522 107.7H519.522V117H500.122V180H490.422V117H471.522V107.7ZM549.927 107.7H596.927V117H559.627V139H592.927V148.3H559.627V170.7H598.327V180H549.927V107.7ZM667.562 120.6C665.095 119.333 662.395 118.233 659.462 117.3C656.528 116.367 653.662 115.9 650.862 115.9C646.995 115.9 643.895 116.8 641.562 118.6C639.295 120.4 638.162 122.8 638.162 125.8C638.162 128.067 638.895 130 640.362 131.6C641.828 133.133 643.762 134.467 646.162 135.6C648.562 136.733 651.062 137.8 653.662 138.8C655.928 139.667 658.162 140.633 660.362 141.7C662.562 142.767 664.528 144.1 666.262 145.7C668.062 147.3 669.462 149.267 670.462 151.6C671.528 153.933 672.062 156.833 672.062 160.3C672.062 164.1 671.095 167.567 669.162 170.7C667.295 173.833 664.595 176.3 661.062 178.1C657.528 179.9 653.328 180.8 648.462 180.8C645.262 180.8 642.195 180.433 639.262 179.7C636.395 178.967 633.728 178.033 631.262 176.9C628.795 175.7 626.595 174.467 624.662 173.2L628.962 165.6C630.562 166.733 632.395 167.833 634.462 168.9C636.528 169.9 638.695 170.733 640.962 171.4C643.228 172 645.428 172.3 647.562 172.3C649.828 172.3 652.062 171.9 654.262 171.1C656.528 170.233 658.395 168.933 659.862 167.2C661.328 165.467 662.062 163.167 662.062 160.3C662.062 157.833 661.395 155.8 660.062 154.2C658.795 152.533 657.095 151.133 654.962 150C652.828 148.8 650.562 147.733 648.162 146.8C645.895 145.933 643.595 145 641.262 144C638.928 142.933 636.762 141.667 634.762 140.2C632.762 138.667 631.162 136.8 629.962 134.6C628.762 132.4 628.162 129.733 628.162 126.6C628.162 122.8 629.062 119.5 630.862 116.7C632.728 113.833 635.262 111.6 638.462 110C641.662 108.333 645.328 107.433 649.462 107.3C654.128 107.3 658.228 107.867 661.762 109C665.362 110.133 668.528 111.533 671.262 113.2L667.562 120.6Z"/>
</mask>
<path d="M4.4 7.7H14.1V70.7H50.8V80H4.4V7.7ZM81.607 7.7H91.307V80H81.607V7.7ZM164.476 20.6C162.009 19.3333 159.309 18.2333 156.376 17.3C153.442 16.3667 150.576 15.9 147.776 15.9C143.909 15.9 140.809 16.8 138.476 18.6C136.209 20.4 135.076 22.8 135.076 25.8C135.076 28.0667 135.809 30 137.276 31.6C138.742 33.1333 140.676 34.4667 143.076 35.6C145.476 36.7333 147.976 37.8 150.576 38.8C152.842 39.6667 155.076 40.6333 157.276 41.7C159.476 42.7667 161.442 44.1 163.176 45.7C164.976 47.3 166.376 49.2667 167.376 51.6C168.442 53.9333 168.976 56.8333 168.976 60.3C168.976 64.1 168.009 67.5667 166.076 70.7C164.209 73.8333 161.509 76.3 157.976 78.1C154.442 79.9 150.242 80.8 145.376 80.8C142.176 80.8 139.109 80.4333 136.176 79.7C133.309 78.9667 130.642 78.0333 128.176 76.9C125.709 75.7 123.509 74.4667 121.576 73.2L125.876 65.6C127.476 66.7333 129.309 67.8333 131.376 68.9C133.442 69.9 135.609 70.7333 137.876 71.4C140.142 72 142.342 72.3 144.476 72.3C146.742 72.3 148.976 71.9 151.176 71.1C153.442 70.2333 155.309 68.9333 156.776 67.2C158.242 65.4667 158.976 63.1667 158.976 60.3C158.976 57.8333 158.309 55.8 156.976 54.2C155.709 52.5333 154.009 51.1333 151.876 50C149.742 48.8 147.476 47.7333 145.076 46.8C142.809 45.9333 140.509 45 138.176 44C135.842 42.9333 133.676 41.6667 131.676 40.2C129.676 38.6667 128.076 36.8 126.876 34.6C125.676 32.4 125.076 29.7333 125.076 26.6C125.076 22.8 125.976 19.5 127.776 16.7C129.642 13.8333 132.176 11.6 135.376 10C138.576 8.33333 142.242 7.43333 146.376 7.29999C151.042 7.29999 155.142 7.86666 158.676 9C162.276 10.1333 165.442 11.5333 168.176 13.2L164.476 20.6ZM194.491 7.7H242.491V17H223.091V80H213.391V17H194.491V7.7ZM260.032 80L291.632 4.7H292.232L323.732 80H312.632L289.032 19.9L295.932 15.4L269.532 80H260.032ZM278.532 52.6H305.432L308.632 61H275.732L278.532 52.6ZM398.99 80V7.7H418.69C425.823 7.7 431.89 8.79999 436.89 11C441.957 13.2 446.023 16.1 449.09 19.7C452.157 23.3 454.39 27.3 455.79 31.7C457.257 36.0333 457.99 40.3667 457.99 44.7C457.99 50.1667 457.023 55.0667 455.09 59.4C453.223 63.7333 450.623 67.4333 447.29 70.5C443.957 73.5667 440.123 75.9333 435.79 77.6C431.523 79.2 426.99 80 422.19 80H398.99ZM408.69 70.7H420.29C424.29 70.7 427.957 70.1 431.29 68.9C434.69 67.7 437.623 65.9667 440.09 63.7C442.623 61.4333 444.59 58.6667 445.99 55.4C447.39 52.0667 448.09 48.3 448.09 44.1C448.09 39.6333 447.357 35.7333 445.89 32.4C444.423 29 442.423 26.1667 439.89 23.9C437.357 21.6333 434.49 19.9333 431.29 18.8C428.09 17.6 424.723 17 421.19 17H408.69V70.7ZM489.283 7.7H536.283V17H498.983V39H532.283V48.3H498.983V70.7H537.683V80H489.283V7.7ZM4.4 107.7H47.3V117H14.1V140.1H43.2V149.3H14.1V180H4.4V107.7ZM64.4461 180L96.0461 104.7H96.6461L128.146 180H117.046L93.4461 119.9L100.346 115.4L73.9461 180H64.4461ZM82.9461 152.6H109.846L113.046 161H80.1461L82.9461 152.6ZM156.763 107.7H166.463V170.7H203.163V180H156.763V107.7ZM220.272 107.7H268.272V117H248.872V180H239.172V117H220.272V107.7ZM285.813 180L317.413 104.7H318.013L349.513 180H338.413L314.813 119.9L321.713 115.4L295.313 180H285.813ZM304.313 152.6H331.213L334.413 161H301.513L304.313 152.6ZM440.73 182.3L384.83 125.6L387.63 126.3L387.83 180H378.13V105.5H378.63L433.93 162.4L431.63 161.9L431.43 107.7H441.03V182.3H440.73ZM471.522 107.7H519.522V117H500.122V180H490.422V117H471.522V107.7ZM549.927 107.7H596.927V117H559.627V139H592.927V148.3H559.627V170.7H598.327V180H549.927V107.7ZM667.562 120.6C665.095 119.333 662.395 118.233 659.462 117.3C656.528 116.367 653.662 115.9 650.862 115.9C646.995 115.9 643.895 116.8 641.562 118.6C639.295 120.4 638.162 122.8 638.162 125.8C638.162 128.067 638.895 130 640.362 131.6C641.828 133.133 643.762 134.467 646.162 135.6C648.562 136.733 651.062 137.8 653.662 138.8C655.928 139.667 658.162 140.633 660.362 141.7C662.562 142.767 664.528 144.1 666.262 145.7C668.062 147.3 669.462 149.267 670.462 151.6C671.528 153.933 672.062 156.833 672.062 160.3C672.062 164.1 671.095 167.567 669.162 170.7C667.295 173.833 664.595 176.3 661.062 178.1C657.528 179.9 653.328 180.8 648.462 180.8C645.262 180.8 642.195 180.433 639.262 179.7C636.395 178.967 633.728 178.033 631.262 176.9C628.795 175.7 626.595 174.467 624.662 173.2L628.962 165.6C630.562 166.733 632.395 167.833 634.462 168.9C636.528 169.9 638.695 170.733 640.962 171.4C643.228 172 645.428 172.3 647.562 172.3C649.828 172.3 652.062 171.9 654.262 171.1C656.528 170.233 658.395 168.933 659.862 167.2C661.328 165.467 662.062 163.167 662.062 160.3C662.062 157.833 661.395 155.8 660.062 154.2C658.795 152.533 657.095 151.133 654.962 150C652.828 148.8 650.562 147.733 648.162 146.8C645.895 145.933 643.595 145 641.262 144C638.928 142.933 636.762 141.667 634.762 140.2C632.762 138.667 631.162 136.8 629.962 134.6C628.762 132.4 628.162 129.733 628.162 126.6C628.162 122.8 629.062 119.5 630.862 116.7C632.728 113.833 635.262 111.6 638.462 110C641.662 108.333 645.328 107.433 649.462 107.3C654.128 107.3 658.228 107.867 661.762 109C665.362 110.133 668.528 111.533 671.262 113.2L667.562 120.6Z" fill="#9B1313"/>
<path d="M4.4 7.7V3.7H0.4V7.7H4.4ZM14.1 7.7H18.1V3.7H14.1V7.7ZM14.1 70.7H10.1V74.7H14.1V70.7ZM50.8 70.7H54.8V66.7H50.8V70.7ZM50.8 80V84H54.8V80H50.8ZM4.4 80H0.4V84H4.4V80ZM4.4 11.7H14.1V3.7H4.4V11.7ZM10.1 7.7V70.7H18.1V7.7H10.1ZM14.1 74.7H50.8V66.7H14.1V74.7ZM46.8 70.7V80H54.8V70.7H46.8ZM50.8 76H4.4V84H50.8V76ZM8.4 80V7.7H0.4V80H8.4ZM81.607 7.7V3.7H77.607V7.7H81.607ZM91.307 7.7H95.307V3.7H91.307V7.7ZM91.307 80V84H95.307V80H91.307ZM81.607 80H77.607V84H81.607V80ZM81.607 11.7H91.307V3.7H81.607V11.7ZM87.307 7.7V80H95.307V7.7H87.307ZM91.307 76H81.607V84H91.307V76ZM85.607 80V7.7H77.607V80H85.607ZM164.476 20.6L162.649 24.1583L166.245 26.0052L168.053 22.3889L164.476 20.6ZM138.476 18.6L136.033 15.4329L136.01 15.4501L135.988 15.4676L138.476 18.6ZM137.276 31.6L134.327 34.3029L134.356 34.3342L134.385 34.3649L137.276 31.6ZM143.076 35.6L144.784 31.983L143.076 35.6ZM150.576 38.8L149.14 42.5334L149.147 42.5362L150.576 38.8ZM163.176 45.7L160.463 48.6392L160.49 48.6647L160.518 48.6896L163.176 45.7ZM167.376 51.6L163.699 53.1757L163.718 53.2196L163.738 53.263L167.376 51.6ZM166.076 70.7L162.672 68.5996L162.655 68.626L162.639 68.6528L166.076 70.7ZM157.976 78.1L159.791 81.6642L157.976 78.1ZM136.176 79.7L135.184 83.5752L135.195 83.5779L135.206 83.5806L136.176 79.7ZM128.176 76.9L126.426 80.4969L126.466 80.5163L126.506 80.5347L128.176 76.9ZM121.576 73.2L118.094 71.2303L116.249 74.492L119.384 76.5458L121.576 73.2ZM125.876 65.6L128.188 62.3359L124.575 59.7766L122.394 63.6303L125.876 65.6ZM131.376 68.9L129.541 72.4545L129.587 72.4782L129.634 72.5006L131.376 68.9ZM137.876 71.4L136.747 75.2375L136.799 75.2529L136.852 75.2668L137.876 71.4ZM151.176 71.1L152.543 74.8592L152.574 74.8479L152.604 74.8362L151.176 71.1ZM156.776 67.2L159.829 69.7838L156.776 67.2ZM156.976 54.2L153.791 56.6203L153.845 56.6918L153.903 56.7607L156.976 54.2ZM151.876 50L149.915 53.4863L149.957 53.5099L149.999 53.5325L151.876 50ZM145.076 46.8L146.526 43.072L146.515 43.0679L146.504 43.0638L145.076 46.8ZM138.176 44L136.513 47.6379L136.556 47.6578L136.6 47.6766L138.176 44ZM131.676 40.2L129.242 43.3744L129.276 43.4004L129.31 43.4256L131.676 40.2ZM127.776 16.7L124.424 14.5173L124.417 14.5271L124.411 14.537L127.776 16.7ZM135.376 10L137.165 13.5777L137.194 13.5629L137.224 13.5477L135.376 10ZM146.376 7.29999V3.29999H146.311L146.247 3.30207L146.376 7.29999ZM158.676 9L157.454 12.8089L157.464 12.8122L157.475 12.8154L158.676 9ZM168.176 13.2L171.753 14.9889L173.398 11.6994L170.258 9.78481L168.176 13.2ZM166.303 17.0417C163.619 15.6633 160.711 14.4817 157.589 13.4883L155.163 21.1117C157.908 21.985 160.399 23.0033 162.649 24.1583L166.303 17.0417ZM157.589 13.4883C154.302 12.4425 151.026 11.9 147.776 11.9V19.9C150.126 19.9 152.583 20.2908 155.163 21.1117L157.589 13.4883ZM147.776 11.9C143.302 11.9 139.257 12.9453 136.033 15.4329L140.919 21.7671C142.361 20.6546 144.517 19.9 147.776 19.9V11.9ZM135.988 15.4676C132.726 18.0579 131.076 21.6315 131.076 25.8H139.076C139.076 23.9685 139.692 22.7421 140.963 21.7324L135.988 15.4676ZM131.076 25.8C131.076 29.0187 132.152 31.93 134.327 34.3029L140.224 28.8971C139.466 28.07 139.076 27.1147 139.076 25.8H131.076ZM134.385 34.3649C136.264 36.3287 138.632 37.9249 141.368 39.217L144.784 31.983C142.72 31.0084 141.221 29.938 140.166 28.8351L134.385 34.3649ZM141.368 39.217C143.861 40.3945 146.452 41.4997 149.14 42.5334L152.012 35.0666C149.499 34.1003 147.09 33.0722 144.784 31.983L141.368 39.217ZM149.147 42.5362C151.306 43.3615 153.433 44.2824 155.531 45.2993L159.021 38.1007C156.718 36.9843 154.379 35.9718 152.004 35.0638L149.147 42.5362ZM155.531 45.2993C157.39 46.2009 159.028 47.3152 160.463 48.6392L165.889 42.7608C163.857 40.8848 161.561 39.3324 159.021 38.1007L155.531 45.2993ZM160.518 48.6896C161.855 49.8779 162.918 51.3529 163.699 53.1757L171.052 50.0243C169.834 47.1804 168.096 44.7221 165.833 42.7104L160.518 48.6896ZM163.738 53.263C164.498 54.9251 164.976 57.2165 164.976 60.3H172.976C172.976 56.4501 172.387 52.9416 171.014 49.937L163.738 53.263ZM164.976 60.3C164.976 63.3832 164.202 66.1186 162.672 68.5996L169.48 72.8004C171.816 69.0148 172.976 64.8168 172.976 60.3H164.976ZM162.639 68.6528C161.193 71.0813 159.082 73.0474 156.16 74.5358L159.791 81.6642C163.936 79.5526 167.226 76.5854 169.512 72.7472L162.639 68.6528ZM156.16 74.5358C153.303 75.9915 149.752 76.8 145.376 76.8V84.8C150.732 84.8 155.582 83.8085 159.791 81.6642L156.16 74.5358ZM145.376 76.8C142.484 76.8 139.744 76.469 137.146 75.8194L135.206 83.5806C138.474 84.3977 141.868 84.8 145.376 84.8V76.8ZM137.167 75.8248C134.513 75.1458 132.075 74.2897 129.846 73.2653L126.506 80.5347C129.21 81.777 132.105 82.7876 135.184 83.5752L137.167 75.8248ZM129.926 73.3031C127.584 72.164 125.536 71.0126 123.768 69.8542L119.384 76.5458C121.482 77.9208 123.834 79.236 126.426 80.4969L129.926 73.3031ZM125.057 75.1697L129.357 67.5697L122.394 63.6303L118.094 71.2303L125.057 75.1697ZM123.564 68.8641C125.341 70.1229 127.338 71.3175 129.541 72.4545L133.21 65.3455C131.28 64.3492 129.611 63.3438 128.188 62.3359L123.564 68.8641ZM129.634 72.5006C131.904 73.599 134.276 74.5106 136.747 75.2375L139.004 67.5625C136.942 66.956 134.981 66.201 133.118 65.2994L129.634 72.5006ZM136.852 75.2668C139.42 75.9466 141.965 76.3 144.476 76.3V68.3C142.72 68.3 140.865 68.0534 138.899 67.5332L136.852 75.2668ZM144.476 76.3C147.224 76.3 149.919 75.8132 152.543 74.8592L149.809 67.3408C148.032 67.9868 146.261 68.3 144.476 68.3V76.3ZM152.604 74.8362C155.456 73.7457 157.897 72.0675 159.829 69.7838L153.722 64.6162C152.721 65.7992 151.428 66.721 149.747 67.3638L152.604 74.8362ZM159.829 69.7838C162.054 67.1548 162.976 63.8576 162.976 60.3H154.976C154.976 62.4758 154.431 63.7786 153.722 64.6162L159.829 69.7838ZM162.976 60.3C162.976 57.0781 162.087 54.0856 160.049 51.6393L153.903 56.7607C154.531 57.5144 154.976 58.5885 154.976 60.3H162.976ZM160.16 51.7797C158.493 49.5861 156.319 47.8309 153.752 46.4675L149.999 53.5325C151.7 54.4358 152.925 55.4805 153.791 56.6203L160.16 51.7797ZM153.837 46.5137C151.531 45.2165 149.092 44.0702 146.526 43.072L143.626 50.528C145.859 51.3965 147.954 52.3835 149.915 53.4863L153.837 46.5137ZM146.504 43.0638C144.289 42.2169 142.038 41.3035 139.751 40.3234L136.6 47.6766C138.98 48.6965 141.329 49.6498 143.647 50.5362L146.504 43.0638ZM139.839 40.3621C137.745 39.4047 135.814 38.2746 134.041 36.9744L129.31 43.4256C131.537 45.0587 133.94 46.462 136.513 47.6379L139.839 40.3621ZM134.11 37.0256C132.55 35.8301 131.318 34.3914 130.387 32.6846L123.364 36.5154C124.833 39.2086 126.801 41.5033 129.242 43.3744L134.11 37.0256ZM130.387 32.6846C129.578 31.2015 129.076 29.2288 129.076 26.6H121.076C121.076 30.2379 121.773 33.5985 123.364 36.5154L130.387 32.6846ZM129.076 26.6C129.076 23.4555 129.812 20.9301 131.141 18.863L124.411 14.537C122.14 18.0699 121.076 22.1445 121.076 26.6H129.076ZM131.128 18.8827C132.588 16.6395 134.57 14.875 137.165 13.5777L133.587 6.42229C129.782 8.32495 126.696 11.0272 124.424 14.5173L131.128 18.8827ZM137.224 13.5477C139.819 12.1959 142.883 11.4147 146.505 11.2979L146.247 3.30207C141.602 3.45192 137.333 4.47076 133.528 6.45234L137.224 13.5477ZM146.376 11.3C150.73 11.3 154.402 11.8299 157.454 12.8089L159.897 5.19114C155.883 3.90339 151.355 3.29999 146.376 3.29999V11.3ZM157.475 12.8154C160.819 13.8683 163.681 15.1439 166.093 16.6152L170.258 9.78481C167.204 7.92272 163.732 6.39836 159.877 5.1846L157.475 12.8154ZM164.598 11.4111L160.898 18.8111L168.053 22.3889L171.753 14.9889L164.598 11.4111ZM194.491 7.7V3.7H190.491V7.7H194.491ZM242.491 7.7H246.491V3.7H242.491V7.7ZM242.491 17V21H246.491V17H242.491ZM223.091 17V13H219.091V17H223.091ZM223.091 80V84H227.091V80H223.091ZM213.391 80H209.391V84H213.391V80ZM213.391 17H217.391V13H213.391V17ZM194.491 17H190.491V21H194.491V17ZM194.491 11.7H242.491V3.7H194.491V11.7ZM238.491 7.7V17H246.491V7.7H238.491ZM242.491 13H223.091V21H242.491V13ZM219.091 17V80H227.091V17H219.091ZM223.091 76H213.391V84H223.091V76ZM217.391 80V17H209.391V80H217.391ZM213.391 13H194.491V21H213.391V13ZM198.491 17V7.7H190.491V17H198.491ZM260.032 80L256.344 78.4522L254.015 84H260.032V80ZM291.632 4.7V0.699998H288.973L287.944 3.15215L291.632 4.7ZM292.232 4.7L295.922 3.15632L294.895 0.699998H292.232V4.7ZM323.732 80V84H329.741L327.422 78.4563L323.732 80ZM312.632 80L308.909 81.462L309.905 84H312.632V80ZM289.032 19.9L286.847 16.5496L284.118 18.3294L285.309 21.362L289.032 19.9ZM295.932 15.4L299.635 16.9132L304.484 5.04709L293.747 12.0496L295.932 15.4ZM269.532 80V84H272.218L273.235 81.5132L269.532 80ZM278.532 52.6V48.6H275.649L274.737 51.3351L278.532 52.6ZM305.432 52.6L309.17 51.176L308.189 48.6H305.432V52.6ZM308.632 61V65H314.436L312.37 59.576L308.632 61ZM275.732 61L271.937 59.7351L270.182 65H275.732V61ZM263.72 81.5478L295.32 6.24785L287.944 3.15215L256.344 78.4522L263.72 81.5478ZM291.632 8.7H292.232V0.699998H291.632V8.7ZM288.542 6.24368L320.042 81.5437L327.422 78.4563L295.922 3.15632L288.542 6.24368ZM323.732 76H312.632V84H323.732V76ZM316.355 78.538L292.755 18.438L285.309 21.362L308.909 81.462L316.355 78.538ZM291.217 23.2504L298.117 18.7504L293.747 12.0496L286.847 16.5496L291.217 23.2504ZM292.229 13.8868L265.829 78.4868L273.235 81.5132L299.635 16.9132L292.229 13.8868ZM269.532 76H260.032V84H269.532V76ZM278.532 56.6H305.432V48.6H278.532V56.6ZM301.694 54.024L304.894 62.424L312.37 59.576L309.17 51.176L301.694 54.024ZM308.632 57H275.732V65H308.632V57ZM279.527 62.2649L282.327 53.8649L274.737 51.3351L271.937 59.7351L279.527 62.2649ZM398.99 80H394.99V84H398.99V80ZM398.99 7.7V3.7H394.99V7.7H398.99ZM436.89 11L435.279 14.6613L435.288 14.6652L435.297 14.669L436.89 11ZM449.09 19.7L452.135 17.1061V17.1061L449.09 19.7ZM455.79 31.7L451.978 32.9128L451.989 32.9477L452.001 32.9824L455.79 31.7ZM455.09 59.4L451.437 57.7702L451.426 57.7938L451.416 57.8175L455.09 59.4ZM447.29 70.5L444.582 67.5563H444.582L447.29 70.5ZM435.79 77.6L437.194 81.3453L437.21 81.3394L437.226 81.3334L435.79 77.6ZM408.69 70.7H404.69V74.7H408.69V70.7ZM431.29 68.9L429.959 65.128L429.947 65.1322L429.935 65.1364L431.29 68.9ZM440.09 63.7L437.423 60.719L437.403 60.7367L437.383 60.7547L440.09 63.7ZM445.99 55.4L449.666 56.9757L449.672 56.9623L449.678 56.9489L445.99 55.4ZM445.89 32.4L442.217 33.9844L442.223 33.9977L442.229 34.011L445.89 32.4ZM439.89 23.9L442.557 20.919V20.919L439.89 23.9ZM431.29 18.8L429.885 22.5453L429.92 22.5582L429.954 22.5705L431.29 18.8ZM408.69 17V13H404.69V17H408.69ZM402.99 80V7.7H394.99V80H402.99ZM398.99 11.7H418.69V3.7H398.99V11.7ZM418.69 11.7C425.431 11.7 430.916 12.7418 435.279 14.6613L438.501 7.33873C432.863 4.85821 426.216 3.7 418.69 3.7V11.7ZM435.297 14.669C439.897 16.6667 443.435 19.2302 446.045 22.2939L452.135 17.1061C448.611 12.9698 444.016 9.73325 438.483 7.33095L435.297 14.669ZM446.045 22.2939C448.775 25.4991 450.743 29.032 451.978 32.9128L459.602 30.4872C458.036 25.568 455.538 21.1009 452.135 17.1061L446.045 22.2939ZM452.001 32.9824C453.336 36.9258 453.99 40.8266 453.99 44.7H461.99C461.99 39.9068 461.177 35.1409 459.579 30.4176L452.001 32.9824ZM453.99 44.7C453.99 49.69 453.109 54.022 451.437 57.7702L458.743 61.0298C460.937 56.1113 461.99 50.6433 461.99 44.7H453.99ZM451.416 57.8175C449.763 61.6563 447.484 64.8863 444.582 67.5563L449.998 73.4437C453.763 69.9803 456.684 65.8104 458.763 60.9825L451.416 57.8175ZM444.582 67.5563C441.628 70.2734 438.229 72.3761 434.354 73.8666L437.226 81.3334C442.017 79.4906 446.285 76.86 449.998 73.4437L444.582 67.5563ZM434.385 73.8547C430.591 75.2774 426.536 76 422.19 76V84C427.444 84 432.455 83.1226 437.194 81.3453L434.385 73.8547ZM422.19 76H398.99V84H422.19V76ZM408.69 74.7H420.29V66.7H408.69V74.7ZM420.29 74.7C424.693 74.7 428.825 74.0388 432.645 72.6636L429.935 65.1364C427.088 66.1612 423.887 66.7 420.29 66.7V74.7ZM432.621 72.672C436.491 71.306 439.902 69.3048 442.796 66.6453L437.383 60.7547C435.344 62.6285 432.888 64.094 429.959 65.128L432.621 72.672ZM442.757 66.681C445.745 64.0074 448.047 60.7538 449.666 56.9757L442.313 53.8243C441.132 56.5795 439.501 58.8593 437.423 60.719L442.757 66.681ZM449.678 56.9489C451.314 53.0524 452.09 48.7469 452.09 44.1H444.09C444.09 47.8531 443.465 51.0809 442.302 53.8511L449.678 56.9489ZM452.09 44.1C452.09 39.2012 451.286 34.7313 449.551 30.789L442.229 34.011C443.427 36.7353 444.09 40.0655 444.09 44.1H452.09ZM449.563 30.8156C447.887 26.9309 445.56 23.6063 442.557 20.919L437.223 26.881C439.286 28.727 440.959 31.0691 442.217 33.9844L449.563 30.8156ZM442.557 20.919C439.636 18.3054 436.317 16.337 432.625 15.0295L429.954 22.5705C432.663 23.5297 435.077 24.9612 437.223 26.881L442.557 20.919ZM432.694 15.0547C429.03 13.6806 425.186 13 421.19 13V21C424.26 21 427.15 21.5194 429.885 22.5453L432.694 15.0547ZM421.19 13H408.69V21H421.19V13ZM404.69 17V70.7H412.69V17H404.69ZM489.283 7.7V3.7H485.283V7.7H489.283ZM536.283 7.7H540.283V3.7H536.283V7.7ZM536.283 17V21H540.283V17H536.283ZM498.983 17V13H494.983V17H498.983ZM498.983 39H494.983V43H498.983V39ZM532.283 39H536.283V35H532.283V39ZM532.283 48.3V52.3H536.283V48.3H532.283ZM498.983 48.3V44.3H494.983V48.3H498.983ZM498.983 70.7H494.983V74.7H498.983V70.7ZM537.683 70.7H541.683V66.7H537.683V70.7ZM537.683 80V84H541.683V80H537.683ZM489.283 80H485.283V84H489.283V80ZM489.283 11.7H536.283V3.7H489.283V11.7ZM532.283 7.7V17H540.283V7.7H532.283ZM536.283 13H498.983V21H536.283V13ZM494.983 17V39H502.983V17H494.983ZM498.983 43H532.283V35H498.983V43ZM528.283 39V48.3H536.283V39H528.283ZM532.283 44.3H498.983V52.3H532.283V44.3ZM494.983 48.3V70.7H502.983V48.3H494.983ZM498.983 74.7H537.683V66.7H498.983V74.7ZM533.683 70.7V80H541.683V70.7H533.683ZM537.683 76H489.283V84H537.683V76ZM493.283 80V7.7H485.283V80H493.283ZM4.4 107.7V103.7H0.4V107.7H4.4ZM47.3 107.7H51.3V103.7H47.3V107.7ZM47.3 117V121H51.3V117H47.3ZM14.1 117V113H10.1V117H14.1ZM14.1 140.1H10.1V144.1H14.1V140.1ZM43.2 140.1H47.2V136.1H43.2V140.1ZM43.2 149.3V153.3H47.2V149.3H43.2ZM14.1 149.3V145.3H10.1V149.3H14.1ZM14.1 180V184H18.1V180H14.1ZM4.4 180H0.4V184H4.4V180ZM4.4 111.7H47.3V103.7H4.4V111.7ZM43.3 107.7V117H51.3V107.7H43.3ZM47.3 113H14.1V121H47.3V113ZM10.1 117V140.1H18.1V117H10.1ZM14.1 144.1H43.2V136.1H14.1V144.1ZM39.2 140.1V149.3H47.2V140.1H39.2ZM43.2 145.3H14.1V153.3H43.2V145.3ZM10.1 149.3V180H18.1V149.3H10.1ZM14.1 176H4.4V184H14.1V176ZM8.4 180V107.7H0.4V180H8.4ZM64.4461 180L60.7577 178.452L58.4295 184H64.4461V180ZM96.0461 104.7V100.7H93.3868L92.3577 103.152L96.0461 104.7ZM96.6461 104.7L100.336 103.156L99.3087 100.7H96.6461V104.7ZM128.146 180V184H134.155L131.836 178.456L128.146 180ZM117.046 180L113.323 181.462L114.319 184H117.046V180ZM93.4461 119.9L91.261 116.55L88.532 118.329L89.7229 121.362L93.4461 119.9ZM100.346 115.4L104.049 116.913L108.898 105.047L98.161 112.05L100.346 115.4ZM73.9461 180V184H76.6325L77.6488 181.513L73.9461 180ZM82.9461 152.6V148.6H80.0631L79.1514 151.335L82.9461 152.6ZM109.846 152.6L113.584 151.176L112.603 148.6H109.846V152.6ZM113.046 161V165H118.85L116.784 159.576L113.046 161ZM80.1461 161L76.3514 159.735L74.5964 165H80.1461V161ZM68.1345 181.548L99.7345 106.248L92.3577 103.152L60.7577 178.452L68.1345 181.548ZM96.0461 108.7H96.6461V100.7H96.0461V108.7ZM92.956 106.244L124.456 181.544L131.836 178.456L100.336 103.156L92.956 106.244ZM128.146 176H117.046V184H128.146V176ZM120.769 178.538L97.1693 118.438L89.7229 121.362L113.323 181.462L120.769 178.538ZM95.6312 123.25L102.531 118.75L98.161 112.05L91.261 116.55L95.6312 123.25ZM96.6434 113.887L70.2434 178.487L77.6488 181.513L104.049 116.913L96.6434 113.887ZM73.9461 176H64.4461V184H73.9461V176ZM82.9461 156.6H109.846V148.6H82.9461V156.6ZM106.108 154.024L109.308 162.424L116.784 159.576L113.584 151.176L106.108 154.024ZM113.046 157H80.1461V165H113.046V157ZM83.9408 162.265L86.7408 153.865L79.1514 151.335L76.3514 159.735L83.9408 162.265ZM156.763 107.7V103.7H152.763V107.7H156.763ZM166.463 107.7H170.463V103.7H166.463V107.7ZM166.463 170.7H162.463V174.7H166.463V170.7ZM203.163 170.7H207.163V166.7H203.163V170.7ZM203.163 180V184H207.163V180H203.163ZM156.763 180H152.763V184H156.763V180ZM156.763 111.7H166.463V103.7H156.763V111.7ZM162.463 107.7V170.7H170.463V107.7H162.463ZM166.463 174.7H203.163V166.7H166.463V174.7ZM199.163 170.7V180H207.163V170.7H199.163ZM203.163 176H156.763V184H203.163V176ZM160.763 180V107.7H152.763V180H160.763ZM220.272 107.7V103.7H216.272V107.7H220.272ZM268.272 107.7H272.272V103.7H268.272V107.7ZM268.272 117V121H272.272V117H268.272ZM248.872 117V113H244.872V117H248.872ZM248.872 180V184H252.872V180H248.872ZM239.172 180H235.172V184H239.172V180ZM239.172 117H243.172V113H239.172V117ZM220.272 117H216.272V121H220.272V117ZM220.272 111.7H268.272V103.7H220.272V111.7ZM264.272 107.7V117H272.272V107.7H264.272ZM268.272 113H248.872V121H268.272V113ZM244.872 117V180H252.872V117H244.872ZM248.872 176H239.172V184H248.872V176ZM243.172 180V117H235.172V180H243.172ZM239.172 113H220.272V121H239.172V113ZM224.272 117V107.7H216.272V117H224.272ZM285.813 180L282.125 178.452L279.797 184H285.813V180ZM317.413 104.7V100.7H314.754L313.725 103.152L317.413 104.7ZM318.013 104.7L321.703 103.156L320.676 100.7H318.013V104.7ZM349.513 180V184H355.522L353.203 178.456L349.513 180ZM338.413 180L334.69 181.462L335.687 184H338.413V180ZM314.813 119.9L312.628 116.55L309.899 118.329L311.09 121.362L314.813 119.9ZM321.713 115.4L325.416 116.913L330.265 105.047L319.528 112.05L321.713 115.4ZM295.313 180V184H298L299.016 181.513L295.313 180ZM304.313 152.6V148.6H301.43L300.519 151.335L304.313 152.6ZM331.213 152.6L334.951 151.176L333.97 148.6H331.213V152.6ZM334.413 161V165H340.217L338.151 159.576L334.413 161ZM301.513 161L297.719 159.735L295.964 165H301.513V161ZM289.502 181.548L321.102 106.248L313.725 103.152L282.125 178.452L289.502 181.548ZM317.413 108.7H318.013V100.7H317.413V108.7ZM314.323 106.244L345.823 181.544L353.203 178.456L321.703 103.156L314.323 106.244ZM349.513 176H338.413V184H349.513V176ZM342.137 178.538L318.537 118.438L311.09 121.362L334.69 181.462L342.137 178.538ZM316.998 123.25L323.898 118.75L319.528 112.05L312.628 116.55L316.998 123.25ZM318.011 113.887L291.611 178.487L299.016 181.513L325.416 116.913L318.011 113.887ZM295.313 176H285.813V184H295.313V176ZM304.313 156.6H331.213V148.6H304.313V156.6ZM327.475 154.024L330.675 162.424L338.151 159.576L334.951 151.176L327.475 154.024ZM334.413 157H301.513V165H334.413V157ZM305.308 162.265L308.108 153.865L300.519 151.335L297.719 159.735L305.308 162.265ZM440.73 182.3L437.882 185.108L439.057 186.3H440.73V182.3ZM384.83 125.6L385.801 121.719L371.982 118.265L381.982 128.408L384.83 125.6ZM387.63 126.3L391.63 126.285L391.619 123.174L388.601 122.419L387.63 126.3ZM387.83 180V184H391.845L391.83 179.985L387.83 180ZM378.13 180H374.13V184H378.13V180ZM378.13 105.5V101.5H374.13V105.5H378.13ZM378.63 105.5L381.499 102.712L380.321 101.5H378.63V105.5ZM433.93 162.4L433.081 166.309L446.047 169.127L436.799 159.612L433.93 162.4ZM431.63 161.9L427.63 161.915L427.642 165.126L430.781 165.809L431.63 161.9ZM431.43 107.7V103.7H427.416L427.431 107.715L431.43 107.7ZM441.03 107.7H445.03V103.7H441.03V107.7ZM441.03 182.3V186.3H445.03V182.3H441.03ZM443.579 179.492L387.679 122.792L381.982 128.408L437.882 185.108L443.579 179.492ZM383.86 129.481L386.66 130.181L388.601 122.419L385.801 121.719L383.86 129.481ZM383.63 126.315L383.831 180.015L391.83 179.985L391.63 126.285L383.63 126.315ZM387.83 176H378.13V184H387.83V176ZM382.13 180V105.5H374.13V180H382.13ZM378.13 109.5H378.63V101.5H378.13V109.5ZM375.762 108.288L431.062 165.188L436.799 159.612L381.499 102.712L375.762 108.288ZM434.78 158.491L432.48 157.991L430.781 165.809L433.081 166.309L434.78 158.491ZM435.63 161.885L435.43 107.685L427.431 107.715L427.63 161.915L435.63 161.885ZM431.43 111.7H441.03V103.7H431.43V111.7ZM437.03 107.7V182.3H445.03V107.7H437.03ZM441.03 178.3H440.73V186.3H441.03V178.3ZM471.522 107.7V103.7H467.522V107.7H471.522ZM519.522 107.7H523.522V103.7H519.522V107.7ZM519.522 117V121H523.522V117H519.522ZM500.122 117V113H496.122V117H500.122ZM500.122 180V184H504.122V180H500.122ZM490.422 180H486.422V184H490.422V180ZM490.422 117H494.422V113H490.422V117ZM471.522 117H467.522V121H471.522V117ZM471.522 111.7H519.522V103.7H471.522V111.7ZM515.522 107.7V117H523.522V107.7H515.522ZM519.522 113H500.122V121H519.522V113ZM496.122 117V180H504.122V117H496.122ZM500.122 176H490.422V184H500.122V176ZM494.422 180V117H486.422V180H494.422ZM490.422 113H471.522V121H490.422V113ZM475.522 117V107.7H467.522V117H475.522ZM549.927 107.7V103.7H545.927V107.7H549.927ZM596.927 107.7H600.927V103.7H596.927V107.7ZM596.927 117V121H600.927V117H596.927ZM559.627 117V113H555.627V117H559.627ZM559.627 139H555.627V143H559.627V139ZM592.927 139H596.927V135H592.927V139ZM592.927 148.3V152.3H596.927V148.3H592.927ZM559.627 148.3V144.3H555.627V148.3H559.627ZM559.627 170.7H555.627V174.7H559.627V170.7ZM598.327 170.7H602.327V166.7H598.327V170.7ZM598.327 180V184H602.327V180H598.327ZM549.927 180H545.927V184H549.927V180ZM549.927 111.7H596.927V103.7H549.927V111.7ZM592.927 107.7V117H600.927V107.7H592.927ZM596.927 113H559.627V121H596.927V113ZM555.627 117V139H563.627V117H555.627ZM559.627 143H592.927V135H559.627V143ZM588.927 139V148.3H596.927V139H588.927ZM592.927 144.3H559.627V152.3H592.927V144.3ZM555.627 148.3V170.7H563.627V148.3H555.627ZM559.627 174.7H598.327V166.7H559.627V174.7ZM594.327 170.7V180H602.327V170.7H594.327ZM598.327 176H549.927V184H598.327V176ZM553.927 180V107.7H545.927V180H553.927ZM667.562 120.6L665.734 124.158L669.331 126.005L671.139 122.389L667.562 120.6ZM641.562 118.6L639.119 115.433L639.096 115.45L639.074 115.468L641.562 118.6ZM640.362 131.6L637.413 134.303L637.442 134.334L637.471 134.365L640.362 131.6ZM646.162 135.6L647.87 131.983L646.162 135.6ZM653.662 138.8L652.226 142.533L652.233 142.536L653.662 138.8ZM666.262 145.7L663.549 148.639L663.576 148.665L663.604 148.69L666.262 145.7ZM670.462 151.6L666.785 153.176L666.804 153.22L666.824 153.263L670.462 151.6ZM669.162 170.7L665.758 168.6L665.741 168.626L665.725 168.653L669.162 170.7ZM661.062 178.1L662.877 181.664L661.062 178.1ZM639.262 179.7L638.27 183.575L638.281 183.578L638.292 183.581L639.262 179.7ZM631.262 176.9L629.512 180.497L629.552 180.516L629.592 180.535L631.262 176.9ZM624.662 173.2L621.18 171.23L619.335 174.492L622.47 176.546L624.662 173.2ZM628.962 165.6L631.274 162.336L627.661 159.777L625.48 163.63L628.962 165.6ZM634.462 168.9L632.627 172.454L632.673 172.478L632.719 172.501L634.462 168.9ZM640.962 171.4L639.833 175.237L639.885 175.253L639.938 175.267L640.962 171.4ZM654.262 171.1L655.629 174.859L655.66 174.848L655.69 174.836L654.262 171.1ZM659.862 167.2L662.915 169.784L659.862 167.2ZM660.062 154.2L656.877 156.62L656.931 156.692L656.989 156.761L660.062 154.2ZM654.962 150L653.001 153.486L653.043 153.51L653.085 153.532L654.962 150ZM648.162 146.8L649.612 143.072L649.601 143.068L649.59 143.064L648.162 146.8ZM641.262 144L639.599 147.638L639.642 147.658L639.686 147.677L641.262 144ZM634.762 140.2L632.328 143.374L632.362 143.4L632.396 143.426L634.762 140.2ZM630.862 116.7L627.51 114.517L627.503 114.527L627.497 114.537L630.862 116.7ZM638.462 110L640.251 113.578L640.28 113.563L640.309 113.548L638.462 110ZM649.462 107.3V103.3H649.397L649.333 103.302L649.462 107.3ZM661.762 109L660.54 112.809L660.55 112.812L660.561 112.815L661.762 109ZM671.262 113.2L674.839 114.989L676.484 111.699L673.344 109.785L671.262 113.2ZM669.389 117.042C666.705 115.663 663.797 114.482 660.675 113.488L658.249 121.112C660.994 121.985 663.485 123.003 665.734 124.158L669.389 117.042ZM660.675 113.488C657.388 112.442 654.112 111.9 650.862 111.9V119.9C653.211 119.9 655.669 120.291 658.249 121.112L660.675 113.488ZM650.862 111.9C646.387 111.9 642.343 112.945 639.119 115.433L644.005 121.767C645.447 120.655 647.603 119.9 650.862 119.9V111.9ZM639.074 115.468C635.812 118.058 634.162 121.631 634.162 125.8H642.162C642.162 123.969 642.778 122.742 644.049 121.732L639.074 115.468ZM634.162 125.8C634.162 129.019 635.238 131.93 637.413 134.303L643.31 128.897C642.552 128.07 642.162 127.115 642.162 125.8H634.162ZM637.471 134.365C639.35 136.329 641.718 137.925 644.454 139.217L647.87 131.983C645.806 131.008 644.307 129.938 643.252 128.835L637.471 134.365ZM644.454 139.217C646.947 140.394 649.538 141.5 652.226 142.533L655.098 135.067C652.585 134.1 650.176 133.072 647.87 131.983L644.454 139.217ZM652.233 142.536C654.392 143.361 656.519 144.282 658.617 145.299L662.107 138.101C659.804 136.984 657.465 135.972 655.09 135.064L652.233 142.536ZM658.617 145.299C660.476 146.201 662.114 147.315 663.549 148.639L668.975 142.761C666.943 140.885 664.647 139.332 662.107 138.101L658.617 145.299ZM663.604 148.69C664.941 149.878 666.004 151.353 666.785 153.176L674.138 150.024C672.919 147.18 671.182 144.722 668.919 142.71L663.604 148.69ZM666.824 153.263C667.584 154.925 668.062 157.217 668.062 160.3H676.062C676.062 156.45 675.473 152.942 674.1 149.937L666.824 153.263ZM668.062 160.3C668.062 163.383 667.288 166.119 665.758 168.6L672.566 172.8C674.902 169.015 676.062 164.817 676.062 160.3H668.062ZM665.725 168.653C664.279 171.081 662.168 173.047 659.246 174.536L662.877 181.664C667.022 179.553 670.312 176.585 672.598 172.747L665.725 168.653ZM659.246 174.536C656.389 175.992 652.838 176.8 648.462 176.8V184.8C653.818 184.8 658.668 183.809 662.877 181.664L659.246 174.536ZM648.462 176.8C645.57 176.8 642.83 176.469 640.232 175.819L638.292 183.581C641.56 184.398 644.954 184.8 648.462 184.8V176.8ZM640.253 175.825C637.599 175.146 635.161 174.29 632.932 173.265L629.592 180.535C632.295 181.777 635.191 182.788 638.27 183.575L640.253 175.825ZM633.012 173.303C630.67 172.164 628.622 171.013 626.854 169.854L622.47 176.546C624.568 177.921 626.92 179.236 629.512 180.497L633.012 173.303ZM628.143 175.17L632.443 167.57L625.48 163.63L621.18 171.23L628.143 175.17ZM626.65 168.864C628.427 170.123 630.424 171.318 632.627 172.454L636.296 165.346C634.366 164.349 632.697 163.344 631.274 162.336L626.65 168.864ZM632.719 172.501C634.99 173.599 637.362 174.511 639.833 175.237L642.09 167.563C640.028 166.956 638.067 166.201 636.204 165.299L632.719 172.501ZM639.938 175.267C642.506 175.947 645.051 176.3 647.562 176.3V168.3C645.806 168.3 643.951 168.053 641.985 167.533L639.938 175.267ZM647.562 176.3C650.31 176.3 653.005 175.813 655.629 174.859L652.895 167.341C651.118 167.987 649.347 168.3 647.562 168.3V176.3ZM655.69 174.836C658.542 173.746 660.983 172.067 662.915 169.784L656.808 164.616C655.807 165.799 654.514 166.721 652.833 167.364L655.69 174.836ZM662.915 169.784C665.14 167.155 666.062 163.858 666.062 160.3H658.062C658.062 162.476 657.517 163.779 656.808 164.616L662.915 169.784ZM666.062 160.3C666.062 157.078 665.173 154.086 663.135 151.639L656.989 156.761C657.617 157.514 658.062 158.589 658.062 160.3H666.062ZM663.246 151.78C661.579 149.586 659.405 147.831 656.838 146.468L653.085 153.532C654.786 154.436 656.011 155.481 656.877 156.62L663.246 151.78ZM656.923 146.514C654.617 145.217 652.178 144.07 649.612 143.072L646.712 150.528C648.945 151.396 651.04 152.383 653.001 153.486L656.923 146.514ZM649.59 143.064C647.375 142.217 645.124 141.304 642.837 140.323L639.686 147.677C642.066 148.696 644.415 149.65 646.733 150.536L649.59 143.064ZM642.925 140.362C640.83 139.405 638.9 138.275 637.127 136.974L632.396 143.426C634.623 145.059 637.026 146.462 639.599 147.638L642.925 140.362ZM637.195 137.026C635.636 135.83 634.404 134.391 633.473 132.685L626.45 136.515C627.919 139.209 629.887 141.503 632.328 143.374L637.195 137.026ZM633.473 132.685C632.664 131.202 632.162 129.229 632.162 126.6H624.162C624.162 130.238 624.859 133.598 626.45 136.515L633.473 132.685ZM632.162 126.6C632.162 123.456 632.898 120.93 634.226 118.863L627.497 114.537C625.226 118.07 624.162 122.144 624.162 126.6H632.162ZM634.214 118.883C635.674 116.639 637.656 114.875 640.251 113.578L636.673 106.422C632.868 108.325 629.782 111.027 627.51 114.517L634.214 118.883ZM640.309 113.548C642.905 112.196 645.969 111.415 649.591 111.298L649.333 103.302C644.688 103.452 640.419 104.471 636.614 106.452L640.309 113.548ZM649.462 111.3C653.816 111.3 657.488 111.83 660.54 112.809L662.983 105.191C658.969 103.903 654.441 103.3 649.462 103.3V111.3ZM660.561 112.815C663.905 113.868 666.766 115.144 669.179 116.615L673.344 109.785C670.29 107.923 666.818 106.398 662.963 105.185L660.561 112.815ZM667.684 111.411L663.984 118.811L671.139 122.389L674.839 114.989L667.684 111.411Z" fill="#9B1313" mask="url(#path-1-outside-1_546_326)"/>
</svg>
