<svg width="106" height="110" viewBox="0 0 106 110" fill="none" xmlns="http://www.w3.org/2000/svg">
<path d="M48.5833 56.721C58.0355 56.721 65.6979 48.7694 65.6979 38.9606C65.6979 29.1518 58.0355 21.2002 48.5833 21.2002C39.1312 21.2002 31.4688 29.1518 31.4688 38.9606C31.4688 48.7694 39.1312 56.721 48.5833 56.721Z" fill="white"/>
<path d="M54.6563 75.625C54.6622 79.957 56.2939 84.1163 59.2054 87.2208C55.7684 88.2576 52.2068 88.7822 48.6275 88.7792C39.9827 88.7115 31.583 85.7899 24.645 80.4375C24.0196 79.9532 23.5122 79.3238 23.1632 78.5996C22.8143 77.8753 22.6335 77.0764 22.6354 76.2667C22.657 71.8584 23.8902 67.5481 26.1903 63.8419C28.4904 60.1357 31.7619 57.1876 35.6204 55.3438C39.2712 58.4517 43.8463 60.1521 48.5683 60.1563C53.2904 60.1605 57.8683 58.4681 61.5242 55.3667C63.3414 56.1972 65.0305 57.3015 66.5371 58.6438C66.7824 58.8458 66.9538 59.1288 67.0229 59.4458C63.5165 60.3221 60.3937 62.3912 58.1524 65.3235C55.9111 68.2558 54.6803 71.8824 54.6563 75.625Z" fill="white"/>
<path d="M70.6667 62.4479C67.299 62.4479 64.0692 63.8362 61.6879 66.3074C59.3066 68.7786 57.9688 72.1302 57.9688 75.625C57.9688 79.1198 59.3066 82.4714 61.6879 84.9426C64.0692 87.4138 67.299 88.8021 70.6667 88.8021C74.0344 88.8021 77.2641 87.4138 79.6455 84.9426C82.0268 82.4714 83.3646 79.1198 83.3646 75.625C83.3646 72.1302 82.0268 68.7786 79.6455 66.3074C77.2641 63.8362 74.0344 62.4479 70.6667 62.4479ZM78.4621 76.8396L74.0454 81.4229C73.7287 81.7325 73.3101 81.9049 72.875 81.9049C72.4399 81.9049 72.0213 81.7325 71.7046 81.4229C71.3944 81.1006 71.2202 80.6638 71.2202 80.2083C71.2202 79.7529 71.3944 79.316 71.7046 78.9937L73.2946 77.3437H64.0417C63.6024 77.3437 63.1811 77.1627 62.8705 76.8403C62.5599 76.518 62.3854 76.0808 62.3854 75.625C62.3854 75.1691 62.5599 74.732 62.8705 74.4096C63.1811 74.0873 63.6024 73.9062 64.0417 73.9062H73.2946L71.7046 72.2562C71.5419 72.0989 71.4113 71.9091 71.3208 71.6983C71.2303 71.4875 71.1816 71.2599 71.1777 71.0291C71.1738 70.7983 71.2147 70.5691 71.298 70.3551C71.3813 70.1411 71.5053 69.9467 71.6625 69.7834C71.8198 69.6202 72.0072 69.4916 72.2134 69.4051C72.4196 69.3187 72.6405 69.2762 72.8629 69.2803C73.0853 69.2844 73.3046 69.3349 73.5078 69.4288C73.7109 69.5228 73.8938 69.6582 74.0454 69.8271L78.4621 74.4104C78.7659 74.7361 78.9358 75.1717 78.9358 75.625C78.9358 76.0783 78.7659 76.5139 78.4621 76.8396Z" fill="white"/>
</svg>
