<svg width="3841" height="3434" viewBox="0 0 3841 3434" fill="none" xmlns="http://www.w3.org/2000/svg">
<ellipse cx="1862" cy="1814" rx="1573" ry="1529" fill="#9B1313"/>
<path d="M1705.41 875.922C1698.76 875.918 1692.22 874.322 1686.41 871.286C1680.61 868.249 1675.73 863.874 1672.23 858.574C1668.74 853.274 1666.75 847.225 1666.46 841.003C1666.16 834.781 1667.57 828.59 1670.54 823.02L1748.57 676.833C1750.84 672.502 1754 668.634 1757.87 665.453C1761.74 662.272 1766.25 659.84 1771.12 658.297C1776 656.754 1781.16 656.131 1786.3 656.464C1791.43 656.797 1796.45 658.079 1801.05 660.236C1805.66 662.393 1809.76 665.383 1813.13 669.033C1816.5 672.683 1819.06 676.922 1820.67 681.504C1822.28 686.085 1822.9 690.92 1822.5 695.729C1822.11 700.539 1820.7 705.227 1818.36 709.524L1740.33 855.711C1737.09 861.787 1732.11 866.897 1725.94 870.467C1719.77 874.037 1712.66 875.926 1705.41 875.922ZM2017.59 875.922C2010.34 875.926 2003.23 874.037 1997.06 870.467C1990.89 866.897 1985.91 861.787 1982.67 855.711L1904.64 709.524C1900.1 700.865 1899.41 690.88 1902.7 681.743C1905.99 672.606 1913.01 665.059 1922.22 660.746C1931.42 656.432 1942.08 655.703 1951.86 658.716C1961.64 661.73 1969.75 668.242 1974.43 676.833L2052.46 823.02C2055.43 828.59 2056.84 834.781 2056.54 841.003C2056.25 847.225 2054.26 853.274 2050.76 858.574C2047.27 863.874 2042.39 868.249 2036.58 871.286C2030.78 874.322 2024.24 875.918 2017.59 875.922Z" fill="#38000A"/>
<path d="M769.062 1460.67H2953.94V2630.17H769.062V1460.67Z" fill="#FFA896"/>
<path d="M730.047 2630.17H2992.95V2776.36H730.047V2630.17Z" fill="#9B1313"/>
<path d="M2953.94 1460.67H769.062L1003.16 1022.11H2719.84L2953.94 1460.67Z" fill="#FFA896"/>
<path d="M1510.36 1826.14H2212.64V2630.17H1510.36V1826.14Z" fill="#CD1C18"/>
<path d="M1861.5 1826.14H2212.64V2630.17H1861.5V1826.14Z" fill="#CD1C18"/>
<path d="M925.125 1826.14H1354.3V2483.98H925.125V1826.14ZM2368.7 1826.14H2797.88V2483.98H2368.7V1826.14Z" fill="#E9EEF2"/>
<path d="M769.062 1460.67H1081.19V1533.77C1081.19 1572.54 1064.75 1609.72 1035.48 1637.14C1006.21 1664.55 966.515 1679.95 925.125 1679.95C883.735 1679.95 844.04 1664.55 814.772 1637.14C785.505 1609.72 769.062 1572.54 769.062 1533.77V1460.67Z" fill="#9B1313"/>
<path d="M1081.19 1460.67H1393.31V1533.77C1393.31 1572.54 1376.87 1609.72 1347.6 1637.14C1318.34 1664.55 1278.64 1679.95 1237.25 1679.95C1195.86 1679.95 1156.16 1664.55 1126.9 1637.14C1097.63 1609.72 1081.19 1572.54 1081.19 1533.77V1460.67Z" fill="#38000A"/>
<path d="M1393.31 1460.67H1705.44V1533.77C1705.44 1572.54 1689 1609.72 1659.73 1637.14C1630.46 1664.55 1590.77 1679.95 1549.38 1679.95C1507.98 1679.95 1468.29 1664.55 1439.02 1637.14C1409.75 1609.72 1393.31 1572.54 1393.31 1533.77V1460.67Z" fill="#9B1313"/>
<path d="M1705.44 1460.67H2017.56V1533.77C2017.56 1572.54 2001.12 1609.72 1971.85 1637.14C1942.59 1664.55 1902.89 1679.95 1861.5 1679.95C1820.11 1679.95 1780.41 1664.55 1751.15 1637.14C1721.88 1609.72 1705.44 1572.54 1705.44 1533.77V1460.67Z" fill="#38000A"/>
<path d="M2017.56 1460.67H2329.69V1533.77C2329.69 1572.54 2313.25 1609.72 2283.98 1637.14C2254.71 1664.55 2215.02 1679.95 2173.62 1679.95C2132.23 1679.95 2092.54 1664.55 2063.27 1637.14C2034 1609.72 2017.56 1572.54 2017.56 1533.77V1460.67Z" fill="#9B1313"/>
<path d="M2329.69 1460.67H2641.81V1533.77C2641.81 1572.54 2625.37 1609.72 2596.1 1637.14C2566.84 1664.55 2527.14 1679.95 2485.75 1679.95C2444.36 1679.95 2404.66 1664.55 2375.4 1637.14C2346.13 1609.72 2329.69 1572.54 2329.69 1533.77V1460.67Z" fill="#38000A"/>
<path d="M2641.81 1460.67H2953.94V1533.77C2953.94 1572.54 2937.5 1609.72 2908.23 1637.14C2878.96 1664.55 2839.27 1679.95 2797.88 1679.95C2756.48 1679.95 2716.79 1664.55 2687.52 1637.14C2658.25 1609.72 2641.81 1572.54 2641.81 1533.77V1460.67Z" fill="#9B1313"/>
<path d="M925.125 2337.8H1354.3V2483.98H925.125V2337.8ZM2368.7 2337.8H2797.88V2483.98H2368.7V2337.8Z" fill="#EB423F"/>
<path d="M2017.56 1022.11H1705.44L1627.41 802.828H2095.59L2017.56 1022.11Z" fill="#38000A"/>
<path d="M1549.38 1022.11L1393.31 1460.67H1081.19L1276.27 1022.11H1549.38ZM2017.56 1460.67H1705.44L1744.45 1022.11H1978.55L2017.56 1460.67ZM2641.81 1460.67H2329.69L2173.62 1022.11H2446.73L2641.81 1460.67Z" fill="#EB423F"/>
<path d="M1276.27 1022.11L1081.19 1460.67H769.062L1003.16 1022.11H1276.27ZM1744.45 1022.11L1705.44 1460.67H1393.31L1549.38 1022.11H1744.45ZM2329.69 1460.67H2017.56L1978.55 1022.11H2173.62L2329.69 1460.67ZM2953.94 1460.67H2641.81L2446.73 1022.11H2719.84L2953.94 1460.67Z" fill="#CD1C18"/>
<path d="M1822.48 1826.14H1900.52V2630.17H1822.48V1826.14Z" fill="#9B1313"/>
</svg>
