<svg width="106" height="110" viewBox="0 0 106 110" fill="none" xmlns="http://www.w3.org/2000/svg">
<path d="M95.2344 89.8562V98.8281H75.9888V87.0547C75.9888 84.15 75.2269 81.2969 73.8025 78.7875H84.5681C90.4644 78.7875 95.2344 83.7547 95.2344 89.8562ZM87.0028 44.7391C87.1022 46.8188 87.45 49.6547 86.1913 51.4422C84.9491 53.2125 83.1106 53.1438 81.2225 53.1438H76.585C76.1047 54.8453 75.5233 56.4953 74.73 58.0766C68.9828 60.6375 66.6806 68.1484 69.9931 73.6828L69.7116 74.0781C67.464 72.3362 64.8025 71.2609 62.0117 70.9672C61.4651 70.8984 60.9351 70.8641 60.3885 70.8641H59.3948C65.1917 67.5125 67.676 60.1906 65.1734 53.8141C70.1604 44.8594 64.4613 33.1203 54.5403 32.0031C43.3441 30.7313 35.1456 43.6219 40.8282 53.8141C39.6205 56.8982 39.5413 60.3343 40.6057 63.4748C41.6701 66.6154 43.8046 69.2435 46.6069 70.8641H45.6131C45.0666 70.8641 44.5366 70.8984 43.99 70.9672C41.2075 71.2594 38.5592 72.325 36.2901 74.0781L36.0085 73.6828C39.3045 68.1484 37.0354 60.6375 31.2717 58.0766C30.4783 56.4953 29.897 54.8453 29.4167 53.1438H23.5535C22.7602 53.1438 22.0132 53.0922 21.2845 52.7313C19.5288 51.8547 19.0817 50.1359 18.9988 48.2625C18.8995 46.2 18.5517 43.3641 19.8104 41.5766C21.0526 39.8063 22.891 39.875 24.7792 39.875H29.4167C30.0129 37.7781 30.7913 35.8016 31.8017 33.8937C30.427 32.45 29.0357 31.0234 27.661 29.5797C27.1145 29.0125 26.6176 28.4453 26.336 27.6891C25.6222 25.7641 26.5513 24.1828 27.7753 22.7906C29.15 21.2094 30.8725 18.8891 33.0935 18.6484C35.2947 18.3906 36.5866 20.1094 38.0126 21.5703L40.8448 24.5094C42.6816 23.4609 44.5879 22.6531 46.6069 22.0344V15.95C46.6069 15.125 46.6566 14.3516 47.0209 13.5953C47.8673 11.7906 49.5053 11.3094 51.2941 11.2234C53.2981 11.1203 56.0309 10.7594 57.7534 12.0656C59.4594 13.3547 59.3931 15.2625 59.3931 17.2219V22.0344C61.4137 22.6531 63.3184 23.4609 65.1552 24.5094C66.5465 23.0828 67.9212 21.6391 69.3124 20.2125C69.8772 19.6281 70.4221 19.1125 71.2022 18.8375C73.0241 18.1844 74.5147 19.0609 75.8397 20.2984C77.3303 21.6906 79.5 23.4438 79.8312 25.6438C80.1443 27.7922 78.8209 29.0984 77.4794 30.4906L74.2 33.8937C75.2103 35.8016 75.9888 37.7781 76.585 39.875H82.4481C83.2415 39.875 83.9884 39.9266 84.7172 40.3047C86.4563 41.1813 86.92 42.8828 87.0028 44.7391Z" fill="white"/>
<path d="M78.8375 58.9359C83.5909 58.9359 87.5825 63.0609 87.5825 67.9938C87.5825 72.9438 83.5909 77.0688 78.8375 77.0688C74.0675 77.0688 70.0942 72.9438 70.0942 67.9938C70.0925 63.0609 74.0675 58.9359 78.8375 58.9359ZM74.3325 87.0547V98.8281H31.6675V87.0547C31.6659 83.4712 32.9454 80.0146 35.2585 77.3538C37.5716 74.6931 40.7537 73.0176 44.1888 72.6516C44.6525 72.6 45.1328 72.5828 45.6131 72.5828H60.3869C60.8672 72.5828 61.3475 72.6 61.8113 72.6516C65.2464 73.0176 68.4284 74.6931 70.7415 77.3538C73.0546 80.0146 74.3342 83.4712 74.3325 87.0547ZM53 47.0422C59.2606 47.0422 64.4778 52.4563 64.4778 58.9531C64.4778 65.4328 59.2623 70.8641 53 70.8641C46.7377 70.8641 41.5222 65.4328 41.5222 58.9531C41.5222 52.4563 46.7394 47.0422 53 47.0422ZM27.1625 58.9359C31.9325 58.9359 35.9059 63.0609 35.9059 67.9938C35.9059 72.9438 31.9325 77.0688 27.1625 77.0688C22.4091 77.0688 18.4175 72.9438 18.4175 67.9938C18.4175 63.0609 22.4091 58.9359 27.1625 58.9359Z" fill="white"/>
<path d="M21.4319 78.7875H32.1975C30.7709 81.2914 30.0161 84.1459 30.0113 87.0547V98.8281H10.7656V89.8563C10.7656 83.7547 15.5356 78.7875 21.4319 78.7875Z" fill="white"/>
</svg>
