<svg width="947" height="268" viewBox="0 0 947 268" fill="none" xmlns="http://www.w3.org/2000/svg">
<mask id="path-1-outside-1_27_45" maskUnits="userSpaceOnUse" x="5" y="0" width="936" height="103" fill="black">
<rect fill="white" x="5" width="936" height="103"/>
<path d="M82.816 92.192C81.792 93.0453 79.872 94.1973 77.056 95.648C74.3253 97.0987 70.9547 98.3787 66.944 99.488C62.9333 100.597 58.496 101.109 53.632 101.024C46.208 100.853 39.552 99.5307 33.664 97.056C27.8613 94.496 22.912 91.04 18.816 86.688C14.8053 82.336 11.7333 77.344 9.6 71.712C7.46667 66.08 6.4 60.064 6.4 53.664C6.4 46.496 7.46667 39.9253 9.6 33.952C11.8187 27.9787 14.9333 22.816 18.944 18.464C23.04 14.112 27.904 10.7413 33.536 8.352C39.168 5.96266 45.3973 4.768 52.224 4.768C58.5387 4.768 64.128 5.62133 68.992 7.328C73.856 9.03466 77.824 10.8693 80.896 12.832L73.6 30.368C71.4667 28.7467 68.608 27.0827 65.024 25.376C61.5253 23.584 57.472 22.688 52.864 22.688C49.28 22.688 45.824 23.456 42.496 24.992C39.2533 26.4427 36.352 28.5333 33.792 31.264C31.3173 33.9947 29.3547 37.1947 27.904 40.864C26.4533 44.448 25.728 48.3733 25.728 52.64C25.728 57.1627 26.368 61.3013 27.648 65.056C29.0133 68.8107 30.9333 72.0533 33.408 74.784C35.8827 77.4293 38.8267 79.4773 42.24 80.928C45.7387 82.3787 49.664 83.104 54.016 83.104C59.0507 83.104 63.36 82.2933 66.944 80.672C70.528 79.0507 73.2587 77.344 75.136 75.552L82.816 92.192ZM114.85 53.024C114.85 46.5387 116.087 40.3947 118.562 34.592C121.037 28.7893 124.45 23.6693 128.802 19.232C133.239 14.7093 138.359 11.168 144.162 8.60799C149.965 6.048 156.194 4.768 162.85 4.768C169.421 4.768 175.607 6.048 181.41 8.60799C187.213 11.168 192.333 14.7093 196.77 19.232C201.293 23.6693 204.791 28.7893 207.266 34.592C209.826 40.3947 211.106 46.5387 211.106 53.024C211.106 59.68 209.826 65.9093 207.266 71.712C204.791 77.5147 201.293 82.6347 196.77 87.072C192.333 91.424 187.213 94.8373 181.41 97.312C175.607 99.7867 169.421 101.024 162.85 101.024C156.194 101.024 149.965 99.7867 144.162 97.312C138.359 94.8373 133.239 91.424 128.802 87.072C124.45 82.6347 121.037 77.5147 118.562 71.712C116.087 65.9093 114.85 59.68 114.85 53.024ZM134.05 53.024C134.05 57.2053 134.775 61.1307 136.226 64.8C137.762 68.384 139.853 71.584 142.498 74.4C145.229 77.1307 148.343 79.264 151.842 80.8C155.426 82.336 159.309 83.104 163.49 83.104C167.501 83.104 171.213 82.336 174.626 80.8C178.125 79.264 181.154 77.1307 183.714 74.4C186.274 71.584 188.279 68.384 189.73 64.8C191.181 61.1307 191.906 57.2053 191.906 53.024C191.906 48.7573 191.138 44.7893 189.602 41.12C188.151 37.4507 186.103 34.2507 183.458 31.52C180.898 28.704 177.869 26.528 174.37 24.992C170.871 23.456 167.074 22.688 162.978 22.688C158.882 22.688 155.085 23.456 151.586 24.992C148.087 26.528 145.015 28.704 142.37 31.52C139.725 34.2507 137.677 37.4507 136.226 41.12C134.775 44.7893 134.05 48.7573 134.05 53.024ZM248.81 100V1.952H248.938L301.29 76.192L293.354 74.4L345.578 1.952H345.834V100H327.274V43.808L328.426 53.408L296.554 98.72H296.298L263.53 53.408L266.73 44.576V100H248.81ZM389.385 5.79199H453.641V23.712H407.945V43.808H448.393V61.728H407.945V82.08H455.433V100H389.385V5.79199ZM522.379 5.79199C528.267 5.79199 533.515 6.55999 538.123 8.09599C542.731 9.54666 546.571 11.68 549.643 14.496C552.8 17.2267 555.19 20.5547 556.811 24.48C558.432 28.32 559.243 32.672 559.243 37.536C559.243 41.376 558.646 45.216 557.451 49.056C556.342 52.896 554.464 56.3947 551.819 59.552C549.259 62.7093 545.846 65.2693 541.579 67.232C537.312 69.1093 532.022 70.048 525.707 70.048H512.395V100H493.835V5.79199H522.379ZM525.579 52.128C528.395 52.128 530.742 51.6587 532.619 50.72C534.496 49.7813 535.947 48.5867 536.971 47.136C538.08 45.6853 538.848 44.192 539.275 42.656C539.787 41.0347 540.043 39.5413 540.043 38.176C540.043 37.152 539.872 35.872 539.531 34.336C539.275 32.7147 538.678 31.0933 537.739 29.472C536.8 27.8507 535.35 26.4853 533.387 25.376C531.51 24.2667 528.95 23.712 525.707 23.712H512.395V52.128H525.579ZM542.987 63.648L566.283 100H544.651L520.843 64.16L542.987 63.648ZM668.191 92.192C667.167 93.0453 665.247 94.1973 662.431 95.648C659.7 97.0987 656.33 98.3787 652.319 99.488C648.308 100.597 643.871 101.109 639.007 101.024C631.583 100.853 624.927 99.5307 619.039 97.056C613.236 94.496 608.287 91.04 604.191 86.688C600.18 82.336 597.108 77.344 594.975 71.712C592.842 66.08 591.775 60.064 591.775 53.664C591.775 46.496 592.842 39.9253 594.975 33.952C597.194 27.9787 600.308 22.816 604.319 18.464C608.415 14.112 613.279 10.7413 618.911 8.352C624.543 5.96266 630.772 4.768 637.599 4.768C643.914 4.768 649.503 5.62133 654.367 7.328C659.231 9.03466 663.199 10.8693 666.271 12.832L658.975 30.368C656.842 28.7467 653.983 27.0827 650.399 25.376C646.9 23.584 642.847 22.688 638.239 22.688C634.655 22.688 631.199 23.456 627.871 24.992C624.628 26.4427 621.727 28.5333 619.167 31.264C616.692 33.9947 614.73 37.1947 613.279 40.864C611.828 44.448 611.103 48.3733 611.103 52.64C611.103 57.1627 611.743 61.3013 613.023 65.056C614.388 68.8107 616.308 72.0533 618.783 74.784C621.258 77.4293 624.202 79.4773 627.615 80.928C631.114 82.3787 635.039 83.104 639.391 83.104C644.426 83.104 648.735 82.2933 652.319 80.672C655.903 79.0507 658.634 77.344 660.511 75.552L668.191 92.192ZM705.985 5.79199H724.545V100H705.985V5.79199ZM757.436 100L799.932 2.07999H800.956L843.452 100H821.948L794.812 31.136L808.252 21.92L775.74 100H757.436ZM786.492 65.952H814.78L821.308 81.568H780.732L786.492 65.952ZM876.385 5.79199H894.945V82.08H939.233V100H876.385V5.79199Z"/>
</mask>
<path d="M82.816 92.192C81.792 93.0453 79.872 94.1973 77.056 95.648C74.3253 97.0987 70.9547 98.3787 66.944 99.488C62.9333 100.597 58.496 101.109 53.632 101.024C46.208 100.853 39.552 99.5307 33.664 97.056C27.8613 94.496 22.912 91.04 18.816 86.688C14.8053 82.336 11.7333 77.344 9.6 71.712C7.46667 66.08 6.4 60.064 6.4 53.664C6.4 46.496 7.46667 39.9253 9.6 33.952C11.8187 27.9787 14.9333 22.816 18.944 18.464C23.04 14.112 27.904 10.7413 33.536 8.352C39.168 5.96266 45.3973 4.768 52.224 4.768C58.5387 4.768 64.128 5.62133 68.992 7.328C73.856 9.03466 77.824 10.8693 80.896 12.832L73.6 30.368C71.4667 28.7467 68.608 27.0827 65.024 25.376C61.5253 23.584 57.472 22.688 52.864 22.688C49.28 22.688 45.824 23.456 42.496 24.992C39.2533 26.4427 36.352 28.5333 33.792 31.264C31.3173 33.9947 29.3547 37.1947 27.904 40.864C26.4533 44.448 25.728 48.3733 25.728 52.64C25.728 57.1627 26.368 61.3013 27.648 65.056C29.0133 68.8107 30.9333 72.0533 33.408 74.784C35.8827 77.4293 38.8267 79.4773 42.24 80.928C45.7387 82.3787 49.664 83.104 54.016 83.104C59.0507 83.104 63.36 82.2933 66.944 80.672C70.528 79.0507 73.2587 77.344 75.136 75.552L82.816 92.192ZM114.85 53.024C114.85 46.5387 116.087 40.3947 118.562 34.592C121.037 28.7893 124.45 23.6693 128.802 19.232C133.239 14.7093 138.359 11.168 144.162 8.60799C149.965 6.048 156.194 4.768 162.85 4.768C169.421 4.768 175.607 6.048 181.41 8.60799C187.213 11.168 192.333 14.7093 196.77 19.232C201.293 23.6693 204.791 28.7893 207.266 34.592C209.826 40.3947 211.106 46.5387 211.106 53.024C211.106 59.68 209.826 65.9093 207.266 71.712C204.791 77.5147 201.293 82.6347 196.77 87.072C192.333 91.424 187.213 94.8373 181.41 97.312C175.607 99.7867 169.421 101.024 162.85 101.024C156.194 101.024 149.965 99.7867 144.162 97.312C138.359 94.8373 133.239 91.424 128.802 87.072C124.45 82.6347 121.037 77.5147 118.562 71.712C116.087 65.9093 114.85 59.68 114.85 53.024ZM134.05 53.024C134.05 57.2053 134.775 61.1307 136.226 64.8C137.762 68.384 139.853 71.584 142.498 74.4C145.229 77.1307 148.343 79.264 151.842 80.8C155.426 82.336 159.309 83.104 163.49 83.104C167.501 83.104 171.213 82.336 174.626 80.8C178.125 79.264 181.154 77.1307 183.714 74.4C186.274 71.584 188.279 68.384 189.73 64.8C191.181 61.1307 191.906 57.2053 191.906 53.024C191.906 48.7573 191.138 44.7893 189.602 41.12C188.151 37.4507 186.103 34.2507 183.458 31.52C180.898 28.704 177.869 26.528 174.37 24.992C170.871 23.456 167.074 22.688 162.978 22.688C158.882 22.688 155.085 23.456 151.586 24.992C148.087 26.528 145.015 28.704 142.37 31.52C139.725 34.2507 137.677 37.4507 136.226 41.12C134.775 44.7893 134.05 48.7573 134.05 53.024ZM248.81 100V1.952H248.938L301.29 76.192L293.354 74.4L345.578 1.952H345.834V100H327.274V43.808L328.426 53.408L296.554 98.72H296.298L263.53 53.408L266.73 44.576V100H248.81ZM389.385 5.79199H453.641V23.712H407.945V43.808H448.393V61.728H407.945V82.08H455.433V100H389.385V5.79199ZM522.379 5.79199C528.267 5.79199 533.515 6.55999 538.123 8.09599C542.731 9.54666 546.571 11.68 549.643 14.496C552.8 17.2267 555.19 20.5547 556.811 24.48C558.432 28.32 559.243 32.672 559.243 37.536C559.243 41.376 558.646 45.216 557.451 49.056C556.342 52.896 554.464 56.3947 551.819 59.552C549.259 62.7093 545.846 65.2693 541.579 67.232C537.312 69.1093 532.022 70.048 525.707 70.048H512.395V100H493.835V5.79199H522.379ZM525.579 52.128C528.395 52.128 530.742 51.6587 532.619 50.72C534.496 49.7813 535.947 48.5867 536.971 47.136C538.08 45.6853 538.848 44.192 539.275 42.656C539.787 41.0347 540.043 39.5413 540.043 38.176C540.043 37.152 539.872 35.872 539.531 34.336C539.275 32.7147 538.678 31.0933 537.739 29.472C536.8 27.8507 535.35 26.4853 533.387 25.376C531.51 24.2667 528.95 23.712 525.707 23.712H512.395V52.128H525.579ZM542.987 63.648L566.283 100H544.651L520.843 64.16L542.987 63.648ZM668.191 92.192C667.167 93.0453 665.247 94.1973 662.431 95.648C659.7 97.0987 656.33 98.3787 652.319 99.488C648.308 100.597 643.871 101.109 639.007 101.024C631.583 100.853 624.927 99.5307 619.039 97.056C613.236 94.496 608.287 91.04 604.191 86.688C600.18 82.336 597.108 77.344 594.975 71.712C592.842 66.08 591.775 60.064 591.775 53.664C591.775 46.496 592.842 39.9253 594.975 33.952C597.194 27.9787 600.308 22.816 604.319 18.464C608.415 14.112 613.279 10.7413 618.911 8.352C624.543 5.96266 630.772 4.768 637.599 4.768C643.914 4.768 649.503 5.62133 654.367 7.328C659.231 9.03466 663.199 10.8693 666.271 12.832L658.975 30.368C656.842 28.7467 653.983 27.0827 650.399 25.376C646.9 23.584 642.847 22.688 638.239 22.688C634.655 22.688 631.199 23.456 627.871 24.992C624.628 26.4427 621.727 28.5333 619.167 31.264C616.692 33.9947 614.73 37.1947 613.279 40.864C611.828 44.448 611.103 48.3733 611.103 52.64C611.103 57.1627 611.743 61.3013 613.023 65.056C614.388 68.8107 616.308 72.0533 618.783 74.784C621.258 77.4293 624.202 79.4773 627.615 80.928C631.114 82.3787 635.039 83.104 639.391 83.104C644.426 83.104 648.735 82.2933 652.319 80.672C655.903 79.0507 658.634 77.344 660.511 75.552L668.191 92.192ZM705.985 5.79199H724.545V100H705.985V5.79199ZM757.436 100L799.932 2.07999H800.956L843.452 100H821.948L794.812 31.136L808.252 21.92L775.74 100H757.436ZM786.492 65.952H814.78L821.308 81.568H780.732L786.492 65.952ZM876.385 5.79199H894.945V82.08H939.233V100H876.385V5.79199Z" fill="#38000A"/>
<path d="M82.816 92.192L83.4562 92.9602L84.0453 92.4693L83.724 91.7729L82.816 92.192ZM77.056 95.648L76.598 94.759L76.5869 94.7649L77.056 95.648ZM66.944 99.488L66.6774 98.5242L66.944 99.488ZM53.632 101.024L53.609 102.024L53.6145 102.024L53.632 101.024ZM33.664 97.056L33.2604 97.9709L33.2684 97.9745L33.2765 97.9779L33.664 97.056ZM18.816 86.688L18.0806 87.3657L18.0878 87.3734L18.816 86.688ZM9.6 71.712L10.5352 71.3578L9.6 71.712ZM9.6 33.952L8.6625 33.6038L8.65826 33.6157L9.6 33.952ZM18.944 18.464L18.2158 17.7786L18.2086 17.7863L18.944 18.464ZM33.536 8.352L33.9266 9.27258L33.536 8.352ZM68.992 7.328L69.3231 6.3844V6.3844L68.992 7.328ZM80.896 12.832L81.8193 13.2161L82.1417 12.4412L81.4344 11.9893L80.896 12.832ZM73.6 30.368L72.9949 31.1642L74.0259 31.9477L74.5233 30.7521L73.6 30.368ZM65.024 25.376L64.5681 26.266L64.581 26.2726L64.5941 26.2789L65.024 25.376ZM42.496 24.992L42.9044 25.9049L42.9151 25.9L42.496 24.992ZM33.792 31.264L33.0625 30.5801L33.0567 30.5862L33.051 30.5925L33.792 31.264ZM27.904 40.864L28.831 41.2392L28.834 41.2317L27.904 40.864ZM27.648 65.056L26.7015 65.3787L26.7048 65.3882L26.7082 65.3977L27.648 65.056ZM33.408 74.784L32.667 75.4555L32.6723 75.4614L32.6777 75.4672L33.408 74.784ZM42.24 80.928L41.8488 81.8484L41.857 81.8517L42.24 80.928ZM66.944 80.672L66.5318 79.7609L66.944 80.672ZM75.136 75.552L76.044 75.1329L75.4576 73.8625L74.4455 74.8286L75.136 75.552ZM82.1758 91.4238C81.2447 92.1997 79.4134 93.3087 76.5981 94.759L77.514 96.537C80.3307 95.086 82.3393 93.891 83.4562 92.9602L82.1758 91.4238ZM76.5869 94.7649C73.9383 96.1719 70.6403 97.4281 66.6774 98.5242L67.2106 100.452C71.2691 99.3292 74.7124 98.0254 77.5252 96.5311L76.5869 94.7649ZM66.6774 98.5242C62.7733 99.604 58.4334 100.108 53.6495 100.024L53.6145 102.024C58.5586 102.111 63.0934 101.591 67.2106 100.452L66.6774 98.5242ZM53.655 100.024C46.3362 99.856 39.8067 98.553 34.0515 96.1341L33.2765 97.9779C39.2973 100.508 46.0798 101.851 53.609 102.024L53.655 100.024ZM34.0676 96.1411C28.3798 93.6318 23.5429 90.2513 19.5442 86.0026L18.0878 87.3734C22.2811 91.8287 27.3428 95.3603 33.2604 97.9709L34.0676 96.1411ZM19.5514 86.0103C15.6289 81.7541 12.624 76.8723 10.5352 71.3578L8.66484 72.0662C10.8427 77.8157 13.9818 82.918 18.0806 87.3657L19.5514 86.0103ZM10.5352 71.3578C8.44733 65.8459 7.4 59.9506 7.4 53.664H5.4C5.4 60.1774 6.48601 66.3141 8.66484 72.0662L10.5352 71.3578ZM7.4 53.664C7.4 46.5959 8.45163 40.1407 10.5417 34.2883L8.65826 33.6157C6.48171 39.71 5.4 46.3961 5.4 53.664H7.4ZM10.5374 34.3002C12.7143 28.4393 15.7634 23.3909 19.6794 19.1417L18.2086 17.7863C14.1033 22.2411 10.923 27.518 8.66257 33.6038L10.5374 34.3002ZM19.6722 19.1494C23.6709 14.9008 28.4191 11.6091 33.9266 9.27258L33.1455 7.43142C27.3889 9.87358 22.4091 13.3232 18.2158 17.7786L19.6722 19.1494ZM33.9266 9.27258C39.4215 6.94141 45.516 5.768 52.224 5.768V3.768C45.2787 3.768 38.9146 4.98392 33.1455 7.43142L33.9266 9.27258ZM52.224 5.768C58.4504 5.768 63.9242 6.60959 68.6609 8.2716L69.3231 6.3844C64.3318 4.63308 58.6269 3.768 52.224 3.768V5.768ZM68.6609 8.2716C73.4795 9.96233 77.3712 11.7667 80.3576 13.6747L81.4344 11.9893C78.2768 9.97197 74.2325 8.10699 69.3231 6.3844L68.6609 8.2716ZM79.9727 12.4479L72.6767 29.9839L74.5233 30.7521L81.8193 13.2161L79.9727 12.4479ZM74.2051 29.5718C71.9979 27.8944 69.0733 26.1966 65.4539 24.4731L64.5941 26.2789C68.1427 27.9687 70.9354 29.5989 72.9949 31.1642L74.2051 29.5718ZM65.4799 24.486C61.8177 22.6102 57.6033 21.688 52.864 21.688V23.688C57.3407 23.688 61.233 24.5578 64.5681 26.266L65.4799 24.486ZM52.864 21.688C49.132 21.688 45.5333 22.4888 42.0769 24.084L42.9151 25.9C46.1147 24.4232 49.428 23.688 52.864 23.688V21.688ZM42.0876 24.0792C38.7173 25.5869 35.7083 27.7578 33.0625 30.5801L34.5215 31.9479C36.9957 29.3088 39.7893 27.2984 42.9044 25.9048L42.0876 24.0792ZM33.051 30.5925C30.49 33.4184 28.4658 36.7231 26.974 40.4963L28.834 41.2317C30.2436 37.6662 32.1446 34.571 34.533 31.9355L33.051 30.5925ZM26.9771 40.4888C25.4734 44.2038 24.728 48.2581 24.728 52.64H26.728C26.728 48.4886 27.4333 44.6922 28.8309 41.2392L26.9771 40.4888ZM24.728 52.64C24.728 57.2573 25.3815 61.5067 26.7015 65.3787L28.5945 64.7333C27.3545 61.096 26.728 57.0681 26.728 52.64H24.728ZM26.7082 65.3977C28.1141 69.2639 30.0983 72.621 32.667 75.4555L34.149 74.1125C31.7684 71.4856 29.9126 68.3575 28.5878 64.7143L26.7082 65.3977ZM32.6777 75.4672C35.25 78.2168 38.3103 80.3445 41.8489 81.8483L42.6311 80.0077C39.343 78.6102 36.5154 76.6419 34.1383 74.1008L32.6777 75.4672ZM41.857 81.8517C45.4938 83.3597 49.552 84.104 54.016 84.104V82.104C49.776 82.104 45.9835 81.3976 42.623 80.0043L41.857 81.8517ZM54.016 84.104C59.1545 84.104 63.6118 83.277 67.3562 81.5831L66.5318 79.7609C63.1082 81.3097 58.9468 82.104 54.016 82.104V84.104ZM67.3562 81.5831C70.9955 79.9368 73.837 78.1744 75.8265 76.2754L74.4455 74.8286C72.6804 76.5136 70.0605 78.1646 66.5318 79.7609L67.3562 81.5831ZM74.228 75.9711L81.908 92.6111L83.724 91.7729L76.044 75.1329L74.228 75.9711ZM118.562 34.592L119.482 34.9843L118.562 34.592ZM128.802 19.232L128.088 18.5317L128.088 18.5318L128.802 19.232ZM144.162 8.60799L143.758 7.69308V7.69308L144.162 8.60799ZM181.41 8.60799L181.814 7.69308V7.69308L181.41 8.60799ZM196.77 19.232L196.056 19.9323L196.063 19.9391L196.07 19.9458L196.77 19.232ZM207.266 34.592L206.346 34.9843L206.351 34.9956L207.266 34.592ZM207.266 71.712L206.351 71.3083L206.346 71.3197L207.266 71.712ZM196.77 87.072L197.47 87.7859L197.47 87.7858L196.77 87.072ZM181.41 97.312L181.802 98.2318L181.41 97.312ZM144.162 97.312L144.554 96.3922L144.162 97.312ZM128.802 87.072L128.088 87.7722L128.095 87.7791L128.102 87.7859L128.802 87.072ZM118.562 71.712L119.482 71.3197L118.562 71.712ZM136.226 64.8L135.296 65.1677L135.301 65.1809L135.307 65.1939L136.226 64.8ZM142.498 74.4L141.769 75.0847L141.78 75.0961L141.791 75.1071L142.498 74.4ZM151.842 80.8L151.44 81.7157L151.448 81.7191L151.842 80.8ZM174.626 80.8L174.224 79.8843L174.216 79.8881L174.626 80.8ZM183.714 74.4L184.444 75.0839L184.449 75.0783L184.454 75.0727L183.714 74.4ZM189.73 64.8L190.657 65.1752L190.66 65.1677L189.73 64.8ZM189.602 41.12L188.672 41.4877L188.676 41.4969L188.68 41.5061L189.602 41.12ZM183.458 31.52L182.718 32.1927L182.729 32.2044L182.74 32.2158L183.458 31.52ZM174.37 24.992L173.968 25.9076L174.37 24.992ZM142.37 31.52L143.088 32.2158L143.094 32.2103L143.099 32.2047L142.37 31.52ZM136.226 41.12L137.156 41.4877L136.226 41.12ZM115.85 53.024C115.85 46.6696 117.062 40.6594 119.482 34.9843L117.642 34.1997C115.113 40.1299 113.85 46.4077 113.85 53.024H115.85ZM119.482 34.9843C121.908 29.2944 125.252 24.2793 129.516 19.9322L128.088 18.5318C123.648 23.0594 120.165 28.2842 117.642 34.1997L119.482 34.9843ZM129.516 19.9323C133.864 15.5003 138.879 12.0318 144.566 9.52291L143.758 7.69308C137.84 10.3042 132.614 13.9183 128.088 18.5317L129.516 19.9323ZM144.566 9.52291C150.235 7.02178 156.326 5.768 162.85 5.768V3.768C156.062 3.768 149.694 5.07421 143.758 7.69308L144.566 9.52291ZM162.85 5.768C169.287 5.768 175.335 7.02105 181.006 9.52291L181.814 7.69308C175.879 5.07494 169.555 3.768 162.85 3.768V5.768ZM181.006 9.52291C186.693 12.0318 191.708 15.5003 196.056 19.9323L197.484 18.5317C192.958 13.9183 187.732 10.3042 181.814 7.69308L181.006 9.52291ZM196.07 19.9458C200.499 24.2918 203.923 29.3027 206.346 34.9843L208.186 34.1997C205.66 28.276 202.086 23.0469 197.47 18.5182L196.07 19.9458ZM206.351 34.9956C208.854 40.6682 210.106 46.6744 210.106 53.024H212.106C212.106 46.4029 210.798 40.1211 208.181 34.1884L206.351 34.9956ZM210.106 53.024C210.106 59.548 208.852 65.6391 206.351 71.3084L208.181 72.1156C210.8 66.1795 212.106 59.812 212.106 53.024H210.106ZM206.346 71.3197C203.923 77.0013 200.499 82.0122 196.07 86.3582L197.47 87.7858C202.086 83.2571 205.66 78.028 208.186 72.1043L206.346 71.3197ZM196.07 86.3581C191.723 90.6215 186.708 93.9656 181.018 96.3922L181.802 98.2318C187.718 95.7091 192.943 92.2265 197.47 87.7859L196.07 86.3581ZM181.018 96.3922C175.344 98.8117 169.292 100.024 162.85 100.024V102.024C169.55 102.024 175.87 100.762 181.802 98.2318L181.018 96.3922ZM162.85 100.024C156.321 100.024 150.226 98.811 144.554 96.3922L143.77 98.2318C149.703 100.762 156.067 102.024 162.85 102.024V100.024ZM144.554 96.3922C138.864 93.9656 133.849 90.6215 129.502 86.3581L128.102 87.7859C132.629 92.2265 137.854 95.7091 143.77 98.2318L144.554 96.3922ZM129.516 86.3718C125.252 82.0247 121.908 77.0096 119.482 71.3197L117.642 72.1043C120.165 78.0198 123.648 83.2446 128.088 87.7722L129.516 86.3718ZM119.482 71.3197C117.063 65.6478 115.85 59.5527 115.85 53.024H113.85C113.85 59.8073 115.112 66.1708 117.642 72.1043L119.482 71.3197ZM133.05 53.024C133.05 57.3236 133.796 61.3744 135.296 65.1677L137.156 64.4323C135.754 60.8869 135.05 57.0871 135.05 53.024H133.05ZM135.307 65.1939C136.888 68.8842 139.043 72.1828 141.769 75.0847L143.227 73.7153C140.662 70.9852 138.636 67.8838 137.145 64.4061L135.307 65.1939ZM141.791 75.1071C144.608 77.9247 147.826 80.1292 151.44 81.7156L152.244 79.8844C148.86 78.3988 145.849 76.3367 143.205 73.6929L141.791 75.1071ZM151.448 81.7191C155.165 83.3123 159.183 84.104 163.49 84.104V82.104C159.434 82.104 155.687 81.3597 152.236 79.8809L151.448 81.7191ZM163.49 84.104C167.632 84.104 171.485 83.3101 175.036 81.7119L174.216 79.8881C170.94 81.3619 167.369 82.104 163.49 82.104V84.104ZM175.028 81.7156C178.648 80.1265 181.789 77.9153 184.444 75.0839L182.984 73.7161C180.519 76.3461 177.602 78.4015 174.224 79.8844L175.028 81.7156ZM184.454 75.0727C187.095 72.1679 189.163 68.8668 190.657 65.1752L188.803 64.4248C187.396 67.9012 185.453 71.0001 182.974 73.7273L184.454 75.0727ZM190.66 65.1677C192.16 61.3744 192.906 57.3236 192.906 53.024H190.906C190.906 57.0871 190.202 60.8869 188.8 64.4323L190.66 65.1677ZM192.906 53.024C192.906 48.6345 192.115 44.5342 190.524 40.7339L188.68 41.5061C190.161 45.0445 190.906 48.8802 190.906 53.024H192.906ZM190.532 40.7523C189.035 36.9655 186.916 33.6528 184.176 30.8242L182.74 32.2158C185.29 34.8485 187.268 37.9358 188.672 41.4877L190.532 40.7523ZM184.198 30.8473C181.543 27.9271 178.399 25.6685 174.772 24.0764L173.968 25.9076C177.339 27.3875 180.253 29.4809 182.718 32.1927L184.198 30.8473ZM174.772 24.0764C171.138 22.4808 167.202 21.688 162.978 21.688V23.688C166.946 23.688 170.605 24.4312 173.968 25.9076L174.772 24.0764ZM162.978 21.688C158.754 21.688 154.818 22.4808 151.184 24.0764L151.988 25.9076C155.351 24.4312 159.01 23.688 162.978 23.688V21.688ZM151.184 24.0764C147.561 25.6671 144.378 27.9222 141.641 30.8353L143.099 32.2047C145.653 29.4858 148.614 27.3888 151.988 25.9076L151.184 24.0764ZM141.652 30.8242C138.912 33.6528 136.793 36.9655 135.296 40.7523L137.156 41.4877C138.56 37.9358 140.538 34.8485 143.088 32.2158L141.652 30.8242ZM135.296 40.7523C133.795 44.5479 133.05 48.6418 133.05 53.024H135.05C135.05 48.8729 135.755 45.0307 137.156 41.4877L135.296 40.7523ZM248.81 100H247.81V101H248.81V100ZM248.81 1.952V0.951996H247.81V1.952H248.81ZM248.938 1.952L249.755 1.3757L249.456 0.951996H248.938V1.952ZM301.29 76.192L301.07 77.1674L303.605 77.74L302.107 75.6157L301.29 76.192ZM293.354 74.4L292.543 73.8152L291.658 75.0423L293.134 75.3754L293.354 74.4ZM345.578 1.952V0.951996H345.066L344.767 1.36724L345.578 1.952ZM345.834 1.952H346.834V0.951996H345.834V1.952ZM345.834 100V101H346.834V100H345.834ZM327.274 100H326.274V101H327.274V100ZM327.274 43.808L328.267 43.6889L326.274 43.808H327.274ZM328.426 53.408L329.244 53.9833L329.465 53.6696L329.419 53.2889L328.426 53.408ZM296.554 98.72V99.72H297.073L297.372 99.2953L296.554 98.72ZM296.298 98.72L295.488 99.306L295.787 99.72H296.298V98.72ZM263.53 53.408L262.59 53.0673L262.409 53.565L262.72 53.994L263.53 53.408ZM266.73 44.576H267.73L265.79 44.2353L266.73 44.576ZM266.73 100V101H267.73V100H266.73ZM249.81 100V1.952H247.81V100H249.81ZM248.81 2.952H248.938V0.951996H248.81V2.952ZM248.121 2.52829L300.473 76.7683L302.107 75.6157L249.755 1.3757L248.121 2.52829ZM301.51 75.2166L293.574 73.4246L293.134 75.3754L301.07 77.1674L301.51 75.2166ZM294.165 74.9848L346.389 2.53675L344.767 1.36724L292.543 73.8152L294.165 74.9848ZM345.578 2.952H345.834V0.951996H345.578V2.952ZM344.834 1.952V100H346.834V1.952H344.834ZM345.834 99H327.274V101H345.834V99ZM328.274 100V43.808H326.274V100H328.274ZM326.281 43.9271L327.433 53.5271L329.419 53.2889L328.267 43.6889L326.281 43.9271ZM327.608 52.8327L295.736 98.1447L297.372 99.2953L329.244 53.9833L327.608 52.8327ZM296.554 97.72H296.298V99.72H296.554V97.72ZM297.108 98.134L264.34 52.822L262.72 53.994L295.488 99.306L297.108 98.134ZM264.47 53.7486L267.67 44.9166L265.79 44.2353L262.59 53.0673L264.47 53.7486ZM265.73 44.576V100H267.73V44.576H265.73ZM266.73 99H248.81V101H266.73V99ZM389.385 5.79199V4.79199H388.385V5.79199H389.385ZM453.641 5.79199H454.641V4.79199H453.641V5.79199ZM453.641 23.712V24.712H454.641V23.712H453.641ZM407.945 23.712V22.712H406.945V23.712H407.945ZM407.945 43.808H406.945V44.808H407.945V43.808ZM448.393 43.808H449.393V42.808H448.393V43.808ZM448.393 61.728V62.728H449.393V61.728H448.393ZM407.945 61.728V60.728H406.945V61.728H407.945ZM407.945 82.08H406.945V83.08H407.945V82.08ZM455.433 82.08H456.433V81.08H455.433V82.08ZM455.433 100V101H456.433V100H455.433ZM389.385 100H388.385V101H389.385V100ZM389.385 6.79199H453.641V4.79199H389.385V6.79199ZM452.641 5.79199V23.712H454.641V5.79199H452.641ZM453.641 22.712H407.945V24.712H453.641V22.712ZM406.945 23.712V43.808H408.945V23.712H406.945ZM407.945 44.808H448.393V42.808H407.945V44.808ZM447.393 43.808V61.728H449.393V43.808H447.393ZM448.393 60.728H407.945V62.728H448.393V60.728ZM406.945 61.728V82.08H408.945V61.728H406.945ZM407.945 83.08H455.433V81.08H407.945V83.08ZM454.433 82.08V100H456.433V82.08H454.433ZM455.433 99H389.385V101H455.433V99ZM390.385 100V5.79199H388.385V100H390.385ZM538.123 8.09599L537.807 9.04468L537.815 9.04733L537.823 9.04984L538.123 8.09599ZM549.643 14.496L548.967 15.2331L548.978 15.2429L548.989 15.2524L549.643 14.496ZM556.811 24.48L555.887 24.8618L555.89 24.869L556.811 24.48ZM557.451 49.056L556.496 48.7589L556.493 48.7687L556.49 48.7785L557.451 49.056ZM551.819 59.552L551.052 58.9098L551.047 58.9159L551.042 58.9222L551.819 59.552ZM541.579 67.232L541.982 68.1473L541.989 68.144L541.997 68.1405L541.579 67.232ZM512.395 70.048V69.048H511.395V70.048H512.395ZM512.395 100V101H513.395V100H512.395ZM493.835 100H492.835V101H493.835V100ZM493.835 5.79199V4.79199H492.835V5.79199H493.835ZM532.619 50.72L533.066 51.6144L532.619 50.72ZM536.971 47.136L536.177 46.5285L536.165 46.5437L536.154 46.5593L536.971 47.136ZM539.275 42.656L538.321 42.3549L538.316 42.3715L538.311 42.3884L539.275 42.656ZM539.531 34.336L538.543 34.492L538.548 34.5226L538.555 34.5529L539.531 34.336ZM537.739 29.472L536.874 29.973V29.973L537.739 29.472ZM533.387 25.376L532.878 26.2369L532.887 26.2418L532.895 26.2466L533.387 25.376ZM512.395 23.712V22.712H511.395V23.712H512.395ZM512.395 52.128H511.395V53.128H512.395V52.128ZM542.987 63.648L543.829 63.1084L543.526 62.6353L542.964 62.6483L542.987 63.648ZM566.283 100V101H568.112L567.125 99.4604L566.283 100ZM544.651 100L543.818 100.553L544.115 101H544.651V100ZM520.843 64.16L520.82 63.1603L519.006 63.2022L520.01 64.7133L520.843 64.16ZM522.379 6.79199C528.182 6.79199 533.32 7.54899 537.807 9.04468L538.439 7.14731C533.71 5.57099 528.352 4.79199 522.379 4.79199V6.79199ZM537.823 9.04984C542.313 10.4636 546.019 12.5305 548.967 15.2331L550.319 13.7588C547.123 10.8295 543.149 8.62976 538.423 7.14214L537.823 9.04984ZM548.989 15.2524C552.026 17.8791 554.324 21.0781 555.887 24.8618L557.735 24.0982C556.055 20.0313 553.575 16.5742 550.297 13.7396L548.989 15.2524ZM555.89 24.869C557.451 28.5671 558.243 32.7836 558.243 37.536H560.243C560.243 32.5604 559.413 28.0729 557.732 24.091L555.89 24.869ZM558.243 37.536C558.243 41.2706 557.662 45.0105 556.496 48.7589L558.406 49.3531C559.629 45.4215 560.243 41.4814 560.243 37.536H558.243ZM556.49 48.7785C555.421 52.4806 553.611 55.8558 551.052 58.9098L552.586 60.1942C555.317 56.9335 557.263 53.3114 558.412 49.3335L556.49 48.7785ZM551.042 58.9222C548.593 61.9431 545.31 64.415 541.161 66.3235L541.997 68.1405C546.381 66.1237 549.925 63.4756 552.596 60.1818L551.042 58.9222ZM541.176 66.3167C537.073 68.1221 531.929 69.048 525.707 69.048V71.048C532.114 71.048 537.552 70.0966 541.982 68.1473L541.176 66.3167ZM525.707 69.048H512.395V71.048H525.707V69.048ZM511.395 70.048V100H513.395V70.048H511.395ZM512.395 99H493.835V101H512.395V99ZM494.835 100V5.79199H492.835V100H494.835ZM493.835 6.79199H522.379V4.79199H493.835V6.79199ZM525.579 53.128C528.5 53.128 531.011 52.6421 533.066 51.6144L532.172 49.8256C530.472 50.6753 528.29 51.128 525.579 51.128V53.128ZM533.066 51.6144C535.064 50.6154 536.653 49.3207 537.788 47.7127L536.154 46.5593C535.241 47.8526 533.928 48.9473 532.172 49.8256L533.066 51.6144ZM537.765 47.7435C538.941 46.206 539.773 44.5993 540.239 42.9236L538.311 42.3884C537.924 43.7847 537.22 45.1647 536.177 46.5285L537.765 47.7435ZM540.229 42.9571C540.764 41.2612 541.043 39.665 541.043 38.176H539.043C539.043 39.4177 538.81 40.8081 538.321 42.3549L540.229 42.9571ZM541.043 38.176C541.043 37.0512 540.857 35.6927 540.507 34.1191L538.555 34.5529C538.888 36.0513 539.043 37.2528 539.043 38.176H541.043ZM540.519 34.18C540.241 32.4212 539.596 30.6839 538.604 28.971L536.874 29.973C537.759 31.5028 538.309 33.0081 538.543 34.492L540.519 34.18ZM538.604 28.971C537.56 27.1667 535.965 25.6846 533.879 24.5054L532.895 26.2466C534.734 27.2861 536.041 28.5346 536.874 29.973L538.604 28.971ZM533.896 24.5151C531.807 23.2808 529.047 22.712 525.707 22.712V24.712C528.852 24.712 531.212 25.2526 532.878 26.2369L533.896 24.5151ZM525.707 22.712H512.395V24.712H525.707V22.712ZM511.395 23.712V52.128H513.395V23.712H511.395ZM512.395 53.128H525.579V51.128H512.395V53.128ZM542.145 64.1876L565.441 100.54L567.125 99.4604L543.829 63.1084L542.145 64.1876ZM566.283 99H544.651V101H566.283V99ZM545.484 99.4467L521.676 63.6067L520.01 64.7133L543.818 100.553L545.484 99.4467ZM520.866 65.1597L543.01 64.6477L542.964 62.6483L520.82 63.1603L520.866 65.1597ZM668.191 92.192L668.831 92.9602L669.42 92.4693L669.099 91.7729L668.191 92.192ZM662.431 95.648L661.973 94.759L661.962 94.7649L662.431 95.648ZM652.319 99.488L652.052 98.5242L652.319 99.488ZM639.007 101.024L638.984 102.024L638.989 102.024L639.007 101.024ZM619.039 97.056L618.635 97.9709L618.643 97.9745L618.652 97.9779L619.039 97.056ZM604.191 86.688L603.456 87.3657L603.463 87.3734L604.191 86.688ZM594.975 71.712L595.91 71.3578L594.975 71.712ZM594.975 33.952L594.037 33.6038L594.033 33.6157L594.975 33.952ZM604.319 18.464L603.591 17.7786L603.584 17.7863L604.319 18.464ZM618.911 8.352L619.302 9.27258L618.911 8.352ZM654.367 7.328L654.698 6.3844V6.3844L654.367 7.328ZM666.271 12.832L667.194 13.2161L667.517 12.4412L666.809 11.9893L666.271 12.832ZM658.975 30.368L658.37 31.1642L659.401 31.9477L659.898 30.7521L658.975 30.368ZM650.399 25.376L649.943 26.266L649.956 26.2726L649.969 26.2789L650.399 25.376ZM627.871 24.992L628.279 25.9049L628.29 25.9L627.871 24.992ZM619.167 31.264L618.437 30.5801L618.432 30.5862L618.426 30.5925L619.167 31.264ZM613.279 40.864L614.206 41.2392L614.209 41.2317L613.279 40.864ZM613.023 65.056L612.076 65.3787L612.08 65.3882L612.083 65.3977L613.023 65.056ZM618.783 74.784L618.042 75.4555L618.047 75.4614L618.053 75.4672L618.783 74.784ZM627.615 80.928L627.224 81.8484L627.232 81.8517L627.615 80.928ZM652.319 80.672L651.907 79.7609L652.319 80.672ZM660.511 75.552L661.419 75.1329L660.833 73.8625L659.82 74.8286L660.511 75.552ZM667.551 91.4238C666.62 92.1997 664.788 93.3087 661.973 94.759L662.889 96.537C665.706 95.086 667.714 93.891 668.831 92.9602L667.551 91.4238ZM661.962 94.7649C659.313 96.1719 656.015 97.4281 652.052 98.5242L652.586 100.452C656.644 99.3292 660.087 98.0254 662.9 96.5311L661.962 94.7649ZM652.052 98.5242C648.148 99.604 643.808 100.108 639.025 100.024L638.989 102.024C643.934 102.111 648.468 101.591 652.586 100.452L652.052 98.5242ZM639.03 100.024C631.711 99.856 625.182 98.553 619.426 96.1341L618.652 97.9779C624.672 100.508 631.455 101.851 638.984 102.024L639.03 100.024ZM619.443 96.1411C613.755 93.6318 608.918 90.2513 604.919 86.0026L603.463 87.3734C607.656 91.8287 612.718 95.3603 618.635 97.9709L619.443 96.1411ZM604.926 86.0103C601.004 81.7541 597.999 76.8723 595.91 71.3578L594.04 72.0662C596.218 77.8157 599.357 82.918 603.456 87.3657L604.926 86.0103ZM595.91 71.3578C593.822 65.8459 592.775 59.9506 592.775 53.664H590.775C590.775 60.1774 591.861 66.3141 594.04 72.0662L595.91 71.3578ZM592.775 53.664C592.775 46.5959 593.827 40.1407 595.917 34.2883L594.033 33.6157C591.857 39.71 590.775 46.3961 590.775 53.664H592.775ZM595.912 34.3002C598.089 28.4393 601.138 23.3909 605.054 19.1417L603.584 17.7863C599.478 22.2411 596.298 27.518 594.038 33.6038L595.912 34.3002ZM605.047 19.1494C609.046 14.9008 613.794 11.6091 619.302 9.27258L618.52 7.43142C612.764 9.87358 607.784 13.3232 603.591 17.7786L605.047 19.1494ZM619.302 9.27258C624.796 6.94141 630.891 5.768 637.599 5.768V3.768C630.654 3.768 624.29 4.98392 618.52 7.43142L619.302 9.27258ZM637.599 5.768C643.825 5.768 649.299 6.60959 654.036 8.2716L654.698 6.3844C649.707 4.63308 644.002 3.768 637.599 3.768V5.768ZM654.036 8.2716C658.854 9.96233 662.746 11.7667 665.733 13.6747L666.809 11.9893C663.652 9.97197 659.607 8.10699 654.698 6.3844L654.036 8.2716ZM665.348 12.4479L658.052 29.9839L659.898 30.7521L667.194 13.2161L665.348 12.4479ZM659.58 29.5718C657.373 27.8944 654.448 26.1966 650.829 24.4731L649.969 26.2789C653.518 27.9687 656.31 29.5989 658.37 31.1642L659.58 29.5718ZM650.855 24.486C647.193 22.6102 642.978 21.688 638.239 21.688V23.688C642.716 23.688 646.608 24.5578 649.943 26.266L650.855 24.486ZM638.239 21.688C634.507 21.688 630.908 22.4888 627.452 24.084L628.29 25.9C631.49 24.4232 634.803 23.688 638.239 23.688V21.688ZM627.463 24.0792C624.092 25.5869 621.083 27.7578 618.437 30.5801L619.897 31.9479C622.371 29.3088 625.164 27.2984 628.279 25.9048L627.463 24.0792ZM618.426 30.5925C615.865 33.4184 613.841 36.7231 612.349 40.4963L614.209 41.2317C615.619 37.6662 617.52 34.571 619.908 31.9355L618.426 30.5925ZM612.352 40.4888C610.848 44.2038 610.103 48.2581 610.103 52.64H612.103C612.103 48.4886 612.808 44.6922 614.206 41.2392L612.352 40.4888ZM610.103 52.64C610.103 57.2573 610.756 61.5067 612.076 65.3787L613.969 64.7333C612.729 61.096 612.103 57.0681 612.103 52.64H610.103ZM612.083 65.3977C613.489 69.2639 615.473 72.621 618.042 75.4555L619.524 74.1125C617.143 71.4856 615.288 68.3575 613.963 64.7143L612.083 65.3977ZM618.053 75.4672C620.625 78.2168 623.685 80.3445 627.224 81.8483L628.006 80.0077C624.718 78.6102 621.89 76.6419 619.513 74.1008L618.053 75.4672ZM627.232 81.8517C630.869 83.3597 634.927 84.104 639.391 84.104V82.104C635.151 82.104 631.359 81.3976 627.998 80.0043L627.232 81.8517ZM639.391 84.104C644.529 84.104 648.987 83.277 652.731 81.5831L651.907 79.7609C648.483 81.3097 644.322 82.104 639.391 82.104V84.104ZM652.731 81.5831C656.37 79.9368 659.212 78.1744 661.201 76.2754L659.82 74.8286C658.055 76.5136 655.436 78.1646 651.907 79.7609L652.731 81.5831ZM659.603 75.9711L667.283 92.6111L669.099 91.7729L661.419 75.1329L659.603 75.9711ZM705.985 5.79199V4.79199H704.985V5.79199H705.985ZM724.545 5.79199H725.545V4.79199H724.545V5.79199ZM724.545 100V101H725.545V100H724.545ZM705.985 100H704.985V101H705.985V100ZM705.985 6.79199H724.545V4.79199H705.985V6.79199ZM723.545 5.79199V100H725.545V5.79199H723.545ZM724.545 99H705.985V101H724.545V99ZM706.985 100V5.79199H704.985V100H706.985ZM757.436 100L756.519 99.6019L755.912 101H757.436V100ZM799.932 2.07999V1.07999H799.276L799.015 1.68188L799.932 2.07999ZM800.956 2.07999L801.873 1.68188L801.612 1.07999H800.956V2.07999ZM843.452 100V101H844.976L844.369 99.6019L843.452 100ZM821.948 100L821.018 100.367L821.267 101H821.948V100ZM794.812 31.136L794.247 30.3113L793.59 30.7617L793.882 31.5026L794.812 31.136ZM808.252 21.92L809.175 22.3044L810.475 19.1833L807.687 21.0953L808.252 21.92ZM775.74 100V101H776.407L776.663 100.384L775.74 100ZM786.492 65.952V64.952H785.795L785.554 65.6059L786.492 65.952ZM814.78 65.952L815.703 65.5663L815.446 64.952H814.78V65.952ZM821.308 81.568V82.568H822.81L822.231 81.1823L821.308 81.568ZM780.732 81.568L779.794 81.2219L779.297 82.568H780.732V81.568ZM758.353 100.398L800.849 2.47811L799.015 1.68188L756.519 99.6019L758.353 100.398ZM799.932 3.07999H800.956V1.07999H799.932V3.07999ZM800.039 2.47811L842.535 100.398L844.369 99.6019L801.873 1.68188L800.039 2.47811ZM843.452 99H821.948V101H843.452V99ZM822.878 99.6334L795.742 30.7694L793.882 31.5026L821.018 100.367L822.878 99.6334ZM795.378 31.9607L808.818 22.7447L807.687 21.0953L794.247 30.3113L795.378 31.9607ZM807.329 21.5356L774.817 99.6156L776.663 100.384L809.175 22.3044L807.329 21.5356ZM775.74 99H757.436V101H775.74V99ZM786.492 66.952H814.78V64.952H786.492V66.952ZM813.857 66.3377L820.385 81.9537L822.231 81.1823L815.703 65.5663L813.857 66.3377ZM821.308 80.568H780.732V82.568H821.308V80.568ZM781.67 81.9141L787.43 66.2981L785.554 65.6059L779.794 81.2219L781.67 81.9141ZM876.385 5.79199V4.79199H875.385V5.79199H876.385ZM894.945 5.79199H895.945V4.79199H894.945V5.79199ZM894.945 82.08H893.945V83.08H894.945V82.08ZM939.233 82.08H940.233V81.08H939.233V82.08ZM939.233 100V101H940.233V100H939.233ZM876.385 100H875.385V101H876.385V100ZM876.385 6.79199H894.945V4.79199H876.385V6.79199ZM893.945 5.79199V82.08H895.945V5.79199H893.945ZM894.945 83.08H939.233V81.08H894.945V83.08ZM938.233 82.08V100H940.233V82.08H938.233ZM939.233 99H876.385V101H939.233V99ZM877.385 100V5.79199H875.385V100H877.385Z" fill="#38000A" mask="url(#path-1-outside-1_27_45)"/>
<mask id="path-3-outside-2_27_45" maskUnits="userSpaceOnUse" x="141" y="139" width="657" height="101" fill="black">
<rect fill="white" x="141" y="139" width="657" height="101"/>
<path d="M214.744 229.984C212.781 231.179 210.52 232.331 207.96 233.44C205.4 234.549 202.584 235.403 199.512 236C196.44 236.683 193.112 237.024 189.528 237.024C182.616 237.024 176.344 235.829 170.712 233.44C165.08 230.965 160.259 227.637 156.248 223.456C152.237 219.189 149.123 214.325 146.904 208.864C144.771 203.317 143.704 197.429 143.704 191.2C143.704 184.544 144.856 178.357 147.16 172.64C149.464 166.923 152.707 161.931 156.888 157.664C161.069 153.397 165.933 150.069 171.48 147.68C177.027 145.291 183.043 144.096 189.528 144.096C194.307 144.096 198.787 144.736 202.968 146.016C207.149 147.296 210.947 148.96 214.36 151.008L211.672 156.768C208.685 154.891 205.315 153.312 201.56 152.032C197.805 150.752 193.837 150.112 189.656 150.112C184.28 150.112 179.203 151.179 174.424 153.312C169.645 155.36 165.421 158.261 161.752 162.016C158.168 165.685 155.352 169.995 153.304 174.944C151.256 179.893 150.232 185.227 150.232 190.944C150.232 196.405 151.128 201.568 152.92 206.432C154.797 211.296 157.443 215.563 160.856 219.232C164.355 222.901 168.536 225.803 173.4 227.936C178.264 229.984 183.683 231.008 189.656 231.008C194.093 231.008 198.147 230.411 201.816 229.216C205.571 227.936 208.899 226.357 211.8 224.48L214.744 229.984ZM241.548 236L279.948 141.152H280.46L318.86 236H311.82L278.412 151.136L282.764 148.704L247.82 236H241.548ZM260.108 200.032H300.428L302.22 205.92H258.572L260.108 200.032ZM371.475 145.12C380.264 145.12 387.048 146.955 391.827 150.624C396.691 154.208 399.123 160.053 399.123 168.16C399.123 172.171 398.355 175.84 396.819 179.168C395.283 182.496 392.979 185.227 389.907 187.36C386.92 189.493 383.166 190.859 378.643 191.456L378.003 188.384C382.696 188.725 386.963 189.92 390.803 191.968C394.728 193.931 397.843 196.619 400.147 200.032C402.536 203.36 403.731 207.285 403.731 211.808C403.731 215.904 402.92 219.488 401.299 222.56C399.763 225.547 397.63 228.064 394.899 230.112C392.254 232.075 389.224 233.568 385.811 234.592C382.398 235.531 378.814 236 375.059 236H351.379V145.12H371.475ZM374.419 187.616C380.904 187.616 385.555 185.867 388.371 182.368C391.272 178.869 392.723 174.517 392.723 169.312C392.723 162.827 390.803 158.176 386.963 155.36C383.208 152.544 378.131 151.136 371.731 151.136H357.651V187.616H374.419ZM374.803 230.24C378.899 230.24 382.654 229.6 386.067 228.32C389.48 226.955 392.211 224.907 394.259 222.176C396.307 219.445 397.331 216.075 397.331 212.064C397.331 207.627 396.179 204.085 393.875 201.44C391.571 198.709 388.67 196.747 385.171 195.552C381.672 194.272 378.088 193.632 374.419 193.632H357.651V230.24H374.803ZM438.399 145.12H494.463V151.136H444.671V187.232H489.471V193.248H444.671V229.984H496.255V236H438.399V145.12ZM531.669 145.12H537.941V229.984H587.733V236H531.669V145.12ZM620.314 145.12H626.586V229.984H676.378V236H620.314V145.12ZM702.449 190.688C702.449 184.288 703.644 178.315 706.033 172.768C708.422 167.136 711.75 162.187 716.017 157.92C720.284 153.568 725.19 150.197 730.737 147.808C736.369 145.333 742.385 144.096 748.785 144.096C755.185 144.096 761.201 145.333 766.833 147.808C772.465 150.197 777.414 153.568 781.681 157.92C785.948 162.187 789.276 167.136 791.665 172.768C794.14 178.315 795.377 184.288 795.377 190.688C795.377 197.088 794.14 203.104 791.665 208.736C789.276 214.283 785.948 219.189 781.681 223.456C777.414 227.723 772.465 231.051 766.833 233.44C761.201 235.829 755.185 237.024 748.785 237.024C742.385 237.024 736.369 235.872 730.737 233.568C725.19 231.264 720.284 228.021 716.017 223.84C711.75 219.659 708.422 214.752 706.033 209.12C703.644 203.488 702.449 197.344 702.449 190.688ZM708.849 190.816C708.849 196.363 709.873 201.568 711.921 206.432C713.969 211.296 716.828 215.563 720.497 219.232C724.166 222.901 728.39 225.803 733.169 227.936C738.033 229.984 743.196 231.008 748.657 231.008C754.289 231.008 759.537 229.984 764.401 227.936C769.265 225.803 773.532 222.901 777.201 219.232C780.87 215.563 783.729 211.296 785.777 206.432C787.91 201.568 788.977 196.32 788.977 190.688C788.977 185.141 787.91 179.936 785.777 175.072C783.729 170.123 780.87 165.813 777.201 162.144C773.532 158.389 769.265 155.445 764.401 153.312C759.537 151.179 754.332 150.112 748.785 150.112C743.153 150.112 737.905 151.221 733.041 153.44C728.177 155.573 723.91 158.517 720.241 162.272C716.657 166.027 713.841 170.379 711.793 175.328C709.83 180.192 708.849 185.355 708.849 190.816Z"/>
</mask>
<path d="M214.744 229.984C212.781 231.179 210.52 232.331 207.96 233.44C205.4 234.549 202.584 235.403 199.512 236C196.44 236.683 193.112 237.024 189.528 237.024C182.616 237.024 176.344 235.829 170.712 233.44C165.08 230.965 160.259 227.637 156.248 223.456C152.237 219.189 149.123 214.325 146.904 208.864C144.771 203.317 143.704 197.429 143.704 191.2C143.704 184.544 144.856 178.357 147.16 172.64C149.464 166.923 152.707 161.931 156.888 157.664C161.069 153.397 165.933 150.069 171.48 147.68C177.027 145.291 183.043 144.096 189.528 144.096C194.307 144.096 198.787 144.736 202.968 146.016C207.149 147.296 210.947 148.96 214.36 151.008L211.672 156.768C208.685 154.891 205.315 153.312 201.56 152.032C197.805 150.752 193.837 150.112 189.656 150.112C184.28 150.112 179.203 151.179 174.424 153.312C169.645 155.36 165.421 158.261 161.752 162.016C158.168 165.685 155.352 169.995 153.304 174.944C151.256 179.893 150.232 185.227 150.232 190.944C150.232 196.405 151.128 201.568 152.92 206.432C154.797 211.296 157.443 215.563 160.856 219.232C164.355 222.901 168.536 225.803 173.4 227.936C178.264 229.984 183.683 231.008 189.656 231.008C194.093 231.008 198.147 230.411 201.816 229.216C205.571 227.936 208.899 226.357 211.8 224.48L214.744 229.984ZM241.548 236L279.948 141.152H280.46L318.86 236H311.82L278.412 151.136L282.764 148.704L247.82 236H241.548ZM260.108 200.032H300.428L302.22 205.92H258.572L260.108 200.032ZM371.475 145.12C380.264 145.12 387.048 146.955 391.827 150.624C396.691 154.208 399.123 160.053 399.123 168.16C399.123 172.171 398.355 175.84 396.819 179.168C395.283 182.496 392.979 185.227 389.907 187.36C386.92 189.493 383.166 190.859 378.643 191.456L378.003 188.384C382.696 188.725 386.963 189.92 390.803 191.968C394.728 193.931 397.843 196.619 400.147 200.032C402.536 203.36 403.731 207.285 403.731 211.808C403.731 215.904 402.92 219.488 401.299 222.56C399.763 225.547 397.63 228.064 394.899 230.112C392.254 232.075 389.224 233.568 385.811 234.592C382.398 235.531 378.814 236 375.059 236H351.379V145.12H371.475ZM374.419 187.616C380.904 187.616 385.555 185.867 388.371 182.368C391.272 178.869 392.723 174.517 392.723 169.312C392.723 162.827 390.803 158.176 386.963 155.36C383.208 152.544 378.131 151.136 371.731 151.136H357.651V187.616H374.419ZM374.803 230.24C378.899 230.24 382.654 229.6 386.067 228.32C389.48 226.955 392.211 224.907 394.259 222.176C396.307 219.445 397.331 216.075 397.331 212.064C397.331 207.627 396.179 204.085 393.875 201.44C391.571 198.709 388.67 196.747 385.171 195.552C381.672 194.272 378.088 193.632 374.419 193.632H357.651V230.24H374.803ZM438.399 145.12H494.463V151.136H444.671V187.232H489.471V193.248H444.671V229.984H496.255V236H438.399V145.12ZM531.669 145.12H537.941V229.984H587.733V236H531.669V145.12ZM620.314 145.12H626.586V229.984H676.378V236H620.314V145.12ZM702.449 190.688C702.449 184.288 703.644 178.315 706.033 172.768C708.422 167.136 711.75 162.187 716.017 157.92C720.284 153.568 725.19 150.197 730.737 147.808C736.369 145.333 742.385 144.096 748.785 144.096C755.185 144.096 761.201 145.333 766.833 147.808C772.465 150.197 777.414 153.568 781.681 157.92C785.948 162.187 789.276 167.136 791.665 172.768C794.14 178.315 795.377 184.288 795.377 190.688C795.377 197.088 794.14 203.104 791.665 208.736C789.276 214.283 785.948 219.189 781.681 223.456C777.414 227.723 772.465 231.051 766.833 233.44C761.201 235.829 755.185 237.024 748.785 237.024C742.385 237.024 736.369 235.872 730.737 233.568C725.19 231.264 720.284 228.021 716.017 223.84C711.75 219.659 708.422 214.752 706.033 209.12C703.644 203.488 702.449 197.344 702.449 190.688ZM708.849 190.816C708.849 196.363 709.873 201.568 711.921 206.432C713.969 211.296 716.828 215.563 720.497 219.232C724.166 222.901 728.39 225.803 733.169 227.936C738.033 229.984 743.196 231.008 748.657 231.008C754.289 231.008 759.537 229.984 764.401 227.936C769.265 225.803 773.532 222.901 777.201 219.232C780.87 215.563 783.729 211.296 785.777 206.432C787.91 201.568 788.977 196.32 788.977 190.688C788.977 185.141 787.91 179.936 785.777 175.072C783.729 170.123 780.87 165.813 777.201 162.144C773.532 158.389 769.265 155.445 764.401 153.312C759.537 151.179 754.332 150.112 748.785 150.112C743.153 150.112 737.905 151.221 733.041 153.44C728.177 155.573 723.91 158.517 720.241 162.272C716.657 166.027 713.841 170.379 711.793 175.328C709.83 180.192 708.849 185.355 708.849 190.816Z" fill="#9B1313"/>
<path d="M214.744 229.984L215.784 231.692L217.4 230.709L216.508 229.041L214.744 229.984ZM207.96 233.44L208.755 235.275L207.96 233.44ZM199.512 236L199.13 234.037L199.104 234.042L199.078 234.048L199.512 236ZM170.712 233.44L169.907 235.271L169.919 235.276L169.931 235.281L170.712 233.44ZM156.248 223.456L154.791 224.826L154.798 224.833L154.805 224.84L156.248 223.456ZM146.904 208.864L145.037 209.582L145.044 209.599L145.051 209.617L146.904 208.864ZM156.888 157.664L155.46 156.264H155.46L156.888 157.664ZM171.48 147.68L172.271 149.517L171.48 147.68ZM202.968 146.016L202.383 147.928L202.383 147.928L202.968 146.016ZM214.36 151.008L216.172 151.854L216.935 150.22L215.389 149.293L214.36 151.008ZM211.672 156.768L210.608 158.461L212.526 159.667L213.484 157.614L211.672 156.768ZM201.56 152.032L202.205 150.139L201.56 152.032ZM174.424 153.312L175.212 155.15L175.226 155.144L175.239 155.138L174.424 153.312ZM161.752 162.016L160.322 160.618L160.321 160.619L161.752 162.016ZM152.92 206.432L151.043 207.123L151.049 207.138L151.054 207.152L152.92 206.432ZM160.856 219.232L159.392 220.594L159.4 220.603L159.409 220.612L160.856 219.232ZM173.4 227.936L172.597 229.768L172.61 229.774L172.624 229.779L173.4 227.936ZM201.816 229.216L202.435 231.118L202.448 231.113L202.461 231.109L201.816 229.216ZM211.8 224.48L213.564 223.537L212.538 221.62L210.714 222.801L211.8 224.48ZM213.704 228.276C211.835 229.414 209.658 230.525 207.165 231.605L208.755 235.275C211.382 234.137 213.728 232.944 215.784 231.692L213.704 228.276ZM207.165 231.605C204.753 232.65 202.077 233.464 199.13 234.037L199.894 237.963C203.091 237.342 206.048 236.448 208.755 235.275L207.165 231.605ZM199.078 234.048C196.167 234.695 192.986 235.024 189.528 235.024V239.024C193.238 239.024 196.713 238.671 199.946 237.952L199.078 234.048ZM189.528 235.024C182.85 235.024 176.848 233.871 171.493 231.599L169.931 235.281C175.84 237.788 182.382 239.024 189.528 239.024V235.024ZM171.517 231.609C166.11 229.233 161.509 226.052 157.691 222.072L154.805 224.84C159.008 229.223 164.05 232.697 169.907 235.271L171.517 231.609ZM157.705 222.086C153.865 218 150.883 213.346 148.757 208.111L145.051 209.617C147.362 215.305 150.61 220.378 154.791 224.826L157.705 222.086ZM148.771 208.146C146.73 202.839 145.704 197.196 145.704 191.2H141.704C141.704 197.663 142.812 203.795 145.037 209.582L148.771 208.146ZM145.704 191.2C145.704 184.78 146.814 178.849 149.015 173.388L145.305 171.892C142.898 177.866 141.704 184.308 141.704 191.2H145.704ZM149.015 173.388C151.224 167.906 154.325 163.137 158.316 159.064L155.46 156.264C151.089 160.724 147.704 165.94 145.305 171.892L149.015 173.388ZM158.316 159.064C162.314 154.985 166.961 151.804 172.271 149.517L170.689 145.843C164.906 148.334 159.825 151.81 155.46 156.264L158.316 159.064ZM172.271 149.517C177.55 147.243 183.294 146.096 189.528 146.096V142.096C182.791 142.096 176.503 143.338 170.689 145.843L172.271 149.517ZM189.528 146.096C194.127 146.096 198.408 146.712 202.383 147.928L203.553 144.104C199.166 142.76 194.487 142.096 189.528 142.096V146.096ZM202.383 147.928C206.424 149.165 210.07 150.766 213.331 152.723L215.389 149.293C211.823 147.154 207.875 145.427 203.553 144.104L202.383 147.928ZM212.548 150.162L209.86 155.922L213.484 157.614L216.172 151.854L212.548 150.162ZM212.736 155.075C209.603 153.105 206.089 151.463 202.205 150.139L200.915 153.925C204.54 155.161 207.768 156.676 210.608 158.461L212.736 155.075ZM202.205 150.139C198.232 148.784 194.045 148.112 189.656 148.112V152.112C193.63 152.112 197.379 152.72 200.915 153.925L202.205 150.139ZM189.656 148.112C184.007 148.112 178.651 149.235 173.609 151.486L175.239 155.138C179.754 153.123 184.553 152.112 189.656 152.112V148.112ZM173.636 151.474C168.614 153.626 164.172 156.678 160.322 160.618L163.182 163.414C166.67 159.845 170.677 157.094 175.212 155.15L173.636 151.474ZM160.321 160.619C156.551 164.478 153.597 169.005 151.456 174.179L155.152 175.709C157.107 170.984 159.785 166.892 163.183 163.413L160.321 160.619ZM151.456 174.179C149.301 179.387 148.232 184.982 148.232 190.944H152.232C152.232 185.471 153.211 180.4 155.152 175.709L151.456 174.179ZM148.232 190.944C148.232 196.629 149.165 202.026 151.043 207.123L154.797 205.741C153.091 201.11 152.232 196.182 152.232 190.944H148.232ZM151.054 207.152C153.019 212.244 155.798 216.731 159.392 220.594L162.32 217.87C159.088 214.394 156.575 210.348 154.786 205.712L151.054 207.152ZM159.409 220.612C163.099 224.482 167.502 227.533 172.597 229.768L174.203 226.104C169.57 224.072 165.611 221.32 162.303 217.852L159.409 220.612ZM172.624 229.779C177.764 231.943 183.451 233.008 189.656 233.008V229.008C183.914 229.008 178.764 228.025 174.176 226.093L172.624 229.779ZM189.656 233.008C194.273 233.008 198.538 232.386 202.435 231.118L201.197 227.314C197.755 228.435 193.914 229.008 189.656 229.008V233.008ZM202.461 231.109C206.349 229.784 209.829 228.138 212.887 226.159L210.714 222.801C207.968 224.577 204.792 226.088 201.171 227.323L202.461 231.109ZM210.036 225.423L212.98 230.927L216.508 229.041L213.564 223.537L210.036 225.423ZM241.548 236L239.694 235.249L238.581 238H241.548V236ZM279.948 141.152V139.152H278.6L278.094 140.401L279.948 141.152ZM280.46 141.152L282.314 140.401L281.808 139.152H280.46V141.152ZM318.86 236V238H321.827L320.714 235.249L318.86 236ZM311.82 236L309.959 236.733L310.458 238H311.82V236ZM278.412 151.136L277.436 149.39L275.911 150.243L276.551 151.869L278.412 151.136ZM282.764 148.704L284.621 149.447L286.72 144.202L281.788 146.958L282.764 148.704ZM247.82 236V238H249.174L249.677 236.743L247.82 236ZM260.108 200.032V198.032H258.563L258.173 199.527L260.108 200.032ZM300.428 200.032L302.341 199.45L301.91 198.032H300.428V200.032ZM302.22 205.92V207.92H304.919L304.133 205.338L302.22 205.92ZM258.572 205.92L256.637 205.415L255.983 207.92H258.572V205.92ZM243.402 236.751L281.802 141.903L278.094 140.401L239.694 235.249L243.402 236.751ZM279.948 143.152H280.46V139.152H279.948V143.152ZM278.606 141.903L317.006 236.751L320.714 235.249L282.314 140.401L278.606 141.903ZM318.86 234H311.82V238H318.86V234ZM313.681 235.267L280.273 150.403L276.551 151.869L309.959 236.733L313.681 235.267ZM279.388 152.882L283.74 150.45L281.788 146.958L277.436 149.39L279.388 152.882ZM280.907 147.961L245.963 235.257L249.677 236.743L284.621 149.447L280.907 147.961ZM247.82 234H241.548V238H247.82V234ZM260.108 202.032H300.428V198.032H260.108V202.032ZM298.515 200.614L300.307 206.502L304.133 205.338L302.341 199.45L298.515 200.614ZM302.22 203.92H258.572V207.92H302.22V203.92ZM260.507 206.425L262.043 200.537L258.173 199.527L256.637 205.415L260.507 206.425ZM391.827 150.624L390.609 152.21L390.625 152.222L390.641 152.234L391.827 150.624ZM396.819 179.168L395.003 178.33L396.819 179.168ZM389.907 187.36L388.766 185.717L388.755 185.725L388.745 185.733L389.907 187.36ZM378.643 191.456L376.685 191.864L377.064 193.682L378.905 193.439L378.643 191.456ZM378.003 188.384L378.148 186.389L375.504 186.197L376.045 188.792L378.003 188.384ZM390.803 191.968L389.862 193.733L389.885 193.745L389.909 193.757L390.803 191.968ZM400.147 200.032L398.489 201.151L398.505 201.175L398.522 201.198L400.147 200.032ZM401.299 222.56L399.53 221.626L399.525 221.636L399.52 221.645L401.299 222.56ZM394.899 230.112L396.091 231.718L396.099 231.712L394.899 230.112ZM385.811 234.592L386.341 236.52L386.364 236.514L386.386 236.508L385.811 234.592ZM351.379 236H349.379V238H351.379V236ZM351.379 145.12V143.12H349.379V145.12H351.379ZM388.371 182.368L386.831 181.091L386.822 181.103L386.813 181.114L388.371 182.368ZM386.963 155.36L385.763 156.96L385.772 156.966L385.78 156.973L386.963 155.36ZM357.651 151.136V149.136H355.651V151.136H357.651ZM357.651 187.616H355.651V189.616H357.651V187.616ZM386.067 228.32L386.769 230.193L386.79 230.185L386.81 230.177L386.067 228.32ZM394.259 222.176L392.659 220.976L394.259 222.176ZM393.875 201.44L392.346 202.73L392.357 202.742L392.367 202.754L393.875 201.44ZM385.171 195.552L384.484 197.43L384.504 197.438L384.525 197.445L385.171 195.552ZM357.651 193.632V191.632H355.651V193.632H357.651ZM357.651 230.24H355.651V232.24H357.651V230.24ZM371.475 147.12C380.019 147.12 386.308 148.908 390.609 152.21L393.045 149.038C387.789 145.002 380.51 143.12 371.475 143.12V147.12ZM390.641 152.234C394.829 155.32 397.123 160.453 397.123 168.16H401.123C401.123 159.654 398.553 153.096 393.013 149.014L390.641 152.234ZM397.123 168.16C397.123 171.909 396.407 175.289 395.003 178.33L398.635 180.006C400.303 176.391 401.123 172.432 401.123 168.16H397.123ZM395.003 178.33C393.62 181.327 391.552 183.783 388.766 185.717L391.048 189.003C394.406 186.67 396.946 183.665 398.635 180.006L395.003 178.33ZM388.745 185.733C386.082 187.635 382.657 188.909 378.381 189.473L378.905 193.439C383.675 192.809 387.759 191.352 391.069 188.987L388.745 185.733ZM380.601 191.048L379.961 187.976L376.045 188.792L376.685 191.864L380.601 191.048ZM377.858 190.379C382.296 190.701 386.288 191.827 389.862 193.733L391.744 190.203C387.638 188.013 383.097 186.749 378.148 186.389L377.858 190.379ZM389.909 193.757C393.547 195.576 396.391 198.042 398.489 201.151L401.805 198.913C399.296 195.196 395.91 192.285 391.697 190.179L389.909 193.757ZM398.522 201.198C400.642 204.151 401.731 207.658 401.731 211.808H405.731C405.731 206.912 404.43 202.569 401.772 198.866L398.522 201.198ZM401.731 211.808C401.731 215.637 400.975 218.89 399.53 221.626L403.068 223.494C404.866 220.086 405.731 216.171 405.731 211.808H401.731ZM399.52 221.645C398.125 224.358 396.192 226.643 393.699 228.512L396.099 231.712C399.068 229.485 401.401 226.735 403.078 223.475L399.52 221.645ZM393.707 228.506C391.263 230.319 388.446 231.713 385.236 232.676L386.386 236.508C390.003 235.423 393.245 233.83 396.091 231.718L393.707 228.506ZM385.281 232.664C382.05 233.552 378.645 234 375.059 234V238C378.982 238 382.745 237.509 386.341 236.52L385.281 232.664ZM375.059 234H351.379V238H375.059V234ZM353.379 236V145.12H349.379V236H353.379ZM351.379 147.12H371.475V143.12H351.379V147.12ZM374.419 189.616C381.23 189.616 386.587 187.774 389.929 183.622L386.813 181.114C384.523 183.959 380.578 185.616 374.419 185.616V189.616ZM389.911 183.645C393.152 179.736 394.723 174.912 394.723 169.312H390.723C390.723 174.123 389.393 178.003 386.831 181.091L389.911 183.645ZM394.723 169.312C394.723 162.439 392.672 157.066 388.146 153.747L385.78 156.973C388.934 159.286 390.723 163.215 390.723 169.312H394.723ZM388.163 153.76C383.956 150.605 378.409 149.136 371.731 149.136V153.136C377.853 153.136 382.461 154.483 385.763 156.96L388.163 153.76ZM371.731 149.136H357.651V153.136H371.731V149.136ZM355.651 151.136V187.616H359.651V151.136H355.651ZM357.651 189.616H374.419V185.616H357.651V189.616ZM374.803 232.24C379.109 232.24 383.105 231.567 386.769 230.193L385.365 226.447C382.202 227.633 378.689 228.24 374.803 228.24V232.24ZM386.81 230.177C390.536 228.686 393.574 226.423 395.859 223.376L392.659 220.976C390.848 223.391 388.424 225.223 385.324 226.463L386.81 230.177ZM395.859 223.376C398.21 220.241 399.331 216.429 399.331 212.064H395.331C395.331 215.72 394.404 218.649 392.659 220.976L395.859 223.376ZM399.331 212.064C399.331 207.276 398.081 203.224 395.383 200.126L392.367 202.754C394.277 204.946 395.331 207.978 395.331 212.064H399.331ZM395.404 200.15C392.857 197.132 389.647 194.967 385.817 193.659L384.525 197.445C387.693 198.526 390.285 200.286 392.346 202.73L395.404 200.15ZM385.858 193.674C382.143 192.314 378.326 191.632 374.419 191.632V195.632C377.85 195.632 381.202 196.23 384.484 197.43L385.858 193.674ZM374.419 191.632H357.651V195.632H374.419V191.632ZM355.651 193.632V230.24H359.651V193.632H355.651ZM357.651 232.24H374.803V228.24H357.651V232.24ZM438.399 145.12V143.12H436.399V145.12H438.399ZM494.463 145.12H496.463V143.12H494.463V145.12ZM494.463 151.136V153.136H496.463V151.136H494.463ZM444.671 151.136V149.136H442.671V151.136H444.671ZM444.671 187.232H442.671V189.232H444.671V187.232ZM489.471 187.232H491.471V185.232H489.471V187.232ZM489.471 193.248V195.248H491.471V193.248H489.471ZM444.671 193.248V191.248H442.671V193.248H444.671ZM444.671 229.984H442.671V231.984H444.671V229.984ZM496.255 229.984H498.255V227.984H496.255V229.984ZM496.255 236V238H498.255V236H496.255ZM438.399 236H436.399V238H438.399V236ZM438.399 147.12H494.463V143.12H438.399V147.12ZM492.463 145.12V151.136H496.463V145.12H492.463ZM494.463 149.136H444.671V153.136H494.463V149.136ZM442.671 151.136V187.232H446.671V151.136H442.671ZM444.671 189.232H489.471V185.232H444.671V189.232ZM487.471 187.232V193.248H491.471V187.232H487.471ZM489.471 191.248H444.671V195.248H489.471V191.248ZM442.671 193.248V229.984H446.671V193.248H442.671ZM444.671 231.984H496.255V227.984H444.671V231.984ZM494.255 229.984V236H498.255V229.984H494.255ZM496.255 234H438.399V238H496.255V234ZM440.399 236V145.12H436.399V236H440.399ZM531.669 145.12V143.12H529.669V145.12H531.669ZM537.941 145.12H539.941V143.12H537.941V145.12ZM537.941 229.984H535.941V231.984H537.941V229.984ZM587.733 229.984H589.733V227.984H587.733V229.984ZM587.733 236V238H589.733V236H587.733ZM531.669 236H529.669V238H531.669V236ZM531.669 147.12H537.941V143.12H531.669V147.12ZM535.941 145.12V229.984H539.941V145.12H535.941ZM537.941 231.984H587.733V227.984H537.941V231.984ZM585.733 229.984V236H589.733V229.984H585.733ZM587.733 234H531.669V238H587.733V234ZM533.669 236V145.12H529.669V236H533.669ZM620.314 145.12V143.12H618.314V145.12H620.314ZM626.586 145.12H628.586V143.12H626.586V145.12ZM626.586 229.984H624.586V231.984H626.586V229.984ZM676.378 229.984H678.378V227.984H676.378V229.984ZM676.378 236V238H678.378V236H676.378ZM620.314 236H618.314V238H620.314V236ZM620.314 147.12H626.586V143.12H620.314V147.12ZM624.586 145.12V229.984H628.586V145.12H624.586ZM626.586 231.984H676.378V227.984H626.586V231.984ZM674.378 229.984V236H678.378V229.984H674.378ZM676.378 234H620.314V238H676.378V234ZM622.314 236V145.12H618.314V236H622.314ZM706.033 172.768L707.87 173.559L707.874 173.549L706.033 172.768ZM716.017 157.92L717.431 159.334L717.438 159.327L717.445 159.32L716.017 157.92ZM730.737 147.808L731.528 149.645L731.535 149.642L731.542 149.639L730.737 147.808ZM766.833 147.808L766.028 149.639L766.04 149.644L766.052 149.649L766.833 147.808ZM781.681 157.92L780.253 159.32L780.26 159.327L780.267 159.334L781.681 157.92ZM791.665 172.768L789.824 173.549L789.831 173.566L789.839 173.583L791.665 172.768ZM791.665 208.736L789.834 207.931L789.831 207.938L789.828 207.945L791.665 208.736ZM781.681 223.456L780.267 222.042L781.681 223.456ZM766.833 233.44L767.614 235.281L766.833 233.44ZM730.737 233.568L729.97 235.415L729.98 235.419L730.737 233.568ZM716.017 223.84L717.417 222.412L716.017 223.84ZM706.033 209.12L704.192 209.901L706.033 209.12ZM711.921 206.432L710.078 207.208L711.921 206.432ZM720.497 219.232L721.911 217.818L720.497 219.232ZM733.169 227.936L732.354 229.762L732.373 229.771L732.393 229.779L733.169 227.936ZM764.401 227.936L765.177 229.779L765.191 229.774L765.204 229.768L764.401 227.936ZM777.201 219.232L775.787 217.818L777.201 219.232ZM785.777 206.432L783.945 205.629L783.939 205.642L783.934 205.656L785.777 206.432ZM785.777 175.072L783.929 175.837L783.937 175.856L783.945 175.875L785.777 175.072ZM777.201 162.144L775.771 163.542L775.779 163.55L775.787 163.558L777.201 162.144ZM764.401 153.312L765.204 151.48L764.401 153.312ZM733.041 153.44L733.844 155.272L733.858 155.266L733.871 155.26L733.041 153.44ZM720.241 162.272L718.811 160.874L718.802 160.883L718.794 160.891L720.241 162.272ZM711.793 175.328L709.945 174.563L709.942 174.571L709.938 174.58L711.793 175.328ZM704.449 190.688C704.449 184.544 705.594 178.841 707.87 173.559L704.196 171.977C701.693 177.788 700.449 184.032 700.449 190.688H704.449ZM707.874 173.549C710.165 168.15 713.349 163.417 717.431 159.334L714.603 156.506C710.152 160.957 706.68 166.122 704.192 171.987L707.874 173.549ZM717.445 159.32C721.532 155.152 726.222 151.93 731.528 149.645L729.946 145.971C724.158 148.464 719.036 151.984 714.589 156.52L717.445 159.32ZM731.542 149.639C736.91 147.28 742.651 146.096 748.785 146.096V142.096C742.119 142.096 735.828 143.386 729.932 145.977L731.542 149.639ZM748.785 146.096C754.919 146.096 760.66 147.28 766.028 149.639L767.638 145.977C761.742 143.386 755.451 142.096 748.785 142.096V146.096ZM766.052 149.649C771.442 151.936 776.171 155.157 780.253 159.32L783.109 156.52C778.657 151.979 773.488 148.459 767.614 145.967L766.052 149.649ZM780.267 159.334C784.349 163.417 787.533 168.15 789.824 173.549L793.506 171.987C791.018 166.122 787.546 160.957 783.095 156.506L780.267 159.334ZM789.839 173.583C792.193 178.859 793.377 184.553 793.377 190.688H797.377C797.377 184.023 796.087 177.77 793.491 171.953L789.839 173.583ZM793.377 190.688C793.377 196.822 792.193 202.563 789.834 207.931L793.496 209.541C796.087 203.645 797.377 197.354 797.377 190.688H793.377ZM789.828 207.945C787.539 213.259 784.354 217.954 780.267 222.042L783.095 224.87C787.541 220.424 791.012 215.306 793.502 209.527L789.828 207.945ZM780.267 222.042C776.184 226.124 771.451 229.308 766.052 231.599L767.614 235.281C773.479 232.793 778.644 229.321 783.095 224.87L780.267 222.042ZM766.052 231.599C760.678 233.879 754.929 235.024 748.785 235.024V239.024C755.441 239.024 761.724 237.78 767.614 235.281L766.052 231.599ZM748.785 235.024C742.631 235.024 736.874 233.918 731.494 231.717L729.98 235.419C735.864 237.826 742.139 239.024 748.785 239.024V235.024ZM731.504 231.721C726.192 229.514 721.5 226.413 717.417 222.412L714.617 225.268C719.067 229.629 724.189 233.014 729.97 235.415L731.504 231.721ZM717.417 222.412C713.343 218.419 710.163 213.734 707.874 208.339L704.192 209.901C706.682 215.77 710.158 220.898 714.617 225.268L717.417 222.412ZM707.874 208.339C705.599 202.975 704.449 197.099 704.449 190.688H700.449C700.449 197.589 701.689 204.001 704.192 209.901L707.874 208.339ZM706.849 190.816C706.849 196.615 707.921 202.086 710.078 207.208L713.764 205.656C711.825 201.05 710.849 196.11 710.849 190.816H706.849ZM710.078 207.208C712.224 212.306 715.227 216.791 719.083 220.646L721.911 217.818C718.428 214.335 715.714 210.286 713.764 205.656L710.078 207.208ZM719.083 220.646C722.926 224.49 727.354 227.53 732.354 229.762L733.984 226.11C729.427 224.075 725.406 221.313 721.911 217.818L719.083 220.646ZM732.393 229.779C737.511 231.934 742.939 233.008 748.657 233.008V229.008C743.453 229.008 738.555 228.034 733.945 226.093L732.393 229.779ZM748.657 233.008C754.537 233.008 760.051 231.938 765.177 229.779L763.625 226.093C759.023 228.03 754.041 229.008 748.657 229.008V233.008ZM765.204 229.768C770.291 227.537 774.766 224.496 778.615 220.646L775.787 217.818C772.298 221.307 768.239 224.069 763.598 226.104L765.204 229.768ZM778.615 220.646C782.471 216.791 785.474 212.306 787.62 207.208L783.934 205.656C781.984 210.286 779.27 214.335 775.787 217.818L778.615 220.646ZM787.609 207.235C789.86 202.103 790.977 196.58 790.977 190.688H786.977C786.977 196.06 785.961 201.033 783.945 205.629L787.609 207.235ZM790.977 190.688C790.977 184.877 789.858 179.397 787.609 174.269L783.945 175.875C785.963 180.475 786.977 185.405 786.977 190.688H790.977ZM787.625 174.307C785.48 169.123 782.476 164.591 778.615 160.73L775.787 163.558C779.264 167.036 781.978 171.122 783.929 175.837L787.625 174.307ZM778.631 160.746C774.781 156.806 770.3 153.716 765.204 151.48L763.598 155.144C768.23 157.175 772.283 159.973 775.771 163.542L778.631 160.746ZM765.204 151.48C760.076 149.231 754.596 148.112 748.785 148.112V152.112C754.068 152.112 758.998 153.126 763.598 155.144L765.204 151.48ZM748.785 148.112C742.882 148.112 737.349 149.277 732.211 151.62L733.871 155.26C738.461 153.166 743.424 152.112 748.785 152.112V148.112ZM732.238 151.608C727.142 153.844 722.661 156.934 718.811 160.874L721.671 163.67C725.159 160.101 729.212 157.303 733.844 155.272L732.238 151.608ZM718.794 160.891C715.034 164.83 712.084 169.393 709.945 174.563L713.641 176.093C715.598 171.364 718.28 167.223 721.688 163.653L718.794 160.891ZM709.938 174.58C707.876 179.691 706.849 185.109 706.849 190.816H710.849C710.849 185.6 711.785 180.693 713.648 176.076L709.938 174.58Z" fill="#9B1313" mask="url(#path-3-outside-2_27_45)"/>
</svg>
